<svg width="16" height="15" viewBox="0 0 16 15" fill="none" xmlns="http://www.w3.org/2000/svg">
<mask id="path-1-outside-1" maskUnits="userSpaceOnUse" x="0" y="0" width="16" height="15" fill="black">
<rect fill="white" width="16" height="15"/>
<path fill-rule="evenodd" clip-rule="evenodd" d="M5.04688 1.01321C5.04688 1.02048 5.01611 1.02642 4.97852 1.02642C4.94092 1.02642 4.91016 1.03237 4.91016 1.03963C4.91016 1.0469 4.88555 1.05285 4.85547 1.05285C4.82539 1.05285 4.80078 1.05879 4.80078 1.06606C4.80078 1.07332 4.78232 1.07927 4.75977 1.07927C4.73721 1.07927 4.71875 1.08521 4.71875 1.09248C4.71875 1.09975 4.70645 1.10569 4.69141 1.10569C4.67637 1.10569 4.66406 1.11164 4.66406 1.1189C4.66406 1.12617 4.64561 1.13211 4.62305 1.13211C4.60049 1.13211 4.58203 1.13806 4.58203 1.14533C4.58203 1.15259 4.56973 1.15854 4.55469 1.15854C4.53965 1.15854 4.52734 1.16448 4.52734 1.17175C4.52734 1.17901 4.51639 1.18496 4.50302 1.18496C4.48964 1.18496 4.46983 1.19685 4.45898 1.21138C4.44814 1.22591 4.42833 1.2378 4.41495 1.2378C4.40158 1.2378 4.39062 1.24375 4.39062 1.25102C4.39062 1.25828 4.37967 1.26423 4.3663 1.26423C4.35292 1.26423 4.33311 1.27612 4.32227 1.29065C4.31142 1.30518 4.29421 1.31707 4.284 1.31707C4.27379 1.31707 4.24179 1.34085 4.21289 1.36992C4.18399 1.39898 4.1536 1.42276 4.14535 1.42276C4.1258 1.42276 3.95312 1.58962 3.95312 1.60852C3.95312 1.61648 3.92852 1.64585 3.89844 1.67378C3.86836 1.70171 3.84375 1.73262 3.84375 1.74249C3.84375 1.75236 3.83145 1.76899 3.81641 1.77947C3.80137 1.78995 3.78906 1.80909 3.78906 1.82203C3.78906 1.83495 3.78291 1.84553 3.77539 1.84553C3.76787 1.84553 3.76172 1.85611 3.76172 1.86903C3.76172 1.88197 3.74941 1.90111 3.73438 1.91159C3.71832 1.92278 3.70703 1.94579 3.70703 1.96735C3.70703 1.98754 3.70088 2.00407 3.69336 2.00407C3.68584 2.00407 3.67969 2.01596 3.67969 2.03049C3.67969 2.04502 3.67354 2.05691 3.66602 2.05691C3.6585 2.05691 3.65234 2.0688 3.65234 2.08333C3.65234 2.09787 3.64619 2.10976 3.63867 2.10976C3.63115 2.10976 3.625 2.12759 3.625 2.14939C3.625 2.17119 3.61885 2.18902 3.61133 2.18902C3.60381 2.18902 3.59766 2.20686 3.59766 2.22866C3.59766 2.25046 3.5915 2.26829 3.58398 2.26829C3.57646 2.26829 3.57031 2.29207 3.57031 2.32114C3.57031 2.3502 3.56416 2.37398 3.55664 2.37398C3.54904 2.37398 3.54297 2.40922 3.54297 2.45325C3.54297 2.49729 3.5369 2.53252 3.5293 2.53252C3.52072 2.53252 3.51562 2.61619 3.51562 2.75711C3.51562 2.89804 3.52072 2.98171 3.5293 2.98171C3.5369 2.98171 3.54297 3.01694 3.54297 3.06098C3.54297 3.10501 3.54904 3.14024 3.55664 3.14024C3.56416 3.14024 3.57031 3.16402 3.57031 3.19309C3.57031 3.22215 3.57646 3.24593 3.58398 3.24593C3.5915 3.24593 3.59766 3.26377 3.59766 3.28557C3.59766 3.30737 3.60381 3.3252 3.61133 3.3252C3.61885 3.3252 3.625 3.34304 3.625 3.36484C3.625 3.38664 3.63115 3.40447 3.63867 3.40447C3.64619 3.40447 3.65234 3.41636 3.65234 3.43089C3.65234 3.44543 3.6585 3.45732 3.66602 3.45732C3.67354 3.45732 3.67969 3.46921 3.67969 3.48374C3.67969 3.49827 3.68584 3.51016 3.69336 3.51016C3.70088 3.51016 3.70703 3.52205 3.70703 3.53659C3.70703 3.55112 3.71318 3.56301 3.7207 3.56301C3.72822 3.56301 3.73438 3.56895 3.73438 3.57622C3.73438 3.58493 3.32877 3.58943 2.54492 3.58943C1.76107 3.58943 1.35547 3.59394 1.35547 3.60264C1.35547 3.60991 1.33837 3.61585 1.31747 3.61585C1.29516 3.61585 1.27135 3.62677 1.25977 3.64228C1.24892 3.65681 1.23203 3.6687 1.22221 3.6687C1.19898 3.6687 1.08203 3.78171 1.08203 3.80416C1.08203 3.81364 1.06973 3.82997 1.05469 3.84045C1.03864 3.85164 1.02734 3.87465 1.02734 3.89621C1.02734 3.9164 1.02119 3.93293 1.01367 3.93293C1.00463 3.93293 1 4.48341 1 5.55793C1 6.63245 1.00463 7.18293 1.01367 7.18293C1.02119 7.18293 1.02734 7.20076 1.02734 7.22256C1.02734 7.24436 1.0335 7.2622 1.04102 7.2622C1.04854 7.2622 1.05469 7.27409 1.05469 7.28862C1.05469 7.30315 1.06084 7.31504 1.06836 7.31504C1.07588 7.31504 1.08203 7.32412 1.08203 7.3352C1.08203 7.36143 1.19809 7.47358 1.22523 7.47358C1.2367 7.47358 1.24609 7.47952 1.24609 7.48679C1.24609 7.49406 1.2584 7.5 1.27344 7.5C1.28848 7.5 1.30078 7.50595 1.30078 7.51321C1.30078 7.52048 1.32539 7.52642 1.35547 7.52642C1.38555 7.52642 1.41016 7.53237 1.41016 7.53963C1.41016 7.54796 1.50131 7.55285 1.65625 7.55285H1.90234V10.6179C1.90234 12.6524 1.90694 13.6829 1.91602 13.6829C1.92354 13.6829 1.92969 13.6948 1.92969 13.7093C1.92969 13.7239 1.93584 13.7358 1.94336 13.7358C1.95088 13.7358 1.95703 13.7464 1.95703 13.7593C1.95703 13.7722 1.96934 13.7914 1.98438 13.8018C1.99941 13.8123 2.01172 13.8288 2.01172 13.8384C2.01172 13.8625 2.07413 13.9207 2.09997 13.9207C2.11159 13.9207 2.12109 13.9267 2.12109 13.9339C2.12109 13.9412 2.1334 13.9472 2.14844 13.9472C2.16348 13.9472 2.17578 13.9531 2.17578 13.9604C2.17578 13.9676 2.18809 13.9736 2.20312 13.9736C2.21816 13.9736 2.23047 13.9795 2.23047 13.9868C2.23047 13.9956 4.16276 14 8 14C11.8372 14 13.7695 13.9956 13.7695 13.9868C13.7695 13.9795 13.788 13.9736 13.8105 13.9736C13.8331 13.9736 13.8516 13.9676 13.8516 13.9604C13.8516 13.9531 13.8609 13.9472 13.8724 13.9472C13.8994 13.9472 14.043 13.8085 14.043 13.7823C14.043 13.7712 14.0491 13.7622 14.0566 13.7622C14.0642 13.7622 14.0703 13.7503 14.0703 13.7358C14.0703 13.7212 14.0765 13.7093 14.084 13.7093C14.0915 13.7093 14.0977 13.6915 14.0977 13.6697C14.0977 13.6479 14.1038 13.6301 14.1113 13.6301C14.1204 13.6301 14.125 12.6084 14.125 10.5915V7.55285H14.3574C14.5033 7.55285 14.5898 7.54792 14.5898 7.53963C14.5898 7.53237 14.6145 7.52642 14.6445 7.52642C14.6746 7.52642 14.6992 7.52048 14.6992 7.51321C14.6992 7.50595 14.7115 7.5 14.7266 7.5C14.7416 7.5 14.7539 7.49406 14.7539 7.48679C14.7539 7.47952 14.7633 7.47358 14.7748 7.47358C14.8019 7.47358 14.918 7.36143 14.918 7.3352C14.918 7.32412 14.9241 7.31504 14.9316 7.31504C14.9392 7.31504 14.9453 7.30315 14.9453 7.28862C14.9453 7.27409 14.9515 7.2622 14.959 7.2622C14.9665 7.2622 14.9727 7.24436 14.9727 7.22256C14.9727 7.20076 14.9788 7.18293 14.9863 7.18293C14.9954 7.18293 15 6.63245 15 5.55793C15 4.48341 14.9954 3.93293 14.9863 3.93293C14.9788 3.93293 14.9727 3.9164 14.9727 3.89621C14.9727 3.87465 14.9614 3.85164 14.9453 3.84045C14.9303 3.82997 14.918 3.81364 14.918 3.80416C14.918 3.78171 14.801 3.6687 14.7778 3.6687C14.768 3.6687 14.7511 3.65681 14.7402 3.64228C14.7287 3.62677 14.7048 3.61585 14.6825 3.61585C14.6616 3.61585 14.6445 3.60991 14.6445 3.60264C14.6445 3.59394 14.2435 3.58943 13.4688 3.58943C12.3021 3.58943 12.293 3.58922 12.293 3.56301C12.293 3.54848 12.2991 3.53659 12.3066 3.53659C12.3142 3.53659 12.3203 3.5247 12.3203 3.51016C12.3203 3.49563 12.3265 3.48374 12.334 3.48374C12.3415 3.48374 12.3477 3.47185 12.3477 3.45732C12.3477 3.44278 12.3538 3.43089 12.3613 3.43089C12.3688 3.43089 12.375 3.419 12.375 3.40447C12.375 3.38994 12.3812 3.37805 12.3887 3.37805C12.3962 3.37805 12.4023 3.36021 12.4023 3.33841C12.4023 3.31662 12.4085 3.29878 12.416 3.29878C12.4235 3.29878 12.4297 3.275 12.4297 3.24593C12.4297 3.21687 12.4358 3.19309 12.4434 3.19309C12.4509 3.19309 12.457 3.16931 12.457 3.14024C12.457 3.11118 12.4632 3.0874 12.4707 3.0874C12.4787 3.0874 12.4844 3.04337 12.4844 2.98171C12.4844 2.92005 12.4901 2.87602 12.498 2.87602C12.5062 2.87602 12.5117 2.82757 12.5117 2.75711C12.5117 2.68666 12.5062 2.63821 12.498 2.63821C12.4901 2.63821 12.4844 2.59418 12.4844 2.53252C12.4844 2.47086 12.4787 2.42683 12.4707 2.42683C12.4632 2.42683 12.457 2.40305 12.457 2.37398C12.457 2.34492 12.4509 2.32114 12.4434 2.32114C12.4358 2.32114 12.4297 2.29736 12.4297 2.26829C12.4297 2.23923 12.4235 2.21545 12.416 2.21545C12.4085 2.21545 12.4023 2.19761 12.4023 2.17581C12.4023 2.15401 12.3962 2.13618 12.3887 2.13618C12.3812 2.13618 12.375 2.12429 12.375 2.10976C12.375 2.09522 12.3688 2.08333 12.3613 2.08333C12.3538 2.08333 12.3477 2.0655 12.3477 2.0437C12.3477 2.0219 12.3415 2.00407 12.334 2.00407C12.3265 2.00407 12.3203 1.99217 12.3203 1.97764C12.3203 1.96311 12.3142 1.95122 12.3066 1.95122C12.2991 1.95122 12.293 1.94064 12.293 1.92772C12.293 1.91478 12.2807 1.89564 12.2656 1.88516C12.2506 1.87469 12.2383 1.85554 12.2383 1.84261C12.2383 1.82969 12.2321 1.81911 12.2246 1.81911C12.2171 1.81911 12.2109 1.80961 12.2109 1.79798C12.2109 1.78637 12.1925 1.7602 12.1699 1.73984C12.1474 1.71948 12.1289 1.69623 12.1289 1.68817C12.1289 1.66757 11.7912 1.3435 11.7698 1.3435C11.7601 1.3435 11.7433 1.33161 11.7324 1.31707C11.7216 1.30254 11.7031 1.29065 11.6914 1.29065C11.6797 1.29065 11.6612 1.27876 11.6504 1.26423C11.6395 1.2497 11.6197 1.2378 11.6064 1.2378C11.593 1.2378 11.582 1.23186 11.582 1.22459C11.582 1.21733 11.5697 1.21138 11.5547 1.21138C11.5396 1.21138 11.5273 1.20544 11.5273 1.19817C11.5273 1.1909 11.515 1.18496 11.5 1.18496C11.485 1.18496 11.4727 1.17901 11.4727 1.17175C11.4727 1.16448 11.4604 1.15854 11.4453 1.15854C11.4303 1.15854 11.418 1.15259 11.418 1.14533C11.418 1.13806 11.4057 1.13211 11.3906 1.13211C11.3756 1.13211 11.3633 1.12617 11.3633 1.1189C11.3633 1.11164 11.3448 1.10569 11.3223 1.10569C11.2997 1.10569 11.2812 1.09975 11.2812 1.09248C11.2812 1.08521 11.2628 1.07927 11.2402 1.07927C11.2177 1.07927 11.1992 1.07332 11.1992 1.06606C11.1992 1.05879 11.1746 1.05285 11.1445 1.05285C11.1145 1.05285 11.0898 1.0469 11.0898 1.03963C11.0898 1.03237 11.0591 1.02642 11.0215 1.02642C10.9839 1.02642 10.9531 1.02048 10.9531 1.01321C10.9531 1.00481 10.8438 1 10.6523 1C10.4609 1 10.3516 1.00481 10.3516 1.01321C10.3516 1.02056 10.3151 1.02642 10.2695 1.02642C10.224 1.02642 10.1875 1.03229 10.1875 1.03963C10.1875 1.0469 10.1567 1.05285 10.1191 1.05285C10.0815 1.05285 10.0508 1.05879 10.0508 1.06606C10.0508 1.07332 10.0262 1.07927 9.99609 1.07927C9.96602 1.07927 9.94141 1.08521 9.94141 1.09248C9.94141 1.09975 9.92295 1.10569 9.90039 1.10569C9.87783 1.10569 9.85938 1.11164 9.85938 1.1189C9.85938 1.12617 9.84707 1.13211 9.83203 1.13211C9.81699 1.13211 9.80469 1.13806 9.80469 1.14533C9.80469 1.15259 9.78623 1.15854 9.76367 1.15854C9.74111 1.15854 9.72266 1.16448 9.72266 1.17175C9.72266 1.17901 9.71035 1.18496 9.69531 1.18496C9.68027 1.18496 9.66797 1.1909 9.66797 1.19817C9.66797 1.20544 9.64951 1.21138 9.62695 1.21138C9.60439 1.21138 9.58594 1.21733 9.58594 1.22459C9.58594 1.23186 9.57499 1.2378 9.56161 1.2378C9.54823 1.2378 9.52842 1.2497 9.51758 1.26423C9.50674 1.27876 9.48693 1.29065 9.47354 1.29065C9.46017 1.29065 9.44922 1.2966 9.44922 1.30386C9.44922 1.31113 9.43691 1.31707 9.42188 1.31707C9.40684 1.31707 9.39453 1.32302 9.39453 1.33028C9.39453 1.33755 9.38358 1.3435 9.37021 1.3435C9.35682 1.3435 9.33701 1.35539 9.32617 1.36992C9.31533 1.38445 9.29687 1.39634 9.28516 1.39634C9.27344 1.39634 9.25498 1.40823 9.24414 1.42276C9.2333 1.4373 9.21595 1.44919 9.20559 1.44919C9.19524 1.44919 9.16951 1.46702 9.14844 1.48882C9.12737 1.51062 9.10288 1.52846 9.09402 1.52846C9.08518 1.52846 9.05429 1.55224 9.02539 1.5813C8.99649 1.61037 8.96615 1.63415 8.95796 1.63415C8.93871 1.63415 8.62891 1.93324 8.62891 1.95181C8.62891 1.95956 8.59199 2.00091 8.54688 2.0437C8.50176 2.08649 8.46484 2.12837 8.46484 2.13675C8.46484 2.14514 8.44639 2.16867 8.42383 2.18902C8.40127 2.20938 8.38281 2.23425 8.38281 2.24425C8.38281 2.25426 8.37051 2.27103 8.35547 2.2815C8.34043 2.29198 8.32812 2.30982 8.32812 2.32114C8.32812 2.33246 8.31582 2.3503 8.30078 2.36077C8.28574 2.37125 8.27344 2.38908 8.27344 2.40041C8.27344 2.41173 8.26113 2.42956 8.24609 2.44004C8.23105 2.45052 8.21875 2.46835 8.21875 2.47967C8.21875 2.491 8.20645 2.50883 8.19141 2.51931C8.17637 2.52979 8.16406 2.54893 8.16406 2.56186C8.16406 2.57478 8.15791 2.58537 8.15039 2.58537C8.14287 2.58537 8.13672 2.59595 8.13672 2.60887C8.13672 2.6218 8.12441 2.64095 8.10938 2.65142C8.09434 2.6619 8.08203 2.68104 8.08203 2.69398C8.08203 2.7069 8.07588 2.71748 8.06836 2.71748C8.06084 2.71748 8.05469 2.72937 8.05469 2.7439C8.05469 2.75844 8.04854 2.77033 8.04102 2.77033C8.0335 2.77033 8.02734 2.78222 8.02734 2.79675C8.02734 2.81128 8.02383 2.82317 8.01954 2.82317C8.00349 2.82317 7.97266 2.78469 7.97266 2.76466C7.97266 2.75324 7.9665 2.7439 7.95898 2.7439C7.95146 2.7439 7.94531 2.73201 7.94531 2.71748C7.94531 2.70295 7.93916 2.69106 7.93164 2.69106C7.92412 2.69106 7.91797 2.68047 7.91797 2.66755C7.91797 2.65462 7.90566 2.63548 7.89062 2.625C7.87559 2.61452 7.86328 2.59538 7.86328 2.58245C7.86328 2.56953 7.85713 2.55894 7.84961 2.55894C7.84209 2.55894 7.83594 2.54836 7.83594 2.53544C7.83594 2.52251 7.82363 2.50336 7.80859 2.49289C7.79355 2.48241 7.78125 2.46457 7.78125 2.45325C7.78125 2.44193 7.76895 2.42409 7.75391 2.41362C7.73887 2.40314 7.72656 2.38531 7.72656 2.37398C7.72656 2.36266 7.71426 2.34483 7.69922 2.33435C7.68418 2.32387 7.67188 2.30711 7.67188 2.29709C7.67188 2.28709 7.65342 2.26223 7.63086 2.24187C7.6083 2.22151 7.58984 2.19785 7.58984 2.18929C7.58984 2.18074 7.56523 2.1509 7.53516 2.12297C7.50508 2.09504 7.48047 2.06574 7.48047 2.05785C7.48047 2.03911 7.0067 1.5813 6.98731 1.5813C6.97915 1.5813 6.94882 1.55752 6.91992 1.52846C6.89102 1.49939 6.85903 1.47561 6.84881 1.47561C6.8386 1.47561 6.82139 1.46372 6.81055 1.44919C6.79971 1.43465 6.78125 1.42276 6.76953 1.42276C6.75781 1.42276 6.73936 1.41087 6.72852 1.39634C6.71767 1.38181 6.69786 1.36992 6.68448 1.36992C6.67111 1.36992 6.66016 1.36397 6.66016 1.35671C6.66016 1.34944 6.64921 1.3435 6.63583 1.3435C6.62245 1.3435 6.60264 1.33161 6.5918 1.31707C6.58096 1.30254 6.56114 1.29065 6.54776 1.29065C6.53439 1.29065 6.52344 1.28471 6.52344 1.27744C6.52344 1.27017 6.51113 1.26423 6.49609 1.26423C6.48105 1.26423 6.46875 1.25828 6.46875 1.25102C6.46875 1.24375 6.45645 1.2378 6.44141 1.2378C6.42637 1.2378 6.41406 1.23186 6.41406 1.22459C6.41406 1.21733 6.40176 1.21138 6.38672 1.21138C6.37168 1.21138 6.35938 1.20544 6.35938 1.19817C6.35938 1.1909 6.34707 1.18496 6.33203 1.18496C6.31699 1.18496 6.30469 1.17901 6.30469 1.17175C6.30469 1.16448 6.28623 1.15854 6.26367 1.15854C6.24111 1.15854 6.22266 1.15259 6.22266 1.14533C6.22266 1.13806 6.2042 1.13211 6.18164 1.13211C6.15908 1.13211 6.14062 1.12617 6.14062 1.1189C6.14062 1.11164 6.12217 1.10569 6.09961 1.10569C6.07705 1.10569 6.05859 1.09975 6.05859 1.09248C6.05859 1.08521 6.04014 1.07927 6.01758 1.07927C5.99502 1.07927 5.97656 1.07332 5.97656 1.06606C5.97656 1.05879 5.9458 1.05285 5.9082 1.05285C5.87061 1.05285 5.83984 1.0469 5.83984 1.03963C5.83984 1.03229 5.80338 1.02642 5.75781 1.02642C5.71224 1.02642 5.67578 1.02056 5.67578 1.01321C5.67578 1.00478 5.56185 1 5.36133 1C5.1608 1 5.04688 1.00478 5.04688 1.01321ZM5.56641 1.93801C5.56641 1.94527 5.59717 1.95122 5.63477 1.95122C5.67236 1.95122 5.70312 1.95716 5.70312 1.96443C5.70312 1.9717 5.72773 1.97764 5.75781 1.97764C5.78789 1.97764 5.8125 1.98359 5.8125 1.99085C5.8125 1.99812 5.83096 2.00407 5.85352 2.00407C5.87607 2.00407 5.89453 2.01001 5.89453 2.01728C5.89453 2.02454 5.90684 2.03049 5.92188 2.03049C5.93691 2.03049 5.94922 2.03643 5.94922 2.0437C5.94922 2.05097 5.96152 2.05691 5.97656 2.05691C5.9916 2.05691 6.00391 2.06286 6.00391 2.07012C6.00391 2.07739 6.01621 2.08333 6.03125 2.08333C6.04629 2.08333 6.05859 2.08928 6.05859 2.09654C6.05859 2.10381 6.0709 2.10976 6.08594 2.10976C6.10098 2.10976 6.11328 2.1157 6.11328 2.12297C6.11328 2.13023 6.12423 2.13618 6.1376 2.13618C6.15099 2.13618 6.1708 2.14807 6.18164 2.1626C6.19248 2.17713 6.21094 2.18902 6.22266 2.18902C6.23437 2.18902 6.25283 2.20091 6.26367 2.21545C6.27451 2.22998 6.29173 2.24187 6.30194 2.24187C6.31215 2.24187 6.34414 2.26565 6.37305 2.29472C6.40195 2.32378 6.43233 2.34756 6.44056 2.34756C6.45996 2.34756 6.66016 2.54084 6.66016 2.55959C6.66016 2.56744 6.69092 2.60282 6.72852 2.63821C6.76611 2.6736 6.79688 2.70947 6.79688 2.71793C6.79688 2.72638 6.81533 2.74997 6.83789 2.77033C6.86045 2.79068 6.87891 2.81555 6.87891 2.82555C6.87891 2.83556 6.89121 2.85233 6.90625 2.8628C6.92129 2.87328 6.93359 2.89112 6.93359 2.90244C6.93359 2.91376 6.9459 2.9316 6.96094 2.94207C6.97598 2.95255 6.98828 2.97039 6.98828 2.98171C6.98828 2.99303 7.00059 3.01086 7.01562 3.02134C7.03066 3.03182 7.04297 3.05096 7.04297 3.0639C7.04297 3.07682 7.04912 3.0874 7.05664 3.0874C7.06416 3.0874 7.07031 3.09929 7.07031 3.11382C7.07031 3.12835 7.07646 3.14024 7.08398 3.14024C7.0915 3.14024 7.09766 3.15083 7.09766 3.16375C7.09766 3.17668 7.10996 3.19582 7.125 3.2063C7.14004 3.21678 7.15234 3.23592 7.15234 3.24885C7.15234 3.26178 7.1585 3.27236 7.16602 3.27236C7.17354 3.27236 7.17969 3.28425 7.17969 3.29878C7.17969 3.31331 7.18584 3.3252 7.19336 3.3252C7.20088 3.3252 7.20703 3.33709 7.20703 3.35163C7.20703 3.36616 7.21318 3.37805 7.2207 3.37805C7.22822 3.37805 7.23438 3.38994 7.23438 3.40447C7.23438 3.419 7.24053 3.43089 7.24805 3.43089C7.25557 3.43089 7.26172 3.44278 7.26172 3.45732C7.26172 3.47185 7.26787 3.48374 7.27539 3.48374C7.28291 3.48374 7.28906 3.49563 7.28906 3.51016C7.28906 3.5247 7.29521 3.53659 7.30273 3.53659C7.31025 3.53659 7.31641 3.54848 7.31641 3.56301C7.31641 3.58921 7.30729 3.58943 6.26367 3.58943C5.57096 3.58943 5.21094 3.58491 5.21094 3.57622C5.21094 3.56895 5.18018 3.56301 5.14258 3.56301C5.10498 3.56301 5.07422 3.55706 5.07422 3.5498C5.07422 3.54253 5.05576 3.53659 5.0332 3.53659C5.01064 3.53659 4.99219 3.53064 4.99219 3.52337C4.99219 3.51611 4.97988 3.51016 4.96484 3.51016C4.9498 3.51016 4.9375 3.50422 4.9375 3.49695C4.9375 3.48969 4.9252 3.48374 4.91016 3.48374C4.89512 3.48374 4.88281 3.47779 4.88281 3.47053C4.88281 3.46326 4.8735 3.45732 4.86211 3.45732C4.83512 3.45732 4.60938 3.23917 4.60938 3.21309C4.60938 3.20209 4.60322 3.19309 4.5957 3.19309C4.58818 3.19309 4.58203 3.1812 4.58203 3.16667C4.58203 3.15213 4.57588 3.14024 4.56836 3.14024C4.56084 3.14024 4.55469 3.12835 4.55469 3.11382C4.55469 3.09929 4.54854 3.0874 4.54102 3.0874C4.5335 3.0874 4.52734 3.06956 4.52734 3.04776C4.52734 3.02597 4.52119 3.00813 4.51367 3.00813C4.50615 3.00813 4.5 2.98435 4.5 2.95528C4.5 2.92622 4.49385 2.90244 4.48633 2.90244C4.47804 2.90244 4.47266 2.84519 4.47266 2.75711C4.47266 2.66903 4.47804 2.61179 4.48633 2.61179C4.49385 2.61179 4.5 2.58801 4.5 2.55894C4.5 2.52988 4.50615 2.5061 4.51367 2.5061C4.52119 2.5061 4.52734 2.48826 4.52734 2.46646C4.52734 2.44466 4.5335 2.42683 4.54102 2.42683C4.54854 2.42683 4.55469 2.41625 4.55469 2.40333C4.55469 2.39039 4.56699 2.37125 4.58203 2.36077C4.59707 2.3503 4.60938 2.33246 4.60938 2.32114C4.60938 2.30982 4.62168 2.29198 4.63672 2.2815C4.65176 2.27103 4.66406 2.2547 4.66406 2.24521C4.66406 2.22414 4.78034 2.10976 4.80177 2.10976C4.81023 2.10976 4.8344 2.09192 4.85547 2.07012C4.87654 2.04832 4.90362 2.03049 4.91564 2.03049C4.92767 2.03049 4.9375 2.02454 4.9375 2.01728C4.9375 2.01001 4.9498 2.00407 4.96484 2.00407C4.97988 2.00407 4.99219 1.99812 4.99219 1.99085C4.99219 1.98359 5.01064 1.97764 5.0332 1.97764C5.05576 1.97764 5.07422 1.9717 5.07422 1.96443C5.07422 1.95716 5.09268 1.95122 5.11523 1.95122C5.13779 1.95122 5.15625 1.94527 5.15625 1.93801C5.15625 1.92979 5.23373 1.9248 5.36133 1.9248C5.48893 1.9248 5.56641 1.92979 5.56641 1.93801ZM10.8711 1.93801C10.8711 1.94527 10.8896 1.95122 10.9121 1.95122C10.9347 1.95122 10.9531 1.95716 10.9531 1.96443C10.9531 1.9717 10.9702 1.97764 10.9911 1.97764C11.0134 1.97764 11.0372 1.98855 11.0488 2.00407C11.0597 2.0186 11.0795 2.03049 11.0929 2.03049C11.1062 2.03049 11.1172 2.03643 11.1172 2.0437C11.1172 2.05097 11.1269 2.05691 11.1388 2.05691C11.1506 2.05691 11.184 2.08069 11.2129 2.10976C11.2418 2.13882 11.2751 2.1626 11.287 2.1626C11.2989 2.1626 11.3086 2.1721 11.3086 2.18373C11.3086 2.19534 11.3271 2.22151 11.3496 2.24187C11.3722 2.26223 11.3906 2.28709 11.3906 2.29709C11.3906 2.30711 11.4029 2.32387 11.418 2.33435C11.433 2.34483 11.4453 2.36397 11.4453 2.3769C11.4453 2.38982 11.4515 2.40041 11.459 2.40041C11.4665 2.40041 11.4727 2.4123 11.4727 2.42683C11.4727 2.44136 11.4788 2.45325 11.4863 2.45325C11.4938 2.45325 11.5 2.47703 11.5 2.5061C11.5 2.53516 11.5062 2.55894 11.5137 2.55894C11.5213 2.55894 11.5273 2.59418 11.5273 2.63821C11.5273 2.68225 11.5334 2.71748 11.541 2.71748C11.5485 2.71748 11.5547 2.73532 11.5547 2.75711C11.5547 2.77891 11.5485 2.79675 11.541 2.79675C11.5334 2.79675 11.5273 2.83198 11.5273 2.87602C11.5273 2.92005 11.5213 2.95528 11.5137 2.95528C11.5062 2.95528 11.5 2.97907 11.5 3.00813C11.5 3.0372 11.4938 3.06098 11.4863 3.06098C11.4788 3.06098 11.4727 3.07287 11.4727 3.0874C11.4727 3.10193 11.4665 3.11382 11.459 3.11382C11.4515 3.11382 11.4453 3.12571 11.4453 3.14024C11.4453 3.15478 11.4392 3.16667 11.4316 3.16667C11.4241 3.16667 11.418 3.17617 11.418 3.18779C11.418 3.1994 11.3995 3.22558 11.377 3.24593C11.3544 3.26629 11.3359 3.28969 11.3359 3.29792C11.3359 3.31866 11.2452 3.40447 11.2232 3.40447C11.2133 3.40447 11.1964 3.41636 11.1855 3.43089C11.1747 3.44543 11.1562 3.45732 11.1445 3.45732C11.1328 3.45732 11.1144 3.46921 11.1035 3.48374C11.0927 3.49827 11.0729 3.51016 11.0595 3.51016C11.0461 3.51016 11.0352 3.51611 11.0352 3.52337C11.0352 3.53064 11.0167 3.53659 10.9941 3.53659C10.9716 3.53659 10.9531 3.54253 10.9531 3.5498C10.9531 3.55706 10.9224 3.56301 10.8848 3.56301C10.8472 3.56301 10.8164 3.56895 10.8164 3.57622C10.8164 3.58491 10.4564 3.58943 9.76367 3.58943H8.71094V3.5498C8.71094 3.528 8.71709 3.51016 8.72461 3.51016C8.73213 3.51016 8.73828 3.49827 8.73828 3.48374C8.73828 3.46921 8.74443 3.45732 8.75195 3.45732C8.75947 3.45732 8.76562 3.44543 8.76562 3.43089C8.76562 3.41636 8.77178 3.40447 8.7793 3.40447C8.78682 3.40447 8.79297 3.39258 8.79297 3.37805C8.79297 3.36352 8.79912 3.35163 8.80664 3.35163C8.81416 3.35163 8.82031 3.33974 8.82031 3.3252C8.82031 3.31067 8.82646 3.29878 8.83398 3.29878C8.8415 3.29878 8.84766 3.28689 8.84766 3.27236C8.84766 3.25783 8.85381 3.24593 8.86133 3.24593C8.86885 3.24593 8.875 3.23535 8.875 3.22243C8.875 3.2095 8.8873 3.19035 8.90234 3.17988C8.91738 3.1694 8.92969 3.15026 8.92969 3.13732C8.92969 3.1244 8.93584 3.11382 8.94336 3.11382C8.95088 3.11382 8.95703 3.10193 8.95703 3.0874C8.95703 3.07287 8.96318 3.06098 8.9707 3.06098C8.97822 3.06098 8.98438 3.05039 8.98438 3.03747C8.98438 3.02454 8.99668 3.0054 9.01172 2.99492C9.02676 2.98444 9.03906 2.96661 9.03906 2.95528C9.03906 2.94396 9.05137 2.92613 9.06641 2.91565C9.08145 2.90517 9.09375 2.88734 9.09375 2.87602C9.09375 2.86469 9.10605 2.84686 9.12109 2.83638C9.13613 2.82591 9.14844 2.80935 9.14844 2.79958C9.14844 2.78981 9.1792 2.75287 9.2168 2.71748C9.25439 2.68209 9.28516 2.64676 9.28516 2.63895C9.28516 2.61866 9.6505 2.26829 9.67166 2.26829C9.68135 2.26829 9.69814 2.2564 9.70898 2.24187C9.71983 2.22734 9.73828 2.21545 9.75 2.21545C9.76172 2.21545 9.78017 2.20356 9.79102 2.18902C9.80186 2.17449 9.82031 2.1626 9.83203 2.1626C9.84375 2.1626 9.86221 2.15071 9.87305 2.13618C9.88389 2.12165 9.9037 2.10976 9.91708 2.10976C9.93046 2.10976 9.94141 2.10381 9.94141 2.09654C9.94141 2.08928 9.95371 2.08333 9.96875 2.08333C9.98379 2.08333 9.99609 2.07739 9.99609 2.07012C9.99609 2.06286 10.0084 2.05691 10.0234 2.05691C10.0385 2.05691 10.0508 2.05097 10.0508 2.0437C10.0508 2.03643 10.0692 2.03049 10.0918 2.03049C10.1144 2.03049 10.1328 2.02454 10.1328 2.01728C10.1328 2.01001 10.1513 2.00407 10.1738 2.00407C10.1964 2.00407 10.2148 1.99812 10.2148 1.99085C10.2148 1.98359 10.2333 1.97764 10.2559 1.97764C10.2784 1.97764 10.2969 1.9717 10.2969 1.96443C10.2969 1.95716 10.3276 1.95122 10.3652 1.95122C10.4028 1.95122 10.4336 1.94527 10.4336 1.93801C10.4336 1.92975 10.5156 1.9248 10.6523 1.9248C10.7891 1.9248 10.8711 1.92975 10.8711 1.93801ZM7.53516 5.55226C7.53516 6.43428 7.53222 6.59314 7.51562 6.60917C7.49883 6.62541 7.10859 6.62805 4.72656 6.62805H1.95703V5.57114V4.51423H4.74609H7.53516V5.55226ZM14.043 5.57114V6.62805H11.2676H8.49219V5.57114V4.51423H11.2676H14.043V5.57114ZM7.53516 10.314V13.0752H5.19727H2.85938V10.314V7.55285H5.19727H7.53516V10.314ZM13.168 10.314V13.0752H10.8301H8.49219V10.314V7.55285H10.8301H13.168V10.314Z"/>
</mask>
<path fill-rule="evenodd" clip-rule="evenodd" d="M5.04688 1.01321C5.04688 1.02048 5.01611 1.02642 4.97852 1.02642C4.94092 1.02642 4.91016 1.03237 4.91016 1.03963C4.91016 1.0469 4.88555 1.05285 4.85547 1.05285C4.82539 1.05285 4.80078 1.05879 4.80078 1.06606C4.80078 1.07332 4.78232 1.07927 4.75977 1.07927C4.73721 1.07927 4.71875 1.08521 4.71875 1.09248C4.71875 1.09975 4.70645 1.10569 4.69141 1.10569C4.67637 1.10569 4.66406 1.11164 4.66406 1.1189C4.66406 1.12617 4.64561 1.13211 4.62305 1.13211C4.60049 1.13211 4.58203 1.13806 4.58203 1.14533C4.58203 1.15259 4.56973 1.15854 4.55469 1.15854C4.53965 1.15854 4.52734 1.16448 4.52734 1.17175C4.52734 1.17901 4.51639 1.18496 4.50302 1.18496C4.48964 1.18496 4.46983 1.19685 4.45898 1.21138C4.44814 1.22591 4.42833 1.2378 4.41495 1.2378C4.40158 1.2378 4.39062 1.24375 4.39062 1.25102C4.39062 1.25828 4.37967 1.26423 4.3663 1.26423C4.35292 1.26423 4.33311 1.27612 4.32227 1.29065C4.31142 1.30518 4.29421 1.31707 4.284 1.31707C4.27379 1.31707 4.24179 1.34085 4.21289 1.36992C4.18399 1.39898 4.1536 1.42276 4.14535 1.42276C4.1258 1.42276 3.95312 1.58962 3.95312 1.60852C3.95312 1.61648 3.92852 1.64585 3.89844 1.67378C3.86836 1.70171 3.84375 1.73262 3.84375 1.74249C3.84375 1.75236 3.83145 1.76899 3.81641 1.77947C3.80137 1.78995 3.78906 1.80909 3.78906 1.82203C3.78906 1.83495 3.78291 1.84553 3.77539 1.84553C3.76787 1.84553 3.76172 1.85611 3.76172 1.86903C3.76172 1.88197 3.74941 1.90111 3.73438 1.91159C3.71832 1.92278 3.70703 1.94579 3.70703 1.96735C3.70703 1.98754 3.70088 2.00407 3.69336 2.00407C3.68584 2.00407 3.67969 2.01596 3.67969 2.03049C3.67969 2.04502 3.67354 2.05691 3.66602 2.05691C3.6585 2.05691 3.65234 2.0688 3.65234 2.08333C3.65234 2.09787 3.64619 2.10976 3.63867 2.10976C3.63115 2.10976 3.625 2.12759 3.625 2.14939C3.625 2.17119 3.61885 2.18902 3.61133 2.18902C3.60381 2.18902 3.59766 2.20686 3.59766 2.22866C3.59766 2.25046 3.5915 2.26829 3.58398 2.26829C3.57646 2.26829 3.57031 2.29207 3.57031 2.32114C3.57031 2.3502 3.56416 2.37398 3.55664 2.37398C3.54904 2.37398 3.54297 2.40922 3.54297 2.45325C3.54297 2.49729 3.5369 2.53252 3.5293 2.53252C3.52072 2.53252 3.51562 2.61619 3.51562 2.75711C3.51562 2.89804 3.52072 2.98171 3.5293 2.98171C3.5369 2.98171 3.54297 3.01694 3.54297 3.06098C3.54297 3.10501 3.54904 3.14024 3.55664 3.14024C3.56416 3.14024 3.57031 3.16402 3.57031 3.19309C3.57031 3.22215 3.57646 3.24593 3.58398 3.24593C3.5915 3.24593 3.59766 3.26377 3.59766 3.28557C3.59766 3.30737 3.60381 3.3252 3.61133 3.3252C3.61885 3.3252 3.625 3.34304 3.625 3.36484C3.625 3.38664 3.63115 3.40447 3.63867 3.40447C3.64619 3.40447 3.65234 3.41636 3.65234 3.43089C3.65234 3.44543 3.6585 3.45732 3.66602 3.45732C3.67354 3.45732 3.67969 3.46921 3.67969 3.48374C3.67969 3.49827 3.68584 3.51016 3.69336 3.51016C3.70088 3.51016 3.70703 3.52205 3.70703 3.53659C3.70703 3.55112 3.71318 3.56301 3.7207 3.56301C3.72822 3.56301 3.73438 3.56895 3.73438 3.57622C3.73438 3.58493 3.32877 3.58943 2.54492 3.58943C1.76107 3.58943 1.35547 3.59394 1.35547 3.60264C1.35547 3.60991 1.33837 3.61585 1.31747 3.61585C1.29516 3.61585 1.27135 3.62677 1.25977 3.64228C1.24892 3.65681 1.23203 3.6687 1.22221 3.6687C1.19898 3.6687 1.08203 3.78171 1.08203 3.80416C1.08203 3.81364 1.06973 3.82997 1.05469 3.84045C1.03864 3.85164 1.02734 3.87465 1.02734 3.89621C1.02734 3.9164 1.02119 3.93293 1.01367 3.93293C1.00463 3.93293 1 4.48341 1 5.55793C1 6.63245 1.00463 7.18293 1.01367 7.18293C1.02119 7.18293 1.02734 7.20076 1.02734 7.22256C1.02734 7.24436 1.0335 7.2622 1.04102 7.2622C1.04854 7.2622 1.05469 7.27409 1.05469 7.28862C1.05469 7.30315 1.06084 7.31504 1.06836 7.31504C1.07588 7.31504 1.08203 7.32412 1.08203 7.3352C1.08203 7.36143 1.19809 7.47358 1.22523 7.47358C1.2367 7.47358 1.24609 7.47952 1.24609 7.48679C1.24609 7.49406 1.2584 7.5 1.27344 7.5C1.28848 7.5 1.30078 7.50595 1.30078 7.51321C1.30078 7.52048 1.32539 7.52642 1.35547 7.52642C1.38555 7.52642 1.41016 7.53237 1.41016 7.53963C1.41016 7.54796 1.50131 7.55285 1.65625 7.55285H1.90234V10.6179C1.90234 12.6524 1.90694 13.6829 1.91602 13.6829C1.92354 13.6829 1.92969 13.6948 1.92969 13.7093C1.92969 13.7239 1.93584 13.7358 1.94336 13.7358C1.95088 13.7358 1.95703 13.7464 1.95703 13.7593C1.95703 13.7722 1.96934 13.7914 1.98438 13.8018C1.99941 13.8123 2.01172 13.8288 2.01172 13.8384C2.01172 13.8625 2.07413 13.9207 2.09997 13.9207C2.11159 13.9207 2.12109 13.9267 2.12109 13.9339C2.12109 13.9412 2.1334 13.9472 2.14844 13.9472C2.16348 13.9472 2.17578 13.9531 2.17578 13.9604C2.17578 13.9676 2.18809 13.9736 2.20312 13.9736C2.21816 13.9736 2.23047 13.9795 2.23047 13.9868C2.23047 13.9956 4.16276 14 8 14C11.8372 14 13.7695 13.9956 13.7695 13.9868C13.7695 13.9795 13.788 13.9736 13.8105 13.9736C13.8331 13.9736 13.8516 13.9676 13.8516 13.9604C13.8516 13.9531 13.8609 13.9472 13.8724 13.9472C13.8994 13.9472 14.043 13.8085 14.043 13.7823C14.043 13.7712 14.0491 13.7622 14.0566 13.7622C14.0642 13.7622 14.0703 13.7503 14.0703 13.7358C14.0703 13.7212 14.0765 13.7093 14.084 13.7093C14.0915 13.7093 14.0977 13.6915 14.0977 13.6697C14.0977 13.6479 14.1038 13.6301 14.1113 13.6301C14.1204 13.6301 14.125 12.6084 14.125 10.5915V7.55285H14.3574C14.5033 7.55285 14.5898 7.54792 14.5898 7.53963C14.5898 7.53237 14.6145 7.52642 14.6445 7.52642C14.6746 7.52642 14.6992 7.52048 14.6992 7.51321C14.6992 7.50595 14.7115 7.5 14.7266 7.5C14.7416 7.5 14.7539 7.49406 14.7539 7.48679C14.7539 7.47952 14.7633 7.47358 14.7748 7.47358C14.8019 7.47358 14.918 7.36143 14.918 7.3352C14.918 7.32412 14.9241 7.31504 14.9316 7.31504C14.9392 7.31504 14.9453 7.30315 14.9453 7.28862C14.9453 7.27409 14.9515 7.2622 14.959 7.2622C14.9665 7.2622 14.9727 7.24436 14.9727 7.22256C14.9727 7.20076 14.9788 7.18293 14.9863 7.18293C14.9954 7.18293 15 6.63245 15 5.55793C15 4.48341 14.9954 3.93293 14.9863 3.93293C14.9788 3.93293 14.9727 3.9164 14.9727 3.89621C14.9727 3.87465 14.9614 3.85164 14.9453 3.84045C14.9303 3.82997 14.918 3.81364 14.918 3.80416C14.918 3.78171 14.801 3.6687 14.7778 3.6687C14.768 3.6687 14.7511 3.65681 14.7402 3.64228C14.7287 3.62677 14.7048 3.61585 14.6825 3.61585C14.6616 3.61585 14.6445 3.60991 14.6445 3.60264C14.6445 3.59394 14.2435 3.58943 13.4688 3.58943C12.3021 3.58943 12.293 3.58922 12.293 3.56301C12.293 3.54848 12.2991 3.53659 12.3066 3.53659C12.3142 3.53659 12.3203 3.5247 12.3203 3.51016C12.3203 3.49563 12.3265 3.48374 12.334 3.48374C12.3415 3.48374 12.3477 3.47185 12.3477 3.45732C12.3477 3.44278 12.3538 3.43089 12.3613 3.43089C12.3688 3.43089 12.375 3.419 12.375 3.40447C12.375 3.38994 12.3812 3.37805 12.3887 3.37805C12.3962 3.37805 12.4023 3.36021 12.4023 3.33841C12.4023 3.31662 12.4085 3.29878 12.416 3.29878C12.4235 3.29878 12.4297 3.275 12.4297 3.24593C12.4297 3.21687 12.4358 3.19309 12.4434 3.19309C12.4509 3.19309 12.457 3.16931 12.457 3.14024C12.457 3.11118 12.4632 3.0874 12.4707 3.0874C12.4787 3.0874 12.4844 3.04337 12.4844 2.98171C12.4844 2.92005 12.4901 2.87602 12.498 2.87602C12.5062 2.87602 12.5117 2.82757 12.5117 2.75711C12.5117 2.68666 12.5062 2.63821 12.498 2.63821C12.4901 2.63821 12.4844 2.59418 12.4844 2.53252C12.4844 2.47086 12.4787 2.42683 12.4707 2.42683C12.4632 2.42683 12.457 2.40305 12.457 2.37398C12.457 2.34492 12.4509 2.32114 12.4434 2.32114C12.4358 2.32114 12.4297 2.29736 12.4297 2.26829C12.4297 2.23923 12.4235 2.21545 12.416 2.21545C12.4085 2.21545 12.4023 2.19761 12.4023 2.17581C12.4023 2.15401 12.3962 2.13618 12.3887 2.13618C12.3812 2.13618 12.375 2.12429 12.375 2.10976C12.375 2.09522 12.3688 2.08333 12.3613 2.08333C12.3538 2.08333 12.3477 2.0655 12.3477 2.0437C12.3477 2.0219 12.3415 2.00407 12.334 2.00407C12.3265 2.00407 12.3203 1.99217 12.3203 1.97764C12.3203 1.96311 12.3142 1.95122 12.3066 1.95122C12.2991 1.95122 12.293 1.94064 12.293 1.92772C12.293 1.91478 12.2807 1.89564 12.2656 1.88516C12.2506 1.87469 12.2383 1.85554 12.2383 1.84261C12.2383 1.82969 12.2321 1.81911 12.2246 1.81911C12.2171 1.81911 12.2109 1.80961 12.2109 1.79798C12.2109 1.78637 12.1925 1.7602 12.1699 1.73984C12.1474 1.71948 12.1289 1.69623 12.1289 1.68817C12.1289 1.66757 11.7912 1.3435 11.7698 1.3435C11.7601 1.3435 11.7433 1.33161 11.7324 1.31707C11.7216 1.30254 11.7031 1.29065 11.6914 1.29065C11.6797 1.29065 11.6612 1.27876 11.6504 1.26423C11.6395 1.2497 11.6197 1.2378 11.6064 1.2378C11.593 1.2378 11.582 1.23186 11.582 1.22459C11.582 1.21733 11.5697 1.21138 11.5547 1.21138C11.5396 1.21138 11.5273 1.20544 11.5273 1.19817C11.5273 1.1909 11.515 1.18496 11.5 1.18496C11.485 1.18496 11.4727 1.17901 11.4727 1.17175C11.4727 1.16448 11.4604 1.15854 11.4453 1.15854C11.4303 1.15854 11.418 1.15259 11.418 1.14533C11.418 1.13806 11.4057 1.13211 11.3906 1.13211C11.3756 1.13211 11.3633 1.12617 11.3633 1.1189C11.3633 1.11164 11.3448 1.10569 11.3223 1.10569C11.2997 1.10569 11.2812 1.09975 11.2812 1.09248C11.2812 1.08521 11.2628 1.07927 11.2402 1.07927C11.2177 1.07927 11.1992 1.07332 11.1992 1.06606C11.1992 1.05879 11.1746 1.05285 11.1445 1.05285C11.1145 1.05285 11.0898 1.0469 11.0898 1.03963C11.0898 1.03237 11.0591 1.02642 11.0215 1.02642C10.9839 1.02642 10.9531 1.02048 10.9531 1.01321C10.9531 1.00481 10.8438 1 10.6523 1C10.4609 1 10.3516 1.00481 10.3516 1.01321C10.3516 1.02056 10.3151 1.02642 10.2695 1.02642C10.224 1.02642 10.1875 1.03229 10.1875 1.03963C10.1875 1.0469 10.1567 1.05285 10.1191 1.05285C10.0815 1.05285 10.0508 1.05879 10.0508 1.06606C10.0508 1.07332 10.0262 1.07927 9.99609 1.07927C9.96602 1.07927 9.94141 1.08521 9.94141 1.09248C9.94141 1.09975 9.92295 1.10569 9.90039 1.10569C9.87783 1.10569 9.85938 1.11164 9.85938 1.1189C9.85938 1.12617 9.84707 1.13211 9.83203 1.13211C9.81699 1.13211 9.80469 1.13806 9.80469 1.14533C9.80469 1.15259 9.78623 1.15854 9.76367 1.15854C9.74111 1.15854 9.72266 1.16448 9.72266 1.17175C9.72266 1.17901 9.71035 1.18496 9.69531 1.18496C9.68027 1.18496 9.66797 1.1909 9.66797 1.19817C9.66797 1.20544 9.64951 1.21138 9.62695 1.21138C9.60439 1.21138 9.58594 1.21733 9.58594 1.22459C9.58594 1.23186 9.57499 1.2378 9.56161 1.2378C9.54823 1.2378 9.52842 1.2497 9.51758 1.26423C9.50674 1.27876 9.48693 1.29065 9.47354 1.29065C9.46017 1.29065 9.44922 1.2966 9.44922 1.30386C9.44922 1.31113 9.43691 1.31707 9.42188 1.31707C9.40684 1.31707 9.39453 1.32302 9.39453 1.33028C9.39453 1.33755 9.38358 1.3435 9.37021 1.3435C9.35682 1.3435 9.33701 1.35539 9.32617 1.36992C9.31533 1.38445 9.29687 1.39634 9.28516 1.39634C9.27344 1.39634 9.25498 1.40823 9.24414 1.42276C9.2333 1.4373 9.21595 1.44919 9.20559 1.44919C9.19524 1.44919 9.16951 1.46702 9.14844 1.48882C9.12737 1.51062 9.10288 1.52846 9.09402 1.52846C9.08518 1.52846 9.05429 1.55224 9.02539 1.5813C8.99649 1.61037 8.96615 1.63415 8.95796 1.63415C8.93871 1.63415 8.62891 1.93324 8.62891 1.95181C8.62891 1.95956 8.59199 2.00091 8.54688 2.0437C8.50176 2.08649 8.46484 2.12837 8.46484 2.13675C8.46484 2.14514 8.44639 2.16867 8.42383 2.18902C8.40127 2.20938 8.38281 2.23425 8.38281 2.24425C8.38281 2.25426 8.37051 2.27103 8.35547 2.2815C8.34043 2.29198 8.32812 2.30982 8.32812 2.32114C8.32812 2.33246 8.31582 2.3503 8.30078 2.36077C8.28574 2.37125 8.27344 2.38908 8.27344 2.40041C8.27344 2.41173 8.26113 2.42956 8.24609 2.44004C8.23105 2.45052 8.21875 2.46835 8.21875 2.47967C8.21875 2.491 8.20645 2.50883 8.19141 2.51931C8.17637 2.52979 8.16406 2.54893 8.16406 2.56186C8.16406 2.57478 8.15791 2.58537 8.15039 2.58537C8.14287 2.58537 8.13672 2.59595 8.13672 2.60887C8.13672 2.6218 8.12441 2.64095 8.10938 2.65142C8.09434 2.6619 8.08203 2.68104 8.08203 2.69398C8.08203 2.7069 8.07588 2.71748 8.06836 2.71748C8.06084 2.71748 8.05469 2.72937 8.05469 2.7439C8.05469 2.75844 8.04854 2.77033 8.04102 2.77033C8.0335 2.77033 8.02734 2.78222 8.02734 2.79675C8.02734 2.81128 8.02383 2.82317 8.01954 2.82317C8.00349 2.82317 7.97266 2.78469 7.97266 2.76466C7.97266 2.75324 7.9665 2.7439 7.95898 2.7439C7.95146 2.7439 7.94531 2.73201 7.94531 2.71748C7.94531 2.70295 7.93916 2.69106 7.93164 2.69106C7.92412 2.69106 7.91797 2.68047 7.91797 2.66755C7.91797 2.65462 7.90566 2.63548 7.89062 2.625C7.87559 2.61452 7.86328 2.59538 7.86328 2.58245C7.86328 2.56953 7.85713 2.55894 7.84961 2.55894C7.84209 2.55894 7.83594 2.54836 7.83594 2.53544C7.83594 2.52251 7.82363 2.50336 7.80859 2.49289C7.79355 2.48241 7.78125 2.46457 7.78125 2.45325C7.78125 2.44193 7.76895 2.42409 7.75391 2.41362C7.73887 2.40314 7.72656 2.38531 7.72656 2.37398C7.72656 2.36266 7.71426 2.34483 7.69922 2.33435C7.68418 2.32387 7.67188 2.30711 7.67188 2.29709C7.67188 2.28709 7.65342 2.26223 7.63086 2.24187C7.6083 2.22151 7.58984 2.19785 7.58984 2.18929C7.58984 2.18074 7.56523 2.1509 7.53516 2.12297C7.50508 2.09504 7.48047 2.06574 7.48047 2.05785C7.48047 2.03911 7.0067 1.5813 6.98731 1.5813C6.97915 1.5813 6.94882 1.55752 6.91992 1.52846C6.89102 1.49939 6.85903 1.47561 6.84881 1.47561C6.8386 1.47561 6.82139 1.46372 6.81055 1.44919C6.79971 1.43465 6.78125 1.42276 6.76953 1.42276C6.75781 1.42276 6.73936 1.41087 6.72852 1.39634C6.71767 1.38181 6.69786 1.36992 6.68448 1.36992C6.67111 1.36992 6.66016 1.36397 6.66016 1.35671C6.66016 1.34944 6.64921 1.3435 6.63583 1.3435C6.62245 1.3435 6.60264 1.33161 6.5918 1.31707C6.58096 1.30254 6.56114 1.29065 6.54776 1.29065C6.53439 1.29065 6.52344 1.28471 6.52344 1.27744C6.52344 1.27017 6.51113 1.26423 6.49609 1.26423C6.48105 1.26423 6.46875 1.25828 6.46875 1.25102C6.46875 1.24375 6.45645 1.2378 6.44141 1.2378C6.42637 1.2378 6.41406 1.23186 6.41406 1.22459C6.41406 1.21733 6.40176 1.21138 6.38672 1.21138C6.37168 1.21138 6.35938 1.20544 6.35938 1.19817C6.35938 1.1909 6.34707 1.18496 6.33203 1.18496C6.31699 1.18496 6.30469 1.17901 6.30469 1.17175C6.30469 1.16448 6.28623 1.15854 6.26367 1.15854C6.24111 1.15854 6.22266 1.15259 6.22266 1.14533C6.22266 1.13806 6.2042 1.13211 6.18164 1.13211C6.15908 1.13211 6.14062 1.12617 6.14062 1.1189C6.14062 1.11164 6.12217 1.10569 6.09961 1.10569C6.07705 1.10569 6.05859 1.09975 6.05859 1.09248C6.05859 1.08521 6.04014 1.07927 6.01758 1.07927C5.99502 1.07927 5.97656 1.07332 5.97656 1.06606C5.97656 1.05879 5.9458 1.05285 5.9082 1.05285C5.87061 1.05285 5.83984 1.0469 5.83984 1.03963C5.83984 1.03229 5.80338 1.02642 5.75781 1.02642C5.71224 1.02642 5.67578 1.02056 5.67578 1.01321C5.67578 1.00478 5.56185 1 5.36133 1C5.1608 1 5.04688 1.00478 5.04688 1.01321ZM5.56641 1.93801C5.56641 1.94527 5.59717 1.95122 5.63477 1.95122C5.67236 1.95122 5.70312 1.95716 5.70312 1.96443C5.70312 1.9717 5.72773 1.97764 5.75781 1.97764C5.78789 1.97764 5.8125 1.98359 5.8125 1.99085C5.8125 1.99812 5.83096 2.00407 5.85352 2.00407C5.87607 2.00407 5.89453 2.01001 5.89453 2.01728C5.89453 2.02454 5.90684 2.03049 5.92188 2.03049C5.93691 2.03049 5.94922 2.03643 5.94922 2.0437C5.94922 2.05097 5.96152 2.05691 5.97656 2.05691C5.9916 2.05691 6.00391 2.06286 6.00391 2.07012C6.00391 2.07739 6.01621 2.08333 6.03125 2.08333C6.04629 2.08333 6.05859 2.08928 6.05859 2.09654C6.05859 2.10381 6.0709 2.10976 6.08594 2.10976C6.10098 2.10976 6.11328 2.1157 6.11328 2.12297C6.11328 2.13023 6.12423 2.13618 6.1376 2.13618C6.15099 2.13618 6.1708 2.14807 6.18164 2.1626C6.19248 2.17713 6.21094 2.18902 6.22266 2.18902C6.23437 2.18902 6.25283 2.20091 6.26367 2.21545C6.27451 2.22998 6.29173 2.24187 6.30194 2.24187C6.31215 2.24187 6.34414 2.26565 6.37305 2.29472C6.40195 2.32378 6.43233 2.34756 6.44056 2.34756C6.45996 2.34756 6.66016 2.54084 6.66016 2.55959C6.66016 2.56744 6.69092 2.60282 6.72852 2.63821C6.76611 2.6736 6.79688 2.70947 6.79688 2.71793C6.79688 2.72638 6.81533 2.74997 6.83789 2.77033C6.86045 2.79068 6.87891 2.81555 6.87891 2.82555C6.87891 2.83556 6.89121 2.85233 6.90625 2.8628C6.92129 2.87328 6.93359 2.89112 6.93359 2.90244C6.93359 2.91376 6.9459 2.9316 6.96094 2.94207C6.97598 2.95255 6.98828 2.97039 6.98828 2.98171C6.98828 2.99303 7.00059 3.01086 7.01562 3.02134C7.03066 3.03182 7.04297 3.05096 7.04297 3.0639C7.04297 3.07682 7.04912 3.0874 7.05664 3.0874C7.06416 3.0874 7.07031 3.09929 7.07031 3.11382C7.07031 3.12835 7.07646 3.14024 7.08398 3.14024C7.0915 3.14024 7.09766 3.15083 7.09766 3.16375C7.09766 3.17668 7.10996 3.19582 7.125 3.2063C7.14004 3.21678 7.15234 3.23592 7.15234 3.24885C7.15234 3.26178 7.1585 3.27236 7.16602 3.27236C7.17354 3.27236 7.17969 3.28425 7.17969 3.29878C7.17969 3.31331 7.18584 3.3252 7.19336 3.3252C7.20088 3.3252 7.20703 3.33709 7.20703 3.35163C7.20703 3.36616 7.21318 3.37805 7.2207 3.37805C7.22822 3.37805 7.23438 3.38994 7.23438 3.40447C7.23438 3.419 7.24053 3.43089 7.24805 3.43089C7.25557 3.43089 7.26172 3.44278 7.26172 3.45732C7.26172 3.47185 7.26787 3.48374 7.27539 3.48374C7.28291 3.48374 7.28906 3.49563 7.28906 3.51016C7.28906 3.5247 7.29521 3.53659 7.30273 3.53659C7.31025 3.53659 7.31641 3.54848 7.31641 3.56301C7.31641 3.58921 7.30729 3.58943 6.26367 3.58943C5.57096 3.58943 5.21094 3.58491 5.21094 3.57622C5.21094 3.56895 5.18018 3.56301 5.14258 3.56301C5.10498 3.56301 5.07422 3.55706 5.07422 3.5498C5.07422 3.54253 5.05576 3.53659 5.0332 3.53659C5.01064 3.53659 4.99219 3.53064 4.99219 3.52337C4.99219 3.51611 4.97988 3.51016 4.96484 3.51016C4.9498 3.51016 4.9375 3.50422 4.9375 3.49695C4.9375 3.48969 4.9252 3.48374 4.91016 3.48374C4.89512 3.48374 4.88281 3.47779 4.88281 3.47053C4.88281 3.46326 4.8735 3.45732 4.86211 3.45732C4.83512 3.45732 4.60938 3.23917 4.60938 3.21309C4.60938 3.20209 4.60322 3.19309 4.5957 3.19309C4.58818 3.19309 4.58203 3.1812 4.58203 3.16667C4.58203 3.15213 4.57588 3.14024 4.56836 3.14024C4.56084 3.14024 4.55469 3.12835 4.55469 3.11382C4.55469 3.09929 4.54854 3.0874 4.54102 3.0874C4.5335 3.0874 4.52734 3.06956 4.52734 3.04776C4.52734 3.02597 4.52119 3.00813 4.51367 3.00813C4.50615 3.00813 4.5 2.98435 4.5 2.95528C4.5 2.92622 4.49385 2.90244 4.48633 2.90244C4.47804 2.90244 4.47266 2.84519 4.47266 2.75711C4.47266 2.66903 4.47804 2.61179 4.48633 2.61179C4.49385 2.61179 4.5 2.58801 4.5 2.55894C4.5 2.52988 4.50615 2.5061 4.51367 2.5061C4.52119 2.5061 4.52734 2.48826 4.52734 2.46646C4.52734 2.44466 4.5335 2.42683 4.54102 2.42683C4.54854 2.42683 4.55469 2.41625 4.55469 2.40333C4.55469 2.39039 4.56699 2.37125 4.58203 2.36077C4.59707 2.3503 4.60938 2.33246 4.60938 2.32114C4.60938 2.30982 4.62168 2.29198 4.63672 2.2815C4.65176 2.27103 4.66406 2.2547 4.66406 2.24521C4.66406 2.22414 4.78034 2.10976 4.80177 2.10976C4.81023 2.10976 4.8344 2.09192 4.85547 2.07012C4.87654 2.04832 4.90362 2.03049 4.91564 2.03049C4.92767 2.03049 4.9375 2.02454 4.9375 2.01728C4.9375 2.01001 4.9498 2.00407 4.96484 2.00407C4.97988 2.00407 4.99219 1.99812 4.99219 1.99085C4.99219 1.98359 5.01064 1.97764 5.0332 1.97764C5.05576 1.97764 5.07422 1.9717 5.07422 1.96443C5.07422 1.95716 5.09268 1.95122 5.11523 1.95122C5.13779 1.95122 5.15625 1.94527 5.15625 1.93801C5.15625 1.92979 5.23373 1.9248 5.36133 1.9248C5.48893 1.9248 5.56641 1.92979 5.56641 1.93801ZM10.8711 1.93801C10.8711 1.94527 10.8896 1.95122 10.9121 1.95122C10.9347 1.95122 10.9531 1.95716 10.9531 1.96443C10.9531 1.9717 10.9702 1.97764 10.9911 1.97764C11.0134 1.97764 11.0372 1.98855 11.0488 2.00407C11.0597 2.0186 11.0795 2.03049 11.0929 2.03049C11.1062 2.03049 11.1172 2.03643 11.1172 2.0437C11.1172 2.05097 11.1269 2.05691 11.1388 2.05691C11.1506 2.05691 11.184 2.08069 11.2129 2.10976C11.2418 2.13882 11.2751 2.1626 11.287 2.1626C11.2989 2.1626 11.3086 2.1721 11.3086 2.18373C11.3086 2.19534 11.3271 2.22151 11.3496 2.24187C11.3722 2.26223 11.3906 2.28709 11.3906 2.29709C11.3906 2.30711 11.4029 2.32387 11.418 2.33435C11.433 2.34483 11.4453 2.36397 11.4453 2.3769C11.4453 2.38982 11.4515 2.40041 11.459 2.40041C11.4665 2.40041 11.4727 2.4123 11.4727 2.42683C11.4727 2.44136 11.4788 2.45325 11.4863 2.45325C11.4938 2.45325 11.5 2.47703 11.5 2.5061C11.5 2.53516 11.5062 2.55894 11.5137 2.55894C11.5213 2.55894 11.5273 2.59418 11.5273 2.63821C11.5273 2.68225 11.5334 2.71748 11.541 2.71748C11.5485 2.71748 11.5547 2.73532 11.5547 2.75711C11.5547 2.77891 11.5485 2.79675 11.541 2.79675C11.5334 2.79675 11.5273 2.83198 11.5273 2.87602C11.5273 2.92005 11.5213 2.95528 11.5137 2.95528C11.5062 2.95528 11.5 2.97907 11.5 3.00813C11.5 3.0372 11.4938 3.06098 11.4863 3.06098C11.4788 3.06098 11.4727 3.07287 11.4727 3.0874C11.4727 3.10193 11.4665 3.11382 11.459 3.11382C11.4515 3.11382 11.4453 3.12571 11.4453 3.14024C11.4453 3.15478 11.4392 3.16667 11.4316 3.16667C11.4241 3.16667 11.418 3.17617 11.418 3.18779C11.418 3.1994 11.3995 3.22558 11.377 3.24593C11.3544 3.26629 11.3359 3.28969 11.3359 3.29792C11.3359 3.31866 11.2452 3.40447 11.2232 3.40447C11.2133 3.40447 11.1964 3.41636 11.1855 3.43089C11.1747 3.44543 11.1562 3.45732 11.1445 3.45732C11.1328 3.45732 11.1144 3.46921 11.1035 3.48374C11.0927 3.49827 11.0729 3.51016 11.0595 3.51016C11.0461 3.51016 11.0352 3.51611 11.0352 3.52337C11.0352 3.53064 11.0167 3.53659 10.9941 3.53659C10.9716 3.53659 10.9531 3.54253 10.9531 3.5498C10.9531 3.55706 10.9224 3.56301 10.8848 3.56301C10.8472 3.56301 10.8164 3.56895 10.8164 3.57622C10.8164 3.58491 10.4564 3.58943 9.76367 3.58943H8.71094V3.5498C8.71094 3.528 8.71709 3.51016 8.72461 3.51016C8.73213 3.51016 8.73828 3.49827 8.73828 3.48374C8.73828 3.46921 8.74443 3.45732 8.75195 3.45732C8.75947 3.45732 8.76562 3.44543 8.76562 3.43089C8.76562 3.41636 8.77178 3.40447 8.7793 3.40447C8.78682 3.40447 8.79297 3.39258 8.79297 3.37805C8.79297 3.36352 8.79912 3.35163 8.80664 3.35163C8.81416 3.35163 8.82031 3.33974 8.82031 3.3252C8.82031 3.31067 8.82646 3.29878 8.83398 3.29878C8.8415 3.29878 8.84766 3.28689 8.84766 3.27236C8.84766 3.25783 8.85381 3.24593 8.86133 3.24593C8.86885 3.24593 8.875 3.23535 8.875 3.22243C8.875 3.2095 8.8873 3.19035 8.90234 3.17988C8.91738 3.1694 8.92969 3.15026 8.92969 3.13732C8.92969 3.1244 8.93584 3.11382 8.94336 3.11382C8.95088 3.11382 8.95703 3.10193 8.95703 3.0874C8.95703 3.07287 8.96318 3.06098 8.9707 3.06098C8.97822 3.06098 8.98438 3.05039 8.98438 3.03747C8.98438 3.02454 8.99668 3.0054 9.01172 2.99492C9.02676 2.98444 9.03906 2.96661 9.03906 2.95528C9.03906 2.94396 9.05137 2.92613 9.06641 2.91565C9.08145 2.90517 9.09375 2.88734 9.09375 2.87602C9.09375 2.86469 9.10605 2.84686 9.12109 2.83638C9.13613 2.82591 9.14844 2.80935 9.14844 2.79958C9.14844 2.78981 9.1792 2.75287 9.2168 2.71748C9.25439 2.68209 9.28516 2.64676 9.28516 2.63895C9.28516 2.61866 9.6505 2.26829 9.67166 2.26829C9.68135 2.26829 9.69814 2.2564 9.70898 2.24187C9.71983 2.22734 9.73828 2.21545 9.75 2.21545C9.76172 2.21545 9.78017 2.20356 9.79102 2.18902C9.80186 2.17449 9.82031 2.1626 9.83203 2.1626C9.84375 2.1626 9.86221 2.15071 9.87305 2.13618C9.88389 2.12165 9.9037 2.10976 9.91708 2.10976C9.93046 2.10976 9.94141 2.10381 9.94141 2.09654C9.94141 2.08928 9.95371 2.08333 9.96875 2.08333C9.98379 2.08333 9.99609 2.07739 9.99609 2.07012C9.99609 2.06286 10.0084 2.05691 10.0234 2.05691C10.0385 2.05691 10.0508 2.05097 10.0508 2.0437C10.0508 2.03643 10.0692 2.03049 10.0918 2.03049C10.1144 2.03049 10.1328 2.02454 10.1328 2.01728C10.1328 2.01001 10.1513 2.00407 10.1738 2.00407C10.1964 2.00407 10.2148 1.99812 10.2148 1.99085C10.2148 1.98359 10.2333 1.97764 10.2559 1.97764C10.2784 1.97764 10.2969 1.9717 10.2969 1.96443C10.2969 1.95716 10.3276 1.95122 10.3652 1.95122C10.4028 1.95122 10.4336 1.94527 10.4336 1.93801C10.4336 1.92975 10.5156 1.9248 10.6523 1.9248C10.7891 1.9248 10.8711 1.92975 10.8711 1.93801ZM7.53516 5.55226C7.53516 6.43428 7.53222 6.59314 7.51562 6.60917C7.49883 6.62541 7.10859 6.62805 4.72656 6.62805H1.95703V5.57114V4.51423H4.74609H7.53516V5.55226ZM14.043 5.57114V6.62805H11.2676H8.49219V5.57114V4.51423H11.2676H14.043V5.57114ZM7.53516 10.314V13.0752H5.19727H2.85938V10.314V7.55285H5.19727H7.53516V10.314ZM13.168 10.314V13.0752H10.8301H8.49219V10.314V7.55285H10.8301H13.168V10.314Z" fill="#FF4656"/>
<path fill-rule="evenodd" clip-rule="evenodd" d="M5.04688 1.01321C5.04688 1.02048 5.01611 1.02642 4.97852 1.02642C4.94092 1.02642 4.91016 1.03237 4.91016 1.03963C4.91016 1.0469 4.88555 1.05285 4.85547 1.05285C4.82539 1.05285 4.80078 1.05879 4.80078 1.06606C4.80078 1.07332 4.78232 1.07927 4.75977 1.07927C4.73721 1.07927 4.71875 1.08521 4.71875 1.09248C4.71875 1.09975 4.70645 1.10569 4.69141 1.10569C4.67637 1.10569 4.66406 1.11164 4.66406 1.1189C4.66406 1.12617 4.64561 1.13211 4.62305 1.13211C4.60049 1.13211 4.58203 1.13806 4.58203 1.14533C4.58203 1.15259 4.56973 1.15854 4.55469 1.15854C4.53965 1.15854 4.52734 1.16448 4.52734 1.17175C4.52734 1.17901 4.51639 1.18496 4.50302 1.18496C4.48964 1.18496 4.46983 1.19685 4.45898 1.21138C4.44814 1.22591 4.42833 1.2378 4.41495 1.2378C4.40158 1.2378 4.39062 1.24375 4.39062 1.25102C4.39062 1.25828 4.37967 1.26423 4.3663 1.26423C4.35292 1.26423 4.33311 1.27612 4.32227 1.29065C4.31142 1.30518 4.29421 1.31707 4.284 1.31707C4.27379 1.31707 4.24179 1.34085 4.21289 1.36992C4.18399 1.39898 4.1536 1.42276 4.14535 1.42276C4.1258 1.42276 3.95312 1.58962 3.95312 1.60852C3.95312 1.61648 3.92852 1.64585 3.89844 1.67378C3.86836 1.70171 3.84375 1.73262 3.84375 1.74249C3.84375 1.75236 3.83145 1.76899 3.81641 1.77947C3.80137 1.78995 3.78906 1.80909 3.78906 1.82203C3.78906 1.83495 3.78291 1.84553 3.77539 1.84553C3.76787 1.84553 3.76172 1.85611 3.76172 1.86903C3.76172 1.88197 3.74941 1.90111 3.73438 1.91159C3.71832 1.92278 3.70703 1.94579 3.70703 1.96735C3.70703 1.98754 3.70088 2.00407 3.69336 2.00407C3.68584 2.00407 3.67969 2.01596 3.67969 2.03049C3.67969 2.04502 3.67354 2.05691 3.66602 2.05691C3.6585 2.05691 3.65234 2.0688 3.65234 2.08333C3.65234 2.09787 3.64619 2.10976 3.63867 2.10976C3.63115 2.10976 3.625 2.12759 3.625 2.14939C3.625 2.17119 3.61885 2.18902 3.61133 2.18902C3.60381 2.18902 3.59766 2.20686 3.59766 2.22866C3.59766 2.25046 3.5915 2.26829 3.58398 2.26829C3.57646 2.26829 3.57031 2.29207 3.57031 2.32114C3.57031 2.3502 3.56416 2.37398 3.55664 2.37398C3.54904 2.37398 3.54297 2.40922 3.54297 2.45325C3.54297 2.49729 3.5369 2.53252 3.5293 2.53252C3.52072 2.53252 3.51562 2.61619 3.51562 2.75711C3.51562 2.89804 3.52072 2.98171 3.5293 2.98171C3.5369 2.98171 3.54297 3.01694 3.54297 3.06098C3.54297 3.10501 3.54904 3.14024 3.55664 3.14024C3.56416 3.14024 3.57031 3.16402 3.57031 3.19309C3.57031 3.22215 3.57646 3.24593 3.58398 3.24593C3.5915 3.24593 3.59766 3.26377 3.59766 3.28557C3.59766 3.30737 3.60381 3.3252 3.61133 3.3252C3.61885 3.3252 3.625 3.34304 3.625 3.36484C3.625 3.38664 3.63115 3.40447 3.63867 3.40447C3.64619 3.40447 3.65234 3.41636 3.65234 3.43089C3.65234 3.44543 3.6585 3.45732 3.66602 3.45732C3.67354 3.45732 3.67969 3.46921 3.67969 3.48374C3.67969 3.49827 3.68584 3.51016 3.69336 3.51016C3.70088 3.51016 3.70703 3.52205 3.70703 3.53659C3.70703 3.55112 3.71318 3.56301 3.7207 3.56301C3.72822 3.56301 3.73438 3.56895 3.73438 3.57622C3.73438 3.58493 3.32877 3.58943 2.54492 3.58943C1.76107 3.58943 1.35547 3.59394 1.35547 3.60264C1.35547 3.60991 1.33837 3.61585 1.31747 3.61585C1.29516 3.61585 1.27135 3.62677 1.25977 3.64228C1.24892 3.65681 1.23203 3.6687 1.22221 3.6687C1.19898 3.6687 1.08203 3.78171 1.08203 3.80416C1.08203 3.81364 1.06973 3.82997 1.05469 3.84045C1.03864 3.85164 1.02734 3.87465 1.02734 3.89621C1.02734 3.9164 1.02119 3.93293 1.01367 3.93293C1.00463 3.93293 1 4.48341 1 5.55793C1 6.63245 1.00463 7.18293 1.01367 7.18293C1.02119 7.18293 1.02734 7.20076 1.02734 7.22256C1.02734 7.24436 1.0335 7.2622 1.04102 7.2622C1.04854 7.2622 1.05469 7.27409 1.05469 7.28862C1.05469 7.30315 1.06084 7.31504 1.06836 7.31504C1.07588 7.31504 1.08203 7.32412 1.08203 7.3352C1.08203 7.36143 1.19809 7.47358 1.22523 7.47358C1.2367 7.47358 1.24609 7.47952 1.24609 7.48679C1.24609 7.49406 1.2584 7.5 1.27344 7.5C1.28848 7.5 1.30078 7.50595 1.30078 7.51321C1.30078 7.52048 1.32539 7.52642 1.35547 7.52642C1.38555 7.52642 1.41016 7.53237 1.41016 7.53963C1.41016 7.54796 1.50131 7.55285 1.65625 7.55285H1.90234V10.6179C1.90234 12.6524 1.90694 13.6829 1.91602 13.6829C1.92354 13.6829 1.92969 13.6948 1.92969 13.7093C1.92969 13.7239 1.93584 13.7358 1.94336 13.7358C1.95088 13.7358 1.95703 13.7464 1.95703 13.7593C1.95703 13.7722 1.96934 13.7914 1.98438 13.8018C1.99941 13.8123 2.01172 13.8288 2.01172 13.8384C2.01172 13.8625 2.07413 13.9207 2.09997 13.9207C2.11159 13.9207 2.12109 13.9267 2.12109 13.9339C2.12109 13.9412 2.1334 13.9472 2.14844 13.9472C2.16348 13.9472 2.17578 13.9531 2.17578 13.9604C2.17578 13.9676 2.18809 13.9736 2.20312 13.9736C2.21816 13.9736 2.23047 13.9795 2.23047 13.9868C2.23047 13.9956 4.16276 14 8 14C11.8372 14 13.7695 13.9956 13.7695 13.9868C13.7695 13.9795 13.788 13.9736 13.8105 13.9736C13.8331 13.9736 13.8516 13.9676 13.8516 13.9604C13.8516 13.9531 13.8609 13.9472 13.8724 13.9472C13.8994 13.9472 14.043 13.8085 14.043 13.7823C14.043 13.7712 14.0491 13.7622 14.0566 13.7622C14.0642 13.7622 14.0703 13.7503 14.0703 13.7358C14.0703 13.7212 14.0765 13.7093 14.084 13.7093C14.0915 13.7093 14.0977 13.6915 14.0977 13.6697C14.0977 13.6479 14.1038 13.6301 14.1113 13.6301C14.1204 13.6301 14.125 12.6084 14.125 10.5915V7.55285H14.3574C14.5033 7.55285 14.5898 7.54792 14.5898 7.53963C14.5898 7.53237 14.6145 7.52642 14.6445 7.52642C14.6746 7.52642 14.6992 7.52048 14.6992 7.51321C14.6992 7.50595 14.7115 7.5 14.7266 7.5C14.7416 7.5 14.7539 7.49406 14.7539 7.48679C14.7539 7.47952 14.7633 7.47358 14.7748 7.47358C14.8019 7.47358 14.918 7.36143 14.918 7.3352C14.918 7.32412 14.9241 7.31504 14.9316 7.31504C14.9392 7.31504 14.9453 7.30315 14.9453 7.28862C14.9453 7.27409 14.9515 7.2622 14.959 7.2622C14.9665 7.2622 14.9727 7.24436 14.9727 7.22256C14.9727 7.20076 14.9788 7.18293 14.9863 7.18293C14.9954 7.18293 15 6.63245 15 5.55793C15 4.48341 14.9954 3.93293 14.9863 3.93293C14.9788 3.93293 14.9727 3.9164 14.9727 3.89621C14.9727 3.87465 14.9614 3.85164 14.9453 3.84045C14.9303 3.82997 14.918 3.81364 14.918 3.80416C14.918 3.78171 14.801 3.6687 14.7778 3.6687C14.768 3.6687 14.7511 3.65681 14.7402 3.64228C14.7287 3.62677 14.7048 3.61585 14.6825 3.61585C14.6616 3.61585 14.6445 3.60991 14.6445 3.60264C14.6445 3.59394 14.2435 3.58943 13.4688 3.58943C12.3021 3.58943 12.293 3.58922 12.293 3.56301C12.293 3.54848 12.2991 3.53659 12.3066 3.53659C12.3142 3.53659 12.3203 3.5247 12.3203 3.51016C12.3203 3.49563 12.3265 3.48374 12.334 3.48374C12.3415 3.48374 12.3477 3.47185 12.3477 3.45732C12.3477 3.44278 12.3538 3.43089 12.3613 3.43089C12.3688 3.43089 12.375 3.419 12.375 3.40447C12.375 3.38994 12.3812 3.37805 12.3887 3.37805C12.3962 3.37805 12.4023 3.36021 12.4023 3.33841C12.4023 3.31662 12.4085 3.29878 12.416 3.29878C12.4235 3.29878 12.4297 3.275 12.4297 3.24593C12.4297 3.21687 12.4358 3.19309 12.4434 3.19309C12.4509 3.19309 12.457 3.16931 12.457 3.14024C12.457 3.11118 12.4632 3.0874 12.4707 3.0874C12.4787 3.0874 12.4844 3.04337 12.4844 2.98171C12.4844 2.92005 12.4901 2.87602 12.498 2.87602C12.5062 2.87602 12.5117 2.82757 12.5117 2.75711C12.5117 2.68666 12.5062 2.63821 12.498 2.63821C12.4901 2.63821 12.4844 2.59418 12.4844 2.53252C12.4844 2.47086 12.4787 2.42683 12.4707 2.42683C12.4632 2.42683 12.457 2.40305 12.457 2.37398C12.457 2.34492 12.4509 2.32114 12.4434 2.32114C12.4358 2.32114 12.4297 2.29736 12.4297 2.26829C12.4297 2.23923 12.4235 2.21545 12.416 2.21545C12.4085 2.21545 12.4023 2.19761 12.4023 2.17581C12.4023 2.15401 12.3962 2.13618 12.3887 2.13618C12.3812 2.13618 12.375 2.12429 12.375 2.10976C12.375 2.09522 12.3688 2.08333 12.3613 2.08333C12.3538 2.08333 12.3477 2.0655 12.3477 2.0437C12.3477 2.0219 12.3415 2.00407 12.334 2.00407C12.3265 2.00407 12.3203 1.99217 12.3203 1.97764C12.3203 1.96311 12.3142 1.95122 12.3066 1.95122C12.2991 1.95122 12.293 1.94064 12.293 1.92772C12.293 1.91478 12.2807 1.89564 12.2656 1.88516C12.2506 1.87469 12.2383 1.85554 12.2383 1.84261C12.2383 1.82969 12.2321 1.81911 12.2246 1.81911C12.2171 1.81911 12.2109 1.80961 12.2109 1.79798C12.2109 1.78637 12.1925 1.7602 12.1699 1.73984C12.1474 1.71948 12.1289 1.69623 12.1289 1.68817C12.1289 1.66757 11.7912 1.3435 11.7698 1.3435C11.7601 1.3435 11.7433 1.33161 11.7324 1.31707C11.7216 1.30254 11.7031 1.29065 11.6914 1.29065C11.6797 1.29065 11.6612 1.27876 11.6504 1.26423C11.6395 1.2497 11.6197 1.2378 11.6064 1.2378C11.593 1.2378 11.582 1.23186 11.582 1.22459C11.582 1.21733 11.5697 1.21138 11.5547 1.21138C11.5396 1.21138 11.5273 1.20544 11.5273 1.19817C11.5273 1.1909 11.515 1.18496 11.5 1.18496C11.485 1.18496 11.4727 1.17901 11.4727 1.17175C11.4727 1.16448 11.4604 1.15854 11.4453 1.15854C11.4303 1.15854 11.418 1.15259 11.418 1.14533C11.418 1.13806 11.4057 1.13211 11.3906 1.13211C11.3756 1.13211 11.3633 1.12617 11.3633 1.1189C11.3633 1.11164 11.3448 1.10569 11.3223 1.10569C11.2997 1.10569 11.2812 1.09975 11.2812 1.09248C11.2812 1.08521 11.2628 1.07927 11.2402 1.07927C11.2177 1.07927 11.1992 1.07332 11.1992 1.06606C11.1992 1.05879 11.1746 1.05285 11.1445 1.05285C11.1145 1.05285 11.0898 1.0469 11.0898 1.03963C11.0898 1.03237 11.0591 1.02642 11.0215 1.02642C10.9839 1.02642 10.9531 1.02048 10.9531 1.01321C10.9531 1.00481 10.8438 1 10.6523 1C10.4609 1 10.3516 1.00481 10.3516 1.01321C10.3516 1.02056 10.3151 1.02642 10.2695 1.02642C10.224 1.02642 10.1875 1.03229 10.1875 1.03963C10.1875 1.0469 10.1567 1.05285 10.1191 1.05285C10.0815 1.05285 10.0508 1.05879 10.0508 1.06606C10.0508 1.07332 10.0262 1.07927 9.99609 1.07927C9.96602 1.07927 9.94141 1.08521 9.94141 1.09248C9.94141 1.09975 9.92295 1.10569 9.90039 1.10569C9.87783 1.10569 9.85938 1.11164 9.85938 1.1189C9.85938 1.12617 9.84707 1.13211 9.83203 1.13211C9.81699 1.13211 9.80469 1.13806 9.80469 1.14533C9.80469 1.15259 9.78623 1.15854 9.76367 1.15854C9.74111 1.15854 9.72266 1.16448 9.72266 1.17175C9.72266 1.17901 9.71035 1.18496 9.69531 1.18496C9.68027 1.18496 9.66797 1.1909 9.66797 1.19817C9.66797 1.20544 9.64951 1.21138 9.62695 1.21138C9.60439 1.21138 9.58594 1.21733 9.58594 1.22459C9.58594 1.23186 9.57499 1.2378 9.56161 1.2378C9.54823 1.2378 9.52842 1.2497 9.51758 1.26423C9.50674 1.27876 9.48693 1.29065 9.47354 1.29065C9.46017 1.29065 9.44922 1.2966 9.44922 1.30386C9.44922 1.31113 9.43691 1.31707 9.42188 1.31707C9.40684 1.31707 9.39453 1.32302 9.39453 1.33028C9.39453 1.33755 9.38358 1.3435 9.37021 1.3435C9.35682 1.3435 9.33701 1.35539 9.32617 1.36992C9.31533 1.38445 9.29687 1.39634 9.28516 1.39634C9.27344 1.39634 9.25498 1.40823 9.24414 1.42276C9.2333 1.4373 9.21595 1.44919 9.20559 1.44919C9.19524 1.44919 9.16951 1.46702 9.14844 1.48882C9.12737 1.51062 9.10288 1.52846 9.09402 1.52846C9.08518 1.52846 9.05429 1.55224 9.02539 1.5813C8.99649 1.61037 8.96615 1.63415 8.95796 1.63415C8.93871 1.63415 8.62891 1.93324 8.62891 1.95181C8.62891 1.95956 8.59199 2.00091 8.54688 2.0437C8.50176 2.08649 8.46484 2.12837 8.46484 2.13675C8.46484 2.14514 8.44639 2.16867 8.42383 2.18902C8.40127 2.20938 8.38281 2.23425 8.38281 2.24425C8.38281 2.25426 8.37051 2.27103 8.35547 2.2815C8.34043 2.29198 8.32812 2.30982 8.32812 2.32114C8.32812 2.33246 8.31582 2.3503 8.30078 2.36077C8.28574 2.37125 8.27344 2.38908 8.27344 2.40041C8.27344 2.41173 8.26113 2.42956 8.24609 2.44004C8.23105 2.45052 8.21875 2.46835 8.21875 2.47967C8.21875 2.491 8.20645 2.50883 8.19141 2.51931C8.17637 2.52979 8.16406 2.54893 8.16406 2.56186C8.16406 2.57478 8.15791 2.58537 8.15039 2.58537C8.14287 2.58537 8.13672 2.59595 8.13672 2.60887C8.13672 2.6218 8.12441 2.64095 8.10938 2.65142C8.09434 2.6619 8.08203 2.68104 8.08203 2.69398C8.08203 2.7069 8.07588 2.71748 8.06836 2.71748C8.06084 2.71748 8.05469 2.72937 8.05469 2.7439C8.05469 2.75844 8.04854 2.77033 8.04102 2.77033C8.0335 2.77033 8.02734 2.78222 8.02734 2.79675C8.02734 2.81128 8.02383 2.82317 8.01954 2.82317C8.00349 2.82317 7.97266 2.78469 7.97266 2.76466C7.97266 2.75324 7.9665 2.7439 7.95898 2.7439C7.95146 2.7439 7.94531 2.73201 7.94531 2.71748C7.94531 2.70295 7.93916 2.69106 7.93164 2.69106C7.92412 2.69106 7.91797 2.68047 7.91797 2.66755C7.91797 2.65462 7.90566 2.63548 7.89062 2.625C7.87559 2.61452 7.86328 2.59538 7.86328 2.58245C7.86328 2.56953 7.85713 2.55894 7.84961 2.55894C7.84209 2.55894 7.83594 2.54836 7.83594 2.53544C7.83594 2.52251 7.82363 2.50336 7.80859 2.49289C7.79355 2.48241 7.78125 2.46457 7.78125 2.45325C7.78125 2.44193 7.76895 2.42409 7.75391 2.41362C7.73887 2.40314 7.72656 2.38531 7.72656 2.37398C7.72656 2.36266 7.71426 2.34483 7.69922 2.33435C7.68418 2.32387 7.67188 2.30711 7.67188 2.29709C7.67188 2.28709 7.65342 2.26223 7.63086 2.24187C7.6083 2.22151 7.58984 2.19785 7.58984 2.18929C7.58984 2.18074 7.56523 2.1509 7.53516 2.12297C7.50508 2.09504 7.48047 2.06574 7.48047 2.05785C7.48047 2.03911 7.0067 1.5813 6.98731 1.5813C6.97915 1.5813 6.94882 1.55752 6.91992 1.52846C6.89102 1.49939 6.85903 1.47561 6.84881 1.47561C6.8386 1.47561 6.82139 1.46372 6.81055 1.44919C6.79971 1.43465 6.78125 1.42276 6.76953 1.42276C6.75781 1.42276 6.73936 1.41087 6.72852 1.39634C6.71767 1.38181 6.69786 1.36992 6.68448 1.36992C6.67111 1.36992 6.66016 1.36397 6.66016 1.35671C6.66016 1.34944 6.64921 1.3435 6.63583 1.3435C6.62245 1.3435 6.60264 1.33161 6.5918 1.31707C6.58096 1.30254 6.56114 1.29065 6.54776 1.29065C6.53439 1.29065 6.52344 1.28471 6.52344 1.27744C6.52344 1.27017 6.51113 1.26423 6.49609 1.26423C6.48105 1.26423 6.46875 1.25828 6.46875 1.25102C6.46875 1.24375 6.45645 1.2378 6.44141 1.2378C6.42637 1.2378 6.41406 1.23186 6.41406 1.22459C6.41406 1.21733 6.40176 1.21138 6.38672 1.21138C6.37168 1.21138 6.35938 1.20544 6.35938 1.19817C6.35938 1.1909 6.34707 1.18496 6.33203 1.18496C6.31699 1.18496 6.30469 1.17901 6.30469 1.17175C6.30469 1.16448 6.28623 1.15854 6.26367 1.15854C6.24111 1.15854 6.22266 1.15259 6.22266 1.14533C6.22266 1.13806 6.2042 1.13211 6.18164 1.13211C6.15908 1.13211 6.14062 1.12617 6.14062 1.1189C6.14062 1.11164 6.12217 1.10569 6.09961 1.10569C6.07705 1.10569 6.05859 1.09975 6.05859 1.09248C6.05859 1.08521 6.04014 1.07927 6.01758 1.07927C5.99502 1.07927 5.97656 1.07332 5.97656 1.06606C5.97656 1.05879 5.9458 1.05285 5.9082 1.05285C5.87061 1.05285 5.83984 1.0469 5.83984 1.03963C5.83984 1.03229 5.80338 1.02642 5.75781 1.02642C5.71224 1.02642 5.67578 1.02056 5.67578 1.01321C5.67578 1.00478 5.56185 1 5.36133 1C5.1608 1 5.04688 1.00478 5.04688 1.01321ZM5.56641 1.93801C5.56641 1.94527 5.59717 1.95122 5.63477 1.95122C5.67236 1.95122 5.70312 1.95716 5.70312 1.96443C5.70312 1.9717 5.72773 1.97764 5.75781 1.97764C5.78789 1.97764 5.8125 1.98359 5.8125 1.99085C5.8125 1.99812 5.83096 2.00407 5.85352 2.00407C5.87607 2.00407 5.89453 2.01001 5.89453 2.01728C5.89453 2.02454 5.90684 2.03049 5.92188 2.03049C5.93691 2.03049 5.94922 2.03643 5.94922 2.0437C5.94922 2.05097 5.96152 2.05691 5.97656 2.05691C5.9916 2.05691 6.00391 2.06286 6.00391 2.07012C6.00391 2.07739 6.01621 2.08333 6.03125 2.08333C6.04629 2.08333 6.05859 2.08928 6.05859 2.09654C6.05859 2.10381 6.0709 2.10976 6.08594 2.10976C6.10098 2.10976 6.11328 2.1157 6.11328 2.12297C6.11328 2.13023 6.12423 2.13618 6.1376 2.13618C6.15099 2.13618 6.1708 2.14807 6.18164 2.1626C6.19248 2.17713 6.21094 2.18902 6.22266 2.18902C6.23437 2.18902 6.25283 2.20091 6.26367 2.21545C6.27451 2.22998 6.29173 2.24187 6.30194 2.24187C6.31215 2.24187 6.34414 2.26565 6.37305 2.29472C6.40195 2.32378 6.43233 2.34756 6.44056 2.34756C6.45996 2.34756 6.66016 2.54084 6.66016 2.55959C6.66016 2.56744 6.69092 2.60282 6.72852 2.63821C6.76611 2.6736 6.79688 2.70947 6.79688 2.71793C6.79688 2.72638 6.81533 2.74997 6.83789 2.77033C6.86045 2.79068 6.87891 2.81555 6.87891 2.82555C6.87891 2.83556 6.89121 2.85233 6.90625 2.8628C6.92129 2.87328 6.93359 2.89112 6.93359 2.90244C6.93359 2.91376 6.9459 2.9316 6.96094 2.94207C6.97598 2.95255 6.98828 2.97039 6.98828 2.98171C6.98828 2.99303 7.00059 3.01086 7.01562 3.02134C7.03066 3.03182 7.04297 3.05096 7.04297 3.0639C7.04297 3.07682 7.04912 3.0874 7.05664 3.0874C7.06416 3.0874 7.07031 3.09929 7.07031 3.11382C7.07031 3.12835 7.07646 3.14024 7.08398 3.14024C7.0915 3.14024 7.09766 3.15083 7.09766 3.16375C7.09766 3.17668 7.10996 3.19582 7.125 3.2063C7.14004 3.21678 7.15234 3.23592 7.15234 3.24885C7.15234 3.26178 7.1585 3.27236 7.16602 3.27236C7.17354 3.27236 7.17969 3.28425 7.17969 3.29878C7.17969 3.31331 7.18584 3.3252 7.19336 3.3252C7.20088 3.3252 7.20703 3.33709 7.20703 3.35163C7.20703 3.36616 7.21318 3.37805 7.2207 3.37805C7.22822 3.37805 7.23438 3.38994 7.23438 3.40447C7.23438 3.419 7.24053 3.43089 7.24805 3.43089C7.25557 3.43089 7.26172 3.44278 7.26172 3.45732C7.26172 3.47185 7.26787 3.48374 7.27539 3.48374C7.28291 3.48374 7.28906 3.49563 7.28906 3.51016C7.28906 3.5247 7.29521 3.53659 7.30273 3.53659C7.31025 3.53659 7.31641 3.54848 7.31641 3.56301C7.31641 3.58921 7.30729 3.58943 6.26367 3.58943C5.57096 3.58943 5.21094 3.58491 5.21094 3.57622C5.21094 3.56895 5.18018 3.56301 5.14258 3.56301C5.10498 3.56301 5.07422 3.55706 5.07422 3.5498C5.07422 3.54253 5.05576 3.53659 5.0332 3.53659C5.01064 3.53659 4.99219 3.53064 4.99219 3.52337C4.99219 3.51611 4.97988 3.51016 4.96484 3.51016C4.9498 3.51016 4.9375 3.50422 4.9375 3.49695C4.9375 3.48969 4.9252 3.48374 4.91016 3.48374C4.89512 3.48374 4.88281 3.47779 4.88281 3.47053C4.88281 3.46326 4.8735 3.45732 4.86211 3.45732C4.83512 3.45732 4.60938 3.23917 4.60938 3.21309C4.60938 3.20209 4.60322 3.19309 4.5957 3.19309C4.58818 3.19309 4.58203 3.1812 4.58203 3.16667C4.58203 3.15213 4.57588 3.14024 4.56836 3.14024C4.56084 3.14024 4.55469 3.12835 4.55469 3.11382C4.55469 3.09929 4.54854 3.0874 4.54102 3.0874C4.5335 3.0874 4.52734 3.06956 4.52734 3.04776C4.52734 3.02597 4.52119 3.00813 4.51367 3.00813C4.50615 3.00813 4.5 2.98435 4.5 2.95528C4.5 2.92622 4.49385 2.90244 4.48633 2.90244C4.47804 2.90244 4.47266 2.84519 4.47266 2.75711C4.47266 2.66903 4.47804 2.61179 4.48633 2.61179C4.49385 2.61179 4.5 2.58801 4.5 2.55894C4.5 2.52988 4.50615 2.5061 4.51367 2.5061C4.52119 2.5061 4.52734 2.48826 4.52734 2.46646C4.52734 2.44466 4.5335 2.42683 4.54102 2.42683C4.54854 2.42683 4.55469 2.41625 4.55469 2.40333C4.55469 2.39039 4.56699 2.37125 4.58203 2.36077C4.59707 2.3503 4.60938 2.33246 4.60938 2.32114C4.60938 2.30982 4.62168 2.29198 4.63672 2.2815C4.65176 2.27103 4.66406 2.2547 4.66406 2.24521C4.66406 2.22414 4.78034 2.10976 4.80177 2.10976C4.81023 2.10976 4.8344 2.09192 4.85547 2.07012C4.87654 2.04832 4.90362 2.03049 4.91564 2.03049C4.92767 2.03049 4.9375 2.02454 4.9375 2.01728C4.9375 2.01001 4.9498 2.00407 4.96484 2.00407C4.97988 2.00407 4.99219 1.99812 4.99219 1.99085C4.99219 1.98359 5.01064 1.97764 5.0332 1.97764C5.05576 1.97764 5.07422 1.9717 5.07422 1.96443C5.07422 1.95716 5.09268 1.95122 5.11523 1.95122C5.13779 1.95122 5.15625 1.94527 5.15625 1.93801C5.15625 1.92979 5.23373 1.9248 5.36133 1.9248C5.48893 1.9248 5.56641 1.92979 5.56641 1.93801ZM10.8711 1.93801C10.8711 1.94527 10.8896 1.95122 10.9121 1.95122C10.9347 1.95122 10.9531 1.95716 10.9531 1.96443C10.9531 1.9717 10.9702 1.97764 10.9911 1.97764C11.0134 1.97764 11.0372 1.98855 11.0488 2.00407C11.0597 2.0186 11.0795 2.03049 11.0929 2.03049C11.1062 2.03049 11.1172 2.03643 11.1172 2.0437C11.1172 2.05097 11.1269 2.05691 11.1388 2.05691C11.1506 2.05691 11.184 2.08069 11.2129 2.10976C11.2418 2.13882 11.2751 2.1626 11.287 2.1626C11.2989 2.1626 11.3086 2.1721 11.3086 2.18373C11.3086 2.19534 11.3271 2.22151 11.3496 2.24187C11.3722 2.26223 11.3906 2.28709 11.3906 2.29709C11.3906 2.30711 11.4029 2.32387 11.418 2.33435C11.433 2.34483 11.4453 2.36397 11.4453 2.3769C11.4453 2.38982 11.4515 2.40041 11.459 2.40041C11.4665 2.40041 11.4727 2.4123 11.4727 2.42683C11.4727 2.44136 11.4788 2.45325 11.4863 2.45325C11.4938 2.45325 11.5 2.47703 11.5 2.5061C11.5 2.53516 11.5062 2.55894 11.5137 2.55894C11.5213 2.55894 11.5273 2.59418 11.5273 2.63821C11.5273 2.68225 11.5334 2.71748 11.541 2.71748C11.5485 2.71748 11.5547 2.73532 11.5547 2.75711C11.5547 2.77891 11.5485 2.79675 11.541 2.79675C11.5334 2.79675 11.5273 2.83198 11.5273 2.87602C11.5273 2.92005 11.5213 2.95528 11.5137 2.95528C11.5062 2.95528 11.5 2.97907 11.5 3.00813C11.5 3.0372 11.4938 3.06098 11.4863 3.06098C11.4788 3.06098 11.4727 3.07287 11.4727 3.0874C11.4727 3.10193 11.4665 3.11382 11.459 3.11382C11.4515 3.11382 11.4453 3.12571 11.4453 3.14024C11.4453 3.15478 11.4392 3.16667 11.4316 3.16667C11.4241 3.16667 11.418 3.17617 11.418 3.18779C11.418 3.1994 11.3995 3.22558 11.377 3.24593C11.3544 3.26629 11.3359 3.28969 11.3359 3.29792C11.3359 3.31866 11.2452 3.40447 11.2232 3.40447C11.2133 3.40447 11.1964 3.41636 11.1855 3.43089C11.1747 3.44543 11.1562 3.45732 11.1445 3.45732C11.1328 3.45732 11.1144 3.46921 11.1035 3.48374C11.0927 3.49827 11.0729 3.51016 11.0595 3.51016C11.0461 3.51016 11.0352 3.51611 11.0352 3.52337C11.0352 3.53064 11.0167 3.53659 10.9941 3.53659C10.9716 3.53659 10.9531 3.54253 10.9531 3.5498C10.9531 3.55706 10.9224 3.56301 10.8848 3.56301C10.8472 3.56301 10.8164 3.56895 10.8164 3.57622C10.8164 3.58491 10.4564 3.58943 9.76367 3.58943H8.71094V3.5498C8.71094 3.528 8.71709 3.51016 8.72461 3.51016C8.73213 3.51016 8.73828 3.49827 8.73828 3.48374C8.73828 3.46921 8.74443 3.45732 8.75195 3.45732C8.75947 3.45732 8.76562 3.44543 8.76562 3.43089C8.76562 3.41636 8.77178 3.40447 8.7793 3.40447C8.78682 3.40447 8.79297 3.39258 8.79297 3.37805C8.79297 3.36352 8.79912 3.35163 8.80664 3.35163C8.81416 3.35163 8.82031 3.33974 8.82031 3.3252C8.82031 3.31067 8.82646 3.29878 8.83398 3.29878C8.8415 3.29878 8.84766 3.28689 8.84766 3.27236C8.84766 3.25783 8.85381 3.24593 8.86133 3.24593C8.86885 3.24593 8.875 3.23535 8.875 3.22243C8.875 3.2095 8.8873 3.19035 8.90234 3.17988C8.91738 3.1694 8.92969 3.15026 8.92969 3.13732C8.92969 3.1244 8.93584 3.11382 8.94336 3.11382C8.95088 3.11382 8.95703 3.10193 8.95703 3.0874C8.95703 3.07287 8.96318 3.06098 8.9707 3.06098C8.97822 3.06098 8.98438 3.05039 8.98438 3.03747C8.98438 3.02454 8.99668 3.0054 9.01172 2.99492C9.02676 2.98444 9.03906 2.96661 9.03906 2.95528C9.03906 2.94396 9.05137 2.92613 9.06641 2.91565C9.08145 2.90517 9.09375 2.88734 9.09375 2.87602C9.09375 2.86469 9.10605 2.84686 9.12109 2.83638C9.13613 2.82591 9.14844 2.80935 9.14844 2.79958C9.14844 2.78981 9.1792 2.75287 9.2168 2.71748C9.25439 2.68209 9.28516 2.64676 9.28516 2.63895C9.28516 2.61866 9.6505 2.26829 9.67166 2.26829C9.68135 2.26829 9.69814 2.2564 9.70898 2.24187C9.71983 2.22734 9.73828 2.21545 9.75 2.21545C9.76172 2.21545 9.78017 2.20356 9.79102 2.18902C9.80186 2.17449 9.82031 2.1626 9.83203 2.1626C9.84375 2.1626 9.86221 2.15071 9.87305 2.13618C9.88389 2.12165 9.9037 2.10976 9.91708 2.10976C9.93046 2.10976 9.94141 2.10381 9.94141 2.09654C9.94141 2.08928 9.95371 2.08333 9.96875 2.08333C9.98379 2.08333 9.99609 2.07739 9.99609 2.07012C9.99609 2.06286 10.0084 2.05691 10.0234 2.05691C10.0385 2.05691 10.0508 2.05097 10.0508 2.0437C10.0508 2.03643 10.0692 2.03049 10.0918 2.03049C10.1144 2.03049 10.1328 2.02454 10.1328 2.01728C10.1328 2.01001 10.1513 2.00407 10.1738 2.00407C10.1964 2.00407 10.2148 1.99812 10.2148 1.99085C10.2148 1.98359 10.2333 1.97764 10.2559 1.97764C10.2784 1.97764 10.2969 1.9717 10.2969 1.96443C10.2969 1.95716 10.3276 1.95122 10.3652 1.95122C10.4028 1.95122 10.4336 1.94527 10.4336 1.93801C10.4336 1.92975 10.5156 1.9248 10.6523 1.9248C10.7891 1.9248 10.8711 1.92975 10.8711 1.93801ZM7.53516 5.55226C7.53516 6.43428 7.53222 6.59314 7.51562 6.60917C7.49883 6.62541 7.10859 6.62805 4.72656 6.62805H1.95703V5.57114V4.51423H4.74609H7.53516V5.55226ZM14.043 5.57114V6.62805H11.2676H8.49219V5.57114V4.51423H11.2676H14.043V5.57114ZM7.53516 10.314V13.0752H5.19727H2.85938V10.314V7.55285H5.19727H7.53516V10.314ZM13.168 10.314V13.0752H10.8301H8.49219V10.314V7.55285H10.8301H13.168V10.314Z" stroke="#FF4656" stroke-width="0.2" mask="url(#path-1-outside-1)"/>
</svg>
