<svg width="174" height="30" viewBox="0 0 174 30" fill="none" xmlns="http://www.w3.org/2000/svg">
<path d="M64.2994 10.9074L66.5634 10.9907V7.69257H59.4854C58.4845 7.69257 57.5432 7.88307 56.6733 8.25218C55.8035 8.63319 55.0528 9.14517 54.4093 9.78813C53.7659 10.4311 53.2654 11.1931 52.896 12.0623C52.5266 12.9315 52.3479 13.8721 52.3479 14.8723C52.3479 15.8605 52.5266 16.7892 52.896 17.6584C53.2654 18.5276 53.7659 19.2777 54.4093 19.9207C55.0528 20.5636 55.7915 21.0637 56.6614 21.4447C57.5193 21.8257 58.4607 22.0043 59.4616 22.0043C59.9501 22.0043 60.3195 22.1234 60.5817 22.3615C60.8438 22.5996 60.9749 22.9211 60.9749 23.3021C60.9749 23.6712 60.8438 23.9927 60.5698 24.2785C60.2957 24.5642 59.9382 24.6952 59.4973 24.6952C59.1279 24.6952 58.7824 24.5642 58.4726 24.3142C58.1509 24.0642 57.996 23.7308 57.996 23.3021H54.3378C54.3378 24.2308 54.4808 25.0048 54.7549 25.6358C55.0409 26.2669 55.4102 26.767 55.8869 27.148C56.3635 27.529 56.9116 27.7909 57.5312 27.9576C58.1509 28.1243 58.8062 28.2077 59.5093 28.2077C60.8796 28.2077 61.9996 27.8981 62.8457 27.2789C63.6917 26.6598 64.2517 25.874 64.5258 24.9333C64.6211 24.588 64.6568 24.207 64.6211 23.8022C64.5854 23.3974 64.5139 23.0045 64.3947 22.6235C64.2636 22.2424 64.0849 21.9091 63.8585 21.6114C63.6321 21.3137 63.3461 21.0756 63.0125 20.897C63.6559 20.6231 64.204 20.254 64.6807 19.8016C65.1573 19.3372 65.5505 18.8252 65.8722 18.2537C66.194 17.6822 66.4204 17.0988 66.5634 16.5035C66.7064 15.9081 66.7659 15.3247 66.7183 14.7651C66.6825 14.0269 66.468 13.3244 66.0986 12.6338C65.7054 11.9551 65.1096 11.3717 64.2994 10.9074ZM62.7265 16.2415C62.5358 16.6701 62.2856 17.0393 61.9639 17.3607C61.6422 17.6822 61.2728 17.9323 60.8438 18.1108C60.4148 18.2894 59.962 18.3847 59.4854 18.3847C58.9969 18.3847 58.556 18.2894 58.1389 18.1108C57.7219 17.9323 57.3525 17.6703 57.0427 17.3607C56.721 17.0393 56.4707 16.6701 56.292 16.2415C56.1014 15.8248 56.006 15.3723 56.006 14.8842C56.006 14.396 56.1014 13.9435 56.2801 13.503C56.4588 13.0624 56.721 12.6933 57.0308 12.3719C57.3525 12.0504 57.7219 11.8003 58.127 11.6217C58.5441 11.4431 58.9969 11.3479 59.4735 11.3479C59.962 11.3479 60.4148 11.4431 60.8319 11.6217C61.2609 11.8003 61.6303 12.0623 61.952 12.3719C62.2737 12.6933 62.5239 13.0624 62.7027 13.503C62.8814 13.9316 62.9767 14.396 62.9767 14.8842C63.0006 15.3723 62.9052 15.8248 62.7265 16.2415Z" fill="white"/>
<path d="M79.0033 9.72774C78.4671 9.10859 77.8237 8.62042 77.0849 8.25132C76.3461 7.88221 75.5478 7.70361 74.6779 7.70361C73.7842 7.70361 72.962 7.89412 72.1875 8.26322C71.413 8.63233 70.7457 9.15622 70.1738 9.79918C69.6018 10.4421 69.149 11.2042 68.8273 12.0733C68.4936 12.9425 68.3387 13.8831 68.3387 14.8833C68.3387 15.8715 68.5056 16.8003 68.8273 17.6694C69.1609 18.5386 69.6018 19.2887 70.1738 19.9317C70.7457 20.5747 71.413 21.0747 72.1875 21.4558C72.962 21.8368 73.7961 22.0154 74.6779 22.0154C75.5478 22.0154 76.3461 21.8368 77.0849 21.4796C77.8237 21.1224 78.4552 20.6223 79.0033 19.9912V21.9677H82.6257V7.75124H79.0033V9.72774ZM78.6697 16.2407C78.4909 16.6693 78.2288 17.0384 77.919 17.3599C77.5973 17.6814 77.2279 17.9314 76.7989 18.11C76.3699 18.2886 75.9171 18.3838 75.4405 18.3838C74.9401 18.3838 74.4753 18.2886 74.0583 18.11C73.6412 17.9314 73.2719 17.6694 72.962 17.3599C72.6403 17.0384 72.402 16.6693 72.2233 16.2407C72.0445 15.812 71.9611 15.3596 71.9611 14.8833C71.9611 14.3951 72.0445 13.9427 72.2233 13.5021C72.402 13.0616 72.6403 12.6925 72.962 12.371C73.2838 12.0495 73.6532 11.7995 74.0583 11.6209C74.4753 11.4423 74.9281 11.347 75.4405 11.347C75.9291 11.347 76.3819 11.4423 76.7989 11.6209C77.2279 11.7995 77.5973 12.0614 77.919 12.371C78.2407 12.6925 78.4909 13.0616 78.6697 13.5021C78.8484 13.9308 78.9437 14.3951 78.9437 14.8833C78.9437 15.3715 78.8603 15.8239 78.6697 16.2407Z" fill="white"/>
<path d="M102.954 9.21564C102.525 8.73937 102.001 8.37027 101.393 8.09641C100.785 7.82256 100.106 7.69159 99.3553 7.69159C98.4497 7.69159 97.6633 7.85828 97.0198 8.20357C96.3764 8.53696 95.8283 9.02513 95.3993 9.64428C95.0061 9.04894 94.5056 8.57268 93.8741 8.22739C93.2426 7.8821 92.48 7.7035 91.5744 7.7035C90.2517 7.7035 89.1674 8.14404 88.2976 9.03704V7.75112H84.2462V21.9557H88.2976V13.5258C88.3214 12.7281 88.4763 12.1804 88.7623 11.8589C89.0602 11.5374 89.3819 11.335 89.7513 11.2398C90.0134 11.1207 90.2875 11.085 90.5735 11.1207C90.8713 11.1564 91.1335 11.2517 91.3837 11.3945C91.634 11.5374 91.8365 11.7398 91.9795 12.0018C92.1344 12.2637 92.2059 12.5614 92.2059 12.8829V21.9557H96.2572V13.5496C96.3049 12.7519 96.4598 12.1923 96.7219 11.8708C96.996 11.5374 97.3058 11.335 97.6752 11.2279C97.9612 11.1326 98.2472 11.0969 98.5331 11.1326C98.831 11.1564 99.0932 11.2517 99.3434 11.3945C99.5936 11.5374 99.7962 11.7398 99.963 11.9899C100.13 12.2399 100.201 12.5376 100.201 12.8829V21.9557H104.253V12.8829C104.253 12.1685 104.145 11.5017 103.907 10.8707C103.716 10.2396 103.383 9.6919 102.954 9.21564Z" fill="white"/>
<path d="M139.988 9.21564C139.559 8.73937 139.035 8.37027 138.427 8.09641C137.819 7.82256 137.14 7.69159 136.389 7.69159C135.484 7.69159 134.697 7.85828 134.054 8.20357C133.411 8.53696 132.862 9.02513 132.433 9.64428C132.04 9.04894 131.54 8.57268 130.908 8.22739C130.277 7.8821 129.514 7.7035 128.608 7.7035C127.286 7.7035 126.202 8.14404 125.332 9.03704V7.75112H121.28V21.9557H125.332V13.5258C125.356 12.7281 125.51 12.1804 125.796 11.8589C126.094 11.5374 126.416 11.335 126.785 11.2398C127.048 11.1207 127.322 11.085 127.608 11.1207C127.905 11.1564 128.168 11.2517 128.418 11.3945C128.668 11.5374 128.871 11.7398 129.014 12.0018C129.169 12.2637 129.24 12.5614 129.24 12.8829V21.9557H133.291V13.5496C133.339 12.7519 133.494 12.1923 133.756 11.8708C134.03 11.5374 134.34 11.335 134.709 11.2279C134.995 11.1326 135.281 11.0969 135.567 11.1326C135.865 11.1564 136.127 11.2517 136.378 11.3945C136.628 11.5374 136.83 11.7398 136.997 11.9899C137.164 12.2399 137.235 12.5376 137.235 12.8829V21.9557H141.287V12.8829C141.287 12.1685 141.18 11.5017 140.941 10.8707C140.751 10.2396 140.429 9.6919 139.988 9.21564Z" fill="white"/>
<path d="M116.633 8.54887C115.477 7.97735 114.274 7.69159 113.023 7.69159C112.034 7.69159 111.104 7.88209 110.234 8.2512C109.365 8.63221 108.614 9.1442 107.971 9.78715C107.327 10.4301 106.827 11.1921 106.445 12.0613C106.064 12.9305 105.885 13.8711 105.885 14.8713C105.885 15.8595 106.076 16.7882 106.445 17.6574C106.827 18.5266 107.327 19.2767 107.971 19.9197C108.614 20.5626 109.365 21.0627 110.234 21.4437C111.104 21.8247 112.034 22.0033 113.023 22.0033C114.286 22.0033 115.454 21.7414 116.55 21.2056C117.646 20.6698 118.623 19.7649 119.493 18.4909L117.062 16.1453C116.657 16.7287 116.18 17.205 115.644 17.586C115.108 17.967 114.536 18.2408 113.928 18.3837C113.142 18.5623 112.487 18.5028 112.296 18.4075L119.672 11.4541C118.802 10.0848 117.789 9.12038 116.633 8.54887ZM109.841 16.6454C109.627 16.431 109.472 16.1215 109.365 15.7047C109.257 15.288 109.257 14.8356 109.353 14.3236C109.508 13.4187 109.865 12.6924 110.425 12.1447C110.985 11.6089 111.688 11.2755 112.546 11.1564C113.07 11.0969 113.535 11.1445 113.952 11.2874C114.369 11.4303 114.703 11.6089 114.953 11.8232L109.841 16.6454Z" fill="white"/>
<path d="M153.608 9.72774C153.059 9.10859 152.428 8.62042 151.689 8.25132C150.95 7.88221 150.152 7.70361 149.282 7.70361C148.388 7.70361 147.566 7.89412 146.792 8.26322C146.017 8.64424 145.35 9.15622 144.778 9.79918C144.206 10.4421 143.753 11.2042 143.432 12.0733C143.098 12.9425 142.943 13.8831 142.943 14.8833C142.943 15.8715 143.11 16.8003 143.432 17.6694C143.765 18.5386 144.206 19.2887 144.778 19.9317C145.35 20.5747 146.017 21.0747 146.792 21.4558C147.566 21.8368 148.4 22.0154 149.282 22.0154C150.152 22.0154 150.95 21.8368 151.689 21.4796C152.428 21.1224 153.059 20.6223 153.608 19.9912V21.9677H157.23V7.75124H153.608V9.72774ZM153.274 16.2407C153.083 16.6693 152.833 17.0384 152.523 17.3599C152.202 17.6814 151.832 17.9314 151.403 18.11C150.974 18.2886 150.521 18.3838 150.045 18.3838C149.544 18.3838 149.08 18.2886 148.663 18.11C148.246 17.9314 147.876 17.6694 147.566 17.3599C147.245 17.0384 147.006 16.6693 146.828 16.2407C146.649 15.812 146.565 15.3596 146.565 14.8833C146.565 14.3951 146.649 13.9427 146.828 13.5021C147.006 13.0616 147.245 12.6925 147.566 12.371C147.888 12.0495 148.257 11.7995 148.663 11.6209C149.08 11.4423 149.532 11.347 150.045 11.347C150.533 11.347 150.986 11.4423 151.403 11.6209C151.832 11.7995 152.202 12.0614 152.523 12.371C152.845 12.6925 153.095 13.0616 153.274 13.5021C153.453 13.9308 153.548 14.3951 153.548 14.8833C153.548 15.3715 153.453 15.8239 153.274 16.2407Z" fill="white"/>
<path d="M172.589 12.0733C172.256 11.2042 171.815 10.4421 171.243 9.79918C170.671 9.15622 170.004 8.64424 169.229 8.26322C168.455 7.88221 167.621 7.70361 166.739 7.70361C165.869 7.70361 165.071 7.88221 164.344 8.23941C163.617 8.59661 162.985 9.08478 162.437 9.70392V7.75124H158.839V25.8136H162.437V20.0508C162.973 20.6699 163.617 21.1462 164.344 21.5034C165.071 21.8487 165.869 22.0273 166.739 22.0273C167.632 22.0273 168.455 21.8368 169.229 21.4677C170.004 21.0866 170.671 20.5866 171.243 19.9436C171.815 19.3007 172.268 18.5505 172.589 17.6814C172.923 16.8122 173.078 15.8835 173.078 14.8952C173.078 13.8831 172.923 12.9425 172.589 12.0733ZM169.205 16.2407C169.027 16.6693 168.776 17.0384 168.455 17.3599C168.133 17.6814 167.764 17.9314 167.335 18.11C166.906 18.2886 166.453 18.3838 165.976 18.3838C165.476 18.3838 165.011 18.2886 164.582 18.11C164.153 17.9314 163.784 17.6694 163.462 17.3599C163.14 17.0384 162.89 16.6693 162.711 16.2407C162.533 15.812 162.437 15.3596 162.437 14.8833V14.7404C162.461 14.2761 162.556 13.8355 162.747 13.4188C162.926 13.0021 163.176 12.6449 163.498 12.3472C163.819 12.0495 164.189 11.8114 164.618 11.6209C165.047 11.4423 165.5 11.347 165.976 11.347C166.465 11.347 166.918 11.4423 167.335 11.6209C167.764 11.7995 168.133 12.0614 168.455 12.371C168.776 12.6925 169.027 13.0616 169.205 13.5021C169.384 13.9308 169.479 14.3951 169.479 14.8833C169.491 15.3715 169.396 15.8239 169.205 16.2407Z" fill="white"/>
<path d="M30.2551 0C22.1882 0 15.5154 6.54864 15.3843 14.6094C15.3366 17.5861 13.2276 20.0984 10.4869 20.4437C8.84257 20.6461 7.2697 20.1698 6.0543 19.0863C4.83889 18.0147 4.14778 16.4907 4.14778 14.8833C4.14778 12.1805 6.07813 9.85868 8.74725 9.3586C9.73625 9.16809 10.4512 8.31082 10.4512 7.31066C10.4512 6.69152 10.1771 6.10809 9.7005 5.70327C9.23579 5.32226 8.64001 5.15556 8.05614 5.26272C3.31368 6.09619 -0.0703826 10.204 0.00111173 15.0261C0.0368589 17.6099 1.18077 20.146 3.13495 21.9677C5.08912 23.7894 7.71058 24.7658 10.2963 24.611C12.8582 24.4681 15.2175 23.337 16.9333 21.4676C19.4595 26.5398 24.6547 29.7308 30.2909 29.7308C30.9343 29.7308 31.5897 29.6832 32.245 29.5998C38.9059 28.7307 44.2799 23.2417 45.0306 16.5621C45.5072 12.3353 44.1608 8.1084 41.3367 4.95315C38.5246 1.80981 34.4852 0 30.2551 0ZM40.7886 16.9788C39.9783 21.2057 36.5943 24.5872 32.3642 25.3968C28.7656 26.0874 25.2267 25.0158 22.6648 22.4559C20.1029 19.896 19.0305 16.3597 19.7216 12.7639C20.5319 8.53704 23.916 5.15556 28.146 4.34591C28.861 4.21494 29.5759 4.1435 30.267 4.1435C33.103 4.1435 35.784 5.23891 37.8335 7.28685C40.4073 9.84677 41.4797 13.3711 40.7886 16.9788Z" fill="#FF4656"/>
<path d="M30.2561 16.9908C29.136 16.9908 28.2424 17.8957 28.2424 19.0031C28.2424 20.1104 29.148 21.0153 30.2561 21.0153C31.3643 21.0153 32.2699 20.1104 32.2699 19.0031C32.2699 17.8957 31.3762 16.9908 30.2561 16.9908Z" fill="#FF4656"/>
<path d="M30.2561 8.70386C29.136 8.70386 28.2424 9.60876 28.2424 10.7161C28.2424 11.8234 29.148 12.7283 30.2561 12.7283C31.3643 12.7283 32.2699 11.8234 32.2699 10.7161C32.2699 9.60876 31.3762 8.70386 30.2561 8.70386Z" fill="#FF4656"/>
<path d="M26.1095 12.8474C24.9894 12.8474 24.0957 13.7523 24.0957 14.8596C24.0957 15.9669 25.0013 16.8718 26.1095 16.8718C27.2295 16.8718 28.1232 15.9669 28.1232 14.8596C28.1232 13.7523 27.2295 12.8474 26.1095 12.8474Z" fill="#FF4656"/>
<path d="M34.4027 16.8837C35.5149 16.8837 36.4165 15.9828 36.4165 14.8715C36.4165 13.7602 35.5149 12.8593 34.4027 12.8593C33.2906 12.8593 32.389 13.7602 32.389 14.8715C32.389 15.9828 33.2906 16.8837 34.4027 16.8837Z" fill="#FF4656"/>
<path d="M9.78493 11.7757C9.21297 11.7757 8.74826 12.2401 8.74826 12.8116V13.9665H7.60435C7.0324 13.9665 6.56769 14.4309 6.56769 15.0024C6.56769 15.5739 7.0324 16.0383 7.60435 16.0383H8.76018V17.1932C8.76018 17.7647 9.22489 18.2291 9.79684 18.2291C10.3688 18.2291 10.8335 17.7647 10.8335 17.1932V16.0383H11.9893C12.5613 16.0383 13.026 15.5739 13.026 15.0024C13.026 14.4309 12.5613 13.9665 11.9893 13.9665H10.8097V12.8116C10.8097 12.2401 10.3569 11.7757 9.78493 11.7757Z" fill="#FF4656"/>
</svg>
