<svg width="76" height="76" viewBox="0 0 76 76" fill="none" xmlns="http://www.w3.org/2000/svg">
<path fill-rule="evenodd" clip-rule="evenodd" d="M24.0473 47.3886H52.0574C64.9487 47.3886 75.3992 57.8391 75.3992 70.7304C75.3992 73.3086 73.3091 75.3987 70.7309 75.3987C68.3368 75.3987 66.3636 73.5965 66.0939 71.2748L66.0387 69.9075C65.6285 62.828 59.9598 57.1593 52.8803 56.7491L52.0574 56.7253H24.0473C16.3125 56.7253 10.0423 62.9956 10.0423 70.7304C10.0423 73.3086 7.95218 75.3987 5.37392 75.3987C2.79566 75.3987 0.705566 73.3086 0.705566 70.7304C0.705566 58.1783 10.6132 47.9403 23.0348 47.4102L24.0473 47.3886H52.0574H24.0473ZM38.0524 0.705078C50.9437 0.705078 61.3941 11.1555 61.3941 24.0468C61.3941 36.9381 50.9437 47.3886 38.0524 47.3886C25.1611 47.3886 14.7106 36.9381 14.7106 24.0468C14.7106 11.1555 25.1611 0.705078 38.0524 0.705078ZM38.0524 10.0418C30.3176 10.0418 24.0473 16.3121 24.0473 24.0468C24.0473 31.7816 30.3176 38.0519 38.0524 38.0519C45.7872 38.0519 52.0574 31.7816 52.0574 24.0468C52.0574 16.3121 45.7872 10.0418 38.0524 10.0418Z" fill="white"/>
</svg>
