<svg width="48" height="15" viewBox="0 0 48 15" fill="none" xmlns="http://www.w3.org/2000/svg">
<path fill-rule="evenodd" clip-rule="evenodd" d="M6.39612 0.0494975C4.52587 0.309079 2.70794 1.33199 1.58643 2.75579C0.936944 3.58041 0.265207 5.03947 0.0889638 6.00878C0.00340239 6.47953 -0.0245285 6.85635 0.0231401 6.8965C0.122667 6.98036 0.579708 7.18184 2.47519 7.97788C3.80702 8.53729 3.92871 8.5717 4.1219 8.44383C4.2366 8.36796 4.52764 8.27723 4.76868 8.24226L5.20682 8.1787L6.06765 6.91003C6.7675 5.87866 6.93816 5.55891 6.98015 5.20061C7.07921 4.35643 7.71957 3.43346 8.48525 3.03126C9.01938 2.75061 10.159 2.69251 10.7391 2.91618C11.3046 3.1343 11.9321 3.72463 12.2314 4.32023C13.0837 6.01565 11.9692 8.16244 10.1219 8.38338C9.74921 8.42794 9.47912 8.5811 8.43116 9.34217L7.18395 10.2479L7.11952 10.7032C6.935 12.0058 5.54581 12.8027 4.29833 12.3215C3.82555 12.1392 3.29849 11.5941 3.12411 11.1071C3.00997 10.7883 2.93186 10.7397 1.66091 10.1978C0.922513 9.88286 0.30161 9.64218 0.281035 9.66296C0.218004 9.72661 0.503178 10.4598 0.851103 11.1283C1.7731 12.9002 3.53218 14.2904 5.50019 14.8026C6.50365 15.0638 8.03603 15.066 9.05224 14.8079C11.848 14.0976 14.0422 11.7323 14.545 8.88665C15.3364 4.40776 12.1622 0.323463 7.64732 0.0113259C7.28888 -0.0134006 6.72579 0.00371108 6.39612 0.0494975ZM8.93996 3.89274C8.37567 4.15157 7.87896 4.92232 7.88064 5.53672C7.88315 6.50896 8.80822 7.46944 9.74214 7.46944C10.4857 7.46944 11.313 6.80615 11.5153 6.04771C11.9197 4.53074 10.3723 3.23584 8.93996 3.89274ZM10.4965 4.39639C11.1114 4.81129 11.297 5.56935 10.9513 6.25379C10.7405 6.67095 10.2041 7.00349 9.74214 7.00349C9.28016 7.00349 8.7438 6.67095 8.53301 6.25379C8.03687 5.27169 8.67257 4.18297 9.74214 4.18297C10.0425 4.18297 10.2795 4.25 10.4965 4.39639ZM19.8492 4.79333C18.8654 5.14721 18.4471 5.97635 18.8098 6.85306C18.9822 7.26974 19.4155 7.58066 20.2627 7.89543C20.6468 8.03815 21.0552 8.21405 21.1705 8.28645C21.4523 8.46348 21.4537 8.91505 21.173 9.11352C20.8986 9.30766 19.9612 9.30494 19.3898 9.10835C19.1475 9.02495 18.9385 8.97202 18.9253 8.99083C18.9121 9.00953 18.8337 9.20537 18.751 9.42603L18.6006 9.8273L18.9557 10.0102C19.7349 10.4116 21.0286 10.437 21.7412 10.0649C22.5452 9.64509 22.8447 8.51519 22.3405 7.80423C22.1588 7.54775 21.3586 7.12524 20.5618 6.86481C19.9644 6.66963 19.7258 6.37545 19.8977 6.04611C19.9602 5.92633 20.0575 5.79715 20.1138 5.75917C20.2928 5.63845 21.1873 5.68198 21.534 5.82827C21.9925 6.02176 22.0033 6.01809 22.2166 5.59577L22.4053 5.22233L22.1646 5.06297C21.5916 4.68389 20.5052 4.55735 19.8492 4.79333ZM46.9832 4.77471C46.6668 4.93633 46.4691 5.36975 46.5751 5.66976C46.7765 6.24044 47.4046 6.38993 47.8235 5.96695C48.1463 5.64099 48.0049 4.95579 47.5738 4.75741C47.2922 4.62786 47.2694 4.62852 46.9832 4.77471ZM23.4467 5.24066L23.4748 5.73425L24.2894 5.76143L25.1041 5.7886V8.04605V10.3035L25.6394 10.2753L26.1748 10.2471L26.1997 8.01417L26.2247 5.78126H27.0144H27.8041V5.26417V4.74707H25.6113H23.4185L23.4467 5.24066ZM29.1075 7.52058V10.2941H30.923H32.7385V9.777V9.2599H31.4816H30.2247V8.60178V7.94366H31.2954H32.3661V7.47357V7.00349H31.2954H30.2247V6.3951V5.78672L31.4584 5.76049L32.692 5.73425L32.7201 5.24066L32.7483 4.74707H30.9279H29.1075V7.52058ZM35.6879 5.00111C35.6151 5.1458 35.3015 5.96225 34.9912 6.81545C34.6808 7.66866 34.2777 8.76866 34.0952 9.2599C33.9128 9.75114 33.7634 10.1848 33.7631 10.2236C33.7628 10.2623 34.0118 10.2941 34.3162 10.2941H34.8699L35.0735 9.72999L35.2772 9.16589H36.2834C37.3888 9.16589 37.3541 9.1484 37.5875 9.82203L37.7349 10.2471L38.309 10.2751C38.6819 10.2932 38.8833 10.2667 38.8833 10.1995C38.8833 10.1425 38.6948 9.60109 38.4643 8.99628C38.2339 8.39147 37.7826 7.19857 37.4615 6.34537L36.8776 4.79408L36.3489 4.76606C35.8515 4.73964 35.8125 4.75347 35.6879 5.00111ZM40.0936 7.52528V10.3035L40.629 10.2753L41.1643 10.2471L41.2109 8.62237L41.2574 6.99756L41.9511 8.55637L42.6448 10.1152L42.973 10.0871C43.3011 10.0591 43.3013 10.0588 44.0017 8.523L44.7022 6.98694L44.7488 8.61701L44.7953 10.2471H45.3074H45.8195V7.52058V4.79408L45.2998 4.76635L44.78 4.73861L44.3082 5.80054C44.0487 6.38457 43.6565 7.2752 43.4365 7.7796C43.2166 8.284 43.0072 8.66477 42.9713 8.62576C42.9355 8.58674 42.5176 7.69799 42.0426 6.65092L41.1791 4.74707H40.6363H40.0936V7.52528ZM47.8152 5.14025C47.9974 5.4696 47.864 5.8765 47.5191 6.04338C47.3076 6.14577 47.2234 6.14173 46.9859 6.01772C46.7451 5.89192 46.7039 5.8169 46.7039 5.50354C46.7039 5.02583 46.9051 4.82247 47.341 4.85961C47.591 4.88086 47.7109 4.95184 47.8152 5.14025ZM47.0871 5.47571C47.0931 5.66966 47.1177 5.75108 47.1419 5.65669C47.1812 5.50316 47.2021 5.49987 47.3406 5.62576C47.4816 5.754 47.4968 5.73802 47.512 5.44478C47.5266 5.16225 47.5011 5.12314 47.3025 5.12314C47.1013 5.12314 47.0776 5.16206 47.0871 5.47571ZM47.4022 5.31118C47.3705 5.36289 47.3053 5.40519 47.2571 5.40519C47.2088 5.40519 47.1694 5.36289 47.1694 5.31118C47.1694 5.25947 47.2348 5.21716 47.3146 5.21716C47.3944 5.21716 47.4339 5.25947 47.4022 5.31118ZM36.688 7.18315C36.8713 7.72103 37.0212 8.19676 37.0212 8.24038C37.0212 8.284 36.707 8.31973 36.323 8.31973C35.8087 8.31973 35.6247 8.2872 35.6247 8.19638C35.6247 8.09682 36.0203 6.83745 36.2326 6.26141C36.3029 6.07055 36.3226 6.11032 36.688 7.18315ZM4.66804 8.86127C4.71924 8.91176 4.96168 9.02853 5.20682 9.12066C6.00024 9.41879 6.36036 10.1108 6.0777 10.7939C5.91748 11.1811 5.44712 11.5155 5.06186 11.5159C4.92007 11.5161 4.55361 11.4136 4.24749 11.288C3.74232 11.0807 3.69958 11.0758 3.78365 11.2345C3.83458 11.3305 4.0125 11.5074 4.17906 11.6273C4.60584 11.9347 5.56201 11.9391 5.9833 11.6357C6.36604 11.36 6.59517 10.8527 6.59089 10.2903C6.584 9.38702 6.07966 8.87189 5.1396 8.80787C4.77101 8.78277 4.60724 8.80129 4.66804 8.86127Z" fill="white" fill-opacity="0.3"/>
</svg>
