<svg width="50" height="15" viewBox="0 0 50 15" fill="none" xmlns="http://www.w3.org/2000/svg">
<path fill-rule="evenodd" clip-rule="evenodd" d="M7.06073 0.0316456C7.06073 0.0500949 6.95376 0.0632911 6.80398 0.0632911C6.6542 0.0632911 6.54723 0.0764873 6.54723 0.0949367C6.54723 0.112532 6.46163 0.126582 6.35466 0.126582C6.24769 0.126582 6.1621 0.140633 6.1621 0.158228C6.1621 0.175633 6.08988 0.189873 6.00162 0.189873C5.91337 0.189873 5.84115 0.204114 5.84115 0.221519C5.84115 0.238924 5.78338 0.253165 5.71278 0.253165C5.64217 0.253165 5.5844 0.267405 5.5844 0.28481C5.5844 0.302215 5.54107 0.316456 5.48812 0.316456C5.43516 0.316456 5.39183 0.330696 5.39183 0.348101C5.39183 0.365506 5.33406 0.379747 5.26346 0.379747C5.19285 0.379747 5.13508 0.393987 5.13508 0.411392C5.13508 0.428797 5.10619 0.443038 5.07089 0.443038C5.03559 0.443038 5.0067 0.457278 5.0067 0.474684C5.0067 0.492089 4.96338 0.506329 4.91042 0.506329C4.85746 0.506329 4.81414 0.52057 4.81414 0.537975C4.81414 0.55538 4.78525 0.56962 4.74995 0.56962C4.71464 0.56962 4.68576 0.583861 4.68576 0.601266C4.68576 0.618671 4.64243 0.632911 4.58948 0.632911C4.53652 0.632911 4.49319 0.647152 4.49319 0.664557C4.49319 0.681962 4.46431 0.696203 4.42901 0.696203C4.3937 0.696203 4.36482 0.710443 4.36482 0.727848C4.36482 0.745253 4.33593 0.759494 4.30063 0.759494C4.26533 0.759494 4.23644 0.773734 4.23644 0.791139C4.23644 0.808544 4.20756 0.822785 4.17225 0.822785C4.13695 0.822785 4.10806 0.837025 4.10806 0.85443C4.10806 0.871835 4.07918 0.886076 4.04388 0.886076C4.00857 0.886076 3.97969 0.900316 3.97969 0.917722C3.97969 0.935127 3.95398 0.949367 3.92259 0.949367C3.89117 0.949367 3.84467 0.977848 3.81922 1.01266C3.79376 1.04747 3.74726 1.07595 3.71584 1.07595C3.68445 1.07595 3.65874 1.09019 3.65874 1.10759C3.65874 1.125 3.63605 1.13924 3.60832 1.13924C3.54478 1.13924 3.45032 1.22968 3.4828 1.25943C3.49616 1.27164 3.51352 1.26386 3.52138 1.24209C3.53021 1.21772 3.59632 1.20253 3.6935 1.20253C3.78028 1.20253 3.85131 1.18829 3.85131 1.17089C3.85131 1.15348 3.90908 1.13924 3.97969 1.13924C4.05029 1.13924 4.10806 1.15348 4.10806 1.17089C4.10806 1.18934 4.21503 1.20253 4.36482 1.20253C4.5146 1.20253 4.62157 1.21573 4.62157 1.23418C4.62157 1.25158 4.67934 1.26582 4.74995 1.26582C4.82056 1.26582 4.87833 1.28006 4.87833 1.29747C4.87833 1.31487 4.9361 1.32911 5.0067 1.32911C5.07731 1.32911 5.13508 1.34335 5.13508 1.36076C5.13508 1.37816 5.17841 1.39241 5.23136 1.39241C5.28432 1.39241 5.32765 1.40665 5.32765 1.42405C5.32765 1.44146 5.37097 1.4557 5.42393 1.4557C5.47688 1.4557 5.52021 1.46994 5.52021 1.48734C5.52021 1.50475 5.5491 1.51899 5.5844 1.51899C5.6197 1.51899 5.64859 1.53323 5.64859 1.55063C5.64859 1.56804 5.69192 1.58228 5.74487 1.58228C5.79783 1.58228 5.84115 1.59652 5.84115 1.61392C5.84115 1.63133 5.87004 1.64557 5.90534 1.64557C5.94065 1.64557 5.96953 1.65981 5.96953 1.67722C5.96953 1.69462 5.99841 1.70886 6.03372 1.70886C6.06902 1.70886 6.09791 1.7231 6.09791 1.74051C6.09791 1.75791 6.12679 1.77215 6.1621 1.77215C6.1974 1.77215 6.22628 1.78639 6.22628 1.8038C6.22628 1.8212 6.25517 1.83544 6.29047 1.83544C6.32578 1.83544 6.35466 1.84968 6.35466 1.86709C6.35466 1.88449 6.39799 1.89873 6.45094 1.89873C6.5039 1.89873 6.54723 1.91297 6.54723 1.93038C6.54723 1.94778 6.57293 1.96203 6.60432 1.96203C6.63574 1.96203 6.68225 1.99051 6.7077 2.02532C6.73315 2.06013 6.77965 2.08861 6.81107 2.08861C6.84246 2.08861 6.86817 2.10285 6.86817 2.12025C6.86817 2.13766 6.89705 2.1519 6.93236 2.1519C6.96766 2.1519 6.99655 2.16614 6.99655 2.18354C6.99655 2.20095 7.02225 2.21519 7.05364 2.21519C7.08506 2.21519 7.13157 2.24367 7.15702 2.27848C7.18247 2.31329 7.22897 2.34177 7.26039 2.34177C7.29178 2.34177 7.31749 2.35601 7.31749 2.37342C7.31749 2.39082 7.34637 2.40506 7.38168 2.40506C7.41698 2.40506 7.44587 2.4193 7.44587 2.43671C7.44587 2.45411 7.47475 2.46835 7.51005 2.46835C7.54536 2.46835 7.57424 2.48259 7.57424 2.5C7.57424 2.51741 7.60313 2.53165 7.63843 2.53165C7.67373 2.53165 7.70262 2.51741 7.70262 2.5C7.70262 2.48259 7.7315 2.46835 7.76681 2.46835C7.80211 2.46835 7.831 2.45411 7.831 2.43671C7.831 2.4193 7.85988 2.40506 7.89518 2.40506C7.93049 2.40506 7.95937 2.39082 7.95937 2.37342C7.95937 2.35601 7.98508 2.34177 8.01647 2.34177C8.04789 2.34177 8.09439 2.31329 8.11984 2.27848C8.1453 2.24367 8.1918 2.21519 8.22322 2.21519C8.25461 2.21519 8.28032 2.20095 8.28032 2.18354C8.28032 2.16614 8.3092 2.1519 8.3445 2.1519C8.37981 2.1519 8.40869 2.13766 8.40869 2.12025C8.40869 2.10285 8.4344 2.08861 8.46579 2.08861C8.49721 2.08861 8.54371 2.06013 8.56916 2.02532C8.59635 1.98816 8.65226 1.96203 8.70463 1.96203C8.75367 1.96203 8.79382 1.94778 8.79382 1.93038C8.79382 1.91297 8.82271 1.89873 8.85801 1.89873C8.89332 1.89873 8.9222 1.88449 8.9222 1.86709C8.9222 1.84968 8.94791 1.83544 8.9793 1.83544C9.01072 1.83544 9.05722 1.80696 9.08267 1.77215C9.10986 1.735 9.16576 1.70886 9.21814 1.70886C9.26718 1.70886 9.30733 1.69462 9.30733 1.67722C9.30733 1.65981 9.33622 1.64557 9.37152 1.64557C9.40682 1.64557 9.43571 1.63133 9.43571 1.61392C9.43571 1.59652 9.47904 1.58228 9.53199 1.58228C9.58495 1.58228 9.62827 1.56804 9.62827 1.55063C9.62827 1.53323 9.65716 1.51899 9.69246 1.51899C9.72777 1.51899 9.75665 1.50475 9.75665 1.48734C9.75665 1.46994 9.79998 1.4557 9.85293 1.4557C9.90589 1.4557 9.94922 1.44146 9.94922 1.42405C9.94922 1.40665 9.99254 1.39241 10.0455 1.39241C10.0985 1.39241 10.1418 1.37816 10.1418 1.36076C10.1418 1.34335 10.1996 1.32911 10.2702 1.32911C10.3408 1.32911 10.3985 1.31487 10.3985 1.29747C10.3985 1.28006 10.4563 1.26582 10.5269 1.26582C10.5975 1.26582 10.6553 1.25158 10.6553 1.23418C10.6553 1.1843 11.6732 1.19209 11.6913 1.24209C11.6992 1.26386 11.7165 1.27164 11.7299 1.25943C11.7604 1.23145 11.6696 1.13924 11.6114 1.13924C11.5876 1.13924 11.5473 1.11076 11.5218 1.07595C11.4964 1.04114 11.4499 1.01266 11.4185 1.01266C11.3871 1.01266 11.3614 0.998418 11.3614 0.981013C11.3614 0.963608 11.3325 0.949367 11.2972 0.949367C11.2619 0.949367 11.233 0.935127 11.233 0.917722C11.233 0.900316 11.2041 0.886076 11.1688 0.886076C11.1335 0.886076 11.1046 0.871835 11.1046 0.85443C11.1046 0.837025 11.0757 0.822785 11.0404 0.822785C11.0051 0.822785 10.9762 0.808544 10.9762 0.791139C10.9762 0.773734 10.9473 0.759494 10.912 0.759494C10.8767 0.759494 10.8479 0.745253 10.8479 0.727848C10.8479 0.710443 10.819 0.696203 10.7837 0.696203C10.7484 0.696203 10.7195 0.681962 10.7195 0.664557C10.7195 0.647152 10.6762 0.632911 10.6232 0.632911C10.5702 0.632911 10.5269 0.618671 10.5269 0.601266C10.5269 0.583861 10.498 0.56962 10.4627 0.56962C10.4274 0.56962 10.3985 0.55538 10.3985 0.537975C10.3985 0.52057 10.3697 0.506329 10.3343 0.506329C10.299 0.506329 10.2702 0.492089 10.2702 0.474684C10.2702 0.457278 10.2268 0.443038 10.1739 0.443038C10.1209 0.443038 10.0776 0.428797 10.0776 0.411392C10.0776 0.393987 10.0343 0.379747 9.98131 0.379747C9.92836 0.379747 9.88503 0.365506 9.88503 0.348101C9.88503 0.330696 9.82726 0.316456 9.75665 0.316456C9.68604 0.316456 9.62827 0.302215 9.62827 0.28481C9.62827 0.267405 9.5705 0.253165 9.4999 0.253165C9.42929 0.253165 9.37152 0.238924 9.37152 0.221519C9.37152 0.204114 9.31375 0.189873 9.24314 0.189873C9.17254 0.189873 9.11477 0.175633 9.11477 0.158228C9.11477 0.140633 9.02917 0.126582 8.9222 0.126582C8.81523 0.126582 8.72964 0.112532 8.72964 0.0949367C8.72964 0.0759494 8.60126 0.0632911 8.40869 0.0632911C8.21613 0.0632911 8.08775 0.0506329 8.08775 0.0316456C8.08775 0.0118671 7.89518 0 7.57424 0C7.2533 0 7.06073 0.0118671 7.06073 0.0316456ZM2.56754 1.93038C2.56754 1.94778 2.54568 1.96203 2.51895 1.96203C2.46407 1.96203 1.92565 2.48044 1.92565 2.53326C1.92565 2.55203 1.85344 2.63674 1.76518 2.72152C1.67692 2.8063 1.60471 2.89222 1.60471 2.91247C1.60471 2.93272 1.56139 2.98921 1.50843 3.03797C1.45547 3.08674 1.41215 3.1463 1.41215 3.17025C1.41215 3.19424 1.38326 3.2344 1.34796 3.25949C1.31265 3.28459 1.28377 3.32731 1.28377 3.35443C1.28377 3.38155 1.25489 3.42427 1.21958 3.44937C1.18428 3.47446 1.15539 3.52032 1.15539 3.5513C1.15539 3.58225 1.14095 3.60759 1.1233 3.60759C1.10565 3.60759 1.0912 3.63294 1.0912 3.66389C1.0912 3.69487 1.06232 3.74073 1.02702 3.76582C0.991712 3.79092 0.962827 3.83677 0.962827 3.86775C0.962827 3.8987 0.948385 3.92405 0.930733 3.92405C0.913081 3.92405 0.898639 3.95253 0.898639 3.98734C0.898639 4.02215 0.884197 4.05063 0.866545 4.05063C0.848893 4.05063 0.83445 4.07911 0.83445 4.11392C0.83445 4.14873 0.820008 4.17722 0.802356 4.17722C0.784704 4.17722 0.770262 4.2057 0.770262 4.24051C0.770262 4.27532 0.75582 4.3038 0.738168 4.3038C0.720516 4.3038 0.706073 4.33228 0.706073 4.36709C0.706073 4.4019 0.691631 4.43038 0.673979 4.43038C0.656327 4.43038 0.641885 4.45886 0.641885 4.49367C0.641885 4.52848 0.627443 4.55696 0.609791 4.55696C0.592139 4.55696 0.577696 4.59968 0.577696 4.6519C0.577696 4.70411 0.563254 4.74684 0.545602 4.74684C0.52795 4.74684 0.513508 4.78956 0.513508 4.84177C0.513508 4.89399 0.499066 4.93671 0.481414 4.93671C0.463762 4.93671 0.449319 4.96519 0.449319 5C0.449319 5.03481 0.434877 5.06329 0.417225 5.06329C0.399573 5.06329 0.385131 5.10601 0.385131 5.15823C0.385131 5.21044 0.370689 5.25316 0.353037 5.25316C0.335385 5.25316 0.320942 5.29589 0.320942 5.3481C0.320942 5.40032 0.3065 5.44304 0.288848 5.44304C0.271196 5.44304 0.256754 5.51424 0.256754 5.60127C0.256754 5.68829 0.242312 5.75949 0.22466 5.75949C0.207008 5.75949 0.192565 5.81646 0.192565 5.88608C0.192565 5.9557 0.178123 6.01266 0.160471 6.01266C0.142627 6.01266 0.128377 6.09706 0.128377 6.20253C0.128377 6.30801 0.114127 6.39241 0.0962827 6.39241C0.0772509 6.39241 0.0641885 6.50845 0.0641885 6.67722C0.0641885 6.84598 0.0511261 6.96203 0.0320942 6.96203C0.0118749 6.96203 0 7.17301 0 7.53165C0 7.89029 0.0118749 8.10127 0.0320942 8.10127C0.0508052 8.10127 0.0641885 8.20674 0.0641885 8.35443C0.0641885 8.50212 0.0775718 8.6076 0.0962827 8.6076C0.114127 8.6076 0.128377 8.69199 0.128377 8.79747C0.128377 8.90294 0.142627 8.98734 0.160471 8.98734C0.178123 8.98734 0.192565 9.0443 0.192565 9.11392C0.192565 9.18354 0.207008 9.24051 0.22466 9.24051C0.242312 9.24051 0.256754 9.29747 0.256754 9.36709C0.256754 9.43671 0.271196 9.49367 0.288848 9.49367C0.3065 9.49367 0.320942 9.55063 0.320942 9.62025C0.320942 9.68987 0.335385 9.74684 0.353037 9.74684C0.370689 9.74684 0.385131 9.78956 0.385131 9.84177C0.385131 9.89399 0.399573 9.93671 0.417225 9.93671C0.434877 9.93671 0.449319 9.97943 0.449319 10.0316C0.449319 10.0839 0.463762 10.1266 0.481414 10.1266C0.499066 10.1266 0.513508 10.1551 0.513508 10.1899C0.513508 10.2247 0.52795 10.2532 0.545602 10.2532C0.563254 10.2532 0.577696 10.2816 0.577696 10.3165C0.577696 10.3513 0.592139 10.3797 0.609791 10.3797C0.627443 10.3797 0.641885 10.4225 0.641885 10.4747C0.641885 10.5269 0.656327 10.5696 0.673979 10.5696C0.691631 10.5696 0.706073 10.5981 0.706073 10.6329C0.706073 10.6677 0.720516 10.6962 0.738168 10.6962C0.75582 10.6962 0.770262 10.7247 0.770262 10.7595C0.770262 10.7943 0.784704 10.8228 0.802356 10.8228C0.820008 10.8228 0.83445 10.8513 0.83445 10.8861C0.83445 10.9209 0.848893 10.9494 0.866545 10.9494C0.884197 10.9494 0.898639 10.9778 0.898639 11.0127C0.898639 11.0475 0.913081 11.0759 0.930733 11.0759C0.948385 11.0759 0.962827 11.1013 0.962827 11.1322C0.962827 11.1632 0.991712 11.2091 1.02702 11.2342C1.06232 11.2593 1.0912 11.3051 1.0912 11.3361C1.0912 11.3671 1.10565 11.3924 1.1233 11.3924C1.14095 11.3924 1.15539 11.4152 1.15539 11.443C1.15539 11.4708 1.19872 11.5335 1.25168 11.5823C1.30463 11.631 1.34796 11.6937 1.34796 11.7216C1.34796 11.7494 1.3624 11.7722 1.38005 11.7722C1.3977 11.7722 1.41215 11.8006 1.41215 11.8354C1.41215 11.8776 1.43355 11.8987 1.47634 11.8987C1.51912 11.8987 1.54052 11.9198 1.54052 11.962C1.54052 11.9968 1.55497 12.0253 1.57262 12.0253C1.59027 12.0253 1.60471 12.0538 1.60471 12.0886C1.60471 12.1308 1.62612 12.1519 1.6689 12.1519C1.71168 12.1519 1.73309 12.1308 1.73309 12.0886C1.73309 12.0538 1.71865 12.0253 1.701 12.0253C1.68334 12.0253 1.6689 11.9826 1.6689 11.9304C1.6689 11.8782 1.65446 11.8354 1.63681 11.8354C1.6181 11.8354 1.60471 11.73 1.60471 11.5823C1.60471 11.4346 1.6181 11.3291 1.63681 11.3291C1.65513 11.3291 1.6689 11.2342 1.6689 11.1076C1.6689 10.981 1.68267 10.8861 1.701 10.8861C1.71865 10.8861 1.73309 10.8291 1.73309 10.7595C1.73309 10.6899 1.74753 10.6329 1.76518 10.6329C1.78284 10.6329 1.79728 10.5759 1.79728 10.5063C1.79728 10.4367 1.81172 10.3797 1.82937 10.3797C1.84702 10.3797 1.86147 10.337 1.86147 10.2848C1.86147 10.2326 1.87591 10.1899 1.89356 10.1899C1.91121 10.1899 1.92565 10.1472 1.92565 10.0949C1.92565 10.0427 1.9401 10 1.95775 10C1.9754 10 1.98984 9.97152 1.98984 9.93671C1.98984 9.9019 2.00429 9.87342 2.02194 9.87342C2.03959 9.87342 2.05403 9.8307 2.05403 9.77848C2.05403 9.72627 2.06847 9.68354 2.08613 9.68354C2.10378 9.68354 2.11822 9.65506 2.11822 9.62025C2.11822 9.58544 2.13266 9.55696 2.15031 9.55696C2.16797 9.55696 2.18241 9.51424 2.18241 9.46203C2.18241 9.40981 2.19685 9.36709 2.2145 9.36709C2.23215 9.36709 2.2466 9.33861 2.2466 9.3038C2.2466 9.26899 2.26104 9.24051 2.27869 9.24051C2.29634 9.24051 2.31079 9.21203 2.31079 9.17722C2.31079 9.14241 2.32523 9.11392 2.34288 9.11392C2.36053 9.11392 2.37497 9.08544 2.37497 9.05063C2.37497 9.01582 2.38942 8.98734 2.40707 8.98734C2.42472 8.98734 2.43916 8.95886 2.43916 8.92405C2.43916 8.88924 2.45361 8.86076 2.47126 8.86076C2.48891 8.86076 2.50335 8.83228 2.50335 8.79747C2.50335 8.76266 2.51779 8.73418 2.53545 8.73418C2.5531 8.73418 2.56754 8.7057 2.56754 8.67089C2.56754 8.63608 2.58198 8.6076 2.59963 8.6076C2.61729 8.6076 2.63173 8.57911 2.63173 8.5443C2.63173 8.50949 2.64617 8.48101 2.66382 8.48101C2.68147 8.48101 2.69592 8.45566 2.69592 8.42472C2.69592 8.39373 2.7248 8.34788 2.76011 8.32278C2.79541 8.29769 2.82429 8.25497 2.82429 8.22785C2.82429 8.20073 2.85318 8.15801 2.88848 8.13291C2.92379 8.10782 2.95267 8.06196 2.95267 8.03098C2.95267 8.00003 2.96711 7.97468 2.98477 7.97468C3.00242 7.97468 3.01686 7.9462 3.01686 7.91139C3.01686 7.87658 3.0313 7.8481 3.04895 7.8481C3.06661 7.8481 3.08105 7.82275 3.08105 7.7918C3.08105 7.76082 3.10993 7.71497 3.14524 7.68987C3.18054 7.66478 3.20942 7.62206 3.20942 7.59494C3.20942 7.56782 3.23831 7.52509 3.27361 7.5C3.30892 7.47491 3.3378 7.42905 3.3378 7.39807C3.3378 7.36712 3.35224 7.34177 3.3699 7.34177C3.38755 7.34177 3.40199 7.31642 3.40199 7.28548C3.40199 7.25449 3.43088 7.20864 3.46618 7.18354C3.50148 7.15845 3.53037 7.11573 3.53037 7.08861C3.53037 7.06149 3.55925 7.01877 3.59456 6.99367C3.62986 6.96858 3.65874 6.92585 3.65874 6.89873C3.65874 6.87161 3.68763 6.82889 3.72293 6.8038C3.75824 6.7787 3.78712 6.73598 3.78712 6.70886C3.78712 6.68174 3.81601 6.63902 3.85131 6.61392C3.88661 6.58883 3.9155 6.54867 3.9155 6.52468C3.9155 6.50073 3.95883 6.44117 4.01178 6.39241C4.06474 6.34364 4.10806 6.28668 4.10806 6.26582C4.10806 6.24497 4.15139 6.18801 4.20435 6.13924C4.2573 6.09047 4.30063 6.03351 4.30063 6.01266C4.30063 5.9918 4.34396 5.93484 4.39691 5.88608C4.44987 5.83731 4.49319 5.78035 4.49319 5.75949C4.49319 5.73864 4.53652 5.68168 4.58948 5.63291C4.64243 5.58415 4.68576 5.52718 4.68576 5.50633C4.68576 5.48547 4.72909 5.42851 4.78204 5.37975C4.835 5.33098 4.87833 5.27402 4.87833 5.25316C4.87833 5.23231 4.92165 5.17535 4.97461 5.12658C5.02756 5.07782 5.07089 5.02146 5.07089 5.00136C5.07089 4.9813 5.15755 4.88098 5.26346 4.77848C5.36937 4.67598 5.45602 4.57617 5.45602 4.55665C5.45602 4.53715 5.52823 4.45187 5.61649 4.36709C5.70719 4.28 5.77696 4.18443 5.77696 4.14737C5.77696 4.07956 4.8151 3.10127 4.74844 3.10127C4.72967 3.10127 4.62924 3.01582 4.52529 2.91139C4.42134 2.80696 4.31992 2.72152 4.29989 2.72152C4.27986 2.72152 4.208 2.66456 4.14016 2.59494C4.07231 2.52532 3.99721 2.46835 3.97324 2.46835C3.94926 2.46835 3.90885 2.43987 3.8834 2.40506C3.85795 2.37025 3.81723 2.34177 3.7929 2.34177C3.7686 2.34177 3.7082 2.29905 3.65874 2.24684C3.60929 2.19462 3.54571 2.1519 3.5175 2.1519C3.48925 2.1519 3.46618 2.13766 3.46618 2.12025C3.46618 2.10285 3.43729 2.08861 3.40199 2.08861C3.36669 2.08861 3.3378 2.07437 3.3378 2.05696C3.3378 2.03956 3.30892 2.02532 3.27361 2.02532C3.23831 2.02532 3.20942 2.01108 3.20942 1.99367C3.20942 1.97627 3.1661 1.96203 3.11314 1.96203C3.06019 1.96203 3.01686 1.94778 3.01686 1.93038C3.01686 1.91231 2.92058 1.89873 2.7922 1.89873C2.66382 1.89873 2.56754 1.91231 2.56754 1.93038ZM12.1958 1.93038C12.1958 1.94778 12.1669 1.96203 12.1316 1.96203C12.0963 1.96203 12.0674 1.97627 12.0674 1.99367C12.0674 2.01108 12.0386 2.02532 12.0032 2.02532C11.9679 2.02532 11.9391 2.03956 11.9391 2.05696C11.9391 2.07437 11.9102 2.08861 11.8749 2.08861C11.8396 2.08861 11.8107 2.10285 11.8107 2.12025C11.8107 2.13766 11.7876 2.1519 11.7594 2.1519C11.7312 2.1519 11.6676 2.19462 11.6181 2.24684C11.5687 2.29905 11.5051 2.34177 11.4769 2.34177C11.4486 2.34177 11.4256 2.35601 11.4256 2.37342C11.4256 2.39082 11.4028 2.40506 11.3749 2.40506C11.347 2.40506 11.2687 2.46203 11.2009 2.53165C11.133 2.60127 11.0608 2.65823 11.0404 2.65823C11.02 2.65823 10.9478 2.71519 10.8799 2.78481C10.8121 2.85443 10.7406 2.91139 10.7211 2.91139C10.7016 2.91139 10.4987 3.09652 10.2702 3.32278C10.0416 3.54905 9.83262 3.73418 9.80566 3.73418C9.7787 3.73418 9.75665 3.75665 9.75665 3.78411C9.75665 3.81161 9.69888 3.8888 9.62827 3.9557C9.48395 4.09244 9.47117 4.14282 9.56409 4.20886C9.59939 4.23396 9.62827 4.27361 9.62827 4.29703C9.62827 4.32041 9.70049 4.40889 9.78875 4.49367C9.877 4.57845 9.94922 4.66408 9.94922 4.68396C9.94922 4.70386 10.007 4.77487 10.0776 4.84177C10.1482 4.90867 10.206 4.98016 10.206 5.00063C10.206 5.02114 10.2493 5.07782 10.3023 5.12658C10.3552 5.17535 10.3985 5.23202 10.3985 5.25253C10.3985 5.27301 10.4563 5.34449 10.5269 5.41139C10.5975 5.47829 10.6553 5.54978 10.6553 5.57025C10.6553 5.59076 10.6986 5.64744 10.7516 5.6962C10.8045 5.74497 10.8479 5.80193 10.8479 5.82278C10.8479 5.84364 10.8912 5.9006 10.9441 5.94937C10.9971 5.99813 11.0404 6.05769 11.0404 6.08165C11.0404 6.10563 11.0693 6.14579 11.1046 6.17089C11.1399 6.19598 11.1688 6.23614 11.1688 6.26013C11.1688 6.28408 11.2121 6.34364 11.2651 6.39241C11.318 6.44117 11.3614 6.50073 11.3614 6.52468C11.3614 6.54867 11.3902 6.58883 11.4256 6.61392C11.4609 6.63902 11.4897 6.68174 11.4897 6.70886C11.4897 6.73598 11.5186 6.7787 11.5539 6.8038C11.5892 6.82889 11.6181 6.87161 11.6181 6.89873C11.6181 6.92585 11.647 6.96858 11.6823 6.99367C11.7176 7.01877 11.7465 7.06149 11.7465 7.08861C11.7465 7.11573 11.7754 7.15845 11.8107 7.18354C11.846 7.20864 11.8749 7.25136 11.8749 7.27848C11.8749 7.3056 11.9038 7.34832 11.9391 7.37342C11.9744 7.39851 12.0032 7.44123 12.0032 7.46835C12.0032 7.49547 12.0321 7.5382 12.0674 7.56329C12.1027 7.58839 12.1316 7.63424 12.1316 7.66522C12.1316 7.69617 12.1461 7.72152 12.1637 7.72152C12.1814 7.72152 12.1958 7.75 12.1958 7.78481C12.1958 7.81962 12.2103 7.8481 12.2279 7.8481C12.2456 7.8481 12.26 7.87345 12.26 7.9044C12.26 7.93538 12.2889 7.98123 12.3242 8.00633C12.3595 8.03142 12.3884 8.07728 12.3884 8.10826C12.3884 8.13921 12.4028 8.16456 12.4205 8.16456C12.4381 8.16456 12.4526 8.18991 12.4526 8.22085C12.4526 8.25183 12.4815 8.29769 12.5168 8.32278C12.5521 8.34788 12.5809 8.39373 12.5809 8.42472C12.5809 8.45566 12.5954 8.48101 12.613 8.48101C12.6307 8.48101 12.6451 8.50949 12.6451 8.5443C12.6451 8.57911 12.6596 8.6076 12.6772 8.6076C12.6949 8.6076 12.7093 8.63608 12.7093 8.67089C12.7093 8.7057 12.7238 8.73418 12.7414 8.73418C12.7591 8.73418 12.7735 8.76266 12.7735 8.79747C12.7735 8.83228 12.788 8.86076 12.8056 8.86076C12.8233 8.86076 12.8377 8.88924 12.8377 8.92405C12.8377 8.95886 12.8521 8.98734 12.8698 8.98734C12.8874 8.98734 12.9019 9.01582 12.9019 9.05063C12.9019 9.08544 12.9163 9.11392 12.934 9.11392C12.9516 9.11392 12.9661 9.14241 12.9661 9.17722C12.9661 9.21203 12.9805 9.24051 12.9982 9.24051C13.0158 9.24051 13.0303 9.26899 13.0303 9.3038C13.0303 9.33861 13.0447 9.36709 13.0624 9.36709C13.08 9.36709 13.0945 9.39557 13.0945 9.43038C13.0945 9.46519 13.1089 9.49367 13.1265 9.49367C13.1442 9.49367 13.1586 9.53639 13.1586 9.58861C13.1586 9.64082 13.1731 9.68354 13.1907 9.68354C13.2084 9.68354 13.2228 9.72627 13.2228 9.77848C13.2228 9.8307 13.2373 9.87342 13.2549 9.87342C13.2726 9.87342 13.287 9.9019 13.287 9.93671C13.287 9.97152 13.3015 10 13.3191 10C13.3368 10 13.3512 10.0427 13.3512 10.0949C13.3512 10.1472 13.3656 10.1899 13.3833 10.1899C13.401 10.1899 13.4154 10.2326 13.4154 10.2848C13.4154 10.337 13.4298 10.3797 13.4475 10.3797C13.4651 10.3797 13.4796 10.4367 13.4796 10.5063C13.4796 10.5759 13.494 10.6329 13.5117 10.6329C13.5293 10.6329 13.5438 10.7041 13.5438 10.7911C13.5438 10.8782 13.5582 10.9494 13.5759 10.9494C13.596 10.9494 13.608 11.1498 13.608 11.4873C13.608 11.8249 13.596 12.0253 13.5759 12.0253C13.5582 12.0253 13.5438 12.0538 13.5438 12.0886C13.5438 12.1234 13.5516 12.1519 13.5613 12.1519C13.5944 12.1519 13.7363 11.9965 13.7363 11.9603C13.7363 11.9404 13.7797 11.8842 13.8326 11.8354C13.8856 11.7867 13.9289 11.724 13.9289 11.6962C13.9289 11.6683 13.9433 11.6456 13.961 11.6456C13.9786 11.6456 13.9931 11.6202 13.9931 11.5893C13.9931 11.5583 14.022 11.5124 14.0573 11.4873C14.0926 11.4622 14.1215 11.4195 14.1215 11.3924C14.1215 11.3653 14.1504 11.3226 14.1857 11.2975C14.221 11.2724 14.2498 11.2265 14.2498 11.1955C14.2498 11.1646 14.2643 11.1392 14.2819 11.1392C14.2996 11.1392 14.314 11.1108 14.314 11.0759C14.314 11.0411 14.3285 11.0127 14.3461 11.0127C14.3638 11.0127 14.3782 10.9842 14.3782 10.9494C14.3782 10.9146 14.3927 10.8861 14.4103 10.8861C14.428 10.8861 14.4424 10.8576 14.4424 10.8228C14.4424 10.788 14.4569 10.7595 14.4745 10.7595C14.4922 10.7595 14.5066 10.731 14.5066 10.6962C14.5066 10.6614 14.521 10.6329 14.5387 10.6329C14.5563 10.6329 14.5708 10.6044 14.5708 10.5696C14.5708 10.5348 14.5852 10.5063 14.6029 10.5063C14.6205 10.5063 14.635 10.4636 14.635 10.4114C14.635 10.3592 14.6494 10.3165 14.6671 10.3165C14.6847 10.3165 14.6992 10.2737 14.6992 10.2215C14.6992 10.1693 14.7136 10.1266 14.7313 10.1266C14.7489 10.1266 14.7634 10.0981 14.7634 10.0633C14.7634 10.0285 14.7778 10 14.7954 10C14.8131 10 14.8275 9.95728 14.8275 9.90506C14.8275 9.85285 14.842 9.81013 14.8596 9.81013C14.8773 9.81013 14.8917 9.76741 14.8917 9.71519C14.8917 9.66297 14.9062 9.62025 14.9238 9.62025C14.9415 9.62025 14.9559 9.56329 14.9559 9.49367C14.9559 9.42405 14.9704 9.36709 14.988 9.36709C15.0057 9.36709 15.0201 9.29589 15.0201 9.20886C15.0201 9.12184 15.0346 9.05063 15.0522 9.05063C15.07 9.05063 15.0843 8.96623 15.0843 8.86076C15.0843 8.75529 15.0985 8.67089 15.1164 8.67089C15.1347 8.67089 15.1485 8.57595 15.1485 8.44937C15.1485 8.32278 15.1623 8.22785 15.1806 8.22785C15.2011 8.22785 15.2127 7.96415 15.2127 7.5C15.2127 7.03585 15.2011 6.77215 15.1806 6.77215C15.1619 6.77215 15.1485 6.66668 15.1485 6.51899C15.1485 6.3713 15.1351 6.26582 15.1164 6.26582C15.0987 6.26582 15.0843 6.19462 15.0843 6.10759C15.0843 6.02057 15.0699 5.94937 15.0522 5.94937C15.0346 5.94937 15.0201 5.89241 15.0201 5.82278C15.0201 5.75316 15.0057 5.6962 14.988 5.6962C14.9704 5.6962 14.9559 5.63924 14.9559 5.56962C14.9559 5.5 14.9415 5.44304 14.9238 5.44304C14.9062 5.44304 14.8917 5.40032 14.8917 5.3481C14.8917 5.29589 14.8773 5.25316 14.8596 5.25316C14.842 5.25316 14.8275 5.21044 14.8275 5.15823C14.8275 5.10601 14.8131 5.06329 14.7954 5.06329C14.7778 5.06329 14.7634 5.02057 14.7634 4.96835C14.7634 4.91614 14.7489 4.87342 14.7313 4.87342C14.7136 4.87342 14.6992 4.8307 14.6992 4.77848C14.6992 4.72627 14.6847 4.68354 14.6671 4.68354C14.6494 4.68354 14.635 4.65506 14.635 4.62025C14.635 4.58544 14.6205 4.55696 14.6029 4.55696C14.5852 4.55696 14.5708 4.52848 14.5708 4.49367C14.5708 4.45886 14.5563 4.43038 14.5387 4.43038C14.521 4.43038 14.5066 4.4019 14.5066 4.36709C14.5066 4.33228 14.4922 4.3038 14.4745 4.3038C14.4569 4.3038 14.4424 4.26421 14.4424 4.21585C14.4424 4.16421 14.4159 4.10908 14.3782 4.08228C14.3429 4.05718 14.314 4.01133 14.314 3.98035C14.314 3.9494 14.2996 3.92405 14.2819 3.92405C14.2643 3.92405 14.2498 3.89557 14.2498 3.86076C14.2498 3.82595 14.2354 3.79747 14.2178 3.79747C14.2001 3.79747 14.1857 3.76899 14.1857 3.73418C14.1857 3.69937 14.1712 3.67089 14.1536 3.67089C14.1359 3.67089 14.1215 3.64813 14.1215 3.62028C14.1215 3.59247 14.0781 3.52978 14.0252 3.48101C13.9722 3.43225 13.9289 3.37269 13.9289 3.34873C13.9289 3.32475 13.9 3.28459 13.8647 3.25949C13.8294 3.2344 13.8005 3.19168 13.8005 3.16456C13.8005 3.13744 13.7716 3.09472 13.7363 3.06962C13.701 3.04453 13.6721 3.00468 13.6721 2.98104C13.6721 2.9574 13.6144 2.88335 13.5438 2.81646C13.4732 2.74956 13.4154 2.67934 13.4154 2.66038C13.4154 2.64142 13.2495 2.46231 13.0467 2.26231L12.6779 1.89873H12.4369C12.2976 1.89873 12.1958 1.91209 12.1958 1.93038ZM38.0638 2.94304C38.0638 2.96149 37.9568 2.97468 37.807 2.97468C37.6572 2.97468 37.5503 2.98788 37.5503 3.00633C37.5503 3.02373 37.4781 3.03797 37.3898 3.03797C37.3015 3.03797 37.2293 3.05222 37.2293 3.06962C37.2293 3.08703 37.186 3.10127 37.133 3.10127C37.0801 3.10127 37.0368 3.11551 37.0368 3.13291C37.0368 3.15032 36.9934 3.16456 36.9405 3.16456C36.8875 3.16456 36.8442 3.1788 36.8442 3.1962C36.8442 3.21361 36.8009 3.22785 36.7479 3.22785C36.695 3.22785 36.6516 3.24209 36.6516 3.25949C36.6516 3.2769 36.6227 3.29114 36.5874 3.29114C36.5521 3.29114 36.5233 3.30538 36.5233 3.32278C36.5233 3.34019 36.4944 3.35443 36.4591 3.35443C36.4238 3.35443 36.3949 3.36867 36.3949 3.38608C36.3949 3.40348 36.366 3.41772 36.3307 3.41772C36.2954 3.41772 36.2665 3.43196 36.2665 3.44937C36.2665 3.46677 36.2408 3.48101 36.2094 3.48101C36.178 3.48101 36.1315 3.50949 36.106 3.5443C36.0806 3.57911 36.0341 3.60759 36.0027 3.60759C35.9713 3.60759 35.9456 3.62184 35.9456 3.63924C35.9456 3.65665 35.9228 3.67089 35.8949 3.67089C35.867 3.67089 35.7887 3.72785 35.7209 3.79747C35.653 3.86709 35.5815 3.92405 35.5619 3.92405C35.5157 3.92405 35.3037 4.13278 35.3037 4.17823C35.3037 4.19734 35.2315 4.28231 35.1432 4.36709C35.0549 4.45187 34.9827 4.53778 34.9827 4.55804C34.9827 4.57829 34.9394 4.63478 34.8864 4.68354C34.8335 4.73231 34.7902 4.795 34.7902 4.82282C34.7902 4.85066 34.7757 4.87342 34.7581 4.87342C34.7404 4.87342 34.726 4.9019 34.726 4.93671C34.726 4.97152 34.7115 5 34.6939 5C34.6762 5 34.6618 5.02848 34.6618 5.06329C34.6618 5.0981 34.6473 5.12658 34.6297 5.12658C34.612 5.12658 34.5976 5.15506 34.5976 5.18987C34.5976 5.22468 34.5832 5.25316 34.5655 5.25316C34.5479 5.25316 34.5334 5.28165 34.5334 5.31646C34.5334 5.35127 34.519 5.37975 34.5013 5.37975C34.4837 5.37975 34.4692 5.40823 34.4692 5.44304C34.4692 5.47785 34.4548 5.50633 34.4371 5.50633C34.4195 5.50633 34.405 5.53481 34.405 5.56962C34.405 5.60443 34.3906 5.63291 34.3729 5.63291C34.3553 5.63291 34.3408 5.67563 34.3408 5.72785C34.3408 5.78006 34.3264 5.82278 34.3088 5.82278C34.2911 5.82278 34.2767 5.87975 34.2767 5.94937C34.2767 6.01899 34.2622 6.07595 34.2446 6.07595C34.2269 6.07595 34.2125 6.13291 34.2125 6.20253C34.2125 6.27215 34.198 6.32911 34.1804 6.32911C34.1627 6.32911 34.1483 6.38608 34.1483 6.4557C34.1483 6.52532 34.1338 6.58228 34.1162 6.58228C34.0979 6.58228 34.0841 6.67722 34.0841 6.8038C34.0841 6.93038 34.0703 7.02532 34.052 7.02532C34.0318 7.02532 34.0199 7.2363 34.0199 7.59494C34.0199 7.95358 34.0318 8.16456 34.052 8.16456C34.0707 8.16456 34.0841 8.27003 34.0841 8.41772C34.0841 8.56541 34.0975 8.67089 34.1162 8.67089C34.1338 8.67089 34.1483 8.74209 34.1483 8.82911C34.1483 8.91614 34.1627 8.98734 34.1804 8.98734C34.198 8.98734 34.2125 9.03006 34.2125 9.08228C34.2125 9.13449 34.2269 9.17722 34.2446 9.17722C34.2622 9.17722 34.2767 9.21994 34.2767 9.27215C34.2767 9.32437 34.2911 9.36709 34.3088 9.36709C34.3264 9.36709 34.3408 9.42405 34.3408 9.49367C34.3408 9.56329 34.3553 9.62025 34.3729 9.62025C34.3906 9.62025 34.405 9.64873 34.405 9.68354C34.405 9.71835 34.4195 9.74684 34.4371 9.74684C34.4548 9.74684 34.4692 9.77532 34.4692 9.81013C34.4692 9.84494 34.4837 9.87342 34.5013 9.87342C34.519 9.87342 34.5334 9.9019 34.5334 9.93671C34.5334 9.97152 34.5479 10 34.5655 10C34.5832 10 34.5976 10.0285 34.5976 10.0633C34.5976 10.0981 34.612 10.1266 34.6297 10.1266C34.6473 10.1266 34.6618 10.1551 34.6618 10.1899C34.6618 10.2247 34.6762 10.2532 34.6939 10.2532C34.7115 10.2532 34.726 10.2816 34.726 10.3165C34.726 10.3513 34.7404 10.3797 34.7581 10.3797C34.7757 10.3797 34.7902 10.4025 34.7902 10.4303C34.7902 10.4582 34.8335 10.5209 34.8864 10.5696C34.9394 10.6184 34.9827 10.6741 34.9827 10.6934C34.9827 10.7427 35.7754 11.519 35.8258 11.519C35.8486 11.519 35.888 11.5475 35.9135 11.5823C35.9389 11.6171 35.9822 11.6456 36.0097 11.6456C36.0373 11.6456 36.0806 11.6741 36.106 11.7089C36.1315 11.7437 36.178 11.7722 36.2094 11.7722C36.2408 11.7722 36.2665 11.7864 36.2665 11.8038C36.2665 11.8212 36.2954 11.8354 36.3307 11.8354C36.366 11.8354 36.3949 11.8497 36.3949 11.8671C36.3949 11.8845 36.4238 11.8987 36.4591 11.8987C36.4944 11.8987 36.5233 11.913 36.5233 11.9304C36.5233 11.9478 36.5521 11.962 36.5874 11.962C36.6227 11.962 36.6516 11.9763 36.6516 11.9937C36.6516 12.0111 36.695 12.0253 36.7479 12.0253C36.8009 12.0253 36.8442 12.0396 36.8442 12.057C36.8442 12.0744 36.8875 12.0886 36.9405 12.0886C36.9934 12.0886 37.0368 12.1028 37.0368 12.1203C37.0368 12.1377 37.0801 12.1519 37.133 12.1519C37.186 12.1519 37.2293 12.1661 37.2293 12.1835C37.2293 12.2009 37.3015 12.2152 37.3898 12.2152C37.4781 12.2152 37.5503 12.2294 37.5503 12.2468C37.5503 12.2644 37.6359 12.2785 37.7428 12.2785C37.8498 12.2785 37.9354 12.2925 37.9354 12.3101C37.9354 12.3296 38.0959 12.3418 38.3526 12.3418C38.6094 12.3418 38.7699 12.3296 38.7699 12.3101C38.7699 12.2921 38.8661 12.2785 38.9945 12.2785C39.1229 12.2785 39.2192 12.2649 39.2192 12.2468C39.2192 12.2294 39.2914 12.2152 39.3796 12.2152C39.4679 12.2152 39.5401 12.2009 39.5401 12.1835C39.5401 12.1661 39.5834 12.1519 39.6364 12.1519C39.6894 12.1519 39.7327 12.1377 39.7327 12.1203C39.7327 12.1028 39.776 12.0886 39.829 12.0886C39.8819 12.0886 39.9252 12.0744 39.9252 12.057C39.9252 12.0396 39.9686 12.0253 40.0215 12.0253C40.0745 12.0253 40.1178 12.0111 40.1178 11.9937C40.1178 11.9763 40.1467 11.962 40.182 11.962C40.2173 11.962 40.2462 11.9478 40.2462 11.9304C40.2462 11.913 40.2751 11.8987 40.3104 11.8987C40.3457 11.8987 40.3746 11.8845 40.3746 11.8671C40.3746 11.8497 40.4003 11.8354 40.4317 11.8354C40.4631 11.8354 40.5096 11.807 40.535 11.7722C40.5605 11.7373 40.607 11.7089 40.6384 11.7089C40.6698 11.7089 40.6955 11.6946 40.6955 11.6772C40.6955 11.6598 40.7212 11.6456 40.7526 11.6456C40.784 11.6456 40.8305 11.6171 40.856 11.5823C40.8814 11.5475 40.9209 11.519 40.9436 11.519C40.9941 11.519 41.7225 10.8061 41.7225 10.7567C41.7225 10.7374 41.7659 10.6817 41.8188 10.6329C41.8718 10.5841 41.9151 10.5215 41.9151 10.4936C41.9151 10.4658 41.9295 10.443 41.9472 10.443C41.9648 10.443 41.9793 10.4177 41.9793 10.3867C41.9793 10.3558 42.0082 10.3099 42.0435 10.2848C42.0788 10.2597 42.1077 10.2139 42.1077 10.1829C42.1077 10.1519 42.1221 10.1266 42.1397 10.1266C42.1574 10.1266 42.1718 10.0981 42.1718 10.0633C42.1718 10.0285 42.1863 10 42.2039 10C42.2216 10 42.236 9.97152 42.236 9.93671C42.236 9.9019 42.2505 9.87342 42.2681 9.87342C42.2858 9.87342 42.3002 9.8307 42.3002 9.77848C42.3002 9.72627 42.3147 9.68354 42.3323 9.68354C42.35 9.68354 42.3644 9.65506 42.3644 9.62025C42.3644 9.58544 42.3788 9.55696 42.3965 9.55696C42.4142 9.55696 42.4286 9.51424 42.4286 9.46203C42.4286 9.40981 42.443 9.36709 42.4607 9.36709C42.4783 9.36709 42.4928 9.31013 42.4928 9.24051C42.4928 9.17089 42.5072 9.11392 42.5249 9.11392C42.5425 9.11392 42.557 9.05696 42.557 8.98734C42.557 8.91772 42.5714 8.86076 42.5891 8.86076C42.6067 8.86076 42.6212 8.78956 42.6212 8.70253C42.6212 8.61551 42.6356 8.5443 42.6533 8.5443C42.6723 8.5443 42.6853 8.42826 42.6853 8.25949C42.6853 8.09073 42.6984 7.97468 42.7174 7.97468C42.7369 7.97468 42.7495 7.83756 42.7495 7.62658C42.7495 7.4156 42.7369 7.27848 42.7174 7.27848C42.6984 7.27848 42.6853 7.16244 42.6853 6.99367C42.6853 6.8249 42.6723 6.70886 42.6533 6.70886C42.6356 6.70886 42.6212 6.63766 42.6212 6.55063C42.6212 6.46361 42.6067 6.39241 42.5891 6.39241C42.5714 6.39241 42.557 6.33544 42.557 6.26582C42.557 6.1962 42.5425 6.13924 42.5249 6.13924C42.5072 6.13924 42.4928 6.08228 42.4928 6.01266C42.4928 5.94304 42.4783 5.88608 42.4607 5.88608C42.443 5.88608 42.4286 5.84335 42.4286 5.79114C42.4286 5.73892 42.4142 5.6962 42.3965 5.6962C42.3788 5.6962 42.3644 5.66772 42.3644 5.63291C42.3644 5.5981 42.35 5.56962 42.3323 5.56962C42.3147 5.56962 42.3002 5.5269 42.3002 5.47468C42.3002 5.42247 42.2858 5.37975 42.2681 5.37975C42.2505 5.37975 42.236 5.35127 42.236 5.31646C42.236 5.28165 42.2216 5.25316 42.2039 5.25316C42.1863 5.25316 42.1718 5.22468 42.1718 5.18987C42.1718 5.15506 42.1574 5.12658 42.1397 5.12658C42.1221 5.12658 42.1077 5.10123 42.1077 5.07029C42.1077 5.0393 42.0788 4.99345 42.0435 4.96835C42.0082 4.94326 41.9793 4.8974 41.9793 4.86642C41.9793 4.83547 41.9648 4.81013 41.9472 4.81013C41.9295 4.81013 41.9151 4.78737 41.9151 4.75953C41.9151 4.73171 41.8718 4.66902 41.8188 4.62025C41.7659 4.57149 41.7225 4.51576 41.7225 4.49646C41.7225 4.44709 40.9941 3.73418 40.9436 3.73418C40.9209 3.73418 40.8814 3.7057 40.856 3.67089C40.8305 3.63608 40.7872 3.60759 40.7597 3.60759C40.7322 3.60759 40.6889 3.57911 40.6634 3.5443C40.638 3.50949 40.5915 3.48101 40.56 3.48101C40.5286 3.48101 40.5029 3.46677 40.5029 3.44937C40.5029 3.43196 40.4741 3.41772 40.4388 3.41772C40.4035 3.41772 40.3746 3.40348 40.3746 3.38608C40.3746 3.36867 40.3457 3.35443 40.3104 3.35443C40.2751 3.35443 40.2462 3.34019 40.2462 3.32278C40.2462 3.30538 40.2173 3.29114 40.182 3.29114C40.1467 3.29114 40.1178 3.2769 40.1178 3.25949C40.1178 3.24209 40.0745 3.22785 40.0215 3.22785C39.9686 3.22785 39.9252 3.21361 39.9252 3.1962C39.9252 3.1788 39.8819 3.16456 39.829 3.16456C39.776 3.16456 39.7327 3.15032 39.7327 3.13291C39.7327 3.11551 39.6894 3.10127 39.6364 3.10127C39.5834 3.10127 39.5401 3.08703 39.5401 3.06962C39.5401 3.05222 39.4679 3.03797 39.3796 3.03797C39.2914 3.03797 39.2192 3.02373 39.2192 3.00633C39.2192 2.98788 39.1122 2.97468 38.9624 2.97468C38.8126 2.97468 38.7057 2.96149 38.7057 2.94304C38.7057 2.92405 38.5773 2.91139 38.3847 2.91139C38.1922 2.91139 38.0638 2.92405 38.0638 2.94304ZM18.2668 3.15164C18.2303 3.19234 18.234 3.20839 18.2908 3.25703C18.3277 3.28858 18.3579 3.33165 18.3579 3.35272C18.3579 3.3738 18.4157 3.44576 18.4863 3.51266C18.5569 3.57956 18.6147 3.65361 18.6147 3.67725C18.6147 3.70089 18.6435 3.74073 18.6789 3.76582C18.7142 3.79092 18.743 3.83108 18.743 3.85506C18.743 3.87902 18.7864 3.93858 18.8393 3.98734C18.8923 4.03611 18.9356 4.09307 18.9356 4.11392C18.9356 4.13478 18.9789 4.19174 19.0319 4.24051C19.0848 4.28927 19.1282 4.34623 19.1282 4.36709C19.1282 4.38794 19.1715 4.44491 19.2245 4.49367C19.2774 4.54244 19.3207 4.5994 19.3207 4.62025C19.3207 4.64111 19.3641 4.69807 19.417 4.74684C19.47 4.7956 19.5133 4.85256 19.5133 4.87342C19.5133 4.89427 19.5566 4.95123 19.6096 5C19.6625 5.04877 19.7059 5.10832 19.7059 5.13228C19.7059 5.15627 19.7348 5.19642 19.7701 5.22152C19.8054 5.24661 19.8342 5.28934 19.8342 5.31646C19.8342 5.34358 19.8631 5.3863 19.8984 5.41139C19.9337 5.43649 19.9626 5.47665 19.9626 5.50063C19.9626 5.52459 20.0059 5.58415 20.0589 5.63291C20.1119 5.68168 20.1552 5.73835 20.1552 5.75886C20.1552 5.77934 20.213 5.85082 20.2836 5.91772C20.3542 5.98462 20.4119 6.05867 20.4119 6.08231C20.4119 6.10595 20.4408 6.14579 20.4761 6.17089C20.5114 6.19598 20.5403 6.23614 20.5403 6.26013C20.5403 6.28408 20.5836 6.34364 20.6366 6.39241C20.6896 6.44117 20.7329 6.49813 20.7329 6.51899C20.7329 6.53984 20.7762 6.5968 20.8292 6.64557C20.8821 6.69434 20.9254 6.7513 20.9254 6.77215C20.9254 6.79301 20.9688 6.84997 21.0217 6.89873C21.0747 6.9475 21.118 7.00706 21.118 7.03101C21.118 7.055 21.1469 7.09516 21.1822 7.12025C21.2175 7.14535 21.2464 7.18807 21.2464 7.21519C21.2464 7.24231 21.2753 7.28503 21.3106 7.31013C21.3769 7.35725 21.3994 7.46835 21.3427 7.46835C21.325 7.46835 21.3106 7.4937 21.3106 7.52465C21.3106 7.55563 21.2817 7.60149 21.2464 7.62658C21.2111 7.65168 21.1822 7.69184 21.1822 7.71582C21.1822 7.73978 21.1389 7.79934 21.0859 7.8481C21.033 7.89687 20.9896 7.95383 20.9896 7.97468C20.9896 7.99554 20.9463 8.0525 20.8934 8.10127C20.8404 8.15003 20.7971 8.20959 20.7971 8.23354C20.7971 8.25753 20.7682 8.29769 20.7329 8.32278C20.6976 8.34788 20.6687 8.38772 20.6687 8.41136C20.6687 8.435 20.6109 8.50905 20.5403 8.57595C20.4697 8.64285 20.4119 8.7169 20.4119 8.74054C20.4119 8.76418 20.3831 8.80402 20.3478 8.82911C20.3124 8.85421 20.2836 8.89437 20.2836 8.91835C20.2836 8.94231 20.2402 9.00187 20.1873 9.05063C20.1343 9.0994 20.091 9.15636 20.091 9.17722C20.091 9.19807 20.0477 9.25503 19.9947 9.3038C19.9418 9.35256 19.8984 9.40953 19.8984 9.43038C19.8984 9.45123 19.8551 9.5082 19.8022 9.55696C19.7492 9.60573 19.7059 9.66529 19.7059 9.68924C19.7059 9.71323 19.677 9.75339 19.6417 9.77848C19.6064 9.80358 19.5775 9.84373 19.5775 9.86772C19.5775 9.89168 19.5342 9.95123 19.4812 10C19.4283 10.0488 19.3849 10.1057 19.3849 10.1266C19.3849 10.1474 19.3416 10.2044 19.2886 10.2532C19.2357 10.3019 19.1924 10.3615 19.1924 10.3854C19.1924 10.4094 19.1635 10.4496 19.1282 10.4747C19.0929 10.4998 19.064 10.5399 19.064 10.5639C19.064 10.5879 19.0207 10.6474 18.9677 10.6962C18.9147 10.745 18.8714 10.8019 18.8714 10.8228C18.8714 10.8436 18.8281 10.9006 18.7751 10.9494C18.7222 10.9981 18.6789 11.0577 18.6789 11.0816C18.6789 11.1056 18.65 11.1458 18.6147 11.1709C18.5794 11.196 18.5505 11.2361 18.5505 11.2601C18.5505 11.2841 18.5071 11.3436 18.4542 11.3924C18.4012 11.4412 18.3579 11.4981 18.3579 11.519C18.3579 11.5398 18.3146 11.5968 18.2616 11.6456C18.2087 11.6943 18.1653 11.751 18.1653 11.7715C18.1653 11.792 18.1065 11.8645 18.0345 11.9327C17.918 12.0431 17.909 12.0619 17.952 12.1043C18.0107 12.1622 18.09 12.1661 18.1121 12.1123C18.1244 12.0825 18.1374 12.0844 18.1653 12.1203C18.1933 12.1561 18.2063 12.158 18.2186 12.1282C18.2384 12.0802 18.6147 12.0727 18.6147 12.1203C18.6147 12.1377 18.6435 12.1519 18.6789 12.1519C18.7142 12.1519 18.743 12.1377 18.743 12.1203C18.743 12.0748 18.9919 12.081 19.0074 12.1268C19.0219 12.1698 19.3207 11.8897 19.3207 11.8332C19.3207 11.8136 19.3641 11.7576 19.417 11.7089C19.47 11.6601 19.5133 11.6031 19.5133 11.5823C19.5133 11.5614 19.5566 11.5045 19.6096 11.4557C19.6625 11.4069 19.7059 11.35 19.7059 11.3291C19.7059 11.3083 19.7492 11.2513 19.8022 11.2025C19.8551 11.1538 19.8984 11.0942 19.8984 11.0703C19.8984 11.0463 19.9273 11.0061 19.9626 10.981C19.9979 10.9559 20.0268 10.9132 20.0268 10.8861C20.0268 10.859 20.0557 10.8162 20.091 10.7911C20.1263 10.766 20.1552 10.7262 20.1552 10.7026C20.1552 10.6789 20.213 10.6049 20.2836 10.538C20.3542 10.4711 20.4119 10.3996 20.4119 10.3791C20.4119 10.3586 20.4553 10.3019 20.5082 10.2532C20.5612 10.2044 20.6045 10.1448 20.6045 10.1209C20.6045 10.0969 20.6334 10.0567 20.6687 10.0316C20.704 10.0066 20.7329 9.96639 20.7329 9.9424C20.7329 9.91845 20.7762 9.85889 20.8292 9.81013C20.8821 9.76136 20.9254 9.7044 20.9254 9.68354C20.9254 9.66269 20.9688 9.60573 21.0217 9.55696C21.0747 9.5082 21.118 9.44864 21.118 9.42468C21.118 9.4007 21.1469 9.36054 21.1822 9.33544C21.2175 9.31035 21.2464 9.27019 21.2464 9.2462C21.2464 9.22225 21.2897 9.16269 21.3427 9.11392C21.3956 9.06516 21.439 9.0082 21.439 8.98734C21.439 8.96649 21.4823 8.90953 21.5352 8.86076C21.5882 8.81199 21.6315 8.75503 21.6315 8.73418C21.6315 8.71332 21.6749 8.65636 21.7278 8.6076C21.7808 8.55883 21.8241 8.50263 21.8241 8.48269C21.8241 8.43617 21.9705 8.29114 22.0175 8.29114C22.0646 8.29114 22.145 8.37155 22.145 8.41858C22.145 8.43896 22.1884 8.49554 22.2413 8.5443C22.2943 8.59307 22.3376 8.65003 22.3376 8.67089C22.3376 8.69174 22.3809 8.7487 22.4339 8.79747C22.4868 8.84623 22.5302 8.9032 22.5302 8.92405C22.5302 8.94491 22.5735 9.00187 22.6264 9.05063C22.6794 9.0994 22.7227 9.15636 22.7227 9.17722C22.7227 9.19807 22.7661 9.25503 22.819 9.3038C22.872 9.35256 22.9153 9.40953 22.9153 9.43038C22.9153 9.45123 22.9586 9.5082 23.0116 9.55696C23.0645 9.60573 23.1079 9.66529 23.1079 9.68924C23.1079 9.71323 23.1367 9.75339 23.172 9.77848C23.2073 9.80358 23.2362 9.84373 23.2362 9.86772C23.2362 9.89168 23.2796 9.95123 23.3325 10C23.3855 10.0488 23.4288 10.1083 23.4288 10.1323C23.4288 10.1563 23.4577 10.1964 23.493 10.2215C23.5283 10.2466 23.5572 10.2865 23.5572 10.3101C23.5572 10.3337 23.6149 10.4078 23.6856 10.4747C23.7562 10.5416 23.8139 10.6131 23.8139 10.6335C23.8139 10.6541 23.8573 10.7107 23.9102 10.7595C23.9632 10.8083 24.0065 10.8678 24.0065 10.8918C24.0065 10.9158 24.0354 10.9559 24.0707 10.981C24.106 11.0061 24.1349 11.0463 24.1349 11.0703C24.1349 11.0942 24.1782 11.1538 24.2312 11.2025C24.2841 11.2513 24.3274 11.3083 24.3274 11.3291C24.3274 11.35 24.3708 11.4069 24.4237 11.4557C24.4767 11.5045 24.52 11.5614 24.52 11.5823C24.52 11.6031 24.5633 11.6601 24.6163 11.7089C24.6692 11.7576 24.7126 11.8172 24.7126 11.8411C24.7126 11.8651 24.7415 11.9053 24.7768 11.9304C24.8121 11.9555 24.8409 12.0013 24.8409 12.0323C24.8409 12.0734 24.8662 12.0886 24.9346 12.0886C24.986 12.0886 25.0366 12.1064 25.0469 12.1282C25.0619 12.1598 25.0694 12.1598 25.0843 12.1282C25.1065 12.0812 25.2261 12.0746 25.2261 12.1203C25.2261 12.1377 25.255 12.1519 25.2903 12.1519C25.3256 12.1519 25.3545 12.1377 25.3545 12.1203C25.3545 12.1013 25.4828 12.0886 25.6754 12.0886C25.868 12.0886 25.9963 12.1013 25.9963 12.1203C25.9963 12.1377 26.0108 12.1519 26.0284 12.1519C26.0461 12.1519 26.0605 12.1234 26.0605 12.0886C26.0605 12.0538 26.0461 12.0253 26.0284 12.0253C26.0108 12.0253 25.9963 12 25.9963 11.969C25.9963 11.938 25.9675 11.8922 25.9322 11.8671C25.8968 11.842 25.868 11.8022 25.868 11.7785C25.868 11.7549 25.8102 11.6808 25.7396 11.6139C25.669 11.547 25.6112 11.473 25.6112 11.4493C25.6112 11.4257 25.5823 11.3859 25.547 11.3608C25.5117 11.3357 25.4828 11.2929 25.4828 11.2658C25.4828 11.2387 25.4539 11.196 25.4186 11.1709C25.3833 11.1458 25.3545 11.1056 25.3545 11.0816C25.3545 11.0577 25.3111 10.9981 25.2582 10.9494C25.2052 10.9006 25.1619 10.8436 25.1619 10.8228C25.1619 10.8019 25.1186 10.745 25.0656 10.6962C25.0127 10.6474 24.9693 10.5905 24.9693 10.5696C24.9693 10.5488 24.926 10.4918 24.873 10.443C24.8201 10.3943 24.7768 10.3373 24.7768 10.3165C24.7768 10.2956 24.7334 10.2386 24.6805 10.1899C24.6275 10.1411 24.5842 10.0816 24.5842 10.0576C24.5842 10.0336 24.5553 9.99345 24.52 9.96835C24.4847 9.94326 24.4558 9.9031 24.4558 9.87911C24.4558 9.85516 24.4125 9.7956 24.3595 9.74684C24.3066 9.69807 24.2633 9.64111 24.2633 9.62025C24.2633 9.5994 24.2199 9.54244 24.167 9.49367C24.114 9.44491 24.0707 9.38535 24.0707 9.36139C24.0707 9.33741 24.0418 9.29725 24.0065 9.27215C23.9712 9.24706 23.9423 9.2069 23.9423 9.18291C23.9423 9.15896 23.899 9.0994 23.846 9.05063C23.7931 9.00187 23.7497 8.94491 23.7497 8.92405C23.7497 8.9032 23.7064 8.84623 23.6535 8.79747C23.6005 8.7487 23.5572 8.69174 23.5572 8.67089C23.5572 8.65003 23.5139 8.59307 23.4609 8.5443C23.4079 8.49554 23.3646 8.43858 23.3646 8.41772C23.3646 8.39687 23.3213 8.3399 23.2683 8.29114C23.2154 8.24237 23.172 8.18541 23.172 8.16456C23.172 8.1437 23.1287 8.08674 23.0758 8.03797C23.0228 7.98921 22.9795 7.92965 22.9795 7.9057C22.9795 7.88171 22.9506 7.84155 22.9153 7.81646C22.88 7.79136 22.8511 7.7512 22.8511 7.72721C22.8511 7.70326 22.8078 7.6437 22.7548 7.59494C22.6617 7.50915 22.6193 7.34177 22.6906 7.34177C22.7083 7.34177 22.7227 7.31902 22.7227 7.29117C22.7227 7.26335 22.7661 7.20066 22.819 7.1519C22.872 7.10313 22.9153 7.04358 22.9153 7.01962C22.9153 6.99563 22.9442 6.95547 22.9795 6.93038C23.0148 6.90528 23.0437 6.86513 23.0437 6.84114C23.0437 6.81718 23.087 6.75763 23.14 6.70886C23.1929 6.6601 23.2362 6.60313 23.2362 6.58228C23.2362 6.56142 23.2796 6.50446 23.3325 6.4557C23.3855 6.40693 23.4288 6.34997 23.4288 6.32911C23.4288 6.30826 23.4721 6.2513 23.5251 6.20253C23.578 6.15377 23.6214 6.0968 23.6214 6.07595C23.6214 6.0551 23.6647 5.99813 23.7176 5.94937C23.7706 5.9006 23.8139 5.84364 23.8139 5.82278C23.8139 5.80193 23.8573 5.74497 23.9102 5.6962C23.9632 5.64744 24.0065 5.58788 24.0065 5.56392C24.0065 5.53994 24.0354 5.49978 24.0707 5.47468C24.106 5.44959 24.1349 5.40943 24.1349 5.38544C24.1349 5.36149 24.1782 5.30193 24.2312 5.25316C24.2841 5.2044 24.3274 5.14744 24.3274 5.12658C24.3274 5.10573 24.3708 5.04877 24.4237 5C24.4767 4.95123 24.52 4.89427 24.52 4.87342C24.52 4.85256 24.5633 4.7956 24.6163 4.74684C24.6692 4.69807 24.7126 4.64111 24.7126 4.62025C24.7126 4.5994 24.7559 4.54244 24.8089 4.49367C24.8618 4.44491 24.9051 4.38535 24.9051 4.36139C24.9051 4.33741 24.934 4.29725 24.9693 4.27215C25.0046 4.24706 25.0335 4.2069 25.0335 4.18291C25.0335 4.15896 25.0768 4.0994 25.1298 4.05063C25.1828 4.00187 25.2261 3.94491 25.2261 3.92405C25.2261 3.9032 25.2694 3.84623 25.3224 3.79747C25.3753 3.7487 25.4186 3.68915 25.4186 3.66519C25.4186 3.6412 25.4475 3.60104 25.4828 3.57595C25.5181 3.55085 25.547 3.5107 25.547 3.48671C25.547 3.46275 25.5903 3.4032 25.6433 3.35443C25.7567 3.24994 25.7772 3.10127 25.6781 3.10127C25.6442 3.10127 25.6081 3.11908 25.5978 3.14082C25.5829 3.17247 25.5754 3.17247 25.5604 3.14082C25.5468 3.11206 25.424 3.10127 25.11 3.10127H24.6783L24.5671 3.21098C24.5059 3.2713 24.4558 3.3368 24.4558 3.35649C24.4558 3.3762 24.4125 3.43225 24.3595 3.48101C24.3066 3.52978 24.2633 3.58674 24.2633 3.60759C24.2633 3.62845 24.2199 3.68541 24.167 3.73418C24.114 3.78294 24.0707 3.83991 24.0707 3.86076C24.0707 3.88161 24.0274 3.93858 23.9744 3.98734C23.9214 4.03611 23.8781 4.09566 23.8781 4.11962C23.8781 4.14361 23.8492 4.18377 23.8139 4.20886C23.7786 4.23396 23.7497 4.27411 23.7497 4.2981C23.7497 4.32206 23.7064 4.38161 23.6535 4.43038C23.6005 4.47915 23.5572 4.53611 23.5572 4.55696C23.5572 4.57782 23.5139 4.63478 23.4609 4.68354C23.4079 4.73231 23.3646 4.78927 23.3646 4.81013C23.3646 4.83098 23.3213 4.88794 23.2683 4.93671C23.2154 4.98547 23.172 5.04503 23.172 5.06899C23.172 5.09297 23.1432 5.13313 23.1079 5.15823C23.0726 5.18332 23.0437 5.22348 23.0437 5.24747C23.0437 5.27142 23.0003 5.33098 22.9474 5.37975C22.8944 5.42851 22.8511 5.48547 22.8511 5.50633C22.8511 5.52718 22.8078 5.58415 22.7548 5.63291C22.7019 5.68168 22.6585 5.73864 22.6585 5.75949C22.6585 5.78035 22.6152 5.83731 22.5623 5.88608C22.5093 5.93484 22.466 5.9918 22.466 6.01266C22.466 6.03351 22.4226 6.09047 22.3697 6.13924C22.3167 6.18801 22.2734 6.24497 22.2734 6.26582C22.2734 6.28668 22.2301 6.34364 22.1771 6.39241C22.1242 6.44117 22.0808 6.50386 22.0808 6.53168C22.0808 6.55953 22.0582 6.58228 22.0304 6.58228C21.9712 6.58228 21.8883 6.50791 21.8883 6.45484C21.8883 6.43446 21.8449 6.37788 21.792 6.32911C21.739 6.28035 21.6957 6.22339 21.6957 6.20253C21.6957 6.18168 21.6524 6.12472 21.5994 6.07595C21.5465 6.02718 21.5031 5.97022 21.5031 5.94937C21.5031 5.92851 21.4598 5.87155 21.4069 5.82278C21.3539 5.77402 21.3106 5.71446 21.3106 5.69051C21.3106 5.66652 21.2817 5.62636 21.2464 5.60127C21.2111 5.57617 21.1822 5.53601 21.1822 5.51203C21.1822 5.48807 21.1389 5.42851 21.0859 5.37975C21.033 5.33098 20.9896 5.27402 20.9896 5.25316C20.9896 5.23231 20.9463 5.17535 20.8934 5.12658C20.8404 5.07782 20.7971 5.02085 20.7971 5C20.7971 4.97915 20.7537 4.92218 20.7008 4.87342C20.6478 4.82465 20.6045 4.76769 20.6045 4.74684C20.6045 4.72598 20.5612 4.66902 20.5082 4.62025C20.4553 4.57149 20.4119 4.51453 20.4119 4.49367C20.4119 4.47282 20.3686 4.41585 20.3157 4.36709C20.2627 4.31832 20.2194 4.25877 20.2194 4.23481C20.2194 4.21082 20.1905 4.17066 20.1552 4.14557C20.1199 4.12047 20.091 4.08032 20.091 4.05633C20.091 4.03237 20.0477 3.97282 19.9947 3.92405C19.9418 3.87528 19.8984 3.81832 19.8984 3.79747C19.8984 3.77661 19.8551 3.71965 19.8022 3.67089C19.7492 3.62212 19.7059 3.56256 19.7059 3.53861C19.7059 3.51462 19.677 3.47446 19.6417 3.44937C19.6064 3.42427 19.5775 3.38506 19.5775 3.36221C19.5775 3.33937 19.5274 3.2713 19.4662 3.21098L19.355 3.10127L18.8324 3.10247C18.4067 3.10345 18.3018 3.11256 18.2668 3.15164ZM26.6075 3.15566C26.5729 3.19402 26.5708 3.21098 26.5995 3.22038C26.6292 3.23016 26.6382 3.66563 26.6382 5.08402C26.6382 6.64592 26.6311 6.94196 26.5924 6.98009C26.556 7.01595 26.4262 7.02532 25.9651 7.02532C25.3905 7.02532 25.3827 7.02623 25.3049 7.10301C25.2615 7.14573 25.2261 7.19696 25.2261 7.21687C25.2261 7.2368 25.1828 7.29301 25.1298 7.34177C25.0768 7.39054 25.0335 7.45009 25.0335 7.47405C25.0335 7.49804 25.0046 7.5382 24.9693 7.56329C24.934 7.58839 24.9051 7.63111 24.9051 7.65823C24.9051 7.68535 24.8763 7.72807 24.8409 7.75316C24.8056 7.77826 24.7768 7.82411 24.7768 7.8551C24.7768 7.90769 24.8348 7.91139 25.6616 7.91139C26.3857 7.91139 26.5548 7.91962 26.5924 7.95661C26.6312 7.99484 26.6382 8.31225 26.6382 10.0136C26.6382 11.3336 26.6272 12.0253 26.6061 12.0253C26.5885 12.0253 26.574 12.0396 26.574 12.057C26.574 12.0744 26.6017 12.0886 26.6356 12.0886C26.6694 12.0886 26.7055 12.1064 26.7158 12.1282C26.7308 12.1598 26.7383 12.1598 26.7532 12.1282C26.7759 12.0803 27.1517 12.0728 27.1517 12.1203C27.1517 12.1377 27.1806 12.1519 27.2159 12.1519C27.2512 12.1519 27.2801 12.1377 27.2801 12.1203C27.2801 12.0705 28.2969 12.0782 28.3205 12.1282C28.3355 12.1598 28.343 12.1598 28.3579 12.1282C28.3714 12.0998 28.484 12.0886 28.7564 12.0886C29.0289 12.0886 29.1415 12.0998 29.155 12.1282C29.1699 12.1598 29.1774 12.1598 29.1924 12.1282C29.2068 12.0978 29.441 12.0886 30.2034 12.0886C30.8435 12.0886 31.1956 12.0774 31.1956 12.057C31.1956 12.0396 31.2678 12.0253 31.3561 12.0253C31.4443 12.0253 31.5166 12.0111 31.5166 11.9937C31.5166 11.9763 31.5599 11.962 31.6128 11.962C31.6658 11.962 31.7091 11.9478 31.7091 11.9304C31.7091 11.913 31.7524 11.8987 31.8054 11.8987C31.8584 11.8987 31.9017 11.8845 31.9017 11.8671C31.9017 11.8497 31.9306 11.8354 31.9659 11.8354C32.0012 11.8354 32.0301 11.8212 32.0301 11.8038C32.0301 11.7864 32.0702 11.7722 32.1192 11.7722C32.1716 11.7722 32.2275 11.746 32.2547 11.7089C32.2802 11.6741 32.3267 11.6456 32.3581 11.6456C32.3895 11.6456 32.4152 11.6313 32.4152 11.6139C32.4152 11.5965 32.438 11.5823 32.4658 11.5823C32.4937 11.5823 32.572 11.5253 32.6399 11.4557C32.7077 11.3861 32.7798 11.3291 32.8001 11.3291C32.8204 11.3291 32.8576 11.3088 32.8828 11.2839C32.9081 11.2591 32.9287 11.2223 32.9287 11.2023C32.9287 11.1823 32.9865 11.1112 33.0571 11.0443C33.1277 10.9774 33.1855 10.9002 33.1855 10.8727C33.1855 10.8453 33.1999 10.8228 33.2175 10.8228C33.2352 10.8228 33.2496 10.7943 33.2496 10.7595C33.2496 10.7247 33.2641 10.6962 33.2817 10.6962C33.2994 10.6962 33.3138 10.6677 33.3138 10.6329C33.3138 10.5981 33.3283 10.5696 33.3459 10.5696C33.3636 10.5696 33.378 10.5411 33.378 10.5063C33.378 10.4715 33.3925 10.443 33.4101 10.443C33.4278 10.443 33.4422 10.4003 33.4422 10.3481C33.4422 10.2959 33.4566 10.2532 33.4743 10.2532C33.492 10.2532 33.5064 10.1962 33.5064 10.1266C33.5064 10.057 33.5208 10 33.5385 10C33.5585 10 33.5706 9.81013 33.5706 9.49367C33.5706 9.17722 33.5585 8.98734 33.5385 8.98734C33.5208 8.98734 33.5064 8.94462 33.5064 8.89241C33.5064 8.84019 33.492 8.79747 33.4743 8.79747C33.4566 8.79747 33.4422 8.75475 33.4422 8.70253C33.4422 8.65032 33.4278 8.6076 33.4101 8.6076C33.3925 8.6076 33.378 8.57911 33.378 8.5443C33.378 8.50949 33.3636 8.48101 33.3459 8.48101C33.3283 8.48101 33.3138 8.45253 33.3138 8.41772C33.3138 8.38291 33.2994 8.35443 33.2817 8.35443C33.2641 8.35443 33.2496 8.33168 33.2496 8.30383C33.2496 8.27601 33.2063 8.21332 33.1534 8.16456C33.1004 8.11579 33.0571 8.05991 33.0571 8.04041C33.0571 7.99089 32.7147 7.65823 32.6637 7.65823C32.6407 7.65823 32.6011 7.62975 32.5757 7.59494C32.5502 7.56013 32.5037 7.53165 32.4723 7.53165C32.4409 7.53165 32.4152 7.51741 32.4152 7.5C32.4152 7.48259 32.3925 7.46835 32.3648 7.46835C32.337 7.46835 32.2927 7.44699 32.2662 7.42089C32.2234 7.3787 32.2234 7.36813 32.2662 7.32595C32.2927 7.29984 32.3312 7.27848 32.3519 7.27848C32.3725 7.27848 32.4299 7.23576 32.4794 7.18354C32.5288 7.13133 32.5858 7.08861 32.6061 7.08861C32.6537 7.08861 32.8003 6.94402 32.8003 6.89706C32.8003 6.87712 32.8436 6.82092 32.8966 6.77215C32.9496 6.72339 32.9929 6.6607 32.9929 6.63288C32.9929 6.60503 33.0073 6.58228 33.025 6.58228C33.0426 6.58228 33.0571 6.5538 33.0571 6.51899C33.0571 6.48418 33.0715 6.4557 33.0892 6.4557C33.1068 6.4557 33.1213 6.42722 33.1213 6.39241C33.1213 6.35759 33.1357 6.32911 33.1534 6.32911C33.171 6.32911 33.1855 6.28639 33.1855 6.23418C33.1855 6.18196 33.1999 6.13924 33.2175 6.13924C33.2354 6.13924 33.2496 6.05484 33.2496 5.94937C33.2496 5.84389 33.2639 5.75949 33.2817 5.75949C33.2994 5.75949 33.3138 5.68829 33.3138 5.60127C33.3138 5.51424 33.2994 5.44304 33.2817 5.44304C33.2634 5.44304 33.2496 5.3481 33.2496 5.22152C33.2496 5.09494 33.2359 5 33.2175 5C33.1999 5 33.1855 4.95728 33.1855 4.90506C33.1855 4.85285 33.171 4.81013 33.1534 4.81013C33.1357 4.81013 33.1213 4.76741 33.1213 4.71519C33.1213 4.66297 33.1068 4.62025 33.0892 4.62025C33.0715 4.62025 33.0571 4.58066 33.0571 4.53231C33.0571 4.48066 33.0306 4.42554 32.9929 4.39873C32.9576 4.37364 32.9287 4.33092 32.9287 4.3038C32.9287 4.27668 32.8998 4.23396 32.8645 4.20886C32.8292 4.18377 32.8003 4.14472 32.8003 4.12209C32.8003 4.0718 32.4629 3.73418 32.4127 3.73418C32.3929 3.73418 32.3363 3.69146 32.2868 3.63924C32.2374 3.58703 32.1738 3.5443 32.1456 3.5443C32.1173 3.5443 32.0942 3.53006 32.0942 3.51266C32.0942 3.49525 32.0654 3.48101 32.0301 3.48101C31.9948 3.48101 31.9659 3.46677 31.9659 3.44937C31.9659 3.43196 31.937 3.41772 31.9017 3.41772C31.8664 3.41772 31.8375 3.40348 31.8375 3.38608C31.8375 3.36867 31.7942 3.35443 31.7412 3.35443C31.6883 3.35443 31.6449 3.34019 31.6449 3.32278C31.6449 3.30538 31.5872 3.29114 31.5166 3.29114C31.4459 3.29114 31.3882 3.2769 31.3882 3.25949C31.3882 3.24209 31.3304 3.22785 31.2598 3.22785C31.1892 3.22785 31.1314 3.21361 31.1314 3.1962C31.1314 3.17674 30.9709 3.16456 30.7142 3.16456C30.4574 3.16456 30.297 3.15237 30.297 3.13291C30.297 3.08244 28.1893 3.09025 28.1654 3.14082C28.1504 3.17247 28.1429 3.17247 28.1279 3.14082C28.1137 3.11082 27.9333 3.10155 27.3818 3.10247C26.7484 3.10351 26.6482 3.11041 26.6075 3.15566ZM42.1449 3.15164C42.1084 3.19234 42.1121 3.20839 42.169 3.25703C42.2058 3.28858 42.236 3.33165 42.236 3.35272C42.236 3.3738 42.2938 3.44576 42.3644 3.51266C42.435 3.57956 42.4928 3.65361 42.4928 3.67725C42.4928 3.70089 42.5217 3.74073 42.557 3.76582C42.5923 3.79092 42.6212 3.83108 42.6212 3.85506C42.6212 3.87902 42.6645 3.93858 42.7174 3.98734C42.7704 4.03611 42.8137 4.09307 42.8137 4.11392C42.8137 4.13478 42.8571 4.19174 42.91 4.24051C42.963 4.28927 43.0063 4.34623 43.0063 4.36709C43.0063 4.38794 43.0496 4.44491 43.1026 4.49367C43.1555 4.54244 43.1989 4.5994 43.1989 4.62025C43.1989 4.64111 43.2422 4.69807 43.2951 4.74684C43.3481 4.7956 43.3914 4.85516 43.3914 4.87911C43.3914 4.9031 43.4203 4.94326 43.4556 4.96835C43.4909 4.99345 43.5198 5.03361 43.5198 5.0576C43.5198 5.08155 43.5631 5.14111 43.6161 5.18987C43.669 5.23864 43.7124 5.2956 43.7124 5.31646C43.7124 5.33731 43.7557 5.39427 43.8086 5.44304C43.8616 5.4918 43.9049 5.54877 43.9049 5.56962C43.9049 5.59047 43.9483 5.64744 44.0012 5.6962C44.0542 5.74497 44.0975 5.80193 44.0975 5.82278C44.0975 5.84364 44.1408 5.9006 44.1938 5.94937C44.2467 5.99813 44.2901 6.05769 44.2901 6.08165C44.2901 6.10563 44.3189 6.14579 44.3543 6.17089C44.3896 6.19598 44.4184 6.23614 44.4184 6.26013C44.4184 6.28408 44.4618 6.34364 44.5147 6.39241C44.5677 6.44117 44.611 6.49813 44.611 6.51899C44.611 6.53984 44.6543 6.5968 44.7073 6.64557C44.7602 6.69434 44.8036 6.7513 44.8036 6.77215C44.8036 6.79301 44.8469 6.84997 44.8999 6.89873C44.9528 6.9475 44.9961 7.00706 44.9961 7.03101C44.9961 7.055 45.025 7.09516 45.0603 7.12025C45.0956 7.14535 45.1245 7.18807 45.1245 7.21519C45.1245 7.24231 45.1534 7.28503 45.1887 7.31013C45.2814 7.37601 45.2684 7.49203 45.1566 7.59494C45.1036 7.6437 45.0603 7.70066 45.0603 7.72152C45.0603 7.74237 45.017 7.79934 44.964 7.8481C44.9111 7.89687 44.8678 7.95642 44.8678 7.98038C44.8678 8.00437 44.8389 8.04453 44.8036 8.06962C44.7683 8.09472 44.7394 8.13487 44.7394 8.15886C44.7394 8.18282 44.6961 8.24237 44.6431 8.29114C44.5901 8.3399 44.5468 8.39687 44.5468 8.41772C44.5468 8.43858 44.5035 8.49554 44.4505 8.5443C44.3976 8.59307 44.3543 8.65003 44.3543 8.67089C44.3543 8.69174 44.3109 8.7487 44.258 8.79747C44.205 8.84623 44.1617 8.90579 44.1617 8.92975C44.1617 8.95373 44.1328 8.99389 44.0975 9.01899C44.0622 9.04408 44.0333 9.08424 44.0333 9.10823C44.0333 9.13218 43.99 9.19174 43.937 9.24051C43.8841 9.28927 43.8407 9.34595 43.8407 9.36646C43.8407 9.38693 43.783 9.45842 43.7124 9.52532C43.6418 9.59222 43.584 9.66627 43.584 9.68991C43.584 9.71354 43.5551 9.75339 43.5198 9.77848C43.4845 9.80358 43.4556 9.8463 43.4556 9.87342C43.4556 9.90054 43.4267 9.94326 43.3914 9.96835C43.3561 9.99345 43.3272 10.0336 43.3272 10.0576C43.3272 10.0816 43.2839 10.1411 43.231 10.1899C43.178 10.2386 43.1347 10.2956 43.1347 10.3165C43.1347 10.3373 43.0913 10.3943 43.0384 10.443C42.9854 10.4918 42.9421 10.5488 42.9421 10.5696C42.9421 10.5905 42.8988 10.6474 42.8458 10.6962C42.7929 10.745 42.7495 10.8019 42.7495 10.8228C42.7495 10.8436 42.7062 10.9006 42.6533 10.9494C42.6003 10.9981 42.557 11.0577 42.557 11.0816C42.557 11.1056 42.5281 11.1458 42.4928 11.1709C42.4575 11.196 42.4286 11.2361 42.4286 11.2601C42.4286 11.2841 42.3853 11.3436 42.3323 11.3924C42.2794 11.4412 42.236 11.4981 42.236 11.519C42.236 11.5398 42.1927 11.5968 42.1397 11.6456C42.0868 11.6943 42.0435 11.7539 42.0435 11.7779C42.0435 11.8018 42.0146 11.842 41.9793 11.8671C41.944 11.8922 41.9151 11.938 41.9151 11.969C41.9151 12 41.9006 12.0253 41.883 12.0253C41.8653 12.0253 41.8509 12.0538 41.8509 12.0886C41.8509 12.1308 41.8723 12.1519 41.9151 12.1519C41.9504 12.1519 41.9793 12.1377 41.9793 12.1203C41.9793 12.0716 42.5471 12.0791 42.5704 12.1282C42.5853 12.1598 42.5928 12.1598 42.6078 12.1282C42.6318 12.0774 42.8684 12.0763 42.8855 12.1268C42.9 12.1698 43.1989 11.8897 43.1989 11.8332C43.1989 11.8136 43.2422 11.7576 43.2951 11.7089C43.3481 11.6601 43.3914 11.6031 43.3914 11.5823C43.3914 11.5614 43.4347 11.5045 43.4877 11.4557C43.5407 11.4069 43.584 11.35 43.584 11.3291C43.584 11.3083 43.6273 11.2513 43.6803 11.2025C43.7332 11.1538 43.7766 11.0968 43.7766 11.0759C43.7766 11.0551 43.8199 10.9981 43.8728 10.9494C43.9258 10.9006 43.9691 10.841 43.9691 10.8171C43.9691 10.7931 43.998 10.7529 44.0333 10.7278C44.0686 10.7028 44.0975 10.6626 44.0975 10.6386C44.0975 10.6147 44.1408 10.5551 44.1938 10.5063C44.2467 10.4576 44.2901 10.4006 44.2901 10.3797C44.2901 10.3589 44.3334 10.3019 44.3863 10.2532C44.4393 10.2044 44.4826 10.1448 44.4826 10.1209C44.4826 10.0969 44.5115 10.0567 44.5468 10.0316C44.5821 10.0066 44.611 9.96639 44.611 9.9424C44.611 9.91845 44.6543 9.85889 44.7073 9.81013C44.7602 9.76136 44.8036 9.70468 44.8036 9.68418C44.8036 9.6637 44.8613 9.59222 44.9319 9.52532C45.0026 9.45842 45.0603 9.38437 45.0603 9.36073C45.0603 9.33709 45.0892 9.29725 45.1245 9.27215C45.1598 9.24706 45.1887 9.2069 45.1887 9.18291C45.1887 9.15896 45.232 9.0994 45.285 9.05063C45.3379 9.00187 45.3813 8.94491 45.3813 8.92405C45.3813 8.9032 45.4246 8.84623 45.4776 8.79747C45.5305 8.7487 45.5738 8.69174 45.5738 8.67089C45.5738 8.65003 45.6172 8.59307 45.6701 8.5443C45.7231 8.49554 45.7664 8.43896 45.7664 8.41858C45.7664 8.37155 45.8469 8.29114 45.8939 8.29114C45.9409 8.29114 46.0873 8.43617 46.0873 8.48269C46.0873 8.50263 46.1307 8.55883 46.1836 8.6076C46.2366 8.65636 46.2799 8.71592 46.2799 8.73987C46.2799 8.76386 46.3088 8.80402 46.3441 8.82911C46.3794 8.85421 46.4083 8.89437 46.4083 8.91835C46.4083 8.94231 46.4516 9.00187 46.5046 9.05063C46.5575 9.0994 46.6008 9.15636 46.6008 9.17722C46.6008 9.19807 46.6442 9.25503 46.6971 9.3038C46.7501 9.35256 46.7934 9.40953 46.7934 9.43038C46.7934 9.45123 46.8367 9.5082 46.8897 9.55696C46.9426 9.60573 46.986 9.66529 46.986 9.68924C46.986 9.71323 47.0149 9.75339 47.0502 9.77848C47.0855 9.80358 47.1144 9.84342 47.1144 9.86706C47.1144 9.8907 47.1721 9.96475 47.2427 10.0316C47.3133 10.0985 47.3711 10.1726 47.3711 10.1962C47.3711 10.2199 47.4 10.2597 47.4353 10.2848C47.4706 10.3099 47.4995 10.3526 47.4995 10.3797C47.4995 10.4069 47.5284 10.4496 47.5637 10.4747C47.599 10.4998 47.6279 10.5399 47.6279 10.5639C47.6279 10.5879 47.6712 10.6474 47.7241 10.6962C47.7771 10.745 47.8204 10.8019 47.8204 10.8228C47.8204 10.8436 47.8638 10.9006 47.9167 10.9494C47.9697 10.9981 48.013 11.0551 48.013 11.0759C48.013 11.0968 48.0563 11.1538 48.1093 11.2025C48.1622 11.2513 48.2056 11.3083 48.2056 11.3291C48.2056 11.35 48.2489 11.4069 48.3018 11.4557C48.3548 11.5045 48.3981 11.5614 48.3981 11.5823C48.3981 11.6031 48.4415 11.6601 48.4944 11.7089C48.5474 11.7576 48.5907 11.8136 48.5907 11.8332C48.5907 11.8897 48.8896 12.1698 48.9041 12.1268C48.9202 12.0791 49.4251 12.0728 49.4251 12.1203C49.4251 12.1377 49.4829 12.1519 49.5535 12.1519C49.6241 12.1519 49.6819 12.1377 49.6819 12.1203C49.6819 12.1028 49.7108 12.0886 49.7461 12.0886C49.7814 12.0886 49.8103 12.1028 49.8103 12.1203C49.8103 12.1672 49.9044 12.1585 49.957 12.1067C50.0192 12.0454 50.0147 12.0253 49.9386 12.0253C49.8985 12.0253 49.8745 12.0042 49.8745 11.969C49.8745 11.938 49.8456 11.8922 49.8103 11.8671C49.775 11.842 49.7461 11.7993 49.7461 11.7722C49.7461 11.745 49.7172 11.7023 49.6819 11.6772C49.6466 11.6521 49.6177 11.6123 49.6177 11.5886C49.6177 11.565 49.5599 11.4909 49.4893 11.4241C49.4187 11.3572 49.361 11.2831 49.361 11.2595C49.361 11.2358 49.3321 11.196 49.2968 11.1709C49.2615 11.1458 49.2326 11.1056 49.2326 11.0816C49.2326 11.0577 49.1892 10.9981 49.1363 10.9494C49.0833 10.9006 49.04 10.8436 49.04 10.8228C49.04 10.8019 48.9967 10.745 48.9437 10.6962C48.8908 10.6474 48.8474 10.5905 48.8474 10.5696C48.8474 10.5488 48.8041 10.4918 48.7512 10.443C48.6982 10.3943 48.6549 10.3373 48.6549 10.3165C48.6549 10.2956 48.6116 10.2386 48.5586 10.1899C48.5056 10.1411 48.4623 10.0816 48.4623 10.0576C48.4623 10.0336 48.4334 9.99345 48.3981 9.96835C48.3628 9.94326 48.3339 9.9031 48.3339 9.87911C48.3339 9.85516 48.2906 9.7956 48.2377 9.74684C48.1847 9.69807 48.1414 9.63851 48.1414 9.61456C48.1414 9.59057 48.1125 9.55041 48.0772 9.52532C48.0419 9.50022 48.013 9.46006 48.013 9.43608C48.013 9.41212 47.9697 9.35256 47.9167 9.3038C47.8638 9.25503 47.8204 9.19807 47.8204 9.17722C47.8204 9.15636 47.7771 9.0994 47.7241 9.05063C47.6712 9.00187 47.6279 8.94491 47.6279 8.92405C47.6279 8.9032 47.5845 8.84623 47.5316 8.79747C47.4786 8.7487 47.4353 8.69174 47.4353 8.67089C47.4353 8.65003 47.392 8.59307 47.339 8.5443C47.2861 8.49554 47.2427 8.43598 47.2427 8.41203C47.2427 8.38804 47.2138 8.34788 47.1785 8.32278C47.1432 8.29769 47.1144 8.25753 47.1144 8.23354C47.1144 8.20959 47.071 8.15003 47.0181 8.10127C46.9651 8.0525 46.9218 7.99554 46.9218 7.97468C46.9218 7.95383 46.8785 7.89687 46.8255 7.8481C46.7726 7.79934 46.7292 7.73978 46.7292 7.71582C46.7292 7.69184 46.7003 7.65168 46.665 7.62658C46.6297 7.60149 46.6008 7.55563 46.6008 7.52465C46.6008 7.4937 46.5864 7.46835 46.5688 7.46835C46.5511 7.46835 46.5367 7.43987 46.5367 7.40506C46.5367 7.37025 46.5511 7.34177 46.5688 7.34177C46.5864 7.34177 46.6008 7.31902 46.6008 7.29117C46.6008 7.26335 46.6442 7.20066 46.6971 7.1519C46.7501 7.10313 46.7934 7.04617 46.7934 7.02532C46.7934 7.00446 46.8367 6.9475 46.8897 6.89873C46.9426 6.84997 46.986 6.79041 46.986 6.76646C46.986 6.74247 47.0149 6.70231 47.0502 6.67722C47.0855 6.65212 47.1144 6.61228 47.1144 6.58864C47.1144 6.565 47.1721 6.49095 47.2427 6.42405C47.3133 6.35715 47.3711 6.2831 47.3711 6.25946C47.3711 6.23582 47.4 6.19598 47.4353 6.17089C47.4706 6.14579 47.4995 6.10307 47.4995 6.07595C47.4995 6.04883 47.5284 6.00611 47.5637 5.98101C47.599 5.95592 47.6279 5.91608 47.6279 5.89244C47.6279 5.8688 47.6856 5.79475 47.7562 5.72785C47.8268 5.66095 47.8846 5.58946 47.8846 5.56899C47.8846 5.54848 47.9279 5.4918 47.9809 5.44304C48.0339 5.39427 48.0772 5.33472 48.0772 5.31076C48.0772 5.28677 48.1061 5.24661 48.1414 5.22152C48.1767 5.19642 48.2056 5.15658 48.2056 5.13294C48.2056 5.1093 48.2633 5.03525 48.3339 4.96835C48.4045 4.90146 48.4623 4.82741 48.4623 4.80377C48.4623 4.78013 48.4912 4.74028 48.5265 4.71519C48.5618 4.69009 48.5907 4.64994 48.5907 4.62595C48.5907 4.60199 48.634 4.54244 48.687 4.49367C48.7399 4.44491 48.7833 4.38794 48.7833 4.36709C48.7833 4.34623 48.8266 4.28927 48.8795 4.24051C48.9325 4.19174 48.9758 4.13478 48.9758 4.11392C48.9758 4.09307 49.0191 4.03611 49.0721 3.98734C49.1251 3.93858 49.1684 3.88161 49.1684 3.86076C49.1684 3.83991 49.2117 3.78294 49.2647 3.73418C49.3176 3.68541 49.361 3.62585 49.361 3.6019C49.361 3.57791 49.3898 3.53775 49.4251 3.51266C49.4604 3.48756 49.4893 3.4474 49.4893 3.42342C49.4893 3.39946 49.5327 3.33991 49.5856 3.29114C49.711 3.1756 49.7121 3.10127 49.5883 3.10127C49.5368 3.10127 49.4862 3.11908 49.4759 3.14082C49.461 3.17247 49.4535 3.17247 49.4385 3.14082C49.4249 3.11206 49.3021 3.10127 48.9881 3.10127H48.5564L48.4452 3.21098C48.384 3.2713 48.3339 3.3368 48.3339 3.35649C48.3339 3.3762 48.2906 3.43225 48.2377 3.48101C48.1847 3.52978 48.1414 3.58674 48.1414 3.60759C48.1414 3.62845 48.098 3.68541 48.0451 3.73418C47.9921 3.78294 47.9488 3.8425 47.9488 3.86646C47.9488 3.89044 47.9199 3.9306 47.8846 3.9557C47.8493 3.98079 47.8204 4.02095 47.8204 4.04494C47.8204 4.06889 47.7771 4.12845 47.7241 4.17722C47.6712 4.22598 47.6279 4.28294 47.6279 4.3038C47.6279 4.32465 47.5845 4.38161 47.5316 4.43038C47.4786 4.47915 47.4353 4.5387 47.4353 4.56266C47.4353 4.58665 47.4064 4.6268 47.3711 4.6519C47.3358 4.67699 47.3069 4.71715 47.3069 4.74114C47.3069 4.7651 47.2636 4.82465 47.2106 4.87342C47.1577 4.92218 47.1144 4.97915 47.1144 5C47.1144 5.02085 47.071 5.07782 47.0181 5.12658C46.9651 5.17535 46.9218 5.23231 46.9218 5.25316C46.9218 5.27402 46.8785 5.33098 46.8255 5.37975C46.7726 5.42851 46.7292 5.48547 46.7292 5.50633C46.7292 5.52718 46.6859 5.58415 46.6329 5.63291C46.58 5.68168 46.5367 5.73864 46.5367 5.75949C46.5367 5.78035 46.4933 5.83731 46.4404 5.88608C46.3874 5.93484 46.3441 5.9944 46.3441 6.01835C46.3441 6.04234 46.3152 6.0825 46.2799 6.10759C46.2446 6.13269 46.2157 6.17253 46.2157 6.19617C46.2157 6.21981 46.1579 6.29386 46.0873 6.36076C46.0167 6.42766 45.959 6.50484 45.959 6.53234C45.959 6.56117 45.9318 6.58228 45.8948 6.58228C45.8577 6.58228 45.8306 6.56117 45.8306 6.53234C45.8306 6.50484 45.7728 6.42766 45.7022 6.36076C45.6316 6.29386 45.5738 6.21981 45.5738 6.19617C45.5738 6.17253 45.5449 6.13269 45.5096 6.10759C45.4743 6.0825 45.4455 6.04234 45.4455 6.01835C45.4455 5.9944 45.4021 5.93484 45.3492 5.88608C45.2962 5.83731 45.2529 5.78035 45.2529 5.75949C45.2529 5.73864 45.2096 5.68168 45.1566 5.63291C45.1036 5.58415 45.0603 5.52718 45.0603 5.50633C45.0603 5.48547 45.017 5.42851 44.964 5.37975C44.9111 5.33098 44.8678 5.27402 44.8678 5.25316C44.8678 5.23231 44.8244 5.17535 44.7715 5.12658C44.7185 5.07782 44.6752 5.01826 44.6752 4.9943C44.6752 4.97032 44.6463 4.93016 44.611 4.90506C44.5757 4.87997 44.5468 4.83981 44.5468 4.81582C44.5468 4.79187 44.5035 4.73231 44.4505 4.68354C44.3976 4.63478 44.3543 4.57782 44.3543 4.55696C44.3543 4.53611 44.3109 4.47915 44.258 4.43038C44.205 4.38161 44.1617 4.32206 44.1617 4.2981C44.1617 4.27411 44.1328 4.23396 44.0975 4.20886C44.0622 4.18377 44.0333 4.14361 44.0333 4.11962C44.0333 4.09566 43.99 4.03611 43.937 3.98734C43.8841 3.93858 43.8407 3.88161 43.8407 3.86076C43.8407 3.83991 43.7974 3.78294 43.7445 3.73418C43.6915 3.68541 43.6482 3.62845 43.6482 3.60759C43.6482 3.58674 43.6049 3.52978 43.5519 3.48101C43.4989 3.43225 43.4556 3.3762 43.4556 3.35649C43.4556 3.30313 43.2407 3.10127 43.1839 3.10127C43.1568 3.10127 43.1347 3.11551 43.1347 3.13291C43.1347 3.15032 43.1058 3.16456 43.0705 3.16456C43.0352 3.16456 43.0063 3.15032 43.0063 3.13291C43.0063 3.08396 42.3743 3.09158 42.351 3.14082C42.3361 3.17247 42.3286 3.17247 42.3136 3.14082C42.2882 3.08715 42.1975 3.09297 42.1449 3.15164ZM38.6415 3.89241C38.6415 3.91047 38.7378 3.92405 38.8661 3.92405C38.9945 3.92405 39.0908 3.93763 39.0908 3.9557C39.0908 3.9731 39.1486 3.98734 39.2192 3.98734C39.2898 3.98734 39.3475 4.00158 39.3475 4.01899C39.3475 4.03639 39.3909 4.05063 39.4438 4.05063C39.4968 4.05063 39.5401 4.06487 39.5401 4.08228C39.5401 4.09968 39.569 4.11392 39.6043 4.11392C39.6396 4.11392 39.6685 4.12816 39.6685 4.14557C39.6685 4.16297 39.6974 4.17722 39.7327 4.17722C39.768 4.17722 39.7969 4.19146 39.7969 4.20886C39.7969 4.22627 39.8258 4.24051 39.8611 4.24051C39.8964 4.24051 39.9252 4.25475 39.9252 4.27215C39.9252 4.28956 39.9541 4.3038 39.9894 4.3038C40.0247 4.3038 40.0536 4.31804 40.0536 4.33544C40.0536 4.35285 40.0767 4.36709 40.1049 4.36709C40.1332 4.36709 40.1967 4.40981 40.2462 4.46203C40.2956 4.51424 40.3523 4.55696 40.372 4.55696C40.4187 4.55696 40.8239 4.95646 40.8239 5.00253C40.8239 5.02199 40.8672 5.07782 40.9202 5.12658C40.9731 5.17535 41.0164 5.2349 41.0164 5.25886C41.0164 5.28285 41.0453 5.32301 41.0806 5.3481C41.1159 5.3732 41.1448 5.41905 41.1448 5.45003C41.1448 5.48098 41.1593 5.50633 41.1769 5.50633C41.1946 5.50633 41.209 5.53481 41.209 5.56962C41.209 5.60443 41.2235 5.63291 41.2411 5.63291C41.2588 5.63291 41.2732 5.66139 41.2732 5.6962C41.2732 5.73101 41.2876 5.75949 41.3053 5.75949C41.3229 5.75949 41.3374 5.80222 41.3374 5.85443C41.3374 5.90665 41.3518 5.94937 41.3695 5.94937C41.3871 5.94937 41.4016 5.97785 41.4016 6.01266C41.4016 6.04747 41.416 6.07595 41.4337 6.07595C41.4513 6.07595 41.4658 6.11867 41.4658 6.17089C41.4658 6.2231 41.4802 6.26582 41.4979 6.26582C41.5155 6.26582 41.53 6.32278 41.53 6.39241C41.53 6.46203 41.5444 6.51899 41.562 6.51899C41.5797 6.51899 41.5941 6.59019 41.5941 6.67722C41.5941 6.76424 41.6086 6.83544 41.6262 6.83544C41.6468 6.83544 41.6583 7.13079 41.6583 7.65823C41.6583 8.18566 41.6468 8.48101 41.6262 8.48101C41.6086 8.48101 41.5941 8.53797 41.5941 8.6076C41.5941 8.67722 41.5797 8.73418 41.562 8.73418C41.5444 8.73418 41.53 8.79114 41.53 8.86076C41.53 8.93038 41.5155 8.98734 41.4979 8.98734C41.4802 8.98734 41.4658 9.03006 41.4658 9.08228C41.4658 9.13449 41.4513 9.17722 41.4337 9.17722C41.416 9.17722 41.4016 9.21994 41.4016 9.27215C41.4016 9.32437 41.3871 9.36709 41.3695 9.36709C41.3518 9.36709 41.3374 9.39557 41.3374 9.43038C41.3374 9.46519 41.3229 9.49367 41.3053 9.49367C41.2876 9.49367 41.2732 9.52215 41.2732 9.55696C41.2732 9.59177 41.2588 9.62025 41.2411 9.62025C41.2235 9.62025 41.209 9.64873 41.209 9.68354C41.209 9.71835 41.1946 9.74684 41.1769 9.74684C41.1593 9.74684 41.1448 9.77218 41.1448 9.80313C41.1448 9.83411 41.1159 9.87997 41.0806 9.90506C41.0453 9.93016 41.0164 9.97288 41.0164 10C41.0164 10.0271 40.9876 10.0698 40.9523 10.0949C40.917 10.12 40.8881 10.159 40.8881 10.1816C40.8881 10.2316 40.4221 10.6962 40.3719 10.6962C40.3522 10.6962 40.2956 10.7389 40.2462 10.7911C40.1967 10.8434 40.1332 10.8861 40.1049 10.8861C40.0767 10.8861 40.0536 10.9003 40.0536 10.9177C40.0536 10.9351 40.0247 10.9494 39.9894 10.9494C39.9541 10.9494 39.9252 10.9636 39.9252 10.981C39.9252 10.9984 39.8964 11.0127 39.8611 11.0127C39.8258 11.0127 39.7969 11.0269 39.7969 11.0443C39.7969 11.0617 39.768 11.0759 39.7327 11.0759C39.6974 11.0759 39.6685 11.0902 39.6685 11.1076C39.6685 11.125 39.6396 11.1392 39.6043 11.1392C39.569 11.1392 39.5401 11.1535 39.5401 11.1709C39.5401 11.1883 39.4968 11.2025 39.4438 11.2025C39.3909 11.2025 39.3475 11.2168 39.3475 11.2342C39.3475 11.2516 39.2898 11.2658 39.2192 11.2658C39.1486 11.2658 39.0908 11.2801 39.0908 11.2975C39.0908 11.3155 38.9945 11.3291 38.8661 11.3291C38.7378 11.3291 38.6415 11.3427 38.6415 11.3608C38.6415 11.3792 38.5345 11.3924 38.3847 11.3924C38.2349 11.3924 38.128 11.3792 38.128 11.3608C38.128 11.3427 38.0317 11.3291 37.9033 11.3291C37.7749 11.3291 37.6786 11.3155 37.6786 11.2975C37.6786 11.2801 37.6209 11.2658 37.5503 11.2658C37.4797 11.2658 37.4219 11.2516 37.4219 11.2342C37.4219 11.2168 37.3786 11.2025 37.3256 11.2025C37.2727 11.2025 37.2293 11.1883 37.2293 11.1709C37.2293 11.1535 37.2004 11.1392 37.1651 11.1392C37.1298 11.1392 37.101 11.125 37.101 11.1076C37.101 11.0902 37.0721 11.0759 37.0368 11.0759C37.0015 11.0759 36.9726 11.0617 36.9726 11.0443C36.9726 11.0269 36.9437 11.0127 36.9084 11.0127C36.8731 11.0127 36.8442 10.9984 36.8442 10.981C36.8442 10.9636 36.8153 10.9494 36.78 10.9494C36.7447 10.9494 36.7158 10.9351 36.7158 10.9177C36.7158 10.9003 36.6927 10.8861 36.6645 10.8861C36.6363 10.8861 36.5727 10.8434 36.5233 10.7911C36.4738 10.7389 36.4172 10.6962 36.3975 10.6962C36.3474 10.6962 35.8814 10.2316 35.8814 10.1816C35.8814 10.159 35.8525 10.12 35.8172 10.0949C35.7819 10.0698 35.753 10.0271 35.753 10C35.753 9.97288 35.7241 9.93016 35.6888 9.90506C35.6535 9.87997 35.6246 9.83411 35.6246 9.80313C35.6246 9.77218 35.6102 9.74684 35.5925 9.74684C35.5749 9.74684 35.5604 9.71835 35.5604 9.68354C35.5604 9.64873 35.546 9.62025 35.5283 9.62025C35.5107 9.62025 35.4962 9.59177 35.4962 9.55696C35.4962 9.52215 35.4818 9.49367 35.4641 9.49367C35.4465 9.49367 35.432 9.46519 35.432 9.43038C35.432 9.39557 35.4176 9.36709 35.4 9.36709C35.3823 9.36709 35.3679 9.32437 35.3679 9.27215C35.3679 9.21994 35.3534 9.17722 35.3358 9.17722C35.3181 9.17722 35.3037 9.13449 35.3037 9.08228C35.3037 9.03006 35.2892 8.98734 35.2716 8.98734C35.2539 8.98734 35.2395 8.94462 35.2395 8.89241C35.2395 8.84019 35.225 8.79747 35.2074 8.79747C35.1897 8.79747 35.1753 8.72627 35.1753 8.63924C35.1753 8.55222 35.1609 8.48101 35.1432 8.48101C35.1245 8.48101 35.1111 8.37554 35.1111 8.22785C35.1111 8.08016 35.0977 7.97468 35.079 7.97468C35.0596 7.97468 35.0469 7.83756 35.0469 7.62658C35.0469 7.4156 35.0596 7.27848 35.079 7.27848C35.0977 7.27848 35.1111 7.17301 35.1111 7.02532C35.1111 6.87763 35.1245 6.77215 35.1432 6.77215C35.1609 6.77215 35.1753 6.70095 35.1753 6.61392C35.1753 6.5269 35.1897 6.4557 35.2074 6.4557C35.225 6.4557 35.2395 6.41297 35.2395 6.36076C35.2395 6.30854 35.2539 6.26582 35.2716 6.26582C35.2892 6.26582 35.3037 6.2231 35.3037 6.17089C35.3037 6.11867 35.3181 6.07595 35.3358 6.07595C35.3534 6.07595 35.3679 6.03323 35.3679 5.98101C35.3679 5.9288 35.3823 5.88608 35.4 5.88608C35.4176 5.88608 35.432 5.85759 35.432 5.82278C35.432 5.78797 35.4465 5.75949 35.4641 5.75949C35.4818 5.75949 35.4962 5.73101 35.4962 5.6962C35.4962 5.66139 35.5107 5.63291 35.5283 5.63291C35.546 5.63291 35.5604 5.60443 35.5604 5.56962C35.5604 5.53481 35.5749 5.50633 35.5925 5.50633C35.6102 5.50633 35.6246 5.48098 35.6246 5.45003C35.6246 5.41905 35.6535 5.3732 35.6888 5.3481C35.7241 5.32301 35.753 5.28028 35.753 5.25316C35.753 5.22604 35.7819 5.18332 35.8172 5.15823C35.8525 5.13313 35.8814 5.09418 35.8814 5.07161C35.8814 5.02161 36.3474 4.55696 36.3975 4.55696C36.4172 4.55696 36.4738 4.51424 36.5233 4.46203C36.5727 4.40981 36.6363 4.36709 36.6645 4.36709C36.6927 4.36709 36.7158 4.35285 36.7158 4.33544C36.7158 4.31804 36.7415 4.3038 36.7729 4.3038C36.8043 4.3038 36.8508 4.27532 36.8763 4.24051C36.9035 4.20335 36.9594 4.17722 37.0118 4.17722C37.0608 4.17722 37.101 4.16297 37.101 4.14557C37.101 4.12816 37.1298 4.11392 37.1651 4.11392C37.2004 4.11392 37.2293 4.09968 37.2293 4.08228C37.2293 4.06487 37.2727 4.05063 37.3256 4.05063C37.3786 4.05063 37.4219 4.03639 37.4219 4.01899C37.4219 4.00158 37.4797 3.98734 37.5503 3.98734C37.6209 3.98734 37.6786 3.9731 37.6786 3.9557C37.6786 3.93763 37.7749 3.92405 37.9033 3.92405C38.0317 3.92405 38.128 3.91047 38.128 3.89241C38.128 3.87396 38.2349 3.86076 38.3847 3.86076C38.5345 3.86076 38.6415 3.87396 38.6415 3.89241ZM27.7294 4.08228C27.7294 4.12832 27.9137 4.12114 27.9329 4.07437C27.9452 4.04459 27.9577 4.04655 27.9837 4.08228C28.0144 4.12446 28.0221 4.12446 28.0528 4.08228C28.0788 4.04655 28.0914 4.04459 28.1036 4.07437C28.1229 4.12123 28.2429 4.12807 28.2429 4.08228C28.2429 4.06487 28.3007 4.05063 28.3713 4.05063C28.4419 4.05063 28.4997 4.06487 28.4997 4.08228C28.4997 4.09968 28.5286 4.11392 28.5639 4.11392C28.5992 4.11392 28.6281 4.09968 28.6281 4.08228C28.6281 4.06329 28.7564 4.05063 28.949 4.05063C29.1416 4.05063 29.27 4.06329 29.27 4.08228C29.27 4.10187 29.4411 4.11392 29.7193 4.11392C29.9974 4.11392 30.1686 4.10187 30.1686 4.08228C30.1686 4.06487 30.2119 4.05063 30.2649 4.05063C30.3178 4.05063 30.3612 4.06487 30.3612 4.08228C30.3612 4.10146 30.5002 4.11392 30.7142 4.11392C30.9282 4.11392 31.0672 4.12639 31.0672 4.14557C31.0672 4.16297 31.1106 4.17722 31.1635 4.17722C31.2165 4.17722 31.2598 4.19146 31.2598 4.20886C31.2598 4.22627 31.3031 4.24051 31.3561 4.24051C31.409 4.24051 31.4524 4.25475 31.4524 4.27215C31.4524 4.28956 31.4812 4.3038 31.5166 4.3038C31.5519 4.3038 31.5807 4.31804 31.5807 4.33544C31.5807 4.35285 31.6027 4.36709 31.6296 4.36709C31.6891 4.36709 32.0301 4.69737 32.0301 4.755C32.0301 4.77763 32.0589 4.81668 32.0942 4.84177C32.1319 4.86858 32.1584 4.9237 32.1584 4.97535C32.1584 5.0237 32.1729 5.06329 32.1905 5.06329C32.2104 5.06329 32.2226 5.23206 32.2226 5.50633C32.2226 5.7806 32.2104 5.94937 32.1905 5.94937C32.1729 5.94937 32.1584 5.99209 32.1584 6.0443C32.1584 6.09652 32.144 6.13924 32.1263 6.13924C32.1087 6.13924 32.0942 6.16459 32.0942 6.19554C32.0942 6.22652 32.0654 6.27237 32.0301 6.29747C31.9948 6.32256 31.9659 6.36177 31.9659 6.38462C31.9659 6.44231 31.7542 6.64557 31.6941 6.64557C31.6671 6.64557 31.6449 6.65981 31.6449 6.67722C31.6449 6.69462 31.6192 6.70886 31.5878 6.70886C31.5564 6.70886 31.5099 6.73734 31.4845 6.77215C31.4573 6.8093 31.4014 6.83544 31.349 6.83544C31.2999 6.83544 31.2598 6.84968 31.2598 6.86709C31.2598 6.88449 31.202 6.89873 31.1314 6.89873C31.0608 6.89873 31.003 6.91297 31.003 6.93038C31.003 6.94797 30.9174 6.96203 30.8105 6.96203C30.7035 6.96203 30.6179 6.97608 30.6179 6.99367C30.6179 7.0143 30.1044 7.02532 29.1416 7.02532H27.6652V5.60389C27.6652 4.52117 27.656 4.17946 27.6265 4.16975C27.5978 4.16035 27.5999 4.14339 27.6345 4.10503C27.6878 4.04576 27.7294 4.03579 27.7294 4.08228ZM7.51005 5.85443C7.46592 5.9056 7.41108 5.94791 7.38816 5.94842C7.36524 5.94896 7.24678 6.04905 7.12492 6.17089C7.00306 6.29272 6.88762 6.39241 6.86833 6.39241C6.84907 6.39241 6.71903 6.50633 6.57932 6.64557C6.43961 6.78481 6.31018 6.89873 6.29169 6.89873C6.24792 6.89873 4.68576 8.4388 4.68576 8.48196C4.68576 8.50006 4.54134 8.65627 4.36482 8.82911C4.1883 9.00196 4.04388 9.15889 4.04388 9.17788C4.04388 9.19684 3.95722 9.29623 3.85131 9.39873C3.7454 9.50123 3.65874 9.60123 3.65874 9.62098C3.65874 9.64073 3.60097 9.71158 3.53037 9.77848C3.45976 9.84538 3.40199 9.91658 3.40199 9.93671C3.40199 9.95684 3.34422 10.028 3.27361 10.0949C3.20301 10.1618 3.14524 10.2333 3.14524 10.2538C3.14524 10.2743 3.10191 10.331 3.04895 10.3797C2.996 10.4285 2.95267 10.4855 2.95267 10.5063C2.95267 10.5272 2.90934 10.5841 2.85639 10.6329C2.80343 10.6817 2.76011 10.7412 2.76011 10.7652C2.76011 10.7892 2.73122 10.8293 2.69592 10.8544C2.66061 10.8795 2.63173 10.9254 2.63173 10.9564C2.63173 10.9873 2.61729 11.0127 2.59963 11.0127C2.58198 11.0127 2.56754 11.038 2.56754 11.069C2.56754 11.0999 2.53866 11.1458 2.50335 11.1709C2.46805 11.196 2.43916 11.2418 2.43916 11.2728C2.43916 11.3038 2.42472 11.3291 2.40707 11.3291C2.38942 11.3291 2.37497 11.3687 2.37497 11.4171C2.37497 11.4687 2.34846 11.5238 2.31079 11.5506C2.27548 11.5757 2.2466 11.6216 2.2466 11.6526C2.2466 11.6835 2.23215 11.7089 2.2145 11.7089C2.19685 11.7089 2.18241 11.7516 2.18241 11.8038C2.18241 11.856 2.16797 11.8987 2.15031 11.8987C2.13266 11.8987 2.11822 11.9415 2.11822 11.9937C2.11822 12.0459 2.10378 12.0886 2.08613 12.0886C2.06742 12.0886 2.05403 12.1941 2.05403 12.3418C2.05403 12.4895 2.06742 12.5949 2.08613 12.5949C2.10378 12.5949 2.11822 12.6234 2.11822 12.6582C2.11822 12.7004 2.13963 12.7215 2.18241 12.7215C2.22519 12.7215 2.2466 12.7426 2.2466 12.7848C2.2466 12.8213 2.268 12.8481 2.29702 12.8481C2.36188 12.8481 2.43916 12.9243 2.43916 12.9883C2.43916 13.0156 2.46176 13.038 2.48939 13.038C2.51702 13.038 2.60994 13.1092 2.69592 13.1962C2.7819 13.2832 2.86903 13.3544 2.88957 13.3544C2.91011 13.3544 2.9674 13.3972 3.01686 13.4494C3.06632 13.5016 3.12409 13.5443 3.14524 13.5443C3.16639 13.5443 3.22416 13.587 3.27361 13.6392C3.32307 13.6915 3.38665 13.7342 3.41486 13.7342C3.4431 13.7342 3.46618 13.7484 3.46618 13.7658C3.46618 13.7832 3.49189 13.7975 3.52327 13.7975C3.55469 13.7975 3.6012 13.8259 3.62665 13.8608C3.6521 13.8956 3.69543 13.9241 3.72293 13.9241C3.75044 13.9241 3.79376 13.9525 3.81922 13.9873C3.84467 14.0222 3.89117 14.0506 3.92259 14.0506C3.95398 14.0506 3.97969 14.0649 3.97969 14.0823C3.97969 14.0997 4.00857 14.1139 4.04388 14.1139C4.07918 14.1139 4.10806 14.1282 4.10806 14.1456C4.10806 14.163 4.13695 14.1772 4.17225 14.1772C4.20756 14.1772 4.23644 14.1915 4.23644 14.2089C4.23644 14.2263 4.26533 14.2405 4.30063 14.2405C4.33593 14.2405 4.36482 14.2547 4.36482 14.2722C4.36482 14.2896 4.3937 14.3038 4.42901 14.3038C4.46431 14.3038 4.49319 14.318 4.49319 14.3354C4.49319 14.3528 4.52208 14.3671 4.55738 14.3671C4.59269 14.3671 4.62157 14.3813 4.62157 14.3987C4.62157 14.4161 4.6649 14.4304 4.71785 14.4304C4.77081 14.4304 4.81414 14.4446 4.81414 14.462C4.81414 14.4794 4.85746 14.4937 4.91042 14.4937C4.96338 14.4937 5.0067 14.5079 5.0067 14.5253C5.0067 14.5427 5.03559 14.557 5.07089 14.557C5.10619 14.557 5.13508 14.5712 5.13508 14.5886C5.13508 14.606 5.17841 14.6203 5.23136 14.6203C5.28432 14.6203 5.32765 14.6345 5.32765 14.6519C5.32765 14.6693 5.37097 14.6835 5.42393 14.6835C5.47688 14.6835 5.52021 14.6978 5.52021 14.7152C5.52021 14.7326 5.57798 14.7468 5.64859 14.7468C5.71919 14.7468 5.77696 14.7611 5.77696 14.7785C5.77696 14.7959 5.83473 14.8101 5.90534 14.8101C5.97595 14.8101 6.03372 14.8244 6.03372 14.8418C6.03372 14.8594 6.11931 14.8734 6.22628 14.8734C6.33325 14.8734 6.41885 14.8875 6.41885 14.9051C6.41885 14.9235 6.52582 14.9367 6.6756 14.9367C6.82539 14.9367 6.93236 14.9499 6.93236 14.9684C6.93236 14.9885 7.18911 15 7.63843 15C8.08775 15 8.3445 14.9885 8.3445 14.9684C8.3445 14.9503 8.44079 14.9367 8.56916 14.9367C8.69754 14.9367 8.79382 14.9231 8.79382 14.9051C8.79382 14.8875 8.87942 14.8734 8.98639 14.8734C9.09336 14.8734 9.17896 14.8594 9.17896 14.8418C9.17896 14.8244 9.25117 14.8101 9.33943 14.8101C9.42768 14.8101 9.4999 14.7959 9.4999 14.7785C9.4999 14.7611 9.54322 14.7468 9.59618 14.7468C9.64914 14.7468 9.69246 14.7326 9.69246 14.7152C9.69246 14.6978 9.73579 14.6835 9.78875 14.6835C9.8417 14.6835 9.88503 14.6693 9.88503 14.6519C9.88503 14.6345 9.9428 14.6203 10.0134 14.6203C10.084 14.6203 10.1418 14.606 10.1418 14.5886C10.1418 14.5712 10.1707 14.557 10.206 14.557C10.2413 14.557 10.2702 14.5427 10.2702 14.5253C10.2702 14.5079 10.3135 14.4937 10.3664 14.4937C10.4194 14.4937 10.4627 14.4794 10.4627 14.462C10.4627 14.4446 10.5061 14.4304 10.559 14.4304C10.612 14.4304 10.6553 14.4161 10.6553 14.3987C10.6553 14.3813 10.6842 14.3671 10.7195 14.3671C10.7548 14.3671 10.7837 14.3528 10.7837 14.3354C10.7837 14.318 10.8126 14.3038 10.8479 14.3038C10.8832 14.3038 10.912 14.2896 10.912 14.2722C10.912 14.2547 10.9409 14.2405 10.9762 14.2405C11.0115 14.2405 11.0404 14.2263 11.0404 14.2089C11.0404 14.1915 11.0693 14.1772 11.1046 14.1772C11.1399 14.1772 11.1688 14.163 11.1688 14.1456C11.1688 14.1282 11.1945 14.1139 11.2259 14.1139C11.2573 14.1139 11.3038 14.0854 11.3293 14.0506C11.3547 14.0158 11.4012 13.9873 11.4326 13.9873C11.464 13.9873 11.4897 13.9731 11.4897 13.9557C11.4897 13.9383 11.5154 13.9241 11.5468 13.9241C11.5783 13.9241 11.6248 13.8956 11.6502 13.8608C11.6757 13.8259 11.7222 13.7975 11.7536 13.7975C11.785 13.7975 11.8107 13.7832 11.8107 13.7658C11.8107 13.7484 11.8338 13.7342 11.862 13.7342C11.8902 13.7342 11.9538 13.6915 12.0032 13.6392C12.0527 13.587 12.1102 13.5443 12.131 13.5443C12.1517 13.5443 12.2242 13.4873 12.2921 13.4177C12.3599 13.3481 12.4312 13.2911 12.4504 13.2911C12.4696 13.2911 12.6513 13.1275 12.8541 12.9276L13.2228 12.564V12.3579C13.2228 12.2417 13.2088 12.1519 13.1907 12.1519C13.1731 12.1519 13.1586 12.0949 13.1586 12.0253C13.1586 11.9557 13.1442 11.8987 13.1265 11.8987C13.1089 11.8987 13.0945 11.8703 13.0945 11.8354C13.0945 11.8006 13.08 11.7722 13.0624 11.7722C13.0447 11.7722 13.0303 11.7437 13.0303 11.7089C13.0303 11.6741 13.0158 11.6456 12.9982 11.6456C12.9805 11.6456 12.9661 11.6028 12.9661 11.5506C12.9661 11.4984 12.9516 11.4557 12.934 11.4557C12.9163 11.4557 12.9019 11.4303 12.9019 11.3994C12.9019 11.3684 12.873 11.3226 12.8377 11.2975C12.8024 11.2724 12.7735 11.2265 12.7735 11.1955C12.7735 11.1646 12.7591 11.1392 12.7414 11.1392C12.7238 11.1392 12.7093 11.1139 12.7093 11.0829C12.7093 11.052 12.6804 11.0061 12.6451 10.981C12.6098 10.9559 12.5809 10.9132 12.5809 10.8861C12.5809 10.859 12.5521 10.8162 12.5168 10.7911C12.4815 10.766 12.4526 10.7259 12.4526 10.7019C12.4526 10.6779 12.4092 10.6184 12.3563 10.5696C12.3033 10.5209 12.26 10.4613 12.26 10.4373C12.26 10.4134 12.2311 10.3732 12.1958 10.3481C12.1605 10.323 12.1316 10.2832 12.1316 10.2595C12.1316 10.2359 12.0739 10.1618 12.0032 10.0949C11.9326 10.028 11.8749 9.95703 11.8749 9.93712C11.8749 9.91725 11.8027 9.83161 11.7144 9.74684C11.6261 9.66206 11.5539 9.57677 11.5539 9.55728C11.5539 9.53775 11.4673 9.43794 11.3614 9.33544C11.2555 9.23294 11.1688 9.13358 11.1688 9.11465C11.1688 9.09576 11.0099 8.92453 10.8158 8.73418C10.6216 8.54383 10.4627 8.36627 10.4627 8.33962C10.4627 8.31225 10.4348 8.29114 10.3985 8.29114C10.3627 8.29114 10.3343 8.27003 10.3343 8.24342C10.3343 8.19032 9.42367 7.27848 9.37069 7.27848C9.35226 7.27848 9.19378 7.13608 9.01848 6.96203C8.84318 6.78797 8.67761 6.64557 8.65052 6.64557C8.62267 6.64557 8.60126 6.61807 8.60126 6.58228C8.60126 6.54595 8.57985 6.51899 8.55103 6.51899C8.5234 6.51899 8.43048 6.44778 8.3445 6.36076C8.25852 6.27373 8.17168 6.20253 8.15152 6.20253C8.13133 6.20253 8.05931 6.14557 7.99147 6.07595C7.92362 6.00633 7.85112 5.94937 7.83035 5.94937C7.80956 5.94937 7.75208 5.90665 7.70262 5.85443C7.65316 5.80222 7.60765 5.75991 7.60149 5.76044C7.59533 5.76095 7.55418 5.80326 7.51005 5.85443ZM30.8747 7.94304C30.8747 7.96044 30.9469 7.97468 31.0351 7.97468C31.1234 7.97468 31.1956 7.98892 31.1956 8.00633C31.1956 8.02373 31.2534 8.03797 31.324 8.03797C31.3946 8.03797 31.4524 8.05222 31.4524 8.06962C31.4524 8.08703 31.4957 8.10127 31.5486 8.10127C31.6016 8.10127 31.6449 8.11551 31.6449 8.13291C31.6449 8.15032 31.6738 8.16456 31.7091 8.16456C31.7444 8.16456 31.7733 8.1788 31.7733 8.1962C31.7733 8.21361 31.799 8.22785 31.8304 8.22785C31.8618 8.22785 31.9083 8.25633 31.9338 8.29114C31.9592 8.32595 31.9992 8.35443 32.0225 8.35443C32.0777 8.35443 32.2226 8.49737 32.2226 8.55171C32.2226 8.57475 32.2515 8.61415 32.2868 8.63924C32.3221 8.66434 32.351 8.71019 32.351 8.74117C32.351 8.77212 32.3654 8.79747 32.3831 8.79747C32.4007 8.79747 32.4152 8.82595 32.4152 8.86076C32.4152 8.89557 32.4296 8.92405 32.4473 8.92405C32.4649 8.92405 32.4794 8.96677 32.4794 9.01899C32.4794 9.0712 32.4938 9.11392 32.5115 9.11392C32.5311 9.11392 32.5436 9.26161 32.5436 9.49367C32.5436 9.72573 32.5311 9.87342 32.5115 9.87342C32.4938 9.87342 32.4794 9.93038 32.4794 10C32.4794 10.0696 32.4649 10.1266 32.4473 10.1266C32.4296 10.1266 32.4152 10.1551 32.4152 10.1899C32.4152 10.2247 32.4007 10.2532 32.3831 10.2532C32.3654 10.2532 32.351 10.2785 32.351 10.3095C32.351 10.3404 32.3221 10.3863 32.2868 10.4114C32.2515 10.4365 32.2226 10.4759 32.2226 10.4989C32.2226 10.5533 32.0777 10.6962 32.0225 10.6962C31.9992 10.6962 31.9592 10.7247 31.9338 10.7595C31.9083 10.7943 31.865 10.8228 31.8375 10.8228C31.81 10.8228 31.7667 10.8513 31.7412 10.8861C31.714 10.9232 31.6581 10.9494 31.6057 10.9494C31.5567 10.9494 31.5166 10.9636 31.5166 10.981C31.5166 10.9984 31.4732 11.0127 31.4203 11.0127C31.3673 11.0127 31.324 11.0269 31.324 11.0443C31.324 11.0617 31.2662 11.0759 31.1956 11.0759C31.125 11.0759 31.0672 11.0902 31.0672 11.1076C31.0672 11.1252 30.9816 11.1392 30.8747 11.1392C30.7677 11.1392 30.6821 11.1533 30.6821 11.1709C30.6821 11.1915 30.1579 11.2025 29.1737 11.2025H27.6652V9.55696V7.91139H29.27C30.3184 7.91139 30.8747 7.92237 30.8747 7.94304Z" fill="white" fill-opacity="0.3"/>
</svg>
