<svg width="77" height="11" viewBox="0 0 77 11" fill="none" xmlns="http://www.w3.org/2000/svg">
<path fill-rule="evenodd" clip-rule="evenodd" d="M8.08073 5.14186C8.08073 10.2667 8.081 10.2837 8.15843 10.2837C8.20116 10.2837 8.23612 10.2952 8.23612 10.3093C8.23612 10.3234 8.30606 10.3349 8.39152 10.3349C8.47699 10.3349 8.54692 10.3464 8.54692 10.3605C8.54692 10.3745 8.59937 10.386 8.66347 10.386C8.72757 10.386 8.78002 10.3976 8.78002 10.4116C8.78002 10.4257 8.83247 10.4372 8.89657 10.4372C8.96067 10.4372 9.01312 10.4487 9.01312 10.4628C9.01312 10.4769 9.06557 10.4884 9.12967 10.4884C9.19377 10.4884 9.24622 10.4999 9.24622 10.514C9.24622 10.528 9.29866 10.5395 9.36277 10.5395C9.42687 10.5395 9.47931 10.551 9.47931 10.5651C9.47931 10.5792 9.53176 10.5907 9.59586 10.5907C9.65996 10.5907 9.71241 10.6022 9.71241 10.6163C9.71241 10.6303 9.76486 10.6419 9.82896 10.6419C9.89306 10.6419 9.94551 10.6534 9.94551 10.6674C9.94551 10.6815 9.99796 10.693 10.0621 10.693C10.1262 10.693 10.1786 10.7045 10.1786 10.7186C10.1786 10.7327 10.2485 10.7442 10.334 10.7442C10.4195 10.7442 10.4894 10.7557 10.4894 10.7698C10.4894 10.7838 10.5419 10.7953 10.606 10.7953C10.6701 10.7953 10.7225 10.8069 10.7225 10.8209C10.7225 10.835 10.775 10.8465 10.8391 10.8465C10.9032 10.8465 10.9556 10.858 10.9556 10.8721C10.9556 10.8862 11.008 10.8977 11.0721 10.8977C11.1363 10.8977 11.1887 10.9092 11.1887 10.9233C11.1887 10.9373 11.2411 10.9488 11.3052 10.9488C11.3693 10.9488 11.4218 10.9603 11.4218 10.9744C11.4218 10.9885 11.4568 11 11.4995 11C11.5769 11 11.5772 10.9829 11.5772 6.57442C11.5772 3.64108 11.5903 2.14884 11.616 2.14884C11.6374 2.14884 11.6549 2.1143 11.6549 2.07209C11.6549 2.02988 11.6724 1.99535 11.6937 1.99535C11.7151 1.99535 11.7326 1.97726 11.7326 1.95516C11.7326 1.90346 11.8261 1.84186 11.9047 1.84186C11.9382 1.84186 11.9657 1.83035 11.9657 1.81628C11.9657 1.80221 12.0356 1.7907 12.1211 1.7907C12.2066 1.7907 12.2765 1.80221 12.2765 1.81628C12.2765 1.83035 12.3115 1.84186 12.3542 1.84186C12.3969 1.84186 12.4319 1.85337 12.4319 1.86744C12.4319 1.88151 12.4587 1.89302 12.4914 1.89302C12.5893 1.89302 12.8204 2.06314 12.8204 2.1352C12.8204 2.17084 12.8379 2.2 12.8592 2.2C12.8806 2.2 12.8981 2.24605 12.8981 2.30233C12.8981 2.3586 12.9156 2.40465 12.9369 2.40465C12.9625 2.40465 12.9758 3.04053 12.9758 4.26112C12.9758 6.2765 12.9664 6.1907 13.1867 6.1907C13.2416 6.1907 13.2866 6.20221 13.2866 6.21628C13.2866 6.23035 13.3215 6.24186 13.3643 6.24186C13.407 6.24186 13.442 6.25337 13.442 6.26744C13.442 6.28151 13.4944 6.29302 13.5585 6.29302C13.6226 6.29302 13.6751 6.30453 13.6751 6.3186C13.6751 6.33267 13.7625 6.34419 13.8693 6.34419C13.9762 6.34419 14.0636 6.3557 14.0636 6.36977C14.0636 6.3854 14.2449 6.39535 14.5298 6.39535C14.8147 6.39535 14.996 6.3854 14.996 6.36977C14.996 6.3557 15.0659 6.34419 15.1514 6.34419C15.2368 6.34419 15.3068 6.33267 15.3068 6.3186C15.3068 6.30453 15.3417 6.29302 15.3845 6.29302C15.4272 6.29302 15.4622 6.28151 15.4622 6.26744C15.4622 6.25337 15.4971 6.24186 15.5399 6.24186C15.5826 6.24186 15.6176 6.23035 15.6176 6.21628C15.6176 6.20221 15.6441 6.1907 15.6766 6.1907C15.7483 6.1907 16.2392 5.87244 16.2392 5.82588C16.2392 5.80764 16.2741 5.7761 16.3169 5.75581C16.3596 5.73553 16.3946 5.69846 16.3946 5.67342C16.3946 5.6484 16.412 5.62791 16.4334 5.62791C16.4548 5.62791 16.4722 5.60488 16.4722 5.57674C16.4722 5.5486 16.4897 5.52558 16.5111 5.52558C16.5325 5.52558 16.5499 5.50256 16.5499 5.47442C16.5499 5.44628 16.5674 5.42326 16.5888 5.42326C16.6102 5.42326 16.6276 5.38872 16.6276 5.34651C16.6276 5.3043 16.6451 5.26977 16.6665 5.26977C16.6879 5.26977 16.7053 5.22372 16.7053 5.16744C16.7053 5.11116 16.7228 5.06512 16.7442 5.06512C16.7656 5.06512 16.783 5.00756 16.783 4.93721C16.783 4.86686 16.8005 4.8093 16.8219 4.8093C16.8467 4.8093 16.8607 4.58759 16.8607 4.19535C16.8607 3.80311 16.8467 3.5814 16.8219 3.5814C16.8003 3.5814 16.783 3.51317 16.783 3.42791C16.783 3.34264 16.7658 3.27442 16.7442 3.27442C16.7228 3.27442 16.7053 3.21686 16.7053 3.14651C16.7053 3.07616 16.6879 3.0186 16.6665 3.0186C16.6451 3.0186 16.6276 2.98407 16.6276 2.94186C16.6276 2.89965 16.6102 2.86512 16.5888 2.86512C16.5674 2.86512 16.5499 2.83058 16.5499 2.78837C16.5499 2.74616 16.5325 2.71163 16.5111 2.71163C16.4897 2.71163 16.4722 2.6886 16.4722 2.66047C16.4722 2.63233 16.4548 2.6093 16.4334 2.6093C16.412 2.6093 16.3946 2.58628 16.3946 2.55814C16.3946 2.53 16.3771 2.50698 16.3557 2.50698C16.3343 2.50698 16.3169 2.48395 16.3169 2.45581C16.3169 2.42767 16.2994 2.40465 16.278 2.40465C16.2566 2.40465 16.2392 2.38416 16.2392 2.35914C16.2392 2.3341 16.2042 2.29703 16.1615 2.27674C16.1187 2.25646 16.0838 2.22502 16.0838 2.20686C16.0838 2.16662 15.2863 1.63721 15.2257 1.63721C15.2019 1.63721 15.1335 1.60267 15.0737 1.56047C15.0138 1.51826 14.9368 1.48372 14.9027 1.48372C14.8685 1.48372 14.8406 1.47221 14.8406 1.45814C14.8406 1.44407 14.8094 1.43256 14.7715 1.43256C14.7334 1.43256 14.6771 1.40953 14.6463 1.3814C14.6155 1.35326 14.5592 1.33023 14.5212 1.33023C14.4832 1.33023 14.4521 1.31872 14.4521 1.30465C14.4521 1.29058 14.4171 1.27907 14.3744 1.27907C14.3316 1.27907 14.2967 1.26756 14.2967 1.25349C14.2967 1.23942 14.2617 1.22791 14.219 1.22791C14.1762 1.22791 14.1413 1.2164 14.1413 1.20233C14.1413 1.18826 14.1063 1.17674 14.0636 1.17674C14.0208 1.17674 13.9859 1.16523 13.9859 1.15116C13.9859 1.13709 13.9334 1.12558 13.8693 1.12558C13.8052 1.12558 13.7528 1.11407 13.7528 1.1C13.7528 1.08593 13.7178 1.07442 13.6751 1.07442C13.6323 1.07442 13.5974 1.06291 13.5974 1.04884C13.5974 1.03477 13.5449 1.02326 13.4808 1.02326C13.4167 1.02326 13.3643 1.01174 13.3643 0.997674C13.3643 0.983605 13.3293 0.972093 13.2866 0.972093C13.2438 0.972093 13.2089 0.960581 13.2089 0.946512C13.2089 0.932442 13.1564 0.92093 13.0923 0.92093C13.0282 0.92093 12.9758 0.909419 12.9758 0.895349C12.9758 0.881279 12.9233 0.869767 12.8592 0.869767C12.7951 0.869767 12.7427 0.858256 12.7427 0.844186C12.7427 0.830116 12.6902 0.818605 12.6261 0.818605C12.562 0.818605 12.5096 0.807093 12.5096 0.793023C12.5096 0.778953 12.4571 0.767442 12.393 0.767442C12.3289 0.767442 12.2765 0.75593 12.2765 0.74186C12.2765 0.727791 12.224 0.716279 12.1599 0.716279C12.0958 0.716279 12.0434 0.704767 12.0434 0.690698C12.0434 0.676628 11.9735 0.665116 11.888 0.665116C11.8025 0.665116 11.7326 0.653605 11.7326 0.639535C11.7326 0.625465 11.6801 0.613953 11.616 0.613953C11.5519 0.613953 11.4995 0.602442 11.4995 0.588372C11.4995 0.574302 11.447 0.562791 11.3829 0.562791C11.3188 0.562791 11.2664 0.551279 11.2664 0.537209C11.2664 0.52314 11.1965 0.511628 11.111 0.511628C11.0255 0.511628 10.9556 0.500116 10.9556 0.486047C10.9556 0.471977 10.9032 0.460465 10.8391 0.460465C10.775 0.460465 10.7225 0.448953 10.7225 0.434884C10.7225 0.420814 10.6526 0.409302 10.5671 0.409302C10.4816 0.409302 10.4117 0.397791 10.4117 0.383721C10.4117 0.369651 10.3593 0.35814 10.2952 0.35814C10.2311 0.35814 10.1786 0.346628 10.1786 0.332558C10.1786 0.318488 10.1087 0.306977 10.0232 0.306977C9.93774 0.306977 9.86781 0.295465 9.86781 0.281395C9.86781 0.267326 9.79788 0.255814 9.71241 0.255814C9.62694 0.255814 9.55701 0.244302 9.55701 0.230233C9.55701 0.216163 9.48708 0.204651 9.40162 0.204651C9.31615 0.204651 9.24622 0.19314 9.24622 0.17907C9.24622 0.165 9.17629 0.153488 9.09082 0.153488C9.00535 0.153488 8.93542 0.141977 8.93542 0.127907C8.93542 0.113837 8.86549 0.102326 8.78002 0.102326C8.69455 0.102326 8.62462 0.090814 8.62462 0.0767442C8.62462 0.0626744 8.53721 0.0511628 8.43037 0.0511628C8.32354 0.0511628 8.23612 0.0396512 8.23612 0.0255814C8.23612 0.0115116 8.20116 0 8.15843 0C8.081 0 8.08073 0.017063 8.08073 5.14186ZM27.1171 2.55814V2.91628H32.7891C36.5446 2.91628 38.4612 2.92493 38.4612 2.94186C38.4612 2.95593 38.5136 2.96744 38.5777 2.96744C38.6418 2.96744 38.6942 2.97895 38.6942 2.99302C38.6942 3.00709 38.7292 3.0186 38.7719 3.0186C38.8147 3.0186 38.8496 3.03012 38.8496 3.04419C38.8496 3.05826 38.8763 3.06977 38.9088 3.06977C38.9808 3.06977 39.3935 3.33676 39.3935 3.38334C39.3935 3.40163 39.4285 3.4332 39.4712 3.45349C39.5169 3.47516 39.5489 3.51972 39.5489 3.56147C39.5489 3.60056 39.5664 3.63256 39.5878 3.63256C39.6092 3.63256 39.6266 3.6786 39.6266 3.73488C39.6266 3.79116 39.6441 3.83721 39.6655 3.83721C39.6871 3.83721 39.7043 3.90543 39.7043 3.9907C39.7043 4.07596 39.6871 4.14419 39.6655 4.14419C39.6441 4.14419 39.6266 4.19023 39.6266 4.24651C39.6266 4.30279 39.6092 4.34884 39.5878 4.34884C39.5664 4.34884 39.5489 4.37186 39.5489 4.4C39.5489 4.42814 39.5315 4.45116 39.5101 4.45116C39.4887 4.45116 39.4712 4.46956 39.4712 4.49207C39.4712 4.51455 39.4188 4.56523 39.3547 4.60465C39.2906 4.64407 39.2381 4.69475 39.2381 4.71724C39.2381 4.73975 39.2102 4.75814 39.176 4.75814C39.1419 4.75814 39.0649 4.79267 39.005 4.83488C38.9452 4.87709 38.8682 4.91163 38.8341 4.91163C38.7999 4.91163 38.7719 4.92314 38.7719 4.93721C38.7719 4.95128 38.7195 4.96279 38.6554 4.96279C38.5913 4.96279 38.5389 4.9743 38.5389 4.98837C38.5389 5.00244 38.4514 5.01395 38.3446 5.01395C38.2378 5.01395 38.1504 5.02547 38.1504 5.03954C38.1504 5.05644 36.6352 5.06512 33.6826 5.06512C30.7301 5.06512 29.2149 5.07379 29.2149 5.0907C29.2149 5.10477 29.145 5.11628 29.0595 5.11628C28.9741 5.11628 28.9041 5.12779 28.9041 5.14186C28.9041 5.15593 28.8692 5.16744 28.8264 5.16744C28.7837 5.16744 28.7487 5.17895 28.7487 5.19302C28.7487 5.20709 28.7138 5.2186 28.671 5.2186C28.6283 5.2186 28.5933 5.23012 28.5933 5.24419C28.5933 5.25826 28.5584 5.26977 28.5156 5.26977C28.4729 5.26977 28.4379 5.28128 28.4379 5.29535C28.4379 5.30942 28.41 5.32093 28.3758 5.32093C28.3417 5.32093 28.2647 5.35546 28.2048 5.39767C28.145 5.43988 28.076 5.47442 28.0515 5.47442C27.9939 5.47442 27.8163 5.5913 27.8163 5.62926C27.8163 5.64538 27.7639 5.69081 27.6998 5.73023C27.6357 5.76965 27.5833 5.8178 27.5833 5.83716C27.5833 5.85655 27.5483 5.88902 27.5056 5.9093C27.4628 5.92959 27.4279 5.96666 27.4279 5.9917C27.4279 6.01672 27.4104 6.03721 27.389 6.03721C27.3676 6.03721 27.3502 6.06023 27.3502 6.08837C27.3502 6.11651 27.3327 6.13953 27.3113 6.13953C27.2899 6.13953 27.2725 6.17407 27.2725 6.21628C27.2725 6.25849 27.255 6.29302 27.2336 6.29302C27.2122 6.29302 27.1948 6.35058 27.1948 6.42093C27.1948 6.49128 27.1773 6.54884 27.1559 6.54884C27.1306 6.54884 27.1171 6.94108 27.1171 7.67442V8.8H28.166H29.2149V7.77674C29.2149 7.11163 29.2285 6.75349 29.2538 6.75349C29.2752 6.75349 29.2926 6.69593 29.2926 6.62558C29.2926 6.55523 29.3101 6.49767 29.3315 6.49767C29.3529 6.49767 29.3703 6.46314 29.3703 6.42093C29.3703 6.37872 29.3878 6.34419 29.4092 6.34419C29.4306 6.34419 29.448 6.32674 29.448 6.3054C29.448 6.25486 30.0117 5.88372 30.0884 5.88372C30.1208 5.88372 30.1473 5.87221 30.1473 5.85814C30.1473 5.84407 30.1998 5.83256 30.2639 5.83256C30.328 5.83256 30.3804 5.82105 30.3804 5.80698C30.3804 5.79291 30.4504 5.7814 30.5358 5.7814C30.6213 5.7814 30.6912 5.76988 30.6912 5.75581C30.6912 5.7389 32.2193 5.73023 35.1978 5.73023C38.1763 5.73023 39.7043 5.72156 39.7043 5.70465C39.7043 5.69058 39.7743 5.67907 39.8597 5.67907C39.9452 5.67907 40.0151 5.66756 40.0151 5.65349C40.0151 5.63942 40.0501 5.62791 40.0928 5.62791C40.1356 5.62791 40.1705 5.6164 40.1705 5.60233C40.1705 5.58826 40.2191 5.57674 40.2785 5.57674C40.3419 5.57674 40.4096 5.55561 40.4425 5.52558C40.4733 5.49744 40.5257 5.47442 40.559 5.47442C40.5923 5.47442 40.6448 5.4514 40.6756 5.42326C40.7064 5.39512 40.7544 5.37209 40.7823 5.37209C40.8443 5.37209 41.1806 5.15452 41.1806 5.11444C41.1806 5.0986 41.2331 5.05337 41.2972 5.01395C41.3613 4.97453 41.4137 4.92386 41.4137 4.90137C41.4137 4.87886 41.4312 4.86047 41.4526 4.86047C41.4739 4.86047 41.4914 4.83744 41.4914 4.8093C41.4914 4.78116 41.5089 4.75814 41.5303 4.75814C41.5516 4.75814 41.5691 4.73512 41.5691 4.70698C41.5691 4.67884 41.5866 4.65581 41.608 4.65581C41.6293 4.65581 41.6468 4.62128 41.6468 4.57907C41.6468 4.53686 41.6643 4.50233 41.6857 4.50233C41.707 4.50233 41.7245 4.46779 41.7245 4.42558C41.7245 4.38337 41.742 4.34884 41.7634 4.34884C41.7874 4.34884 41.8022 4.21241 41.8022 3.9907C41.8022 3.76898 41.7874 3.63256 41.7634 3.63256C41.742 3.63256 41.7245 3.58651 41.7245 3.53023C41.7245 3.47395 41.707 3.42791 41.6857 3.42791C41.6643 3.42791 41.6468 3.39337 41.6468 3.35116C41.6468 3.30895 41.6293 3.27442 41.608 3.27442C41.5866 3.27442 41.5691 3.2514 41.5691 3.22326C41.5691 3.19512 41.5516 3.17209 41.5303 3.17209C41.5089 3.17209 41.4914 3.1516 41.4914 3.12658C41.4914 3.10154 41.4565 3.06447 41.4137 3.04419C41.371 3.0239 41.336 2.99241 41.336 2.97422C41.336 2.93107 40.692 2.50698 40.6264 2.50698C40.5988 2.50698 40.551 2.48395 40.5202 2.45581C40.4894 2.42767 40.4331 2.40465 40.3951 2.40465C40.3571 2.40465 40.3259 2.39314 40.3259 2.37907C40.3259 2.365 40.2735 2.35349 40.2094 2.35349C40.1453 2.35349 40.0928 2.34198 40.0928 2.32791C40.0928 2.31384 40.0579 2.30233 40.0151 2.30233C39.9724 2.30233 39.9374 2.29081 39.9374 2.27674C39.9374 2.26267 39.85 2.25116 39.7432 2.25116C39.6364 2.25116 39.5489 2.23965 39.5489 2.22558C39.5489 2.20865 37.4511 2.2 33.333 2.2H27.1171V2.55814ZM50.1937 2.22558C50.1937 2.23965 50.1238 2.25116 50.0383 2.25116C49.9529 2.25116 49.8829 2.26267 49.8829 2.27674C49.8829 2.29081 49.8305 2.30233 49.7664 2.30233C49.7023 2.30233 49.6498 2.31384 49.6498 2.32791C49.6498 2.34198 49.6149 2.35349 49.5722 2.35349C49.5294 2.35349 49.4945 2.365 49.4945 2.37907C49.4945 2.39314 49.4595 2.40465 49.4168 2.40465C49.374 2.40465 49.3391 2.41616 49.3391 2.43023C49.3391 2.4443 49.3079 2.45581 49.2699 2.45581C49.2319 2.45581 49.1756 2.47884 49.1448 2.50698C49.114 2.53512 49.0662 2.55814 49.0385 2.55814C48.9678 2.55814 48.4067 2.93265 48.4067 2.97982C48.4067 3.00116 48.3892 3.0186 48.3678 3.0186C48.3464 3.0186 48.329 3.0391 48.329 3.06411C48.329 3.08916 48.294 3.12623 48.2513 3.14651C48.2057 3.16818 48.1736 3.21274 48.1736 3.25449C48.1736 3.29358 48.1561 3.32558 48.1347 3.32558C48.1133 3.32558 48.0959 3.36012 48.0959 3.40233C48.0959 3.44453 48.0784 3.47907 48.057 3.47907C48.0356 3.47907 48.0182 3.52512 48.0182 3.5814C48.0182 3.63767 48.0007 3.68372 47.9793 3.68372C47.9538 3.68372 47.9405 4.29767 47.9405 5.47442C47.9405 6.65116 47.9271 7.26512 47.9016 7.26512C47.8802 7.26512 47.8628 7.29965 47.8628 7.34186C47.8628 7.38407 47.8453 7.4186 47.8239 7.4186C47.8026 7.4186 47.7851 7.44163 47.7851 7.46977C47.7851 7.49791 47.7676 7.52093 47.7462 7.52093C47.7248 7.52093 47.7074 7.54142 47.7074 7.56644C47.7074 7.59148 47.6724 7.62855 47.6297 7.64884C47.5869 7.66912 47.552 7.70125 47.552 7.72026C47.552 7.76273 47.4573 7.82791 47.3955 7.82791C47.3705 7.82791 47.301 7.86244 47.2412 7.90465C47.1813 7.94686 47.1043 7.9814 47.0702 7.9814C47.036 7.9814 47.0081 7.99291 47.0081 8.00698C47.0081 8.02105 46.9556 8.03256 46.8915 8.03256C46.8274 8.03256 46.775 8.04407 46.775 8.05814C46.775 8.07495 45.8222 8.08372 43.9945 8.08372C41.6364 8.08372 41.2055 8.08927 41.1584 8.12028C41.1162 8.14806 41.1029 8.23381 41.1029 8.47842V8.8H44.4828C46.7102 8.8 47.8628 8.79128 47.8628 8.77442C47.8628 8.76035 47.9327 8.74884 48.0182 8.74884C48.1036 8.74884 48.1736 8.73733 48.1736 8.72326C48.1736 8.70919 48.226 8.69767 48.2901 8.69767C48.3542 8.69767 48.4067 8.68616 48.4067 8.67209C48.4067 8.65802 48.4416 8.64651 48.4844 8.64651C48.5271 8.64651 48.5621 8.635 48.5621 8.62093C48.5621 8.60686 48.597 8.59535 48.6398 8.59535C48.6825 8.59535 48.7175 8.58384 48.7175 8.56977C48.7175 8.5557 48.7454 8.54419 48.7796 8.54419C48.8137 8.54419 48.8907 8.50965 48.9506 8.46744C49.0104 8.42523 49.0791 8.3907 49.1032 8.3907C49.164 8.3907 49.4945 8.16921 49.4945 8.12841C49.4945 8.11004 49.5294 8.07843 49.5722 8.05814C49.6149 8.03785 49.6498 8.00079 49.6498 7.97574C49.6498 7.95072 49.6673 7.93023 49.6887 7.93023C49.7101 7.93023 49.7276 7.90721 49.7276 7.87907C49.7276 7.85093 49.745 7.82791 49.7664 7.82791C49.7878 7.82791 49.8052 7.80488 49.8052 7.77674C49.8052 7.7486 49.8227 7.72558 49.8441 7.72558C49.8655 7.72558 49.8829 7.70256 49.8829 7.67442C49.8829 7.64628 49.9004 7.62326 49.9218 7.62326C49.9432 7.62326 49.9606 7.57721 49.9606 7.52093C49.9606 7.46465 49.9781 7.4186 49.9995 7.4186C50.025 7.4186 50.0383 6.81317 50.0383 5.65349C50.0383 4.49381 50.0517 3.88837 50.0772 3.88837C50.0986 3.88837 50.116 3.83081 50.116 3.76047C50.116 3.69012 50.1335 3.63256 50.1549 3.63256C50.1763 3.63256 50.1937 3.60953 50.1937 3.5814C50.1937 3.55326 50.2112 3.53023 50.2326 3.53023C50.254 3.53023 50.2714 3.50721 50.2714 3.47907C50.2714 3.45093 50.2889 3.42791 50.3103 3.42791C50.3317 3.42791 50.3491 3.41038 50.3491 3.38897C50.3491 3.33832 50.757 3.06977 50.8339 3.06977C50.8664 3.06977 50.893 3.05826 50.893 3.04419C50.893 3.03012 50.928 3.0186 50.9707 3.0186C51.0135 3.0186 51.0484 3.00709 51.0484 2.99302C51.0484 2.97895 51.1009 2.96744 51.165 2.96744C51.2291 2.96744 51.2815 2.95593 51.2815 2.94186C51.2815 2.92503 52.2528 2.91628 54.1176 2.91628H56.9536V2.55814V2.2H53.5737C51.3463 2.2 50.1937 2.20872 50.1937 2.22558ZM59.1292 3.5814C59.1292 4.48526 59.1426 4.96279 59.168 4.96279C59.1894 4.96279 59.2069 4.99733 59.2069 5.03954C59.2069 5.08174 59.2243 5.11628 59.2457 5.11628C59.2671 5.11628 59.2846 5.13677 59.2846 5.16179C59.2846 5.18683 59.3195 5.2239 59.3623 5.24419C59.405 5.26447 59.44 5.29617 59.44 5.31464C59.44 5.35828 59.694 5.52558 59.7603 5.52558C59.7884 5.52558 59.8365 5.5486 59.8673 5.57674C59.8981 5.60488 59.9544 5.62791 59.9924 5.62791C60.0304 5.62791 60.0616 5.63942 60.0616 5.65349C60.0616 5.66756 60.114 5.67907 60.1781 5.67907C60.2422 5.67907 60.2947 5.69058 60.2947 5.70465C60.2947 5.72156 61.9523 5.73023 65.1897 5.73023C68.4272 5.73023 70.0848 5.7389 70.0848 5.75581C70.0848 5.76988 70.1722 5.7814 70.279 5.7814C70.3858 5.7814 70.4733 5.79291 70.4733 5.80698C70.4733 5.82105 70.5082 5.83256 70.551 5.83256C70.5937 5.83256 70.6287 5.84407 70.6287 5.85814C70.6287 5.87221 70.6636 5.88372 70.7064 5.88372C70.7491 5.88372 70.7841 5.89523 70.7841 5.9093C70.7841 5.92337 70.8106 5.93488 70.843 5.93488C70.9197 5.93488 71.4834 6.30602 71.4834 6.35657C71.4834 6.3779 71.5008 6.39535 71.5222 6.39535C71.5436 6.39535 71.5611 6.42988 71.5611 6.47209C71.5611 6.5143 71.5785 6.54884 71.5999 6.54884C71.6213 6.54884 71.6387 6.58337 71.6387 6.62558C71.6387 6.66779 71.6562 6.70233 71.6776 6.70233C71.7002 6.70233 71.7165 6.78759 71.7165 6.90698C71.7165 7.02637 71.7002 7.11163 71.6776 7.11163C71.6562 7.11163 71.6387 7.15767 71.6387 7.21395C71.6387 7.27023 71.6213 7.31628 71.5999 7.31628C71.5785 7.31628 71.5611 7.3393 71.5611 7.36744C71.5611 7.39558 71.5436 7.4186 71.5222 7.4186C71.5008 7.4186 71.4834 7.44163 71.4834 7.46977C71.4834 7.49791 71.4659 7.52093 71.4445 7.52093C71.4231 7.52093 71.4057 7.5384 71.4057 7.55979C71.4057 7.61036 70.9199 7.93023 70.8431 7.93023C70.8106 7.93023 70.7841 7.94174 70.7841 7.95581C70.7841 7.96988 70.7491 7.9814 70.7064 7.9814C70.6636 7.9814 70.6287 7.99291 70.6287 8.00698C70.6287 8.02105 70.5762 8.03256 70.5121 8.03256C70.448 8.03256 70.3956 8.04407 70.3956 8.05814C70.3956 8.07507 68.4919 8.08372 64.7624 8.08372H59.1292V8.44186V8.8H65.3063C69.3984 8.8 71.4834 8.79135 71.4834 8.77442C71.4834 8.76035 71.5533 8.74884 71.6387 8.74884C71.7242 8.74884 71.7942 8.73733 71.7942 8.72326C71.7942 8.70919 71.8466 8.69767 71.9107 8.69767C71.9748 8.69767 72.0272 8.68616 72.0272 8.67209C72.0272 8.65802 72.0622 8.64651 72.1049 8.64651C72.1477 8.64651 72.1826 8.635 72.1826 8.62093C72.1826 8.60686 72.2176 8.59535 72.2603 8.59535C72.3031 8.59535 72.338 8.58384 72.338 8.56977C72.338 8.5557 72.373 8.54419 72.4157 8.54419C72.4585 8.54419 72.4934 8.53267 72.4934 8.5186C72.4934 8.50453 72.5199 8.49302 72.5522 8.49302C72.6289 8.49302 73.3481 8.01941 73.3481 7.96894C73.3481 7.94765 73.3656 7.93023 73.387 7.93023C73.4084 7.93023 73.4258 7.90974 73.4258 7.88472C73.4258 7.85968 73.4608 7.82261 73.5035 7.80233C73.5491 7.78066 73.5812 7.73609 73.5812 7.69435C73.5812 7.65526 73.5987 7.62326 73.6201 7.62326C73.6414 7.62326 73.6589 7.60023 73.6589 7.57209C73.6589 7.54395 73.6764 7.52093 73.6978 7.52093C73.7191 7.52093 73.7366 7.47488 73.7366 7.4186C73.7366 7.36233 73.7541 7.31628 73.7755 7.31628C73.7996 7.31628 73.8143 7.17131 73.8143 6.93256C73.8143 6.69381 73.7996 6.54884 73.7755 6.54884C73.7541 6.54884 73.7366 6.50279 73.7366 6.44651C73.7366 6.39023 73.7191 6.34419 73.6978 6.34419C73.6764 6.34419 73.6589 6.30965 73.6589 6.26744C73.6589 6.22523 73.6414 6.1907 73.6201 6.1907C73.5987 6.1907 73.5812 6.16767 73.5812 6.13953C73.5812 6.1114 73.5638 6.08837 73.5424 6.08837C73.521 6.08837 73.5035 6.06788 73.5035 6.04286C73.5035 6.01782 73.4686 5.98075 73.4258 5.96046C73.3831 5.94018 73.3481 5.90564 73.3481 5.88372C73.3481 5.8618 73.3132 5.82726 73.2704 5.80698C73.2277 5.78669 73.1927 5.75507 73.1927 5.7367C73.1927 5.6959 72.8623 5.47442 72.8014 5.47442C72.7774 5.47442 72.7087 5.43988 72.6488 5.39767C72.589 5.35546 72.512 5.32093 72.4779 5.32093C72.4437 5.32093 72.4157 5.30942 72.4157 5.29535C72.4157 5.28128 72.3808 5.26977 72.338 5.26977C72.2953 5.26977 72.2603 5.25826 72.2603 5.24419C72.2603 5.23012 72.2254 5.2186 72.1826 5.2186C72.1399 5.2186 72.1049 5.20709 72.1049 5.19302C72.1049 5.17895 72.0525 5.16744 71.9884 5.16744C71.9243 5.16744 71.8718 5.15593 71.8718 5.14186C71.8718 5.12779 71.8194 5.11628 71.7553 5.11628C71.6912 5.11628 71.6387 5.10477 71.6387 5.0907C71.6387 5.07379 69.9941 5.06512 66.7825 5.06512C63.571 5.06512 61.9263 5.05644 61.9263 5.03954C61.9263 5.02547 61.8739 5.01395 61.8098 5.01395C61.7457 5.01395 61.6932 5.00244 61.6932 4.98837C61.6932 4.9743 61.6662 4.96279 61.6332 4.96279C61.5555 4.96279 61.3824 4.84885 61.3824 4.79766C61.3824 4.77592 61.365 4.75814 61.3436 4.75814C61.3222 4.75814 61.3047 4.7236 61.3047 4.6814C61.3047 4.63919 61.2873 4.60465 61.2659 4.60465C61.2408 4.60465 61.227 4.3184 61.227 3.79702C61.227 3.13116 61.2368 2.98294 61.2826 2.95283C61.3302 2.92147 62.1957 2.91628 67.382 2.91628H73.4258V2.55814V2.2H66.2775H59.1292V3.5814ZM7.07064 6.26744C7.07064 6.28151 7.03567 6.29302 6.99294 6.29302C6.9502 6.29302 6.91524 6.30453 6.91524 6.3186C6.91524 6.33267 6.86279 6.34419 6.79869 6.34419C6.73459 6.34419 6.68214 6.3557 6.68214 6.36977C6.68214 6.38384 6.62969 6.39535 6.56559 6.39535C6.50149 6.39535 6.44904 6.40686 6.44904 6.42093C6.44904 6.435 6.39659 6.44651 6.33249 6.44651C6.26839 6.44651 6.21594 6.45802 6.21594 6.47209C6.21594 6.48616 6.18098 6.49767 6.13824 6.49767C6.09551 6.49767 6.06054 6.50919 6.06054 6.52326C6.06054 6.53733 6.0081 6.54884 5.944 6.54884C5.87989 6.54884 5.82745 6.56035 5.82745 6.57442C5.82745 6.58849 5.775 6.6 5.7109 6.6C5.6468 6.6 5.59435 6.61151 5.59435 6.62558C5.59435 6.63965 5.5419 6.65116 5.4778 6.65116C5.4137 6.65116 5.36125 6.66267 5.36125 6.67674C5.36125 6.69081 5.3088 6.70233 5.2447 6.70233C5.1806 6.70233 5.12815 6.71384 5.12815 6.72791C5.12815 6.74198 5.09319 6.75349 5.05045 6.75349C5.00772 6.75349 4.97275 6.765 4.97275 6.77907C4.97275 6.79314 4.92031 6.80465 4.85621 6.80465C4.7921 6.80465 4.73966 6.81616 4.73966 6.83023C4.73966 6.8443 4.68721 6.85581 4.62311 6.85581C4.55901 6.85581 4.50656 6.86733 4.50656 6.8814C4.50656 6.89546 4.45411 6.90698 4.39001 6.90698C4.32591 6.90698 4.27346 6.91849 4.27346 6.93256C4.27346 6.94663 4.22101 6.95814 4.15691 6.95814C4.09281 6.95814 4.04036 6.96965 4.04036 6.98372C4.04036 6.99779 4.0054 7.0093 3.96266 7.0093C3.91993 7.0093 3.88496 7.02081 3.88496 7.03488C3.88496 7.04895 3.83252 7.06046 3.76842 7.06046C3.70431 7.06046 3.65187 7.07198 3.65187 7.08605C3.65187 7.10012 3.59942 7.11163 3.53532 7.11163C3.47122 7.11163 3.41877 7.12314 3.41877 7.13721C3.41877 7.15128 3.36632 7.16279 3.30222 7.16279C3.23812 7.16279 3.18567 7.1743 3.18567 7.18837C3.18567 7.20244 3.13322 7.21395 3.06912 7.21395C3.00502 7.21395 2.95257 7.22547 2.95257 7.23953C2.95257 7.2536 2.91761 7.26512 2.87487 7.26512C2.83214 7.26512 2.79717 7.27663 2.79717 7.2907C2.79717 7.30477 2.74473 7.31628 2.68063 7.31628C2.61652 7.31628 2.56408 7.32779 2.56408 7.34186C2.56408 7.35593 2.51163 7.36744 2.44753 7.36744C2.38343 7.36744 2.33098 7.37895 2.33098 7.39302C2.33098 7.40709 2.27853 7.4186 2.21443 7.4186C2.15033 7.4186 2.09788 7.43012 2.09788 7.44419C2.09788 7.45826 2.06292 7.46977 2.02018 7.46977C1.97745 7.46977 1.94248 7.48128 1.94248 7.49535C1.94248 7.50942 1.89004 7.52093 1.82593 7.52093C1.76183 7.52093 1.70938 7.53244 1.70938 7.54651C1.70938 7.56058 1.67442 7.57209 1.63169 7.57209C1.58895 7.57209 1.55399 7.5836 1.55399 7.59767C1.55399 7.61174 1.50154 7.62326 1.43744 7.62326C1.37334 7.62326 1.32089 7.63477 1.32089 7.64884C1.32089 7.66291 1.28592 7.67442 1.24319 7.67442C1.20045 7.67442 1.16549 7.68593 1.16549 7.7C1.16549 7.71407 1.13052 7.72558 1.08779 7.72558C1.04506 7.72558 1.01009 7.73709 1.01009 7.75116C1.01009 7.76523 0.978972 7.77674 0.940977 7.77674C0.902944 7.77674 0.84665 7.79977 0.815843 7.82791C0.785035 7.85605 0.728742 7.87907 0.690708 7.87907C0.652713 7.87907 0.621594 7.89058 0.621594 7.90465C0.621594 7.91872 0.594982 7.93023 0.562465 7.93023C0.485543 7.93023 0.0776993 8.19879 0.0776993 8.24944C0.0776993 8.27085 0.060217 8.28837 0.0388496 8.28837C0.0166665 8.28837 0 8.36512 0 8.46744C0 8.56977 0.0166665 8.64651 0.0388496 8.64651C0.060217 8.64651 0.0776993 8.66953 0.0776993 8.69767C0.0776993 8.72581 0.0951816 8.74884 0.116549 8.74884C0.137916 8.74884 0.155399 8.76649 0.155399 8.78805C0.155399 8.83594 0.40493 9.00465 0.475753 9.00465C0.503802 9.00465 0.551937 9.02767 0.582745 9.05581C0.613553 9.08395 0.669846 9.10698 0.707879 9.10698C0.745874 9.10698 0.776993 9.11849 0.776993 9.13256C0.776993 9.14663 0.811958 9.15814 0.854692 9.15814C0.897427 9.15814 0.932392 9.16965 0.932392 9.18372C0.932392 9.19779 0.967356 9.2093 1.01009 9.2093C1.05283 9.2093 1.08779 9.22081 1.08779 9.23488C1.08779 9.24895 1.12275 9.26046 1.16549 9.26046C1.20822 9.26046 1.24319 9.27198 1.24319 9.28605C1.24319 9.30012 1.29564 9.31163 1.35974 9.31163C1.42384 9.31163 1.47629 9.32314 1.47629 9.33721C1.47629 9.35128 1.52873 9.36279 1.59284 9.36279C1.65694 9.36279 1.70938 9.3743 1.70938 9.38837C1.70938 9.40244 1.77931 9.41395 1.86478 9.41395C1.95025 9.41395 2.02018 9.42546 2.02018 9.43954C2.02018 9.4536 2.07263 9.46512 2.13673 9.46512C2.20083 9.46512 2.25328 9.47663 2.25328 9.4907C2.25328 9.50477 2.32321 9.51628 2.40868 9.51628C2.49415 9.51628 2.56408 9.52779 2.56408 9.54186C2.56408 9.55593 2.65149 9.56744 2.75833 9.56744C2.86516 9.56744 2.95257 9.57895 2.95257 9.59302C2.95257 9.60709 3.03998 9.6186 3.14682 9.6186C3.25366 9.6186 3.34107 9.63012 3.34107 9.64419C3.34107 9.65879 3.45762 9.66977 3.61302 9.66977C3.76842 9.66977 3.88496 9.68074 3.88496 9.69535C3.88496 9.71187 4.33822 9.72093 5.167 9.72093C5.99578 9.72093 6.44904 9.71187 6.44904 9.69535C6.44904 9.68074 6.56559 9.66977 6.72099 9.66977C6.87639 9.66977 6.99294 9.65879 6.99294 9.64419C6.99294 9.63012 7.08035 9.6186 7.18718 9.6186H7.38143V9.03023V8.44186H7.22603C7.14057 8.44186 7.07064 8.45337 7.07064 8.46744C7.07064 8.48151 7.03567 8.49302 6.99294 8.49302C6.9502 8.49302 6.91524 8.50453 6.91524 8.5186C6.91524 8.53267 6.86279 8.54419 6.79869 8.54419C6.73459 8.54419 6.68214 8.5557 6.68214 8.56977C6.68214 8.58384 6.62969 8.59535 6.56559 8.59535C6.50149 8.59535 6.44904 8.60686 6.44904 8.62093C6.44904 8.635 6.39659 8.64651 6.33249 8.64651C6.26839 8.64651 6.21594 8.65802 6.21594 8.67209C6.21594 8.68616 6.18098 8.69767 6.13824 8.69767C6.09551 8.69767 6.06054 8.70919 6.06054 8.72326C6.06054 8.73733 6.0081 8.74884 5.944 8.74884C5.87989 8.74884 5.82745 8.76035 5.82745 8.77442C5.82745 8.78849 5.775 8.8 5.7109 8.8C5.6468 8.8 5.59435 8.81151 5.59435 8.82558C5.59435 8.83965 5.5419 8.85116 5.4778 8.85116C5.4137 8.85116 5.36125 8.86267 5.36125 8.87674C5.36125 8.89081 5.27384 8.90233 5.167 8.90233C5.06017 8.90233 4.97275 8.91384 4.97275 8.92791C4.97275 8.9439 4.73966 8.95349 4.35116 8.95349C3.96266 8.95349 3.72957 8.9439 3.72957 8.92791C3.72957 8.91384 3.67712 8.90233 3.61302 8.90233C3.54892 8.90233 3.49647 8.89081 3.49647 8.87674C3.49647 8.86267 3.46947 8.85116 3.43645 8.85116C3.36811 8.85116 3.18567 8.73973 3.18567 8.69798C3.18567 8.65587 3.44701 8.49302 3.51461 8.49302C3.54736 8.49302 3.57417 8.48151 3.57417 8.46744C3.57417 8.45337 3.60913 8.44186 3.65187 8.44186C3.6946 8.44186 3.72957 8.43035 3.72957 8.41628C3.72957 8.40221 3.78201 8.3907 3.84612 8.3907C3.91022 8.3907 3.96266 8.37919 3.96266 8.36512C3.96266 8.35105 4.01511 8.33953 4.07921 8.33953C4.14331 8.33953 4.19576 8.32802 4.19576 8.31395C4.19576 8.29988 4.23073 8.28837 4.27346 8.28837C4.3162 8.28837 4.35116 8.27686 4.35116 8.26279C4.35116 8.24872 4.40361 8.23721 4.46771 8.23721C4.53181 8.23721 4.58426 8.2257 4.58426 8.21163C4.58426 8.19756 4.63671 8.18605 4.70081 8.18605C4.76491 8.18605 4.81736 8.17453 4.81736 8.16047C4.81736 8.1464 4.8698 8.13488 4.93391 8.13488C4.99801 8.13488 5.05045 8.12337 5.05045 8.1093C5.05045 8.09523 5.1029 8.08372 5.167 8.08372C5.23111 8.08372 5.28355 8.07221 5.28355 8.05814C5.28355 8.04407 5.31852 8.03256 5.36125 8.03256C5.40399 8.03256 5.43895 8.02105 5.43895 8.00698C5.43895 7.99291 5.4914 7.9814 5.5555 7.9814C5.6196 7.9814 5.67205 7.96988 5.67205 7.95581C5.67205 7.94174 5.7245 7.93023 5.7886 7.93023C5.8527 7.93023 5.90515 7.91872 5.90515 7.90465C5.90515 7.89058 5.95759 7.87907 6.0217 7.87907C6.0858 7.87907 6.13824 7.86756 6.13824 7.85349C6.13824 7.83942 6.19069 7.82791 6.25479 7.82791C6.3189 7.82791 6.37134 7.8164 6.37134 7.80233C6.37134 7.78826 6.40631 7.77674 6.44904 7.77674C6.49178 7.77674 6.52674 7.76523 6.52674 7.75116C6.52674 7.73709 6.57919 7.72558 6.64329 7.72558C6.70739 7.72558 6.75984 7.71407 6.75984 7.7C6.75984 7.68593 6.81229 7.67442 6.87639 7.67442C6.94049 7.67442 6.99294 7.66291 6.99294 7.64884C6.99294 7.63477 7.04538 7.62326 7.10949 7.62326C7.17359 7.62326 7.22603 7.61174 7.22603 7.59767C7.22603 7.5836 7.261 7.57209 7.30373 7.57209C7.37945 7.57209 7.38143 7.55503 7.38143 6.90698V6.24186H7.22603C7.14057 6.24186 7.07064 6.25337 7.07064 6.26744ZM15.1514 6.83023C15.1514 6.84515 15.0219 6.85581 14.8406 6.85581C14.6593 6.85581 14.5298 6.86648 14.5298 6.8814C14.5298 6.89562 14.4262 6.90698 14.2967 6.90698C14.1672 6.90698 14.0636 6.91833 14.0636 6.93256C14.0636 6.94663 13.9762 6.95814 13.8693 6.95814C13.7625 6.95814 13.6751 6.96965 13.6751 6.98372C13.6751 6.99779 13.5877 7.0093 13.4808 7.0093C13.374 7.0093 13.2866 7.02081 13.2866 7.03488C13.2866 7.04895 13.2167 7.06046 13.1312 7.06046C13.0457 7.06046 12.9758 7.07198 12.9758 7.08605C12.9758 7.10012 12.9233 7.11163 12.8592 7.11163C12.7951 7.11163 12.7427 7.12314 12.7427 7.13721C12.7427 7.15128 12.6902 7.16279 12.6261 7.16279C12.562 7.16279 12.5096 7.1743 12.5096 7.18837C12.5096 7.20244 12.4646 7.21395 12.4097 7.21395C12.2045 7.21395 12.1988 7.23355 12.1988 7.93023C12.1988 8.49689 12.2065 8.57852 12.2637 8.61615C12.3108 8.6472 12.3329 8.6502 12.3446 8.6271C12.3534 8.60962 12.3942 8.59535 12.4351 8.59535C12.4761 8.59535 12.5096 8.58384 12.5096 8.56977C12.5096 8.5557 12.562 8.54419 12.6261 8.54419C12.6902 8.54419 12.7427 8.53267 12.7427 8.5186C12.7427 8.50453 12.7951 8.49302 12.8592 8.49302C12.9233 8.49302 12.9758 8.48151 12.9758 8.46744C12.9758 8.45337 13.0282 8.44186 13.0923 8.44186C13.1564 8.44186 13.2089 8.43035 13.2089 8.41628C13.2089 8.40221 13.2613 8.3907 13.3254 8.3907C13.3895 8.3907 13.442 8.37919 13.442 8.36512C13.442 8.35105 13.4944 8.33953 13.5585 8.33953C13.6226 8.33953 13.6751 8.32802 13.6751 8.31395C13.6751 8.29988 13.71 8.28837 13.7528 8.28837C13.7955 8.28837 13.8305 8.27686 13.8305 8.26279C13.8305 8.24872 13.8829 8.23721 13.947 8.23721C14.0111 8.23721 14.0636 8.2257 14.0636 8.21163C14.0636 8.19756 14.116 8.18605 14.1801 8.18605C14.2442 8.18605 14.2967 8.17453 14.2967 8.16047C14.2967 8.1464 14.3491 8.13488 14.4132 8.13488C14.4773 8.13488 14.5298 8.12337 14.5298 8.1093C14.5298 8.09523 14.5822 8.08372 14.6463 8.08372C14.7104 8.08372 14.7629 8.07221 14.7629 8.05814C14.7629 8.04407 14.8153 8.03256 14.8794 8.03256C14.9435 8.03256 14.996 8.02105 14.996 8.00698C14.996 7.99291 15.0309 7.9814 15.0737 7.9814C15.1164 7.9814 15.1514 7.96988 15.1514 7.95581C15.1514 7.94174 15.2038 7.93023 15.2679 7.93023C15.332 7.93023 15.3845 7.91872 15.3845 7.90465C15.3845 7.89058 15.4369 7.87907 15.501 7.87907C15.5651 7.87907 15.6176 7.86756 15.6176 7.85349C15.6176 7.83942 15.67 7.82791 15.7341 7.82791C15.7982 7.82791 15.8507 7.8164 15.8507 7.80233C15.8507 7.78826 15.9031 7.77674 15.9672 7.77674C16.0313 7.77674 16.0838 7.76523 16.0838 7.75116C16.0838 7.73709 16.1362 7.72558 16.2003 7.72558C16.2644 7.72558 16.3169 7.71407 16.3169 7.7C16.3169 7.68578 16.4205 7.67442 16.5499 7.67442C16.6794 7.67442 16.783 7.66306 16.783 7.64884C16.783 7.6331 16.9773 7.62326 17.2881 7.62326C17.5989 7.62326 17.7931 7.6331 17.7931 7.64884C17.7931 7.66291 17.8631 7.67442 17.9485 7.67442C18.034 7.67442 18.1039 7.68593 18.1039 7.7C18.1039 7.71407 18.1389 7.72558 18.1816 7.72558C18.2244 7.72558 18.2593 7.73709 18.2593 7.75116C18.2593 7.76523 18.2943 7.77674 18.337 7.77674C18.4001 7.77674 18.4147 7.79381 18.4147 7.86743C18.4147 7.96441 18.2764 8.08372 18.164 8.08372C18.1309 8.08372 18.1039 8.09523 18.1039 8.1093C18.1039 8.12337 18.069 8.13488 18.0262 8.13488C17.9835 8.13488 17.9485 8.1464 17.9485 8.16047C17.9485 8.17453 17.8961 8.18605 17.832 8.18605C17.7679 8.18605 17.7154 8.19756 17.7154 8.21163C17.7154 8.2257 17.663 8.23721 17.5989 8.23721C17.5348 8.23721 17.4823 8.24872 17.4823 8.26279C17.4823 8.27686 17.4299 8.28837 17.3658 8.28837C17.3017 8.28837 17.2492 8.29988 17.2492 8.31395C17.2492 8.32802 17.2143 8.33953 17.1715 8.33953C17.1288 8.33953 17.0938 8.35105 17.0938 8.36512C17.0938 8.37919 17.0414 8.3907 16.9773 8.3907C16.9132 8.3907 16.8607 8.40221 16.8607 8.41628C16.8607 8.43035 16.8083 8.44186 16.7442 8.44186C16.6801 8.44186 16.6276 8.45337 16.6276 8.46744C16.6276 8.48151 16.5752 8.49302 16.5111 8.49302C16.447 8.49302 16.3946 8.50453 16.3946 8.5186C16.3946 8.53267 16.3421 8.54419 16.278 8.54419C16.2139 8.54419 16.1615 8.5557 16.1615 8.56977C16.1615 8.58384 16.1265 8.59535 16.0838 8.59535C16.041 8.59535 16.0061 8.60686 16.0061 8.62093C16.0061 8.635 15.9536 8.64651 15.8895 8.64651C15.8254 8.64651 15.773 8.65802 15.773 8.67209C15.773 8.68616 15.7205 8.69767 15.6564 8.69767C15.5923 8.69767 15.5399 8.70919 15.5399 8.72326C15.5399 8.73733 15.4874 8.74884 15.4233 8.74884C15.3592 8.74884 15.3068 8.76035 15.3068 8.77442C15.3068 8.78849 15.2543 8.8 15.1902 8.8C15.1261 8.8 15.0737 8.81151 15.0737 8.82558C15.0737 8.83965 15.0387 8.85116 14.996 8.85116C14.9532 8.85116 14.9183 8.86267 14.9183 8.87674C14.9183 8.89081 14.8658 8.90233 14.8017 8.90233C14.7376 8.90233 14.6852 8.91384 14.6852 8.92791C14.6852 8.94198 14.6327 8.95349 14.5686 8.95349C14.5045 8.95349 14.4521 8.965 14.4521 8.97907C14.4521 8.99314 14.3996 9.00465 14.3355 9.00465C14.2714 9.00465 14.219 9.01616 14.219 9.03023C14.219 9.0443 14.1665 9.05581 14.1024 9.05581C14.0383 9.05581 13.9859 9.06733 13.9859 9.0814C13.9859 9.09546 13.9509 9.10698 13.9082 9.10698C13.8654 9.10698 13.8305 9.11849 13.8305 9.13256C13.8305 9.14663 13.778 9.15814 13.7139 9.15814C13.6498 9.15814 13.5974 9.16965 13.5974 9.18372C13.5974 9.19779 13.5449 9.2093 13.4808 9.2093C13.4167 9.2093 13.3643 9.22081 13.3643 9.23488C13.3643 9.24895 13.3118 9.26046 13.2477 9.26046C13.1836 9.26046 13.1312 9.27198 13.1312 9.28605C13.1312 9.30012 13.0787 9.31163 13.0146 9.31163C12.9505 9.31163 12.8981 9.32314 12.8981 9.33721C12.8981 9.35128 12.8456 9.36279 12.7815 9.36279C12.7174 9.36279 12.665 9.3743 12.665 9.38837C12.665 9.40244 12.63 9.41395 12.5873 9.41395C12.5446 9.41395 12.5096 9.42546 12.5096 9.43954C12.5096 9.4536 12.4646 9.46512 12.4097 9.46512C12.2054 9.46512 12.1988 9.48683 12.1988 10.1558C12.1988 10.6986 12.2066 10.7786 12.2637 10.8161C12.3108 10.8472 12.3329 10.8502 12.3446 10.8271C12.3534 10.8096 12.4116 10.7953 12.474 10.7953C12.5363 10.7953 12.5873 10.7838 12.5873 10.7698C12.5873 10.7557 12.6223 10.7442 12.665 10.7442C12.7077 10.7442 12.7427 10.7327 12.7427 10.7186C12.7427 10.7045 12.7951 10.693 12.8592 10.693C12.9233 10.693 12.9758 10.6815 12.9758 10.6674C12.9758 10.6534 13.0282 10.6419 13.0923 10.6419C13.1564 10.6419 13.2089 10.6303 13.2089 10.6163C13.2089 10.6022 13.2613 10.5907 13.3254 10.5907C13.3895 10.5907 13.442 10.5792 13.442 10.5651C13.442 10.551 13.4769 10.5395 13.5197 10.5395C13.5624 10.5395 13.5974 10.528 13.5974 10.514C13.5974 10.4999 13.6498 10.4884 13.7139 10.4884C13.778 10.4884 13.8305 10.4769 13.8305 10.4628C13.8305 10.4487 13.8829 10.4372 13.947 10.4372C14.0111 10.4372 14.0636 10.4257 14.0636 10.4116C14.0636 10.3976 14.116 10.386 14.1801 10.386C14.2442 10.386 14.2967 10.3745 14.2967 10.3605C14.2967 10.3464 14.3316 10.3349 14.3744 10.3349C14.4171 10.3349 14.4521 10.3234 14.4521 10.3093C14.4521 10.2952 14.5045 10.2837 14.5686 10.2837C14.6327 10.2837 14.6852 10.2722 14.6852 10.2581C14.6852 10.2441 14.7376 10.2326 14.8017 10.2326C14.8658 10.2326 14.9183 10.221 14.9183 10.207C14.9183 10.1929 14.9707 10.1814 15.0348 10.1814C15.0989 10.1814 15.1514 10.1699 15.1514 10.1558C15.1514 10.1417 15.2038 10.1302 15.2679 10.1302C15.332 10.1302 15.3845 10.1187 15.3845 10.1047C15.3845 10.0906 15.4194 10.0791 15.4622 10.0791C15.5049 10.0791 15.5399 10.0676 15.5399 10.0535C15.5399 10.0394 15.5923 10.0279 15.6564 10.0279C15.7205 10.0279 15.773 10.0164 15.773 10.0023C15.773 9.98826 15.8254 9.97674 15.8895 9.97674C15.9536 9.97674 16.0061 9.96523 16.0061 9.95116C16.0061 9.93709 16.0585 9.92558 16.1226 9.92558C16.1867 9.92558 16.2392 9.91407 16.2392 9.9C16.2392 9.88593 16.2741 9.87442 16.3169 9.87442C16.3596 9.87442 16.3946 9.86291 16.3946 9.84884C16.3946 9.83477 16.447 9.82326 16.5111 9.82326C16.5752 9.82326 16.6276 9.81174 16.6276 9.79767C16.6276 9.7836 16.6801 9.77209 16.7442 9.77209C16.8083 9.77209 16.8607 9.76058 16.8607 9.74651C16.8607 9.73244 16.9132 9.72093 16.9773 9.72093C17.0414 9.72093 17.0938 9.70942 17.0938 9.69535C17.0938 9.68128 17.1288 9.66977 17.1715 9.66977C17.2143 9.66977 17.2492 9.65826 17.2492 9.64419C17.2492 9.63012 17.3017 9.6186 17.3658 9.6186C17.4299 9.6186 17.4823 9.60709 17.4823 9.59302C17.4823 9.57895 17.5348 9.56744 17.5989 9.56744C17.663 9.56744 17.7154 9.55593 17.7154 9.54186C17.7154 9.52779 17.7679 9.51628 17.832 9.51628C17.8961 9.51628 17.9485 9.50477 17.9485 9.4907C17.9485 9.47663 18.001 9.46512 18.0651 9.46512C18.1292 9.46512 18.1816 9.4536 18.1816 9.43954C18.1816 9.42546 18.2166 9.41395 18.2593 9.41395C18.3021 9.41395 18.337 9.40244 18.337 9.38837C18.337 9.3743 18.3895 9.36279 18.4536 9.36279C18.5177 9.36279 18.5701 9.35128 18.5701 9.33721C18.5701 9.32314 18.6226 9.31163 18.6867 9.31163C18.7508 9.31163 18.8032 9.30012 18.8032 9.28605C18.8032 9.27198 18.8557 9.26046 18.9198 9.26046C18.9839 9.26046 19.0363 9.24895 19.0363 9.23488C19.0363 9.22081 19.0713 9.2093 19.114 9.2093C19.1568 9.2093 19.1917 9.19779 19.1917 9.18372C19.1917 9.16965 19.2442 9.15814 19.3083 9.15814C19.3724 9.15814 19.4248 9.14663 19.4248 9.13256C19.4248 9.11849 19.4773 9.10698 19.5414 9.10698C19.6055 9.10698 19.6579 9.09546 19.6579 9.0814C19.6579 9.06733 19.7104 9.05581 19.7745 9.05581C19.8386 9.05581 19.891 9.0443 19.891 9.03023C19.891 9.01616 19.926 9.00465 19.9687 9.00465C20.0115 9.00465 20.0464 8.99314 20.0464 8.97907C20.0464 8.965 20.0989 8.95349 20.163 8.95349C20.2271 8.95349 20.2795 8.94198 20.2795 8.92791C20.2795 8.91384 20.3145 8.90233 20.3572 8.90233C20.4 8.90233 20.4349 8.89081 20.4349 8.87674C20.4349 8.86267 20.466 8.85116 20.504 8.85116C20.5421 8.85116 20.5984 8.82814 20.6292 8.8C20.66 8.77186 20.7124 8.74884 20.7457 8.74884C20.779 8.74884 20.8315 8.72581 20.8623 8.69767C20.8931 8.66953 20.941 8.64651 20.9688 8.64651C21.0395 8.64651 21.445 8.37471 21.445 8.32731C21.445 8.3059 21.4625 8.28837 21.4839 8.28837C21.5065 8.28837 21.5227 8.20311 21.5227 8.08372C21.5227 7.96433 21.5065 7.87907 21.4839 7.87907C21.4625 7.87907 21.445 7.86155 21.445 7.84013C21.445 7.78948 21.0372 7.52093 20.9602 7.52093C20.9277 7.52093 20.9011 7.50942 20.9011 7.49535C20.9011 7.48128 20.8661 7.46977 20.8234 7.46977C20.7807 7.46977 20.7457 7.45826 20.7457 7.44419C20.7457 7.43012 20.7107 7.4186 20.668 7.4186C20.6253 7.4186 20.5903 7.40709 20.5903 7.39302C20.5903 7.37895 20.5553 7.36744 20.5126 7.36744C20.4699 7.36744 20.4349 7.35593 20.4349 7.34186C20.4349 7.32779 20.4 7.31628 20.3572 7.31628C20.3145 7.31628 20.2795 7.30477 20.2795 7.2907C20.2795 7.27663 20.2271 7.26512 20.163 7.26512C20.0989 7.26512 20.0464 7.2536 20.0464 7.23953C20.0464 7.22547 19.994 7.21395 19.9299 7.21395C19.8658 7.21395 19.8133 7.20244 19.8133 7.18837C19.8133 7.1743 19.7609 7.16279 19.6968 7.16279C19.6327 7.16279 19.5802 7.15128 19.5802 7.13721C19.5802 7.12314 19.5278 7.11163 19.4637 7.11163C19.3996 7.11163 19.3471 7.10012 19.3471 7.08605C19.3471 7.07198 19.2947 7.06046 19.2306 7.06046C19.1665 7.06046 19.114 7.04895 19.114 7.03488C19.114 7.02081 19.0441 7.0093 18.9586 7.0093C18.8732 7.0093 18.8032 6.99779 18.8032 6.98372C18.8032 6.96965 18.7158 6.95814 18.609 6.95814C18.5021 6.95814 18.4147 6.94663 18.4147 6.93256C18.4147 6.91833 18.3111 6.90698 18.1816 6.90698C18.0521 6.90698 17.9485 6.89562 17.9485 6.8814C17.9485 6.86648 17.8191 6.85581 17.6377 6.85581C17.4564 6.85581 17.3269 6.84515 17.3269 6.83023C17.3269 6.81378 16.9384 6.80465 16.2392 6.80465C15.5399 6.80465 15.1514 6.81378 15.1514 6.83023ZM74.9798 8.1093C74.9798 8.12337 75.0248 8.13488 75.0797 8.13488C75.2639 8.13488 75.2906 8.1817 75.2906 8.504C75.2906 8.6668 75.3006 8.8 75.3128 8.8C75.325 8.8 75.36 8.78355 75.3905 8.76344C75.4322 8.736 75.446 8.65334 75.446 8.43089V8.13488H75.6014C75.6869 8.13488 75.7568 8.12337 75.7568 8.1093C75.7568 8.09395 75.6014 8.08372 75.3683 8.08372C75.1352 8.08372 74.9798 8.09395 74.9798 8.1093ZM75.9122 8.44186C75.9122 8.63884 75.9222 8.8 75.9344 8.8C75.9466 8.8 75.9858 8.78079 76.0215 8.75728C76.0687 8.72622 76.0732 8.71169 76.0381 8.70399C76.0046 8.69663 75.9899 8.62418 75.9899 8.46532C75.9899 8.33984 75.9999 8.23721 76.0121 8.23721C76.069 8.23721 76.1453 8.31682 76.1453 8.37609C76.1453 8.41226 76.1628 8.44186 76.1842 8.44186C76.2055 8.44186 76.223 8.48791 76.223 8.54419C76.223 8.60046 76.2405 8.64651 76.2619 8.64651C76.2832 8.64651 76.3007 8.6646 76.3007 8.6867C76.3007 8.7384 76.3943 8.8 76.4728 8.8C76.5079 8.8 76.5338 8.77831 76.5338 8.74884C76.5338 8.7207 76.5513 8.69767 76.5727 8.69767C76.594 8.69767 76.6115 8.66314 76.6115 8.62093C76.6115 8.57872 76.629 8.54419 76.6504 8.54419C76.6717 8.54419 76.6892 8.50965 76.6892 8.46744C76.6892 8.42523 76.7067 8.3907 76.7281 8.3907C76.7494 8.3907 76.7669 8.35616 76.7669 8.31395C76.7669 8.27174 76.7844 8.23721 76.8058 8.23721C76.8293 8.23721 76.8446 8.34805 76.8446 8.5186C76.8446 8.78294 76.8493 8.8 76.9223 8.8C76.9963 8.8 77 8.78294 77 8.44186V8.08372H76.9001C76.7727 8.08372 76.6892 8.13867 76.6892 8.2226C76.6892 8.25877 76.6717 8.28837 76.6504 8.28837C76.629 8.28837 76.6115 8.32291 76.6115 8.36512C76.6115 8.40733 76.594 8.44186 76.5727 8.44186C76.5513 8.44186 76.5338 8.47146 76.5338 8.50763C76.5338 8.5669 76.4575 8.64651 76.4006 8.64651C76.3884 8.64651 76.3784 8.61198 76.3784 8.56977C76.3784 8.52756 76.3609 8.49302 76.3396 8.49302C76.3182 8.49302 76.3007 8.45849 76.3007 8.41628C76.3007 8.37407 76.2832 8.33953 76.2619 8.33953C76.2405 8.33953 76.223 8.305 76.223 8.26279C76.223 8.22058 76.2055 8.18605 76.1842 8.18605C76.1628 8.18605 76.1453 8.16302 76.1453 8.13488C76.1453 8.09508 76.1194 8.08372 76.0288 8.08372H75.9122V8.44186ZM20.1241 9.9C20.1241 9.91407 20.0542 9.92558 19.9687 9.92558C19.8832 9.92558 19.8133 9.93709 19.8133 9.95116C19.8133 9.96523 19.7863 9.97674 19.7533 9.97674C19.7203 9.97674 19.6503 10.005 19.5979 10.0395C19.5455 10.0741 19.5025 10.1201 19.5025 10.1419C19.5025 10.1636 19.485 10.1814 19.4637 10.1814C19.4423 10.1814 19.4248 10.2044 19.4248 10.2326C19.4248 10.2607 19.4073 10.2837 19.386 10.2837C19.3638 10.2837 19.3471 10.3605 19.3471 10.4628C19.3471 10.5651 19.3638 10.6419 19.386 10.6419C19.4073 10.6419 19.4248 10.6594 19.4248 10.6809C19.4248 10.7024 19.503 10.7715 19.5986 10.8344C19.6942 10.8973 19.7991 10.9488 19.8317 10.9488C19.8643 10.9488 19.891 10.9603 19.891 10.9744C19.891 10.989 20.0076 11 20.163 11C20.3184 11 20.4349 10.989 20.4349 10.9744C20.4349 10.9603 20.4699 10.9488 20.5126 10.9488C20.5553 10.9488 20.5903 10.9373 20.5903 10.9233C20.5903 10.9092 20.6173 10.8977 20.6503 10.8977C20.7281 10.8977 20.9011 10.7837 20.9011 10.7325C20.9011 10.7108 20.9186 10.693 20.94 10.693C20.963 10.693 20.9788 10.5992 20.9788 10.4628C20.9788 10.3264 20.963 10.2326 20.94 10.2326C20.9186 10.2326 20.9011 10.2149 20.9011 10.1933C20.9011 10.1424 20.6495 9.97674 20.5722 9.97674C20.5394 9.97674 20.5126 9.96523 20.5126 9.95116C20.5126 9.93709 20.4602 9.92558 20.3961 9.92558C20.332 9.92558 20.2795 9.91407 20.2795 9.9C20.2795 9.88593 20.2446 9.87442 20.2018 9.87442C20.1591 9.87442 20.1241 9.88593 20.1241 9.9ZM20.3572 10.0023C20.3572 10.0164 20.3922 10.0279 20.4349 10.0279C20.4776 10.0279 20.5126 10.0394 20.5126 10.0535C20.5126 10.0676 20.5401 10.0791 20.5736 10.0791C20.6522 10.0791 20.7457 10.1407 20.7457 10.1924C20.7457 10.2145 20.7632 10.2326 20.7846 10.2326C20.8059 10.2326 20.8234 10.2671 20.8234 10.3093C20.8234 10.3515 20.8409 10.386 20.8623 10.386C20.8836 10.386 20.9011 10.4206 20.9011 10.4628C20.9011 10.505 20.8836 10.5395 20.8623 10.5395C20.8409 10.5395 20.8234 10.5686 20.8234 10.6042C20.8234 10.6466 20.7637 10.7081 20.6496 10.7832L20.4758 10.8977H20.1627C19.8572 10.8977 19.8463 10.8955 19.7149 10.809C19.6408 10.7602 19.5802 10.7027 19.5802 10.6811C19.5802 10.6595 19.5627 10.6419 19.5414 10.6419C19.5188 10.6419 19.5025 10.5585 19.5025 10.4429C19.5025 10.2732 19.514 10.2384 19.5802 10.207C19.623 10.1867 19.6579 10.1496 19.6579 10.1246C19.6579 10.0961 19.687 10.0791 19.7356 10.0791C19.7784 10.0791 19.8133 10.0676 19.8133 10.0535C19.8133 10.0394 19.8483 10.0279 19.891 10.0279C19.9338 10.0279 19.9687 10.0164 19.9687 10.0023C19.9687 9.98826 20.0561 9.97674 20.163 9.97674C20.2698 9.97674 20.3572 9.98826 20.3572 10.0023ZM19.8619 10.1685C19.8296 10.1927 19.8133 10.2952 19.8133 10.4745V10.7442H19.9299C20.0438 10.7442 20.0464 10.7413 20.0464 10.6163C20.0464 10.4959 20.0523 10.4884 20.1463 10.4884C20.2846 10.4884 20.3572 10.545 20.3572 10.6528C20.3572 10.7373 20.366 10.7442 20.4738 10.7442C20.5379 10.7442 20.5903 10.7327 20.5903 10.7186C20.5903 10.7045 20.5728 10.693 20.5515 10.693C20.5301 10.693 20.5126 10.6585 20.5126 10.6163C20.5126 10.5741 20.4951 10.5395 20.4738 10.5395C20.4524 10.5395 20.4349 10.505 20.4349 10.4628C20.4349 10.4206 20.4524 10.386 20.4738 10.386C20.5334 10.386 20.5199 10.2081 20.4571 10.1668C20.3816 10.1171 19.9289 10.1184 19.8619 10.1685ZM20.3572 10.3093C20.3572 10.369 20.34 10.386 20.2795 10.386C20.2368 10.386 20.2018 10.3976 20.2018 10.4116C20.2018 10.4257 20.1669 10.4372 20.1241 10.4372C20.0594 10.4372 20.0464 10.4201 20.0464 10.3349V10.2326H20.2018C20.3486 10.2326 20.3572 10.2368 20.3572 10.3093Z" fill="white" fill-opacity="0.3"/>
</svg>
