<svg width="24" height="26" viewBox="0 0 24 26" fill="none" xmlns="http://www.w3.org/2000/svg">
<path fill-rule="evenodd" clip-rule="evenodd" d="M3.27149 3.05732L0.9375 5.32636V13.4693V21.6124H3.73147H6.52544V23.7882C6.52544 25.6854 6.53859 25.964 6.62841 25.964C6.68504 25.964 7.74266 24.9849 8.97868 23.7882L11.226 21.6124H13.0668H14.9076L19.1666 17.4917L23.4255 13.371V7.07419V0.777405L14.5155 0.782811L5.60547 0.788218L3.27149 3.05732ZM21.5175 7.53592V12.4482L19.6438 14.2611L17.7701 16.074H15.9288H14.0876L12.4541 17.6564C11.5557 18.5267 10.8048 19.2388 10.7856 19.2388C10.7663 19.2388 10.7505 18.5267 10.7505 17.6564V16.074H8.63795H6.52544V9.34877V2.62354H14.0215H21.5175V7.53592ZM11.7045 8.49163V11.1949H12.5612C13.2128 11.1949 13.4412 11.1724 13.5152 11.1007C13.5963 11.0222 13.6126 10.5707 13.6126 8.39741V5.78835H12.6585H11.7045V8.49163ZM16.7473 8.39741C16.7473 10.5707 16.7636 11.0222 16.8447 11.1007C16.9187 11.1724 17.1471 11.1949 17.7987 11.1949H18.6554V8.49163V5.78835H17.7013H16.7473V8.39741Z" fill="white"/>
</svg>
