<svg width="28" height="28" viewBox="0 0 28 28" fill="none" xmlns="http://www.w3.org/2000/svg">
<path fill-rule="evenodd" clip-rule="evenodd" d="M13.0135 0.146348C10.4293 0.441706 8.31479 1.26674 6.22564 2.79492C5.22122 3.52962 3.9963 4.79475 3.27778 5.83958C3.13763 6.04333 3.00541 6.23119 2.98392 6.25706C2.96247 6.28292 2.83935 6.48395 2.71033 6.70378C1.54437 8.69049 0.899529 10.9267 0.882182 13.0435L0.875488 13.858L4.85694 15.8546L8.83835 17.8513L8.96081 17.761C9.34093 17.4806 9.94637 17.2639 10.4963 17.2113L10.8309 17.1793L11.1054 16.5852C11.2564 16.2584 11.9908 14.6952 12.7375 13.1114L14.0951 10.2318L14.0401 9.74129C13.8831 8.33965 14.3888 6.9003 15.4011 5.86742C16.2441 5.0073 17.2719 4.52131 18.5106 4.39712C19.9143 4.25638 21.3163 4.74651 22.3745 5.74793C23.0363 6.3741 23.4827 7.13932 23.7415 8.09099C23.8445 8.47009 23.8852 9.62495 23.8109 10.0619C23.6407 11.0626 23.1727 11.9603 22.4469 12.6781C21.8753 13.2433 21.1551 13.703 20.613 13.8486C20.4077 13.9038 20.1027 14.1986 17.9132 16.4587C17.2858 17.1065 16.0626 18.3601 14.6253 19.8284L14.0451 20.4211L13.9614 20.8221C13.7536 21.817 13.1551 22.5794 12.2357 23.0205C11.7071 23.274 11.2356 23.368 10.6394 23.3385C9.21427 23.268 8.06792 22.3472 7.69785 20.9755L7.60909 20.6464L4.54866 19.1097C2.57665 18.1195 1.48328 17.5946 1.47428 17.6337C1.4327 17.8141 2.20143 19.5698 2.67092 20.3668C4.69248 23.7982 8.12817 26.1731 12.0605 26.8571C12.7473 26.9766 13.6774 27.0642 14.2626 27.0645C17.0712 27.066 19.873 26.187 22.1111 24.6022C22.8724 24.0632 23.1746 23.8046 23.9259 23.0499C24.9637 22.0073 25.6859 21.0322 26.3331 19.7999C27.7898 17.0264 28.2257 13.7725 27.5515 10.7041C27.1156 8.72003 26.3486 7.06563 25.0867 5.38711C24.6431 4.79715 23.3713 3.4866 22.8417 3.07373C21.4161 1.96236 20.1005 1.25762 18.4579 0.725495C16.7628 0.176397 14.6849 -0.0446626 13.0135 0.146348ZM18.1207 5.22493C17.1826 5.43023 16.325 5.95906 15.7407 6.6925C14.761 7.92241 14.5795 9.64259 15.2813 11.046C15.8263 12.1356 16.8978 12.9733 18.0582 13.2168C18.5654 13.3232 19.4348 13.3094 19.9334 13.1869C21.2799 12.8562 22.3814 11.844 22.8183 10.5359C23.5938 8.21363 22.2072 5.77313 19.8119 5.24473C19.3277 5.13793 18.5594 5.12891 18.1207 5.22493ZM19.6854 6.30478C20.5107 6.51409 21.2904 7.14802 21.6414 7.89504C22.0753 8.81882 22.085 9.61776 21.6739 10.5597C21.3784 11.2367 20.6454 11.8998 19.942 12.1264C18.7924 12.4968 17.6097 12.2053 16.8052 11.3532C16.3029 10.8212 16.0321 10.1895 15.9942 9.46093C15.961 8.82353 16.0384 8.42218 16.2969 7.89165C16.6662 7.13368 17.4016 6.52316 18.2051 6.30756C18.5439 6.21666 19.3319 6.21516 19.6854 6.30478ZM10.137 18.0965C8.4487 18.6708 7.98251 20.802 9.28441 21.9941C10.03 22.6769 11.1722 22.8006 12.0472 22.2934C12.603 21.9712 13.0507 21.2985 13.1513 20.6346C13.3278 19.469 12.5419 18.3007 11.4055 18.0394C11.0413 17.9556 10.4764 17.9811 10.137 18.0965ZM11.4186 18.8537C11.748 18.9889 11.9202 19.1263 12.103 19.4002C12.2943 19.6868 12.3595 19.9048 12.359 20.2563C12.3579 21.0846 11.7754 21.6945 10.941 21.7409C10.5014 21.7653 10.1551 21.6494 9.83918 21.372C9.51525 21.0875 9.36789 20.7479 9.3637 20.2761C9.35993 19.8502 9.41338 19.6771 9.65001 19.3485C10.0429 18.8029 10.7873 18.5947 11.4186 18.8537Z" fill="white"/>
</svg>
