<svg width="13" height="23" viewBox="0 0 13 23" fill="none" xmlns="http://www.w3.org/2000/svg">
<path d="M11.9991 0.00459035L9.00953 0C5.65045 0 3.47905 2.12992 3.47905 5.43038V7.93442H0.470271C0.211142 7.93213 0 8.1341 0 8.38198V12.0084C0 12.2562 0.211142 12.4582 0.470271 12.4582H3.47665V21.6114C3.47665 21.8592 3.68779 22.0612 3.94692 22.0612H7.86985C8.12897 22.0612 8.34012 21.8592 8.34012 21.6114V12.4605H11.8552C12.1143 12.4605 12.3254 12.2585 12.3254 12.0107L12.3278 8.38427C12.3278 8.26493 12.2774 8.15017 12.1911 8.06525C12.1047 7.98032 11.9823 7.93213 11.8576 7.93213H8.34012V5.80909C8.34012 4.79003 8.59445 4.27132 9.98367 4.27132H11.9991C12.2582 4.27132 12.4694 4.06935 12.4694 3.82147V0.454445C12.4694 0.206566 12.2582 0.00459035 11.9991 0.00459035Z" fill="white"/>
</svg>
