<svg width="22" height="18" viewBox="0 0 22 18" fill="none" xmlns="http://www.w3.org/2000/svg">
<path d="M20.5917 0.348546C20.2505 1.37494 19.6416 2.12408 18.787 2.69227C19.6083 2.62877 20.3789 2.38887 21.1337 2.08507C21.1478 2.10208 21.162 2.1191 21.1761 2.13611C20.8203 2.54576 20.4803 2.97076 20.1033 3.36006C19.8107 3.6618 19.4753 3.92244 19.1515 4.19304C19.0535 4.27522 19.0057 4.35242 19.0086 4.48772C19.0759 7.24316 18.3111 9.7529 16.7434 12.0161C15.7313 13.477 14.5081 14.7251 12.9536 15.6182C11.4274 16.4952 9.78484 17.0156 8.03211 17.1933C6.41738 17.3568 4.82508 17.2464 3.25856 16.8156C2.09811 16.4964 1.01498 16.0046 0 15.3393C2.33794 15.5265 4.46182 14.9886 6.35046 13.5227C4.36373 13.3529 3.0337 12.3606 2.28931 10.4908C2.9618 10.5718 3.58442 10.5797 4.24528 10.4004C2.93562 10.0949 1.98008 9.37355 1.32919 8.25585C0.94598 7.5976 0.775569 6.88125 0.787207 6.08271C1.3932 6.38818 1.99878 6.59819 2.72323 6.61313C1.77101 5.91753 1.15878 5.05383 0.918548 3.95855C0.678728 2.86451 0.830849 1.81944 1.39819 0.819614C3.76314 3.58584 6.73824 5.12148 10.3551 5.36553C10.336 4.93306 10.2919 4.52715 10.3052 4.12332C10.3476 2.81097 10.9291 1.75552 11.944 0.950766C13.4412 -0.236243 15.4661 -0.313855 17.0588 0.729551C17.2887 0.88021 17.4923 1.07237 17.6968 1.25748C17.7924 1.34422 17.8689 1.37701 18.0061 1.34713C18.8361 1.16451 19.6229 0.872324 20.3656 0.460606C20.4246 0.428233 20.4866 0.400426 20.5917 0.348546Z" fill="white"/>
</svg>
