<svg width="27" height="29" viewBox="0 0 27 29" fill="none" xmlns="http://www.w3.org/2000/svg">
<path d="M26.9713 23.5195L25.1549 7.72338C25.062 6.91455 24.4029 6.30499 23.6224 6.30499H20.5664C20.2526 2.77895 17.2093 0 13.5099 0C9.81045 0 6.76493 2.77895 6.45184 6.30499H2.93668C2.4191 6.30499 1.98242 6.70902 1.92025 7.24511L0.0297218 23.514C-0.111094 24.7229 0.25293 25.9397 1.02667 26.8509C1.80041 27.7621 2.91421 28.2857 4.08193 28.2857H22.9183C24.0846 28.2857 25.1976 27.7637 25.9721 26.8533C26.7458 25.9428 27.1099 24.7276 26.9713 23.5195ZM13.5099 1.75052C16.2191 1.75052 18.4534 3.74408 18.759 6.30499H8.25923C8.56558 3.74408 10.8007 1.75052 13.5099 1.75052ZM24.5707 25.5568C24.1452 26.0569 23.5587 26.332 22.9176 26.332H4.08193C3.44976 26.332 2.84754 26.0491 2.42809 25.5552C2.00864 25.0613 1.81239 24.4033 1.88805 23.7492L3.68795 8.25869H6.42937V10.3906C6.42937 10.9024 6.8271 11.3174 7.31771 11.3174C7.80832 11.3174 8.20605 10.9024 8.20605 10.3906V8.25869H18.8017V10.3906C18.8017 10.9024 19.1994 11.3174 19.6901 11.3174C20.1807 11.3174 20.5784 10.9024 20.5784 10.3906V8.25869H23.3288L25.11 23.7523C25.1879 24.4158 24.9961 25.0566 24.5707 25.5568Z" fill="white"/>
</svg>
