<svg width="23" height="22" viewBox="0 0 23 22" fill="none" xmlns="http://www.w3.org/2000/svg">
<path fill-rule="evenodd" clip-rule="evenodd" d="M7.17115 0.0173502C7.17115 0.0282808 7.05042 0.0347003 6.84519 0.0347003C6.63996 0.0347003 6.51923 0.0411199 6.51923 0.0520505C6.51923 0.0624606 6.44679 0.0694006 6.33814 0.0694006C6.22949 0.0694006 6.15705 0.0763407 6.15705 0.0867508C6.15705 0.0968659 6.09669 0.104101 6.01218 0.104101C5.92766 0.104101 5.86731 0.111336 5.86731 0.121451C5.86731 0.131566 5.80695 0.138801 5.72244 0.138801C5.63792 0.138801 5.57756 0.146036 5.57756 0.156151C5.57756 0.165694 5.54497 0.173502 5.50513 0.173502C5.46529 0.173502 5.43269 0.181309 5.43269 0.190852C5.43269 0.200498 5.3844 0.208202 5.32404 0.208202C5.26368 0.208202 5.21538 0.215905 5.21538 0.225552C5.21538 0.235095 5.18279 0.242902 5.14295 0.242902C5.10311 0.242902 5.07051 0.25071 5.07051 0.260252C5.07051 0.269795 5.03792 0.277603 4.99808 0.277603C4.95824 0.277603 4.92564 0.28541 4.92564 0.294953C4.92564 0.304495 4.89304 0.312303 4.8532 0.312303C4.81336 0.312303 4.78077 0.32011 4.78077 0.329653C4.78077 0.339196 4.74817 0.347003 4.70833 0.347003C4.66849 0.347003 4.6359 0.354811 4.6359 0.364353C4.6359 0.373896 4.61145 0.381703 4.58157 0.381703C4.55169 0.381703 4.52724 0.389511 4.52724 0.399054C4.52724 0.408596 4.5028 0.416404 4.47292 0.416404C4.44304 0.416404 4.41859 0.424211 4.41859 0.433754C4.41859 0.443297 4.39414 0.451104 4.36426 0.451104C4.33438 0.451104 4.30994 0.458912 4.30994 0.468454C4.30994 0.477997 4.28549 0.485804 4.25561 0.485804C4.22573 0.485804 4.20128 0.493612 4.20128 0.503155C4.20128 0.512697 4.17683 0.520505 4.14696 0.520505C4.11707 0.520505 4.09263 0.528312 4.09263 0.537855C4.09263 0.547397 4.06818 0.555205 4.0383 0.555205C4.00842 0.555205 3.98397 0.563013 3.98397 0.572555C3.98397 0.582098 3.96768 0.589905 3.94776 0.589905C3.92784 0.589905 3.91154 0.597713 3.91154 0.607256C3.91154 0.616798 3.89524 0.624606 3.87532 0.624606C3.8554 0.624606 3.8391 0.632413 3.8391 0.641956C3.8391 0.651498 3.81466 0.659306 3.78478 0.659306C3.7549 0.659306 3.73045 0.667114 3.73045 0.676656C3.73045 0.686199 3.71415 0.694006 3.69423 0.694006C3.67431 0.694006 3.65801 0.701814 3.65801 0.711356C3.65801 0.720899 3.64171 0.728707 3.62179 0.728707C3.60187 0.728707 3.58558 0.736514 3.58558 0.746057C3.58558 0.755599 3.56928 0.763407 3.54936 0.763407C3.52944 0.763407 3.51314 0.771214 3.51314 0.780757C3.51314 0.7903 3.49684 0.798107 3.47692 0.798107C3.457 0.798107 3.4407 0.805915 3.4407 0.815457C3.4407 0.825 3.42441 0.832808 3.40449 0.832808C3.38457 0.832808 3.36827 0.840615 3.36827 0.850158C3.36827 0.8597 3.35197 0.867508 3.33205 0.867508C3.31213 0.867508 3.29583 0.875315 3.29583 0.884858C3.29583 0.894401 3.27954 0.902208 3.25962 0.902208C3.2397 0.902208 3.2234 0.910016 3.2234 0.919558C3.2234 0.929101 3.20889 0.936909 3.19118 0.936909C3.17345 0.936909 3.14721 0.952524 3.13285 0.971609C3.11849 0.990694 3.09225 1.00631 3.07452 1.00631C3.05681 1.00631 3.04231 1.01412 3.04231 1.02366C3.04231 1.0332 3.02601 1.04101 3.00609 1.04101C2.98617 1.04101 2.96987 1.04882 2.96987 1.05836C2.96987 1.0679 2.95685 1.07571 2.94092 1.07571C2.925 1.07571 2.88912 1.09913 2.86122 1.12776C2.83331 1.15639 2.79744 1.17981 2.78152 1.17981C2.76558 1.17981 2.75256 1.18762 2.75256 1.19716C2.75256 1.2067 2.73971 1.21451 2.72399 1.21451C2.70825 1.21451 2.66408 1.24574 2.6258 1.28391C2.58752 1.32208 2.54677 1.35331 2.53526 1.35331C2.52374 1.35331 2.48299 1.38454 2.44471 1.42271C2.40643 1.46088 2.36568 1.49211 2.35417 1.49211C2.34265 1.49211 2.3019 1.52334 2.26362 1.56151C2.22534 1.59968 2.18465 1.63091 2.1732 1.63091C2.14314 1.63091 2.10064 1.67592 2.10064 1.70776C2.10064 1.72275 2.08831 1.73502 2.07324 1.73502C2.04246 1.73502 1.70224 2.05389 1.70224 2.08276C1.70224 2.09295 1.65335 2.14727 1.59359 2.20347C1.53383 2.25967 1.48494 2.31449 1.48494 2.32532C1.48494 2.33615 1.45234 2.37499 1.4125 2.41167C1.37266 2.44835 1.34006 2.48754 1.34006 2.49877C1.34006 2.51001 1.31562 2.54109 1.28574 2.56782C1.25586 2.59456 1.23141 2.62893 1.23141 2.64418C1.23141 2.65945 1.22326 2.67192 1.2133 2.67192C1.20334 2.67192 1.19519 2.68582 1.19519 2.70279C1.19519 2.71978 1.17889 2.74492 1.15897 2.75868C1.13905 2.77243 1.12276 2.79586 1.12276 2.81073C1.12276 2.82559 1.10646 2.84902 1.08654 2.86278C1.06662 2.87653 1.05032 2.90168 1.05032 2.91866C1.05032 2.93563 1.04217 2.94953 1.03221 2.94953C1.02225 2.94953 1.0141 2.96514 1.0141 2.98423C1.0141 3.00331 1.00595 3.01893 0.995994 3.01893C0.986034 3.01893 0.977885 3.03454 0.977885 3.05363C0.977885 3.07271 0.969736 3.08833 0.959776 3.08833C0.949816 3.08833 0.941667 3.10223 0.941667 3.11919C0.941667 3.13618 0.925369 3.16132 0.905449 3.17508C0.885529 3.18884 0.869231 3.21398 0.869231 3.23096C0.869231 3.24793 0.861082 3.26183 0.851122 3.26183C0.841162 3.26183 0.833013 3.27744 0.833013 3.29653C0.833013 3.31562 0.824864 3.33123 0.814904 3.33123C0.804944 3.33123 0.796795 3.34685 0.796795 3.36593C0.796795 3.38502 0.788646 3.40063 0.778686 3.40063C0.768726 3.40063 0.760577 3.42405 0.760577 3.45268C0.760577 3.48131 0.752428 3.50473 0.742468 3.50473C0.732508 3.50473 0.724359 3.52035 0.724359 3.53943C0.724359 3.55852 0.71621 3.57413 0.70625 3.57413C0.69629 3.57413 0.688141 3.58975 0.688141 3.60883C0.688141 3.62792 0.679992 3.64353 0.670032 3.64353C0.660072 3.64353 0.651923 3.66696 0.651923 3.69558C0.651923 3.72421 0.643774 3.74763 0.633814 3.74763C0.623854 3.74763 0.615705 3.77106 0.615705 3.79968C0.615705 3.82831 0.607556 3.85174 0.597596 3.85174C0.587636 3.85174 0.579487 3.86735 0.579487 3.88644C0.579487 3.90552 0.571338 3.92114 0.561378 3.92114C0.551418 3.92114 0.543269 3.94456 0.543269 3.97319C0.543269 4.00181 0.53512 4.02524 0.52516 4.02524C0.5152 4.02524 0.507051 4.04866 0.507051 4.07729C0.507051 4.10591 0.498902 4.12934 0.488942 4.12934C0.478982 4.12934 0.470833 4.15276 0.470833 4.18139C0.470833 4.21002 0.462684 4.23344 0.452724 4.23344C0.442764 4.23344 0.434615 4.25686 0.434615 4.28549C0.434615 4.31412 0.426466 4.33754 0.416506 4.33754C0.406546 4.33754 0.398397 4.36877 0.398397 4.40694C0.398397 4.44511 0.390248 4.47634 0.380288 4.47634C0.370329 4.47634 0.362179 4.50757 0.362179 4.54574C0.362179 4.58391 0.35403 4.61514 0.34407 4.61514C0.334111 4.61514 0.325962 4.64637 0.325962 4.68454C0.325962 4.72271 0.317812 4.75394 0.307853 4.75394C0.297893 4.75394 0.289744 4.79298 0.289744 4.84069C0.289744 4.88841 0.281595 4.92744 0.271635 4.92744C0.261675 4.92744 0.253526 4.96648 0.253526 5.0142C0.253526 5.06191 0.245377 5.10095 0.235417 5.10095C0.225348 5.10095 0.217308 5.14722 0.217308 5.20505C0.217308 5.26288 0.209267 5.30915 0.199199 5.30915C0.18913 5.30915 0.18109 5.35542 0.18109 5.41325C0.18109 5.47108 0.173049 5.51735 0.162981 5.51735C0.152423 5.51735 0.144872 5.57518 0.144872 5.65615C0.144872 5.73712 0.13732 5.79495 0.126763 5.79495C0.115897 5.79495 0.108654 5.86435 0.108654 5.96845C0.108654 6.07256 0.10141 6.14196 0.0905449 6.14196C0.0790819 6.14196 0.0724359 6.26918 0.0724359 6.48896C0.0724359 6.70873 0.0657899 6.83596 0.0543269 6.83596C0.0423931 6.83596 0.0362179 7.36804 0.0362179 8.39748C0.0362179 9.42691 0.0300428 9.95899 0.018109 9.95899C0.00679087 9.95899 0 10.0631 0 10.2366C0 10.4101 0.00679087 10.5142 0.018109 10.5142C0.0293728 10.5142 0.0362179 10.6125 0.0362179 10.7744C0.0362179 10.9364 0.0293728 11.0347 0.018109 11.0347C0.00737035 11.0347 0 11.0983 0 11.1909C0 11.2834 0.00737035 11.347 0.018109 11.347C0.0280689 11.347 0.0362179 11.3704 0.0362179 11.3991C0.0362179 11.4277 0.0280689 11.4511 0.018109 11.4511C0.00814904 11.4511 0 11.4667 0 11.4858C0 11.5049 0.00814904 11.5205 0.018109 11.5205C0.0465944 11.5205 0.0421758 12.0702 0.0135817 12.0829C-0.00452724 12.091 -0.00452724 12.0951 0.0135817 12.1032C0.0404373 12.1152 0.0442402 12.1798 0.018109 12.1798C0.00755144 12.1798 0 12.2376 0 12.3186C0 12.3996 0.00755144 12.4574 0.018109 12.4574C0.0300247 12.4574 0.0362179 12.9138 0.0362179 13.7919C0.0362179 14.8433 0.0410168 15.1283 0.0588542 15.1353C0.075949 15.1419 0.0748444 15.1489 0.0543269 15.164C0.0338095 15.1791 0.0327048 15.1862 0.0497997 15.1928C0.0666591 15.1994 0.0724359 15.2766 0.0724359 15.4951C0.0724359 15.6792 0.0791905 15.7886 0.0905449 15.7886C0.101519 15.7886 0.108654 15.8638 0.108654 15.9795C0.108654 16.0952 0.115789 16.1703 0.126763 16.1703C0.137103 16.1703 0.144872 16.2224 0.144872 16.2918C0.144872 16.3612 0.152641 16.4132 0.162981 16.4132C0.173321 16.4132 0.18109 16.4653 0.18109 16.5347C0.18109 16.6041 0.188858 16.6562 0.199199 16.6562C0.209159 16.6562 0.217308 16.6952 0.217308 16.7429C0.217308 16.7906 0.225457 16.8297 0.235417 16.8297C0.245377 16.8297 0.253526 16.8687 0.253526 16.9164C0.253526 16.9641 0.261675 17.0032 0.271635 17.0032C0.281595 17.0032 0.289744 17.0422 0.289744 17.0899C0.289744 17.1376 0.297893 17.1767 0.307853 17.1767C0.317812 17.1767 0.325962 17.2079 0.325962 17.2461C0.325962 17.2842 0.334111 17.3155 0.34407 17.3155C0.35403 17.3155 0.362179 17.3467 0.362179 17.3849C0.362179 17.423 0.370329 17.4543 0.380288 17.4543C0.390248 17.4543 0.398397 17.4855 0.398397 17.5237C0.398397 17.5618 0.406546 17.5931 0.416506 17.5931C0.426466 17.5931 0.434615 17.6087 0.434615 17.6278C0.434615 17.6468 0.442764 17.6625 0.452724 17.6625C0.462684 17.6625 0.470833 17.6937 0.470833 17.7319C0.470833 17.77 0.478982 17.8013 0.488942 17.8013C0.498902 17.8013 0.507051 17.8247 0.507051 17.8533C0.507051 17.8819 0.5152 17.9054 0.52516 17.9054C0.53512 17.9054 0.543269 17.9288 0.543269 17.9574C0.543269 17.986 0.551418 18.0095 0.561378 18.0095C0.571338 18.0095 0.579487 18.0251 0.579487 18.0442C0.579487 18.0632 0.587636 18.0789 0.597596 18.0789C0.607556 18.0789 0.615705 18.1023 0.615705 18.1309C0.615705 18.1595 0.623854 18.183 0.633814 18.183C0.643774 18.183 0.651923 18.2064 0.651923 18.235C0.651923 18.2636 0.660072 18.2871 0.670032 18.2871C0.679992 18.2871 0.688141 18.3027 0.688141 18.3218C0.688141 18.3409 0.69629 18.3565 0.70625 18.3565C0.71621 18.3565 0.724359 18.3721 0.724359 18.3912C0.724359 18.4103 0.732508 18.4259 0.742468 18.4259C0.752428 18.4259 0.760577 18.4415 0.760577 18.4606C0.760577 18.4797 0.768726 18.4953 0.778686 18.4953C0.788646 18.4953 0.796795 18.5109 0.796795 18.53C0.796795 18.5491 0.804944 18.5647 0.814904 18.5647C0.824864 18.5647 0.833013 18.5864 0.833013 18.6129C0.833013 18.6412 0.847971 18.6714 0.869231 18.6861C0.889151 18.6999 0.905449 18.725 0.905449 18.742C0.905449 18.759 0.913598 18.7729 0.923558 18.7729C0.933518 18.7729 0.941667 18.7885 0.941667 18.8076C0.941667 18.8267 0.949816 18.8423 0.959776 18.8423C0.969736 18.8423 0.977885 18.8579 0.977885 18.877C0.977885 18.8961 0.986034 18.9117 0.995994 18.9117C1.00595 18.9117 1.0141 18.9273 1.0141 18.9464C1.0141 18.9655 1.02225 18.9811 1.03221 18.9811C1.04217 18.9811 1.05032 18.9967 1.05032 19.0158C1.05032 19.0349 1.05847 19.0505 1.06843 19.0505C1.07839 19.0505 1.08654 19.0644 1.08654 19.0813C1.08654 19.0983 1.10284 19.1235 1.12276 19.1372C1.14268 19.151 1.15897 19.1744 1.15897 19.1893C1.15897 19.2041 1.17527 19.2276 1.19519 19.2413C1.21511 19.2551 1.23141 19.2802 1.23141 19.2972C1.23141 19.3142 1.23956 19.3281 1.24952 19.3281C1.25948 19.3281 1.26763 19.3406 1.26763 19.3558C1.26763 19.3711 1.29208 19.4054 1.32196 19.4322C1.35183 19.4589 1.37628 19.4901 1.37628 19.5016C1.37628 19.513 1.40073 19.5442 1.43061 19.571C1.46049 19.5977 1.48494 19.6286 1.48494 19.6396C1.48494 19.6506 1.53383 19.7056 1.59359 19.7618C1.65335 19.818 1.70224 19.8723 1.70224 19.8824C1.70224 19.9068 2.33005 20.5079 2.35545 20.5079C2.36626 20.5079 2.40643 20.5391 2.44471 20.5773C2.48299 20.6155 2.52537 20.6467 2.5389 20.6467C2.55242 20.6467 2.57522 20.6623 2.58958 20.6814C2.60394 20.7005 2.62692 20.7161 2.64065 20.7161C2.65436 20.7161 2.68844 20.7395 2.71635 20.7681C2.74425 20.7968 2.77833 20.8202 2.79204 20.8202C2.80577 20.8202 2.82875 20.8358 2.84311 20.8549C2.85747 20.874 2.88192 20.8896 2.89744 20.8896C2.91296 20.8896 2.9374 20.9052 2.95176 20.9243C2.96612 20.9434 2.99057 20.959 3.00609 20.959C3.02161 20.959 3.04606 20.9746 3.06042 20.9937C3.07478 21.0128 3.10102 21.0284 3.11875 21.0284C3.13646 21.0284 3.15096 21.0362 3.15096 21.0457C3.15096 21.0553 3.16726 21.0631 3.18718 21.0631C3.2071 21.0631 3.2234 21.0709 3.2234 21.0804C3.2234 21.09 3.2397 21.0978 3.25962 21.0978C3.27954 21.0978 3.29583 21.1056 3.29583 21.1151C3.29583 21.1247 3.31213 21.1325 3.33205 21.1325C3.35197 21.1325 3.36827 21.1403 3.36827 21.1498C3.36827 21.1594 3.38457 21.1672 3.40449 21.1672C3.42441 21.1672 3.4407 21.175 3.4407 21.1845C3.4407 21.1941 3.457 21.2019 3.47692 21.2019C3.49684 21.2019 3.51314 21.2097 3.51314 21.2192C3.51314 21.2288 3.52944 21.2366 3.54936 21.2366C3.56928 21.2366 3.58558 21.2444 3.58558 21.2539C3.58558 21.2635 3.60187 21.2713 3.62179 21.2713C3.64171 21.2713 3.65801 21.2791 3.65801 21.2886C3.65801 21.2982 3.67431 21.306 3.69423 21.306C3.71415 21.306 3.73045 21.3138 3.73045 21.3233C3.73045 21.3329 3.7549 21.3407 3.78478 21.3407C3.81466 21.3407 3.8391 21.3485 3.8391 21.358C3.8391 21.3676 3.8554 21.3754 3.87532 21.3754C3.89524 21.3754 3.91154 21.3832 3.91154 21.3927C3.91154 21.4023 3.93599 21.4101 3.96587 21.4101C3.99574 21.4101 4.02019 21.4179 4.02019 21.4274C4.02019 21.437 4.04464 21.4448 4.07452 21.4448C4.1044 21.4448 4.12885 21.4526 4.12885 21.4621C4.12885 21.4717 4.15329 21.4795 4.18317 21.4795C4.21305 21.4795 4.2375 21.4873 4.2375 21.4968C4.2375 21.5064 4.2538 21.5142 4.27372 21.5142C4.29364 21.5142 4.30994 21.522 4.30994 21.5315C4.30994 21.5411 4.33438 21.5489 4.36426 21.5489C4.39414 21.5489 4.41859 21.5567 4.41859 21.5662C4.41859 21.5758 4.45119 21.5836 4.49103 21.5836C4.53087 21.5836 4.56346 21.5914 4.56346 21.6009C4.56346 21.6105 4.59606 21.6183 4.6359 21.6183C4.67574 21.6183 4.70833 21.6261 4.70833 21.6356C4.70833 21.6452 4.74093 21.653 4.78077 21.653C4.82061 21.653 4.8532 21.6608 4.8532 21.6703C4.8532 21.6799 4.8858 21.6877 4.92564 21.6877C4.96548 21.6877 4.99808 21.6955 4.99808 21.705C4.99808 21.7146 5.03067 21.7224 5.07051 21.7224C5.11035 21.7224 5.14295 21.7302 5.14295 21.7397C5.14295 21.7493 5.17554 21.7571 5.21538 21.7571C5.25522 21.7571 5.28782 21.7649 5.28782 21.7744C5.28782 21.7841 5.33612 21.7918 5.39647 21.7918C5.45683 21.7918 5.50513 21.7995 5.50513 21.8091C5.50513 21.8191 5.55945 21.8265 5.63189 21.8265C5.70433 21.8265 5.75865 21.8339 5.75865 21.8438C5.75865 21.854 5.81901 21.8612 5.90353 21.8612C5.98804 21.8612 6.0484 21.8684 6.0484 21.8785C6.0484 21.8888 6.1148 21.8959 6.21138 21.8959C6.30795 21.8959 6.37436 21.903 6.37436 21.9132C6.37436 21.9241 6.48904 21.9306 6.68221 21.9306C6.87538 21.9306 6.99006 21.9371 6.99006 21.948C6.99006 21.9592 7.25567 21.9653 7.75064 21.9653C8.24561 21.9653 8.51122 21.9714 8.51122 21.9827C8.51122 21.9922 8.52752 22 8.54744 22C8.56736 22 8.58365 21.9922 8.58365 21.9827C8.58365 21.9721 8.66212 21.9653 8.78285 21.9653C8.90358 21.9653 8.98205 21.9721 8.98205 21.9827C8.98205 21.9941 9.83317 22 11.4992 22C13.1652 22 14.0163 21.9941 14.0163 21.9827C14.0163 21.9713 14.3604 21.9653 15.0123 21.9653C15.6643 21.9653 16.0083 21.9593 16.0083 21.948C16.0083 21.9371 16.123 21.9306 16.3162 21.9306C16.5094 21.9306 16.624 21.9241 16.624 21.9132C16.624 21.903 16.6904 21.8959 16.787 21.8959C16.8836 21.8959 16.95 21.8888 16.95 21.8785C16.95 21.8686 17.0043 21.8612 17.0768 21.8612C17.1492 21.8612 17.2035 21.8538 17.2035 21.8438C17.2035 21.8339 17.2579 21.8265 17.3303 21.8265C17.4027 21.8265 17.4571 21.8191 17.4571 21.8091C17.4571 21.7996 17.4978 21.7918 17.5476 21.7918C17.5974 21.7918 17.6381 21.784 17.6381 21.7744C17.6381 21.7649 17.6789 21.7571 17.7287 21.7571C17.7785 21.7571 17.8192 21.7493 17.8192 21.7397C17.8192 21.7302 17.8518 21.7224 17.8917 21.7224C17.9315 21.7224 17.9641 21.7146 17.9641 21.705C17.9641 21.6955 17.9967 21.6877 18.0365 21.6877C18.0764 21.6877 18.109 21.6799 18.109 21.6703C18.109 21.6608 18.1416 21.653 18.1814 21.653C18.2212 21.653 18.2538 21.6452 18.2538 21.6356C18.2538 21.6261 18.2864 21.6183 18.3263 21.6183C18.3661 21.6183 18.3987 21.6105 18.3987 21.6009C18.3987 21.5914 18.4232 21.5836 18.453 21.5836C18.4829 21.5836 18.5074 21.5758 18.5074 21.5662C18.5074 21.5567 18.5318 21.5489 18.5617 21.5489C18.5916 21.5489 18.616 21.5411 18.616 21.5315C18.616 21.522 18.6405 21.5142 18.6704 21.5142C18.7002 21.5142 18.7247 21.5064 18.7247 21.4968C18.7247 21.4873 18.7491 21.4795 18.779 21.4795C18.8089 21.4795 18.8333 21.4717 18.8333 21.4621C18.8333 21.4526 18.8496 21.4448 18.8696 21.4448C18.8895 21.4448 18.9058 21.437 18.9058 21.4274C18.9058 21.4179 18.9302 21.4101 18.9601 21.4101C18.99 21.4101 19.0144 21.4023 19.0144 21.3927C19.0144 21.3832 19.0307 21.3754 19.0506 21.3754C19.0706 21.3754 19.0869 21.3676 19.0869 21.358C19.0869 21.3485 19.1113 21.3407 19.1412 21.3407C19.1711 21.3407 19.1955 21.3329 19.1955 21.3233C19.1955 21.3138 19.2118 21.306 19.2317 21.306C19.2516 21.306 19.2679 21.2982 19.2679 21.2886C19.2679 21.2791 19.2842 21.2713 19.3042 21.2713C19.3241 21.2713 19.3404 21.2635 19.3404 21.2539C19.3404 21.2444 19.3567 21.2366 19.3766 21.2366C19.3965 21.2366 19.4128 21.2288 19.4128 21.2192C19.4128 21.2097 19.4291 21.2019 19.449 21.2019C19.469 21.2019 19.4853 21.1941 19.4853 21.1845C19.4853 21.175 19.5016 21.1672 19.5215 21.1672C19.5414 21.1672 19.5577 21.1594 19.5577 21.1498C19.5577 21.1403 19.574 21.1325 19.5939 21.1325C19.6138 21.1325 19.6301 21.1247 19.6301 21.1151C19.6301 21.1056 19.6464 21.0978 19.6663 21.0978C19.6863 21.0978 19.7026 21.09 19.7026 21.0804C19.7026 21.0709 19.7189 21.0631 19.7388 21.0631C19.7587 21.0631 19.775 21.0553 19.775 21.0457C19.775 21.0362 19.7895 21.0284 19.8072 21.0284C19.8249 21.0284 19.8512 21.0128 19.8655 20.9937C19.8799 20.9746 19.9061 20.959 19.9239 20.959C19.9416 20.959 19.9561 20.9512 19.9561 20.9416C19.9561 20.9321 19.9706 20.9243 19.9883 20.9243C20.006 20.9243 20.0323 20.9087 20.0466 20.8896C20.061 20.8705 20.0854 20.8549 20.101 20.8549C20.1165 20.8549 20.1409 20.8393 20.1553 20.8202C20.1696 20.8011 20.1941 20.7855 20.2096 20.7855C20.2251 20.7855 20.2496 20.7699 20.2639 20.7508C20.2783 20.7317 20.3013 20.7161 20.315 20.7161C20.3287 20.7161 20.3628 20.6927 20.3907 20.664C20.4186 20.6354 20.4512 20.612 20.4631 20.612C20.4751 20.612 20.5077 20.5886 20.5356 20.5599C20.5635 20.5313 20.5959 20.5079 20.6076 20.5079C20.6194 20.5079 20.6603 20.4767 20.6986 20.4385C20.7368 20.4003 20.777 20.3691 20.7878 20.3691C20.8133 20.3691 21.4048 19.8026 21.4048 19.7782C21.4048 19.768 21.4456 19.7216 21.4954 19.6751C21.5452 19.6286 21.5859 19.5815 21.5859 19.5704C21.5859 19.5593 21.6103 19.5283 21.6402 19.5016C21.6701 19.4748 21.6945 19.4422 21.6945 19.4291C21.6945 19.4159 21.7108 19.3939 21.7308 19.3801C21.7507 19.3664 21.767 19.3429 21.767 19.3281C21.767 19.3132 21.7833 19.2898 21.8032 19.276C21.8231 19.2623 21.8394 19.2371 21.8394 19.2201C21.8394 19.2032 21.8476 19.1893 21.8575 19.1893C21.8675 19.1893 21.8756 19.1754 21.8756 19.1584C21.8756 19.1414 21.8919 19.1163 21.9119 19.1025C21.9318 19.0888 21.9481 19.0653 21.9481 19.0505C21.9481 19.0356 21.9644 19.0122 21.9843 18.9984C22.0042 18.9847 22.0205 18.9595 22.0205 18.9425C22.0205 18.9256 22.0287 18.9117 22.0386 18.9117C22.0486 18.9117 22.0567 18.8961 22.0567 18.877C22.0567 18.8579 22.0649 18.8423 22.0748 18.8423C22.0848 18.8423 22.0929 18.8267 22.0929 18.8076C22.0929 18.7885 22.1011 18.7729 22.1111 18.7729C22.121 18.7729 22.1292 18.7573 22.1292 18.7382C22.1292 18.7191 22.1373 18.7035 22.1473 18.7035C22.1572 18.7035 22.1654 18.6879 22.1654 18.6688C22.1654 18.6497 22.1735 18.6341 22.1835 18.6341C22.1935 18.6341 22.2016 18.6185 22.2016 18.5994C22.2016 18.5803 22.2098 18.5647 22.2197 18.5647C22.2297 18.5647 22.2378 18.5491 22.2378 18.53C22.2378 18.5109 22.246 18.4953 22.2559 18.4953C22.2659 18.4953 22.274 18.4718 22.274 18.4432C22.274 18.4146 22.2822 18.3912 22.2921 18.3912C22.3021 18.3912 22.3103 18.3756 22.3103 18.3565C22.3103 18.3374 22.3184 18.3218 22.3284 18.3218C22.3383 18.3218 22.3465 18.3062 22.3465 18.2871C22.3465 18.268 22.3546 18.2524 22.3646 18.2524C22.3745 18.2524 22.3827 18.2289 22.3827 18.2003C22.3827 18.1717 22.3908 18.1483 22.4008 18.1483C22.4108 18.1483 22.4189 18.1327 22.4189 18.1136C22.4189 18.0945 22.4271 18.0789 22.437 18.0789C22.447 18.0789 22.4551 18.0554 22.4551 18.0268C22.4551 17.9982 22.4633 17.9748 22.4732 17.9748C22.4832 17.9748 22.4913 17.9513 22.4913 17.9227C22.4913 17.8941 22.4995 17.8707 22.5095 17.8707C22.5194 17.8707 22.5276 17.8394 22.5276 17.8013C22.5276 17.7631 22.5357 17.7319 22.5457 17.7319C22.5556 17.7319 22.5638 17.7084 22.5638 17.6798C22.5638 17.6512 22.5719 17.6278 22.5819 17.6278C22.5919 17.6278 22.6 17.6043 22.6 17.5757C22.6 17.5471 22.6081 17.5237 22.6181 17.5237C22.6281 17.5237 22.6362 17.4924 22.6362 17.4543C22.6362 17.4161 22.6444 17.3849 22.6543 17.3849C22.6643 17.3849 22.6724 17.3536 22.6724 17.3155C22.6724 17.2773 22.6806 17.2461 22.6905 17.2461C22.7006 17.2461 22.7087 17.1998 22.7087 17.142C22.7087 17.0841 22.7167 17.0379 22.7268 17.0379C22.7367 17.0379 22.7449 17.0066 22.7449 16.9685C22.7449 16.9303 22.753 16.8991 22.763 16.8991C22.7729 16.8991 22.7811 16.86 22.7811 16.8123C22.7811 16.7646 22.7892 16.7256 22.7992 16.7256C22.8095 16.7256 22.8173 16.6735 22.8173 16.6041C22.8173 16.5347 22.8251 16.4827 22.8354 16.4827C22.8462 16.4827 22.8535 16.419 22.8535 16.3265C22.8535 16.234 22.8609 16.1703 22.8716 16.1703C22.8826 16.1703 22.8897 16.0952 22.8897 15.9795C22.8897 15.8638 22.8969 15.7886 22.9079 15.7886C22.919 15.7886 22.926 15.7019 22.926 15.5631C22.926 15.4243 22.9329 15.3375 22.9441 15.3375C22.9559 15.3375 22.9622 15.0368 22.9622 14.47C22.9622 13.9033 22.9685 13.6025 22.9803 13.6025C23.0087 13.6025 23.0043 13.0876 22.9758 13.0748C22.9577 13.0667 22.9577 13.0626 22.9758 13.0546C23.0049 13.0415 23.0094 9.95899 22.9803 9.95899C22.9684 9.95899 22.9622 9.53101 22.9622 8.70978C22.9622 7.88854 22.956 7.46057 22.9441 7.46057C22.9323 7.46057 22.926 7.22344 22.926 6.78391C22.926 6.34438 22.9196 6.10726 22.9079 6.10726C22.8971 6.10726 22.8897 6.04363 22.8897 5.9511C22.8897 5.85858 22.8824 5.79495 22.8716 5.79495C22.8611 5.79495 22.8535 5.73712 22.8535 5.65615C22.8535 5.57518 22.846 5.51735 22.8354 5.51735C22.8253 5.51735 22.8173 5.47108 22.8173 5.41325C22.8173 5.35542 22.8093 5.30915 22.7992 5.30915C22.7891 5.30915 22.7811 5.26288 22.7811 5.20505C22.7811 5.14722 22.773 5.10095 22.763 5.10095C22.753 5.10095 22.7449 5.06972 22.7449 5.03155C22.7449 4.99338 22.7367 4.96215 22.7268 4.96215C22.7168 4.96215 22.7087 4.92311 22.7087 4.87539C22.7087 4.82768 22.7005 4.78864 22.6905 4.78864C22.6806 4.78864 22.6724 4.75741 22.6724 4.71924C22.6724 4.68107 22.6643 4.64984 22.6543 4.64984C22.6444 4.64984 22.6362 4.61861 22.6362 4.58044C22.6362 4.54227 22.6281 4.51104 22.6181 4.51104C22.6081 4.51104 22.6 4.48762 22.6 4.45899C22.6 4.43036 22.5919 4.40694 22.5819 4.40694C22.5719 4.40694 22.5638 4.38352 22.5638 4.35489C22.5638 4.32626 22.5556 4.30284 22.5457 4.30284C22.5357 4.30284 22.5276 4.27942 22.5276 4.25079C22.5276 4.22216 22.5194 4.19874 22.5095 4.19874C22.4995 4.19874 22.4913 4.17532 22.4913 4.14669C22.4913 4.11806 22.4832 4.09464 22.4732 4.09464C22.4633 4.09464 22.4551 4.07121 22.4551 4.04259C22.4551 4.01396 22.447 3.99054 22.437 3.99054C22.4271 3.99054 22.4189 3.96711 22.4189 3.93849C22.4189 3.90986 22.4108 3.88644 22.4008 3.88644C22.3908 3.88644 22.3827 3.86301 22.3827 3.83438C22.3827 3.80576 22.3745 3.78233 22.3646 3.78233C22.3546 3.78233 22.3465 3.76672 22.3465 3.74763C22.3465 3.72855 22.3383 3.71293 22.3284 3.71293C22.3184 3.71293 22.3103 3.69732 22.3103 3.67823C22.3103 3.65915 22.3021 3.64353 22.2921 3.64353C22.2822 3.64353 22.274 3.62011 22.274 3.59148C22.274 3.56286 22.2659 3.53943 22.2559 3.53943C22.246 3.53943 22.2378 3.52382 22.2378 3.50473C22.2378 3.48565 22.2297 3.47003 22.2197 3.47003C22.2098 3.47003 22.2016 3.45442 22.2016 3.43533C22.2016 3.41625 22.1935 3.40063 22.1835 3.40063C22.1735 3.40063 22.1654 3.38502 22.1654 3.36593C22.1654 3.34685 22.1572 3.33123 22.1473 3.33123C22.1373 3.33123 22.1292 3.31562 22.1292 3.29653C22.1292 3.27744 22.121 3.26183 22.1111 3.26183C22.1011 3.26183 22.0929 3.24621 22.0929 3.22713C22.0929 3.20804 22.0848 3.19243 22.0748 3.19243C22.0649 3.19243 22.0567 3.17681 22.0567 3.15773C22.0567 3.13864 22.0486 3.12303 22.0386 3.12303C22.0287 3.12303 22.0205 3.10913 22.0205 3.09216C22.0205 3.07518 22.0042 3.05004 21.9843 3.03628C21.9644 3.02252 21.9481 2.99738 21.9481 2.98039C21.9481 2.96342 21.9399 2.94953 21.93 2.94953C21.92 2.94953 21.9119 2.93563 21.9119 2.91866C21.9119 2.90168 21.8956 2.87653 21.8756 2.86278C21.8557 2.84902 21.8394 2.82388 21.8394 2.80689C21.8394 2.78992 21.8313 2.77603 21.8213 2.77603C21.8114 2.77603 21.8032 2.76355 21.8032 2.74828C21.8032 2.73303 21.7788 2.69866 21.7489 2.67192C21.719 2.64519 21.6945 2.61253 21.6945 2.5994C21.6945 2.58625 21.6783 2.56423 21.6583 2.55047C21.6384 2.53671 21.6221 2.5147 21.6221 2.50155C21.6221 2.48841 21.5977 2.45576 21.5678 2.42902C21.5379 2.40229 21.5135 2.37106 21.5135 2.35962C21.5135 2.34819 21.489 2.31696 21.4591 2.29022C21.4293 2.26348 21.4048 2.23264 21.4048 2.2217C21.4048 2.21076 21.3478 2.1479 21.278 2.08202C21.2083 2.01614 21.1513 1.95397 21.1513 1.94388C21.1513 1.91971 20.7409 1.52681 20.7157 1.52681C20.705 1.52681 20.6565 1.48778 20.608 1.44006C20.5595 1.39235 20.5105 1.35331 20.4991 1.35331C20.4877 1.35331 20.4471 1.32208 20.4088 1.28391C20.3705 1.24574 20.3282 1.21451 20.3146 1.21451C20.3011 1.21451 20.2783 1.1989 20.2639 1.17981C20.2496 1.16073 20.2251 1.14511 20.2096 1.14511C20.1941 1.14511 20.1696 1.1295 20.1553 1.11041C20.1409 1.09132 20.1147 1.07571 20.097 1.07571C20.0792 1.07571 20.0647 1.0679 20.0647 1.05836C20.0647 1.04882 20.0502 1.04101 20.0325 1.04101C20.0148 1.04101 19.9886 1.02539 19.9742 1.00631C19.9598 0.987224 19.9336 0.971609 19.9159 0.971609C19.8982 0.971609 19.8837 0.963801 19.8837 0.954259C19.8837 0.944716 19.8691 0.936909 19.8514 0.936909C19.8337 0.936909 19.8075 0.921293 19.7931 0.902208C19.7787 0.883123 19.7525 0.867508 19.7348 0.867508C19.7171 0.867508 19.7026 0.8597 19.7026 0.850158C19.7026 0.840615 19.6863 0.832808 19.6663 0.832808C19.6464 0.832808 19.6301 0.825 19.6301 0.815457C19.6301 0.805915 19.6138 0.798107 19.5939 0.798107C19.574 0.798107 19.5577 0.7903 19.5577 0.780757C19.5577 0.771214 19.5414 0.763407 19.5215 0.763407C19.5016 0.763407 19.4853 0.755599 19.4853 0.746057C19.4853 0.736514 19.4608 0.728707 19.4309 0.728707C19.401 0.728707 19.3766 0.720899 19.3766 0.711356C19.3766 0.701814 19.3603 0.694006 19.3404 0.694006C19.3205 0.694006 19.3042 0.686199 19.3042 0.676656C19.3042 0.667114 19.2879 0.659306 19.2679 0.659306C19.248 0.659306 19.2317 0.651498 19.2317 0.641956C19.2317 0.632413 19.2073 0.624606 19.1774 0.624606C19.1475 0.624606 19.1231 0.616798 19.1231 0.607256C19.1231 0.597713 19.1068 0.589905 19.0869 0.589905C19.0669 0.589905 19.0506 0.582098 19.0506 0.572555C19.0506 0.563013 19.0343 0.555205 19.0144 0.555205C18.9945 0.555205 18.9782 0.547397 18.9782 0.537855C18.9782 0.528312 18.9538 0.520505 18.9239 0.520505C18.894 0.520505 18.8696 0.512697 18.8696 0.503155C18.8696 0.493612 18.8451 0.485804 18.8152 0.485804C18.7853 0.485804 18.7609 0.477997 18.7609 0.468454C18.7609 0.458912 18.7364 0.451104 18.7066 0.451104C18.6767 0.451104 18.6522 0.443297 18.6522 0.433754C18.6522 0.424211 18.6278 0.416404 18.5979 0.416404C18.568 0.416404 18.5436 0.408596 18.5436 0.399054C18.5436 0.389511 18.511 0.381703 18.4712 0.381703C18.4313 0.381703 18.3987 0.373896 18.3987 0.364353C18.3987 0.354811 18.3743 0.347003 18.3444 0.347003C18.3145 0.347003 18.2901 0.339196 18.2901 0.329653C18.2901 0.32011 18.2575 0.312303 18.2176 0.312303C18.1778 0.312303 18.1452 0.304495 18.1452 0.294953C18.1452 0.28541 18.1126 0.277603 18.0728 0.277603C18.0329 0.277603 18.0003 0.269795 18.0003 0.260252C18.0003 0.25071 17.9596 0.242902 17.9098 0.242902C17.86 0.242902 17.8192 0.235095 17.8192 0.225552C17.8192 0.216009 17.7785 0.208202 17.7287 0.208202C17.6789 0.208202 17.6381 0.200394 17.6381 0.190852C17.6381 0.181309 17.5974 0.173502 17.5476 0.173502C17.4978 0.173502 17.4571 0.165694 17.4571 0.156151C17.4571 0.146036 17.3967 0.138801 17.3122 0.138801C17.2277 0.138801 17.1673 0.131566 17.1673 0.121451C17.1673 0.111336 17.1069 0.104101 17.0224 0.104101C16.9379 0.104101 16.8776 0.0968659 16.8776 0.0867508C16.8776 0.0762366 16.7991 0.0694006 16.6784 0.0694006C16.5576 0.0694006 16.4792 0.0625647 16.4792 0.0520505C16.4792 0.0411199 16.3584 0.0347003 16.1532 0.0347003C15.948 0.0347003 15.8272 0.0282808 15.8272 0.0173502C15.8272 0.00582965 14.3725 0 11.4992 0C8.6259 0 7.17115 0.00582965 7.17115 0.0173502ZM14.7045 1.96057C14.7045 1.97172 14.8856 1.97792 15.2115 1.97792C15.5375 1.97792 15.7186 1.98411 15.7186 1.99527C15.7186 2.00578 15.7971 2.01262 15.9178 2.01262C16.0385 2.01262 16.117 2.01945 16.117 2.02997C16.117 2.04026 16.1834 2.04732 16.28 2.04732C16.3765 2.04732 16.4429 2.05438 16.4429 2.06467C16.4429 2.07496 16.5094 2.08202 16.6059 2.08202C16.7025 2.08202 16.7689 2.08908 16.7689 2.09937C16.7689 2.10966 16.8353 2.11672 16.9319 2.11672C17.0285 2.11672 17.0949 2.12378 17.0949 2.13407C17.0949 2.14398 17.1492 2.15142 17.2216 2.15142C17.2941 2.15142 17.3484 2.15886 17.3484 2.16877C17.3484 2.17842 17.3967 2.18612 17.4571 2.18612C17.5174 2.18612 17.5657 2.19382 17.5657 2.20347C17.5657 2.21301 17.5983 2.22082 17.6381 2.22082C17.678 2.22082 17.7106 2.22863 17.7106 2.23817C17.7106 2.24771 17.7432 2.25552 17.783 2.25552C17.8229 2.25552 17.8554 2.26333 17.8554 2.27287C17.8554 2.28241 17.8799 2.29022 17.9098 2.29022C17.9397 2.29022 17.9641 2.29803 17.9641 2.30757C17.9641 2.31711 17.9885 2.32492 18.0184 2.32492C18.0483 2.32492 18.0728 2.33273 18.0728 2.34227C18.0728 2.35181 18.0972 2.35962 18.1271 2.35962C18.157 2.35962 18.1814 2.36743 18.1814 2.37697C18.1814 2.38651 18.1977 2.39432 18.2176 2.39432C18.2375 2.39432 18.2538 2.40213 18.2538 2.41167C18.2538 2.42121 18.2783 2.42902 18.3082 2.42902C18.3381 2.42902 18.3625 2.43683 18.3625 2.44637C18.3625 2.45591 18.3869 2.46372 18.4168 2.46372C18.4467 2.46372 18.4712 2.47153 18.4712 2.48107C18.4712 2.49062 18.4875 2.49842 18.5074 2.49842C18.5273 2.49842 18.5436 2.50623 18.5436 2.51577C18.5436 2.52532 18.5599 2.53312 18.5798 2.53312C18.5997 2.53312 18.616 2.54093 18.616 2.55047C18.616 2.56002 18.6323 2.56782 18.6522 2.56782C18.6722 2.56782 18.6885 2.57563 18.6885 2.58517C18.6885 2.59472 18.7048 2.60252 18.7247 2.60252C18.7446 2.60252 18.7609 2.61033 18.7609 2.61987C18.7609 2.62942 18.7754 2.63722 18.7931 2.63722C18.8108 2.63722 18.8371 2.65284 18.8514 2.67192C18.8658 2.69101 18.892 2.70662 18.9098 2.70662C18.9275 2.70662 18.942 2.71443 18.942 2.72397C18.942 2.73352 18.955 2.74132 18.9709 2.74132C18.9869 2.74132 19.0227 2.76475 19.0506 2.79338C19.0785 2.822 19.1126 2.84543 19.1263 2.84543C19.1401 2.84543 19.163 2.86104 19.1774 2.88013C19.1918 2.89921 19.2145 2.91483 19.2279 2.91483C19.2412 2.91483 19.2919 2.95386 19.3404 3.00158C19.3889 3.04929 19.4374 3.08833 19.4483 3.08833C19.4739 3.08833 19.6663 3.27271 19.6663 3.29728C19.6663 3.30765 19.7071 3.35415 19.7569 3.40063C19.8067 3.44711 19.8474 3.49562 19.8474 3.50844C19.8474 3.52128 19.8637 3.54302 19.8837 3.55678C19.9036 3.57054 19.9199 3.59256 19.9199 3.60571C19.9199 3.61884 19.9443 3.6515 19.9742 3.67823C20.0041 3.70497 20.0285 3.73934 20.0285 3.75459C20.0285 3.76986 20.0367 3.78233 20.0466 3.78233C20.0566 3.78233 20.0647 3.79623 20.0647 3.8132C20.0647 3.83019 20.081 3.85533 20.101 3.86909C20.1209 3.88284 20.1372 3.90627 20.1372 3.92114C20.1372 3.936 20.1535 3.95943 20.1734 3.97319C20.1933 3.98694 20.2096 4.01209 20.2096 4.02907C20.2096 4.04604 20.2178 4.05994 20.2277 4.05994C20.2377 4.05994 20.2458 4.07555 20.2458 4.09464C20.2458 4.11372 20.254 4.12934 20.2639 4.12934C20.2739 4.12934 20.282 4.14495 20.282 4.16404C20.282 4.18312 20.2902 4.19874 20.3002 4.19874C20.3101 4.19874 20.3183 4.21435 20.3183 4.23344C20.3183 4.25252 20.3264 4.26814 20.3364 4.26814C20.3463 4.26814 20.3545 4.28375 20.3545 4.30284C20.3545 4.32192 20.3626 4.33754 20.3726 4.33754C20.3826 4.33754 20.3907 4.35315 20.3907 4.37224C20.3907 4.39132 20.3989 4.40694 20.4088 4.40694C20.4188 4.40694 20.4269 4.42255 20.4269 4.44164C20.4269 4.46073 20.4351 4.47634 20.445 4.47634C20.455 4.47634 20.4631 4.49976 20.4631 4.52839C20.4631 4.55702 20.4713 4.58044 20.4812 4.58044C20.4912 4.58044 20.4994 4.60386 20.4994 4.63249C20.4994 4.66112 20.5075 4.68454 20.5175 4.68454C20.5274 4.68454 20.5356 4.70016 20.5356 4.71924C20.5356 4.73833 20.5437 4.75394 20.5537 4.75394C20.5636 4.75394 20.5718 4.78517 20.5718 4.82334C20.5718 4.86151 20.5799 4.89274 20.5899 4.89274C20.5999 4.89274 20.608 4.92397 20.608 4.96215C20.608 5.00032 20.6162 5.03155 20.6261 5.03155C20.6361 5.03155 20.6442 5.06278 20.6442 5.10095C20.6442 5.13912 20.6524 5.17035 20.6623 5.17035C20.6723 5.17035 20.6804 5.20938 20.6804 5.2571C20.6804 5.30481 20.6886 5.34385 20.6986 5.34385C20.7086 5.34385 20.7167 5.39012 20.7167 5.44795C20.7167 5.50578 20.7247 5.55205 20.7348 5.55205C20.7447 5.55205 20.7529 5.58328 20.7529 5.62145C20.7529 5.65962 20.761 5.69085 20.771 5.69085C20.7813 5.69085 20.7891 5.7429 20.7891 5.8123C20.7891 5.8817 20.7969 5.93375 20.8072 5.93375C20.8176 5.93375 20.8253 5.9858 20.8253 6.0552C20.8253 6.12461 20.8331 6.17666 20.8434 6.17666C20.8545 6.17666 20.8615 6.25763 20.8615 6.38486C20.8615 6.51209 20.8686 6.59306 20.8796 6.59306C20.8912 6.59306 20.8978 6.73186 20.8978 6.97476C20.8978 7.21767 20.9043 7.35647 20.9159 7.35647C20.9279 7.35647 20.934 8.4958 20.934 10.7397C20.934 12.9837 20.9279 14.123 20.9159 14.123C20.9042 14.123 20.8978 14.2965 20.8978 14.6088C20.8978 14.9211 20.8913 15.0946 20.8796 15.0946C20.8689 15.0946 20.8615 15.1583 20.8615 15.2508C20.8615 15.3433 20.8542 15.4069 20.8434 15.4069C20.8325 15.4069 20.8253 15.4821 20.8253 15.5978C20.8253 15.7135 20.8182 15.7886 20.8072 15.7886C20.7967 15.7886 20.7891 15.8465 20.7891 15.9274C20.7891 16.0084 20.7815 16.0662 20.771 16.0662C20.7604 16.0662 20.7529 16.1241 20.7529 16.205C20.7529 16.286 20.7453 16.3438 20.7348 16.3438C20.7242 16.3438 20.7167 16.4017 20.7167 16.4827C20.7167 16.5636 20.7091 16.6215 20.6986 16.6215C20.6885 16.6215 20.6804 16.6677 20.6804 16.7256C20.6804 16.7834 20.6724 16.8297 20.6623 16.8297C20.6524 16.8297 20.6442 16.8609 20.6442 16.8991C20.6442 16.9372 20.6361 16.9685 20.6261 16.9685C20.6162 16.9685 20.608 16.9997 20.608 17.0379C20.608 17.076 20.5999 17.1073 20.5899 17.1073C20.5799 17.1073 20.5718 17.1307 20.5718 17.1593C20.5718 17.1879 20.5636 17.2114 20.5537 17.2114C20.5437 17.2114 20.5356 17.2348 20.5356 17.2634C20.5356 17.292 20.5274 17.3155 20.5175 17.3155C20.5075 17.3155 20.4994 17.3389 20.4994 17.3675C20.4994 17.3961 20.4912 17.4196 20.4812 17.4196C20.4713 17.4196 20.4631 17.4352 20.4631 17.4543C20.4631 17.4733 20.455 17.489 20.445 17.489C20.4351 17.489 20.4269 17.5124 20.4269 17.541C20.4269 17.5696 20.4188 17.5931 20.4088 17.5931C20.3989 17.5931 20.3907 17.6087 20.3907 17.6278C20.3907 17.6468 20.3826 17.6625 20.3726 17.6625C20.3626 17.6625 20.3545 17.6781 20.3545 17.6972C20.3545 17.7162 20.3463 17.7319 20.3364 17.7319C20.3264 17.7319 20.3183 17.7475 20.3183 17.7666C20.3183 17.7856 20.3101 17.8013 20.3002 17.8013C20.2902 17.8013 20.282 17.8169 20.282 17.836C20.282 17.855 20.2739 17.8707 20.2639 17.8707C20.254 17.8707 20.2458 17.8863 20.2458 17.9054C20.2458 17.9244 20.2377 17.9401 20.2277 17.9401C20.2178 17.9401 20.2096 17.9557 20.2096 17.9748C20.2096 17.9938 20.2015 18.0095 20.1915 18.0095C20.1815 18.0095 20.1734 18.0234 20.1734 18.0403C20.1734 18.0573 20.1571 18.0825 20.1372 18.0962C20.1173 18.11 20.101 18.1334 20.101 18.1483C20.101 18.1631 20.0847 18.1866 20.0647 18.2003C20.0448 18.2141 20.0285 18.2361 20.0285 18.2492C20.0285 18.2624 20.0041 18.295 19.9742 18.3218C19.9443 18.3485 19.9199 18.3797 19.9199 18.3912C19.9199 18.4026 19.8954 18.4338 19.8655 18.4606C19.8357 18.4873 19.8112 18.5179 19.8112 18.5285C19.8112 18.5536 19.4738 18.877 19.4475 18.877C19.4364 18.877 19.4045 18.9004 19.3766 18.929C19.3487 18.9576 19.3161 18.9811 19.3042 18.9811C19.2922 18.9811 19.2596 19.0045 19.2317 19.0331C19.2038 19.0618 19.1697 19.0852 19.156 19.0852C19.1423 19.0852 19.1193 19.1008 19.105 19.1199C19.0906 19.139 19.0662 19.1546 19.0506 19.1546C19.0351 19.1546 19.0107 19.1702 18.9963 19.1893C18.982 19.2084 18.9575 19.224 18.942 19.224C18.9265 19.224 18.902 19.2396 18.8877 19.2587C18.8733 19.2778 18.8471 19.2934 18.8293 19.2934C18.8116 19.2934 18.7971 19.3012 18.7971 19.3107C18.7971 19.3203 18.7808 19.3281 18.7609 19.3281C18.741 19.3281 18.7247 19.3359 18.7247 19.3454C18.7247 19.355 18.7084 19.3628 18.6885 19.3628C18.6685 19.3628 18.6522 19.3706 18.6522 19.3801C18.6522 19.3897 18.6359 19.3975 18.616 19.3975C18.5961 19.3975 18.5798 19.4053 18.5798 19.4148C18.5798 19.4244 18.5635 19.4322 18.5436 19.4322C18.5237 19.4322 18.5074 19.44 18.5074 19.4495C18.5074 19.4591 18.4911 19.4669 18.4712 19.4669C18.4512 19.4669 18.4349 19.4747 18.4349 19.4842C18.4349 19.4938 18.4204 19.5016 18.4027 19.5016C18.385 19.5016 18.3588 19.5172 18.3444 19.5363C18.3291 19.5566 18.2975 19.571 18.268 19.571C18.2403 19.571 18.2176 19.5788 18.2176 19.5883C18.2176 19.5979 18.1932 19.6057 18.1633 19.6057C18.1334 19.6057 18.109 19.6135 18.109 19.623C18.109 19.6326 18.0845 19.6404 18.0546 19.6404C18.0248 19.6404 18.0003 19.6482 18.0003 19.6577C18.0003 19.6673 17.9759 19.6751 17.946 19.6751C17.9161 19.6751 17.8917 19.6829 17.8917 19.6924C17.8917 19.702 17.8591 19.7098 17.8192 19.7098C17.7794 19.7098 17.7468 19.7176 17.7468 19.7271C17.7468 19.7367 17.7142 19.7445 17.6744 19.7445C17.6345 19.7445 17.6019 19.7523 17.6019 19.7618C17.6019 19.7714 17.5612 19.7792 17.5114 19.7792C17.4616 19.7792 17.4208 19.787 17.4208 19.7965C17.4208 19.8064 17.3665 19.8139 17.2941 19.8139C17.2216 19.8139 17.1673 19.8213 17.1673 19.8312C17.1673 19.8408 17.1347 19.8486 17.0949 19.8486C17.055 19.8486 17.0224 19.8564 17.0224 19.8659C17.0224 19.8756 16.9741 19.8833 16.9138 19.8833C16.8534 19.8833 16.8051 19.891 16.8051 19.9006C16.8051 19.9103 16.7568 19.918 16.6965 19.918C16.6361 19.918 16.5878 19.9257 16.5878 19.9353C16.5878 19.9462 16.4792 19.9527 16.2981 19.9527C16.117 19.9527 16.0083 19.9592 16.0083 19.97C16.0083 19.981 15.8816 19.9874 15.6643 19.9874C15.447 19.9874 15.3202 19.9938 15.3202 20.0047C15.3202 20.0162 14.0405 20.0221 11.5173 20.0221C8.99413 20.0221 7.71442 20.0162 7.71442 20.0047C7.71442 19.9941 7.62388 19.9874 7.47901 19.9874C7.33413 19.9874 7.24359 19.9807 7.24359 19.97C7.24359 19.9594 7.15907 19.9527 7.02628 19.9527C6.89349 19.9527 6.80897 19.9459 6.80897 19.9353C6.80897 19.9249 6.73654 19.918 6.62788 19.918C6.51923 19.918 6.44679 19.911 6.44679 19.9006C6.44679 19.8905 6.38644 19.8833 6.30192 19.8833C6.21741 19.8833 6.15705 19.876 6.15705 19.8659C6.15705 19.8558 6.09669 19.8486 6.01218 19.8486C5.92766 19.8486 5.86731 19.8413 5.86731 19.8312C5.86731 19.8211 5.80695 19.8139 5.72244 19.8139C5.63792 19.8139 5.57756 19.8066 5.57756 19.7965C5.57756 19.787 5.54497 19.7792 5.50513 19.7792C5.46529 19.7792 5.43269 19.7714 5.43269 19.7618C5.43269 19.7523 5.4001 19.7445 5.36026 19.7445C5.32042 19.7445 5.28782 19.7367 5.28782 19.7271C5.28782 19.7176 5.24708 19.7098 5.19728 19.7098C5.14748 19.7098 5.10673 19.702 5.10673 19.6924C5.10673 19.6829 5.08228 19.6751 5.0524 19.6751C5.02252 19.6751 4.99808 19.6673 4.99808 19.6577C4.99808 19.6482 4.97363 19.6404 4.94375 19.6404C4.91387 19.6404 4.88942 19.6326 4.88942 19.623C4.88942 19.6135 4.86498 19.6057 4.8351 19.6057C4.80522 19.6057 4.78077 19.5979 4.78077 19.5883C4.78077 19.5788 4.76447 19.571 4.74455 19.571C4.72463 19.571 4.70833 19.5632 4.70833 19.5536C4.70833 19.5441 4.69204 19.5363 4.67212 19.5363C4.6522 19.5363 4.6359 19.5285 4.6359 19.5189C4.6359 19.5094 4.61145 19.5016 4.58157 19.5016C4.55169 19.5016 4.52724 19.4938 4.52724 19.4842C4.52724 19.4747 4.51095 19.4669 4.49103 19.4669C4.47111 19.4669 4.45481 19.4591 4.45481 19.4495C4.45481 19.44 4.43851 19.4322 4.41859 19.4322C4.39867 19.4322 4.38237 19.4244 4.38237 19.4148C4.38237 19.4053 4.36607 19.3975 4.34615 19.3975C4.32623 19.3975 4.30994 19.3897 4.30994 19.3801C4.30994 19.3706 4.29364 19.3628 4.27372 19.3628C4.2538 19.3628 4.2375 19.355 4.2375 19.3454C4.2375 19.3359 4.22299 19.3281 4.20528 19.3281C4.18756 19.3281 4.16132 19.3125 4.14696 19.2934C4.13259 19.2743 4.10635 19.2587 4.08863 19.2587C4.07092 19.2587 4.05641 19.2509 4.05641 19.2413C4.05641 19.2318 4.04339 19.224 4.02745 19.224C4.01154 19.224 3.97566 19.2006 3.94776 19.1719C3.91985 19.1433 3.88577 19.1199 3.87206 19.1199C3.85833 19.1199 3.83535 19.1043 3.82099 19.0852C3.80663 19.0661 3.78365 19.0505 3.76993 19.0505C3.75622 19.0505 3.72214 19.0271 3.69423 18.9984C3.66632 18.9698 3.63438 18.9464 3.62324 18.9464C3.59735 18.9464 3.36827 18.7276 3.36827 18.7028C3.36827 18.6926 3.31937 18.6382 3.25962 18.582C3.19986 18.5258 3.15096 18.4708 3.15096 18.4598C3.15096 18.4488 3.12651 18.4179 3.09663 18.3912C3.06675 18.3644 3.04231 18.3301 3.04231 18.3148C3.04231 18.2995 3.03416 18.2871 3.0242 18.2871C3.01424 18.2871 3.00609 18.2732 3.00609 18.2562C3.00609 18.2392 2.98979 18.2141 2.96987 18.2003C2.94995 18.1866 2.93365 18.1631 2.93365 18.1483C2.93365 18.1334 2.91736 18.11 2.89744 18.0962C2.87752 18.0825 2.86122 18.0573 2.86122 18.0403C2.86122 18.0234 2.85307 18.0095 2.84311 18.0095C2.83315 18.0095 2.825 17.9956 2.825 17.9786C2.825 17.9616 2.8087 17.9365 2.78878 17.9227C2.76886 17.909 2.75256 17.8838 2.75256 17.8668C2.75256 17.8499 2.74441 17.836 2.73445 17.836C2.72449 17.836 2.71635 17.8203 2.71635 17.8013C2.71635 17.7822 2.7082 17.7666 2.69824 17.7666C2.68828 17.7666 2.68013 17.7509 2.68013 17.7319C2.68013 17.7128 2.67198 17.6972 2.66202 17.6972C2.65206 17.6972 2.64391 17.6815 2.64391 17.6625C2.64391 17.6434 2.63576 17.6278 2.6258 17.6278C2.61584 17.6278 2.60769 17.6121 2.60769 17.5931C2.60769 17.574 2.59954 17.5584 2.58958 17.5584C2.57962 17.5584 2.57147 17.5427 2.57147 17.5237C2.57147 17.5046 2.56333 17.489 2.55337 17.489C2.54341 17.489 2.53526 17.4655 2.53526 17.4369C2.53526 17.4083 2.52711 17.3849 2.51715 17.3849C2.50719 17.3849 2.49904 17.3614 2.49904 17.3328C2.49904 17.3042 2.49089 17.2808 2.48093 17.2808C2.47097 17.2808 2.46282 17.2573 2.46282 17.2287C2.46282 17.2001 2.45467 17.1767 2.44471 17.1767C2.43475 17.1767 2.4266 17.1376 2.4266 17.0899C2.4266 17.0422 2.41845 17.0032 2.40849 17.0032C2.39853 17.0032 2.39038 16.9719 2.39038 16.9338C2.39038 16.8956 2.38224 16.8644 2.37228 16.8644C2.36232 16.8644 2.35417 16.8253 2.35417 16.7776C2.35417 16.7299 2.34602 16.6909 2.33606 16.6909C2.3261 16.6909 2.31795 16.6518 2.31795 16.6041C2.31795 16.5564 2.3098 16.5173 2.29984 16.5173C2.28988 16.5173 2.28173 16.4861 2.28173 16.448C2.28173 16.4098 2.27358 16.3785 2.26362 16.3785C2.25366 16.3785 2.24551 16.3473 2.24551 16.3091C2.24551 16.271 2.23736 16.2397 2.2274 16.2397C2.21744 16.2397 2.20929 16.2007 2.20929 16.153C2.20929 16.1053 2.20115 16.0662 2.19119 16.0662C2.18063 16.0662 2.17308 16.0084 2.17308 15.9274C2.17308 15.8465 2.16553 15.7886 2.15497 15.7886C2.14361 15.7886 2.13686 15.6788 2.13686 15.4937C2.13686 15.3086 2.1301 15.1987 2.11875 15.1987C2.10731 15.1987 2.10064 15.0773 2.10064 14.8691C2.10064 14.6609 2.09398 14.5394 2.08253 14.5394C2.07053 14.5394 2.06442 13.4117 2.06442 11.1909C2.06442 8.97003 2.07053 7.84227 2.08253 7.84227C2.0941 7.84227 2.10064 7.6919 2.10064 7.42587C2.10064 7.15984 2.10718 7.00946 2.11875 7.00946C2.12989 7.00946 2.13686 6.92271 2.13686 6.78391C2.13686 6.64511 2.14383 6.55836 2.15497 6.55836C2.16583 6.55836 2.17308 6.48896 2.17308 6.38486C2.17308 6.28076 2.18032 6.21136 2.19119 6.21136C2.20174 6.21136 2.20929 6.15353 2.20929 6.07256C2.20929 5.99158 2.21685 5.93375 2.2274 5.93375C2.23814 5.93375 2.24551 5.87013 2.24551 5.7776C2.24551 5.68507 2.25288 5.62145 2.26362 5.62145C2.27418 5.62145 2.28173 5.56362 2.28173 5.48265C2.28173 5.40168 2.28928 5.34385 2.29984 5.34385C2.3098 5.34385 2.31795 5.30481 2.31795 5.2571C2.31795 5.20938 2.3261 5.17035 2.33606 5.17035C2.34602 5.17035 2.35417 5.13912 2.35417 5.10095C2.35417 5.06278 2.36232 5.03155 2.37228 5.03155C2.38224 5.03155 2.39038 5.00032 2.39038 4.96215C2.39038 4.92397 2.39853 4.89274 2.40849 4.89274C2.41845 4.89274 2.4266 4.86932 2.4266 4.84069C2.4266 4.81207 2.43475 4.78864 2.44471 4.78864C2.45467 4.78864 2.46282 4.76522 2.46282 4.73659C2.46282 4.70797 2.47097 4.68454 2.48093 4.68454C2.49089 4.68454 2.49904 4.66112 2.49904 4.63249C2.49904 4.60386 2.50719 4.58044 2.51715 4.58044C2.52711 4.58044 2.53526 4.55702 2.53526 4.52839C2.53526 4.49976 2.54341 4.47634 2.55337 4.47634C2.56333 4.47634 2.57147 4.46073 2.57147 4.44164C2.57147 4.42255 2.57962 4.40694 2.58958 4.40694C2.59954 4.40694 2.60769 4.39132 2.60769 4.37224C2.60769 4.35315 2.61584 4.33754 2.6258 4.33754C2.63576 4.33754 2.64391 4.32192 2.64391 4.30284C2.64391 4.28375 2.65206 4.26814 2.66202 4.26814C2.67198 4.26814 2.68013 4.24472 2.68013 4.21609C2.68013 4.18746 2.68828 4.16404 2.69824 4.16404C2.7082 4.16404 2.71635 4.14842 2.71635 4.12934C2.71635 4.11025 2.72449 4.09464 2.73445 4.09464C2.74441 4.09464 2.75256 4.08074 2.75256 4.06377C2.75256 4.04679 2.76886 4.02165 2.78878 4.00789C2.8087 3.99413 2.825 3.96899 2.825 3.952C2.825 3.93503 2.83315 3.92114 2.84311 3.92114C2.85307 3.92114 2.86122 3.90724 2.86122 3.89027C2.86122 3.87328 2.87752 3.84814 2.89744 3.83438C2.91736 3.82063 2.93365 3.7972 2.93365 3.78233C2.93365 3.76747 2.94995 3.74404 2.96987 3.73028C2.98979 3.71653 3.00609 3.69451 3.00609 3.68136C3.00609 3.66822 3.03054 3.63557 3.06042 3.60883C3.0903 3.5821 3.11474 3.55102 3.11474 3.53978C3.11474 3.52855 3.14734 3.48936 3.18718 3.45268C3.22702 3.416 3.25962 3.37738 3.25962 3.36683C3.25962 3.34188 3.41561 3.19243 3.44165 3.19243C3.45266 3.19243 3.49297 3.1612 3.53125 3.12303C3.56953 3.08486 3.61028 3.05363 3.62179 3.05363C3.63331 3.05363 3.67406 3.0224 3.71234 2.98423C3.75062 2.94606 3.793 2.91483 3.80652 2.91483C3.82005 2.91483 3.84285 2.89921 3.85721 2.88013C3.87157 2.86104 3.89602 2.84543 3.91154 2.84543C3.92706 2.84543 3.9515 2.82981 3.96587 2.81073C3.98023 2.79164 4.00647 2.77603 4.02419 2.77603C4.0419 2.77603 4.05641 2.76822 4.05641 2.75868C4.05641 2.74913 4.07092 2.74132 4.08863 2.74132C4.10635 2.74132 4.13259 2.72571 4.14696 2.70662C4.16132 2.68754 4.18576 2.67192 4.20128 2.67192C4.2168 2.67192 4.24125 2.65631 4.25561 2.63722C4.26997 2.61814 4.29621 2.60252 4.31394 2.60252C4.33165 2.60252 4.34615 2.59472 4.34615 2.58517C4.34615 2.57563 4.36245 2.56782 4.38237 2.56782C4.40229 2.56782 4.41859 2.56002 4.41859 2.55047C4.41859 2.54093 4.43489 2.53312 4.45481 2.53312C4.47473 2.53312 4.49103 2.52532 4.49103 2.51577C4.49103 2.50623 4.50732 2.49842 4.52724 2.49842C4.54716 2.49842 4.56346 2.49062 4.56346 2.48107C4.56346 2.47153 4.57976 2.46372 4.59968 2.46372C4.6196 2.46372 4.6359 2.45591 4.6359 2.44637C4.6359 2.43683 4.6522 2.42902 4.67212 2.42902C4.69204 2.42902 4.70833 2.42121 4.70833 2.41167C4.70833 2.40213 4.73278 2.39432 4.76266 2.39432C4.79254 2.39432 4.81699 2.38651 4.81699 2.37697C4.81699 2.36743 4.84143 2.35962 4.87131 2.35962C4.90119 2.35962 4.92564 2.35181 4.92564 2.34227C4.92564 2.33273 4.95009 2.32492 4.97997 2.32492C5.00985 2.32492 5.03429 2.31711 5.03429 2.30757C5.03429 2.29803 5.05874 2.29022 5.08862 2.29022C5.1185 2.29022 5.14295 2.28241 5.14295 2.27287C5.14295 2.26333 5.17554 2.25552 5.21538 2.25552C5.25522 2.25552 5.28782 2.24771 5.28782 2.23817C5.28782 2.22863 5.32857 2.22082 5.37837 2.22082C5.42816 2.22082 5.46891 2.21301 5.46891 2.20347C5.46891 2.19393 5.50965 2.18612 5.55945 2.18612C5.60925 2.18612 5.65 2.17831 5.65 2.16877C5.65 2.15912 5.6983 2.15142 5.75865 2.15142C5.81901 2.15142 5.86731 2.14372 5.86731 2.13407C5.86731 2.12453 5.8999 2.11672 5.93974 2.11672C5.97958 2.11672 6.01218 2.10891 6.01218 2.09937C6.01218 2.08946 6.06651 2.08202 6.13894 2.08202C6.21138 2.08202 6.2657 2.07458 6.2657 2.06467C6.2657 2.05455 6.32606 2.04732 6.41058 2.04732C6.49509 2.04732 6.55545 2.04008 6.55545 2.02997C6.55545 2.0193 6.64599 2.01262 6.79086 2.01262C6.93574 2.01262 7.02628 2.00594 7.02628 1.99527C7.02628 1.98418 7.18323 1.97792 7.4609 1.97792C7.73856 1.97792 7.89551 1.97165 7.89551 1.96057C7.89551 1.94906 9.04241 1.94322 11.3 1.94322C13.5576 1.94322 14.7045 1.94906 14.7045 1.96057ZM17.3484 3.76498C17.3484 3.77453 17.3239 3.78233 17.2941 3.78233C17.2642 3.78233 17.2397 3.79014 17.2397 3.79968C17.2397 3.80923 17.2153 3.81703 17.1854 3.81703C17.1555 3.81703 17.1311 3.82484 17.1311 3.83438C17.1311 3.84393 17.1148 3.85174 17.0949 3.85174C17.075 3.85174 17.0587 3.85954 17.0587 3.86909C17.0587 3.87863 17.0424 3.88644 17.0224 3.88644C17.0025 3.88644 16.9862 3.89424 16.9862 3.90379C16.9862 3.91333 16.9732 3.92114 16.9573 3.92114C16.9413 3.92114 16.9055 3.94456 16.8776 3.97319C16.8497 4.00181 16.8177 4.02524 16.8066 4.02524C16.7803 4.02524 16.5154 4.27903 16.5154 4.30428C16.5154 4.31492 16.4909 4.3455 16.4611 4.37224C16.4312 4.39898 16.4067 4.43335 16.4067 4.4486C16.4067 4.46387 16.3986 4.47634 16.3886 4.47634C16.3787 4.47634 16.3705 4.49196 16.3705 4.51104C16.3705 4.53013 16.3624 4.54574 16.3524 4.54574C16.3424 4.54574 16.3343 4.56136 16.3343 4.58044C16.3343 4.59953 16.3261 4.61514 16.3162 4.61514C16.3062 4.61514 16.2981 4.63856 16.2981 4.66719C16.2981 4.69582 16.2899 4.71924 16.28 4.71924C16.27 4.71924 16.2619 4.75047 16.2619 4.78864C16.2619 4.82681 16.2537 4.85804 16.2437 4.85804C16.2327 4.85804 16.2256 4.93902 16.2256 5.06625C16.2256 5.19347 16.2327 5.27445 16.2437 5.27445C16.2537 5.27445 16.2619 5.31349 16.2619 5.3612C16.2619 5.40891 16.27 5.44795 16.28 5.44795C16.2899 5.44795 16.2981 5.46356 16.2981 5.48265C16.2981 5.50174 16.3062 5.51735 16.3162 5.51735C16.3261 5.51735 16.3343 5.53905 16.3343 5.56557C16.3343 5.59388 16.3493 5.62411 16.3705 5.6388C16.3904 5.65256 16.4067 5.6777 16.4067 5.69469C16.4067 5.71165 16.4149 5.72555 16.4248 5.72555C16.4348 5.72555 16.4429 5.73803 16.4429 5.75329C16.4429 5.76855 16.4674 5.80292 16.4973 5.82965C16.5272 5.85639 16.5516 5.88706 16.5516 5.8978C16.5516 5.92301 16.7074 6.07256 16.7336 6.07256C16.7446 6.07256 16.785 6.10379 16.8232 6.14196C16.8615 6.18013 16.9057 6.21136 16.9214 6.21136C16.9371 6.21136 16.95 6.21916 16.95 6.22871C16.95 6.23825 16.9663 6.24606 16.9862 6.24606C17.0061 6.24606 17.0224 6.25386 17.0224 6.26341C17.0224 6.27295 17.0387 6.28076 17.0587 6.28076C17.0786 6.28076 17.0949 6.28856 17.0949 6.29811C17.0949 6.30765 17.1112 6.31546 17.1311 6.31546C17.151 6.31546 17.1673 6.32327 17.1673 6.33281C17.1673 6.34235 17.1918 6.35016 17.2216 6.35016C17.2515 6.35016 17.276 6.35797 17.276 6.36751C17.276 6.37705 17.3167 6.38486 17.3665 6.38486C17.4163 6.38486 17.4571 6.39267 17.4571 6.40221C17.4571 6.41232 17.5174 6.41956 17.6019 6.41956C17.6864 6.41956 17.7468 6.41232 17.7468 6.40221C17.7468 6.39256 17.7951 6.38486 17.8554 6.38486C17.9158 6.38486 17.9641 6.37715 17.9641 6.36751C17.9641 6.35797 17.9885 6.35016 18.0184 6.35016C18.0483 6.35016 18.0728 6.34235 18.0728 6.33281C18.0728 6.32327 18.0891 6.31546 18.109 6.31546C18.1289 6.31546 18.1452 6.30765 18.1452 6.29811C18.1452 6.28856 18.1615 6.28076 18.1814 6.28076C18.2013 6.28076 18.2176 6.27295 18.2176 6.26341C18.2176 6.25386 18.2321 6.24606 18.2498 6.24606C18.2676 6.24606 18.2938 6.23044 18.3082 6.21136C18.3225 6.19227 18.3455 6.17666 18.3592 6.17666C18.3729 6.17666 18.407 6.15323 18.4349 6.12461C18.4628 6.09598 18.495 6.07256 18.5064 6.07256C18.5369 6.07256 18.616 5.9917 18.616 5.96056C18.616 5.94533 18.6317 5.93375 18.6522 5.93375C18.6734 5.93375 18.6885 5.92218 18.6885 5.90601C18.6885 5.89076 18.7129 5.85639 18.7428 5.82965C18.7727 5.80292 18.7971 5.76855 18.7971 5.75329C18.7971 5.73803 18.8053 5.72555 18.8152 5.72555C18.8252 5.72555 18.8333 5.70994 18.8333 5.69085C18.8333 5.67177 18.8415 5.65615 18.8514 5.65615C18.8614 5.65615 18.8696 5.64054 18.8696 5.62145C18.8696 5.60237 18.8777 5.58675 18.8877 5.58675C18.8976 5.58675 18.9058 5.57114 18.9058 5.55205C18.9058 5.53297 18.9139 5.51735 18.9239 5.51735C18.9338 5.51735 18.942 5.49393 18.942 5.4653C18.942 5.43667 18.9501 5.41325 18.9601 5.41325C18.9701 5.41325 18.9782 5.37421 18.9782 5.3265C18.9782 5.27879 18.9864 5.23975 18.9963 5.23975C19.0072 5.23975 19.0144 5.17035 19.0144 5.06625C19.0144 4.96215 19.0072 4.89274 18.9963 4.89274C18.9864 4.89274 18.9782 4.85371 18.9782 4.80599C18.9782 4.75828 18.9701 4.71924 18.9601 4.71924C18.9501 4.71924 18.942 4.69582 18.942 4.66719C18.942 4.63856 18.9338 4.61514 18.9239 4.61514C18.9139 4.61514 18.9058 4.59953 18.9058 4.58044C18.9058 4.56136 18.8976 4.54574 18.8877 4.54574C18.8777 4.54574 18.8696 4.53013 18.8696 4.51104C18.8696 4.49196 18.8614 4.47634 18.8514 4.47634C18.8415 4.47634 18.8333 4.46387 18.8333 4.4486C18.8333 4.43335 18.8089 4.39898 18.779 4.37224C18.7491 4.3455 18.7247 4.31493 18.7247 4.30431C18.7247 4.27721 18.4225 3.99054 18.3939 3.99054C18.381 3.99054 18.3588 3.97492 18.3444 3.95584C18.33 3.93675 18.3038 3.92114 18.2861 3.92114C18.2684 3.92114 18.2538 3.91333 18.2538 3.90379C18.2538 3.89424 18.2375 3.88644 18.2176 3.88644C18.1977 3.88644 18.1814 3.87863 18.1814 3.86909C18.1814 3.85954 18.1651 3.85174 18.1452 3.85174C18.1253 3.85174 18.109 3.84393 18.109 3.83438C18.109 3.82484 18.0927 3.81703 18.0728 3.81703C18.0528 3.81703 18.0365 3.80923 18.0365 3.79968C18.0365 3.79014 18.0039 3.78233 17.9641 3.78233C17.9243 3.78233 17.8917 3.77453 17.8917 3.76498C17.8917 3.75419 17.789 3.74763 17.62 3.74763C17.451 3.74763 17.3484 3.75419 17.3484 3.76498ZM10.7929 5.3612C10.7929 5.37131 10.7326 5.37855 10.6481 5.37855C10.5636 5.37855 10.5032 5.38578 10.5032 5.3959C10.5032 5.40555 10.4549 5.41325 10.3946 5.41325C10.3342 5.41325 10.2859 5.42095 10.2859 5.4306C10.2859 5.44014 10.2452 5.44795 10.1954 5.44795C10.1456 5.44795 10.1048 5.45576 10.1048 5.4653C10.1048 5.47484 10.0641 5.48265 10.0143 5.48265C9.96446 5.48265 9.92372 5.49046 9.92372 5.5C9.92372 5.50954 9.89927 5.51735 9.86939 5.51735C9.83951 5.51735 9.81506 5.52516 9.81506 5.5347C9.81506 5.54424 9.78247 5.55205 9.74263 5.55205C9.70279 5.55205 9.67019 5.55986 9.67019 5.5694C9.67019 5.57894 9.64574 5.58675 9.61586 5.58675C9.58599 5.58675 9.56154 5.59456 9.56154 5.6041C9.56154 5.61364 9.53709 5.62145 9.50721 5.62145C9.47733 5.62145 9.45288 5.62926 9.45288 5.6388C9.45288 5.64834 9.42844 5.65615 9.39856 5.65615C9.36868 5.65615 9.34423 5.66396 9.34423 5.6735C9.34423 5.68304 9.32793 5.69085 9.30801 5.69085C9.28809 5.69085 9.27179 5.69866 9.27179 5.7082C9.27179 5.71774 9.24735 5.72555 9.21747 5.72555C9.18759 5.72555 9.16314 5.73336 9.16314 5.7429C9.16314 5.75244 9.14684 5.76025 9.12692 5.76025C9.107 5.76025 9.0907 5.76806 9.0907 5.7776C9.0907 5.78715 9.06626 5.79495 9.03638 5.79495C9.0065 5.79495 8.98205 5.80276 8.98205 5.8123C8.98205 5.82185 8.96575 5.82965 8.94583 5.82965C8.92591 5.82965 8.90961 5.83746 8.90961 5.847C8.90961 5.85655 8.89332 5.86435 8.8734 5.86435C8.85348 5.86435 8.83718 5.87216 8.83718 5.8817C8.83718 5.89125 8.82088 5.89905 8.80096 5.89905C8.78104 5.89905 8.76474 5.90686 8.76474 5.9164C8.76474 5.92595 8.74844 5.93375 8.72853 5.93375C8.7086 5.93375 8.69231 5.94156 8.69231 5.9511C8.69231 5.96065 8.6778 5.96845 8.66009 5.96845C8.64236 5.96845 8.61612 5.98407 8.60176 6.00315C8.5874 6.02224 8.56116 6.03785 8.54343 6.03785C8.52572 6.03785 8.51122 6.04566 8.51122 6.0552C8.51122 6.06475 8.49671 6.07256 8.479 6.07256C8.46127 6.07256 8.43503 6.08817 8.42067 6.10726C8.40631 6.12634 8.38007 6.14196 8.36234 6.14196C8.34463 6.14196 8.33013 6.14976 8.33013 6.15931C8.33013 6.16885 8.31562 6.17666 8.29791 6.17666C8.28018 6.17666 8.25394 6.19227 8.23958 6.21136C8.22522 6.23044 8.20224 6.24606 8.18852 6.24606C8.17481 6.24606 8.14073 6.26948 8.11282 6.29811C8.08491 6.32674 8.05083 6.35016 8.03712 6.35016C8.0234 6.35016 8.00042 6.36577 7.98606 6.38486C7.9717 6.40394 7.9489 6.41956 7.93537 6.41956C7.92184 6.41956 7.87947 6.45079 7.84119 6.48896C7.8029 6.52713 7.76227 6.55836 7.75088 6.55836C7.7395 6.55836 7.6905 6.5974 7.64199 6.64511C7.59347 6.69282 7.54501 6.73186 7.53429 6.73186C7.50903 6.73186 7.13494 7.09002 7.13494 7.11421C7.13494 7.12432 7.07789 7.18649 7.00817 7.25237C6.93845 7.31824 6.88141 7.38093 6.88141 7.39169C6.88141 7.40245 6.84881 7.44124 6.80897 7.47792C6.76913 7.5146 6.73654 7.55379 6.73654 7.56502C6.73654 7.57626 6.71209 7.60733 6.68221 7.63407C6.65233 7.66081 6.62788 7.69346 6.62788 7.70659C6.62788 7.71974 6.61159 7.74176 6.59167 7.75552C6.57175 7.76928 6.55545 7.7927 6.55545 7.80757C6.55545 7.82244 6.53915 7.84586 6.51923 7.85962C6.49931 7.87338 6.48301 7.8968 6.48301 7.91167C6.48301 7.92654 6.46671 7.94996 6.44679 7.96372C6.42687 7.97748 6.41058 8.0009 6.41058 8.01577C6.41058 8.03064 6.39428 8.05406 6.37436 8.06782C6.35444 8.08158 6.33814 8.10672 6.33814 8.12371C6.33814 8.14068 6.32999 8.15457 6.32003 8.15457C6.31007 8.15457 6.30192 8.17019 6.30192 8.18927C6.30192 8.20836 6.29377 8.22398 6.28381 8.22398C6.27385 8.22398 6.2657 8.23787 6.2657 8.25484C6.2657 8.27183 6.24941 8.29697 6.22949 8.31073C6.20957 8.32448 6.19327 8.34962 6.19327 8.36661C6.19327 8.38358 6.18512 8.39748 6.17516 8.39748C6.1652 8.39748 6.15705 8.41309 6.15705 8.43218C6.15705 8.45126 6.1489 8.46688 6.13894 8.46688C6.12898 8.46688 6.12083 8.48858 6.12083 8.51509C6.12083 8.54341 6.10588 8.57363 6.08462 8.58833C6.0647 8.60209 6.0484 8.62723 6.0484 8.64421C6.0484 8.66118 6.04025 8.67508 6.03029 8.67508C6.02033 8.67508 6.01218 8.6985 6.01218 8.72713C6.01218 8.75576 6.00403 8.77918 5.99407 8.77918C5.98411 8.77918 5.97596 8.7948 5.97596 8.81388C5.97596 8.83296 5.96781 8.84858 5.95785 8.84858C5.94789 8.84858 5.93974 8.872 5.93974 8.90063C5.93974 8.92926 5.93159 8.95268 5.92163 8.95268C5.91167 8.95268 5.90353 8.9761 5.90353 9.00473C5.90353 9.03336 5.89538 9.05678 5.88542 9.05678C5.87546 9.05678 5.86731 9.0724 5.86731 9.09148C5.86731 9.11057 5.85916 9.12618 5.8492 9.12618C5.83924 9.12618 5.83109 9.15741 5.83109 9.19558C5.83109 9.23375 5.82294 9.26498 5.81298 9.26498C5.80302 9.26498 5.79487 9.28841 5.79487 9.31703C5.79487 9.34566 5.78672 9.36909 5.77676 9.36909C5.7668 9.36909 5.75865 9.40032 5.75865 9.43849C5.75865 9.47666 5.7505 9.50789 5.74054 9.50789C5.73058 9.50789 5.72244 9.53131 5.72244 9.55994C5.72244 9.58856 5.71429 9.61199 5.70433 9.61199C5.69437 9.61199 5.68622 9.65102 5.68622 9.69874C5.68622 9.74645 5.67807 9.78549 5.66811 9.78549C5.65815 9.78549 5.65 9.82453 5.65 9.87224C5.65 9.91995 5.64185 9.95899 5.63189 9.95899C5.62155 9.95899 5.61378 10.011 5.61378 10.0804C5.61378 10.1498 5.60601 10.2019 5.59567 10.2019C5.5847 10.2019 5.57756 10.2771 5.57756 10.3927C5.57756 10.5084 5.57043 10.5836 5.55945 10.5836C5.54788 10.5836 5.54135 10.734 5.54135 11C5.54135 11.266 5.54788 11.4164 5.55945 11.4164C5.57032 11.4164 5.57756 11.4858 5.57756 11.5899C5.57756 11.694 5.58481 11.7634 5.59567 11.7634C5.60601 11.7634 5.61378 11.8155 5.61378 11.8849C5.61378 11.9543 5.62155 12.0063 5.63189 12.0063C5.64196 12.0063 5.65 12.0526 5.65 12.1104C5.65 12.1682 5.65804 12.2145 5.66811 12.2145C5.67807 12.2145 5.68622 12.2457 5.68622 12.2839C5.68622 12.3221 5.69437 12.3533 5.70433 12.3533C5.71429 12.3533 5.72244 12.3845 5.72244 12.4227C5.72244 12.4609 5.73058 12.4921 5.74054 12.4921C5.7505 12.4921 5.75865 12.5155 5.75865 12.5442C5.75865 12.5728 5.7668 12.5962 5.77676 12.5962C5.78672 12.5962 5.79487 12.6274 5.79487 12.6656C5.79487 12.7038 5.80302 12.735 5.81298 12.735C5.82294 12.735 5.83109 12.7584 5.83109 12.7871C5.83109 12.8157 5.83924 12.8391 5.8492 12.8391C5.85916 12.8391 5.86731 12.8625 5.86731 12.8912C5.86731 12.9198 5.87546 12.9432 5.88542 12.9432C5.89538 12.9432 5.90353 12.9666 5.90353 12.9953C5.90353 13.0239 5.91167 13.0473 5.92163 13.0473C5.93159 13.0473 5.93974 13.0629 5.93974 13.082C5.93974 13.1011 5.94789 13.1167 5.95785 13.1167C5.96781 13.1167 5.97596 13.1401 5.97596 13.1688C5.97596 13.1974 5.98411 13.2208 5.99407 13.2208C6.00403 13.2208 6.01218 13.2364 6.01218 13.2555C6.01218 13.2746 6.02033 13.2902 6.03029 13.2902C6.04025 13.2902 6.0484 13.3058 6.0484 13.3249C6.0484 13.344 6.05655 13.3596 6.06651 13.3596C6.07647 13.3596 6.08462 13.3752 6.08462 13.3943C6.08462 13.4134 6.09276 13.429 6.10272 13.429C6.11268 13.429 6.12083 13.4446 6.12083 13.4637C6.12083 13.4828 6.12898 13.4984 6.13894 13.4984C6.1489 13.4984 6.15705 13.514 6.15705 13.5331C6.15705 13.5522 6.1652 13.5678 6.17516 13.5678C6.18512 13.5678 6.19327 13.5895 6.19327 13.616C6.19327 13.6444 6.20823 13.6746 6.22949 13.6893C6.24941 13.703 6.2657 13.7282 6.2657 13.7452C6.2657 13.7621 6.27385 13.776 6.28381 13.776C6.29377 13.776 6.30192 13.7916 6.30192 13.8107C6.30192 13.8298 6.31007 13.8454 6.32003 13.8454C6.32999 13.8454 6.33814 13.8579 6.33814 13.8732C6.33814 13.8884 6.36259 13.9228 6.39247 13.9495C6.42235 13.9763 6.44679 14.0106 6.44679 14.0259C6.44679 14.0412 6.45494 14.0536 6.4649 14.0536C6.47486 14.0536 6.48301 14.0675 6.48301 14.0845C6.48301 14.1015 6.49931 14.1266 6.51923 14.1404C6.53915 14.1541 6.55545 14.1776 6.55545 14.1924C6.55545 14.2073 6.57175 14.2307 6.59167 14.2445C6.61159 14.2582 6.62788 14.2803 6.62788 14.2934C6.62788 14.3065 6.65233 14.3392 6.68221 14.3659C6.71209 14.3927 6.73654 14.4236 6.73654 14.4347C6.73654 14.4458 6.77728 14.493 6.82708 14.5394C6.87688 14.5859 6.91763 14.6323 6.91763 14.6425C6.91763 14.6668 7.50901 15.2334 7.53437 15.2334C7.54505 15.2334 7.59347 15.2725 7.64199 15.3202C7.6905 15.3679 7.7395 15.4069 7.75088 15.4069C7.76227 15.4069 7.8029 15.4382 7.84119 15.4763C7.87947 15.5145 7.92184 15.5457 7.93537 15.5457C7.9489 15.5457 7.9717 15.5614 7.98606 15.5804C8.00042 15.5995 8.0234 15.6151 8.03712 15.6151C8.05083 15.6151 8.08491 15.6386 8.11282 15.6672C8.14073 15.6958 8.17481 15.7192 8.18852 15.7192C8.20224 15.7192 8.22522 15.7349 8.23958 15.7539C8.25394 15.773 8.28018 15.7886 8.29791 15.7886C8.31562 15.7886 8.33013 15.7965 8.33013 15.806C8.33013 15.8155 8.34463 15.8233 8.36234 15.8233C8.38007 15.8233 8.40631 15.839 8.42067 15.858C8.43503 15.8771 8.46127 15.8927 8.479 15.8927C8.49671 15.8927 8.51122 15.9006 8.51122 15.9101C8.51122 15.9196 8.52752 15.9274 8.54744 15.9274C8.56736 15.9274 8.58365 15.9353 8.58365 15.9448C8.58365 15.9543 8.59816 15.9621 8.61587 15.9621C8.6336 15.9621 8.65984 15.9778 8.6742 15.9968C8.68856 16.0159 8.7148 16.0315 8.73253 16.0315C8.75024 16.0315 8.76474 16.0394 8.76474 16.0489C8.76474 16.0584 8.78919 16.0662 8.81907 16.0662C8.84895 16.0662 8.8734 16.0741 8.8734 16.0836C8.8734 16.0931 8.8897 16.1009 8.90961 16.1009C8.92953 16.1009 8.94583 16.1088 8.94583 16.1183C8.94583 16.1278 8.96213 16.1356 8.98205 16.1356C9.00197 16.1356 9.01827 16.1435 9.01827 16.153C9.01827 16.1625 9.03457 16.1703 9.05449 16.1703C9.07441 16.1703 9.0907 16.1782 9.0907 16.1877C9.0907 16.1972 9.107 16.205 9.12692 16.205C9.14684 16.205 9.16314 16.2129 9.16314 16.2224C9.16314 16.2319 9.18759 16.2397 9.21747 16.2397C9.24735 16.2397 9.27179 16.2476 9.27179 16.2571C9.27179 16.2666 9.28809 16.2744 9.30801 16.2744C9.32793 16.2744 9.34423 16.2823 9.34423 16.2918C9.34423 16.3013 9.36868 16.3091 9.39856 16.3091C9.42844 16.3091 9.45288 16.317 9.45288 16.3265C9.45288 16.336 9.47733 16.3438 9.50721 16.3438C9.53709 16.3438 9.56154 16.3517 9.56154 16.3612C9.56154 16.3707 9.58599 16.3785 9.61586 16.3785C9.64574 16.3785 9.67019 16.3864 9.67019 16.3959C9.67019 16.4054 9.69464 16.4132 9.72452 16.4132C9.7544 16.4132 9.77885 16.4211 9.77885 16.4306C9.77885 16.4401 9.81144 16.448 9.85128 16.448C9.89112 16.448 9.92372 16.4558 9.92372 16.4653C9.92372 16.4748 9.95631 16.4827 9.99615 16.4827C10.036 16.4827 10.0686 16.4905 10.0686 16.5C10.0686 16.5095 10.1012 16.5173 10.141 16.5173C10.1809 16.5173 10.2135 16.5252 10.2135 16.5347C10.2135 16.5448 10.2738 16.552 10.3583 16.552C10.4428 16.552 10.5032 16.5593 10.5032 16.5694C10.5032 16.579 10.5515 16.5868 10.6119 16.5868C10.6722 16.5868 10.7205 16.5945 10.7205 16.6041C10.7205 16.6148 10.8171 16.6215 10.974 16.6215C11.131 16.6215 11.2276 16.6281 11.2276 16.6388C11.2276 16.6638 11.295 16.6602 11.3076 16.6345C11.316 16.6171 11.3202 16.6171 11.3287 16.6345C11.3415 16.6607 11.5535 16.6648 11.5535 16.6388C11.5535 16.6279 11.6743 16.6215 11.8795 16.6215C12.0847 16.6215 12.2054 16.615 12.2054 16.6041C12.2054 16.5942 12.2598 16.5868 12.3322 16.5868C12.4046 16.5868 12.459 16.5793 12.459 16.5694C12.459 16.5599 12.4997 16.552 12.5495 16.552C12.5993 16.552 12.6401 16.5442 12.6401 16.5347C12.6401 16.5252 12.6808 16.5173 12.7306 16.5173C12.7804 16.5173 12.8212 16.5095 12.8212 16.5C12.8212 16.4905 12.8619 16.4827 12.9117 16.4827C12.9615 16.4827 13.0022 16.4748 13.0022 16.4653C13.0022 16.4558 13.0267 16.448 13.0566 16.448C13.0864 16.448 13.1109 16.4401 13.1109 16.4306C13.1109 16.4211 13.1435 16.4132 13.1833 16.4132C13.2232 16.4132 13.2558 16.4054 13.2558 16.3959C13.2558 16.3864 13.2802 16.3785 13.3101 16.3785C13.34 16.3785 13.3644 16.3707 13.3644 16.3612C13.3644 16.3517 13.3889 16.3438 13.4187 16.3438C13.4486 16.3438 13.4731 16.336 13.4731 16.3265C13.4731 16.317 13.4975 16.3091 13.5274 16.3091C13.5573 16.3091 13.5817 16.3013 13.5817 16.2918C13.5817 16.2823 13.598 16.2744 13.6179 16.2744C13.6379 16.2744 13.6542 16.2666 13.6542 16.2571C13.6542 16.2476 13.6786 16.2397 13.7085 16.2397C13.7384 16.2397 13.7628 16.2319 13.7628 16.2224C13.7628 16.2129 13.7791 16.205 13.799 16.205C13.819 16.205 13.8353 16.1972 13.8353 16.1877C13.8353 16.1782 13.8516 16.1703 13.8715 16.1703C13.8914 16.1703 13.9077 16.1625 13.9077 16.153C13.9077 16.1435 13.924 16.1356 13.9439 16.1356C13.9638 16.1356 13.9801 16.1278 13.9801 16.1183C13.9801 16.1088 13.9964 16.1009 14.0163 16.1009C14.0363 16.1009 14.0526 16.0931 14.0526 16.0836C14.0526 16.0741 14.0689 16.0662 14.0888 16.0662C14.1087 16.0662 14.125 16.0584 14.125 16.0489C14.125 16.0394 14.1413 16.0315 14.1612 16.0315C14.1811 16.0315 14.1974 16.0237 14.1974 16.0142C14.1974 16.0047 14.2137 15.9968 14.2337 15.9968C14.2536 15.9968 14.2699 15.989 14.2699 15.9795C14.2699 15.97 14.2862 15.9621 14.3061 15.9621C14.326 15.9621 14.3423 15.9543 14.3423 15.9448C14.3423 15.9353 14.3568 15.9274 14.3745 15.9274C14.3923 15.9274 14.4185 15.9118 14.4329 15.8927C14.4472 15.8737 14.4735 15.858 14.4912 15.858C14.5089 15.858 14.5234 15.8502 14.5234 15.8407C14.5234 15.8312 14.5379 15.8233 14.5556 15.8233C14.5733 15.8233 14.5996 15.8077 14.6139 15.7886C14.6283 15.7696 14.6527 15.7539 14.6683 15.7539C14.6838 15.7539 14.7082 15.7383 14.7226 15.7192C14.737 15.7002 14.7599 15.6845 14.7737 15.6845C14.7874 15.6845 14.8215 15.6611 14.8494 15.6325C14.8773 15.6039 14.9099 15.5804 14.9218 15.5804C14.9337 15.5804 14.9663 15.557 14.9942 15.5284C15.0221 15.4998 15.0546 15.4763 15.0663 15.4763C15.078 15.4763 15.1189 15.4451 15.1572 15.4069C15.1955 15.3688 15.2357 15.3375 15.2465 15.3375C15.2769 15.3375 15.8997 14.7339 15.8997 14.7044C15.8997 14.6898 15.9157 14.6782 15.9359 14.6782C15.9586 14.6782 15.9721 14.6667 15.9721 14.6474C15.9721 14.6304 15.9884 14.6052 16.0083 14.5915C16.0283 14.5777 16.0445 14.5559 16.0445 14.5429C16.0445 14.53 16.0771 14.4894 16.117 14.4527C16.1568 14.416 16.1894 14.3768 16.1894 14.3656C16.1894 14.3543 16.2139 14.3233 16.2437 14.2965C16.2736 14.2698 16.2981 14.2371 16.2981 14.224C16.2981 14.2109 16.3144 14.1888 16.3343 14.1751C16.3542 14.1613 16.3705 14.1379 16.3705 14.123C16.3705 14.1082 16.3868 14.0847 16.4067 14.071C16.4266 14.0572 16.4429 14.0338 16.4429 14.0189C16.4429 14.0041 16.4592 13.9806 16.4792 13.9669C16.4991 13.9531 16.5154 13.928 16.5154 13.911C16.5154 13.894 16.5235 13.8801 16.5335 13.8801C16.5435 13.8801 16.5516 13.8645 16.5516 13.8454C16.5516 13.8263 16.5598 13.8107 16.5697 13.8107C16.5797 13.8107 16.5878 13.7968 16.5878 13.7799C16.5878 13.7629 16.6041 13.7377 16.624 13.724C16.644 13.7102 16.6603 13.6851 16.6603 13.6681C16.6603 13.6511 16.6684 13.6372 16.6784 13.6372C16.6883 13.6372 16.6965 13.6216 16.6965 13.6025C16.6965 13.5834 16.7046 13.5678 16.7146 13.5678C16.7245 13.5678 16.7327 13.5522 16.7327 13.5331C16.7327 13.514 16.7408 13.4984 16.7508 13.4984C16.7608 13.4984 16.7689 13.4828 16.7689 13.4637C16.7689 13.4446 16.7771 13.429 16.787 13.429C16.797 13.429 16.8051 13.4134 16.8051 13.3943C16.8051 13.3752 16.8133 13.3596 16.8232 13.3596C16.8332 13.3596 16.8413 13.344 16.8413 13.3249C16.8413 13.3058 16.8495 13.2902 16.8595 13.2902C16.8694 13.2902 16.8776 13.2746 16.8776 13.2555C16.8776 13.2364 16.8857 13.2208 16.8957 13.2208C16.9056 13.2208 16.9138 13.1974 16.9138 13.1688C16.9138 13.1401 16.9219 13.1167 16.9319 13.1167C16.9419 13.1167 16.95 13.1011 16.95 13.082C16.95 13.0629 16.9581 13.0473 16.9681 13.0473C16.9781 13.0473 16.9862 13.0239 16.9862 12.9953C16.9862 12.9666 16.9944 12.9432 17.0043 12.9432C17.0143 12.9432 17.0224 12.9198 17.0224 12.8912C17.0224 12.8625 17.0306 12.8391 17.0405 12.8391C17.0505 12.8391 17.0587 12.8157 17.0587 12.7871C17.0587 12.7584 17.0668 12.735 17.0768 12.735C17.0867 12.735 17.0949 12.7116 17.0949 12.683C17.0949 12.6543 17.103 12.6309 17.113 12.6309C17.1229 12.6309 17.1311 12.5997 17.1311 12.5615C17.1311 12.5233 17.1392 12.4921 17.1492 12.4921C17.1592 12.4921 17.1673 12.4609 17.1673 12.4227C17.1673 12.3845 17.1755 12.3533 17.1854 12.3533C17.1954 12.3533 17.2035 12.3143 17.2035 12.2666C17.2035 12.2188 17.2117 12.1798 17.2216 12.1798C17.2316 12.1798 17.2397 12.1486 17.2397 12.1104C17.2397 12.0722 17.2479 12.041 17.2579 12.041C17.2682 12.041 17.276 11.989 17.276 11.9196C17.276 11.8502 17.2837 11.7981 17.2941 11.7981C17.3048 11.7981 17.3122 11.7345 17.3122 11.642C17.3122 11.5494 17.3195 11.4858 17.3303 11.4858C17.3419 11.4858 17.3484 11.3123 17.3484 11C17.3484 10.6877 17.3419 10.5142 17.3303 10.5142C17.3193 10.5142 17.3122 10.439 17.3122 10.3233C17.3122 10.2077 17.305 10.1325 17.2941 10.1325C17.2841 10.1325 17.276 10.0935 17.276 10.0457C17.276 9.99803 17.2678 9.95899 17.2579 9.95899C17.2478 9.95899 17.2397 9.91272 17.2397 9.85489C17.2397 9.79706 17.2317 9.75079 17.2216 9.75079C17.2117 9.75079 17.2035 9.71175 17.2035 9.66404C17.2035 9.61633 17.1954 9.57729 17.1854 9.57729C17.1755 9.57729 17.1673 9.55386 17.1673 9.52524C17.1673 9.49661 17.1592 9.47319 17.1492 9.47319C17.1392 9.47319 17.1311 9.44196 17.1311 9.40379C17.1311 9.36561 17.1229 9.33438 17.113 9.33438C17.103 9.33438 17.0949 9.31096 17.0949 9.28233C17.0949 9.25371 17.0867 9.23028 17.0768 9.23028C17.0668 9.23028 17.0587 9.20686 17.0587 9.17823C17.0587 9.14961 17.0505 9.12618 17.0405 9.12618C17.0306 9.12618 17.0224 9.10276 17.0224 9.07413C17.0224 9.0455 17.0143 9.02208 17.0043 9.02208C16.9944 9.02208 16.9862 8.99866 16.9862 8.97003C16.9862 8.9414 16.9781 8.91798 16.9681 8.91798C16.9581 8.91798 16.95 8.90237 16.95 8.88328C16.95 8.8642 16.9419 8.84858 16.9319 8.84858C16.9219 8.84858 16.9138 8.82516 16.9138 8.79653C16.9138 8.7679 16.9056 8.74448 16.8957 8.74448C16.8857 8.74448 16.8776 8.72886 16.8776 8.70978C16.8776 8.69069 16.8694 8.67508 16.8595 8.67508C16.8495 8.67508 16.8413 8.65166 16.8413 8.62303C16.8413 8.5944 16.8332 8.57098 16.8232 8.57098C16.8133 8.57098 16.8051 8.55536 16.8051 8.53628C16.8051 8.51719 16.797 8.50158 16.787 8.50158C16.7771 8.50158 16.7689 8.48596 16.7689 8.46688C16.7689 8.44779 16.7608 8.43218 16.7508 8.43218C16.7408 8.43218 16.7327 8.41656 16.7327 8.39748C16.7327 8.37839 16.7245 8.36278 16.7146 8.36278C16.7046 8.36278 16.6965 8.34888 16.6965 8.33191C16.6965 8.31492 16.6802 8.28978 16.6603 8.27602C16.6403 8.26227 16.624 8.23713 16.624 8.22014C16.624 8.20317 16.6159 8.18927 16.6059 8.18927C16.596 8.18927 16.5878 8.17366 16.5878 8.15457C16.5878 8.13549 16.5797 8.11987 16.5697 8.11987C16.5598 8.11987 16.5516 8.10598 16.5516 8.08901C16.5516 8.07202 16.5353 8.04688 16.5154 8.03312C16.4955 8.01936 16.4792 7.99594 16.4792 7.98107C16.4792 7.9662 16.4629 7.94278 16.4429 7.92902C16.423 7.91526 16.4067 7.89184 16.4067 7.87697C16.4067 7.8621 16.3904 7.83868 16.3705 7.82492C16.3506 7.81116 16.3343 7.78914 16.3343 7.77599C16.3343 7.76286 16.3098 7.73021 16.28 7.70347C16.2501 7.67673 16.2256 7.6455 16.2256 7.63407C16.2256 7.62264 16.2012 7.59141 16.1713 7.56467C16.1414 7.53793 16.117 7.50703 16.117 7.49601C16.117 7.48501 16.0681 7.43001 16.0083 7.37382C15.9486 7.31762 15.8997 7.26335 15.8997 7.2532C15.8997 7.22901 15.2719 6.62776 15.2467 6.62776C15.236 6.62776 15.1876 6.58872 15.1391 6.54101C15.0906 6.4933 15.0416 6.45426 15.0302 6.45426C15.0188 6.45426 14.9782 6.42303 14.9399 6.38486C14.9016 6.34669 14.8592 6.31546 14.8457 6.31546C14.8322 6.31546 14.8094 6.29984 14.795 6.28076C14.7807 6.26167 14.7562 6.24606 14.7407 6.24606C14.7252 6.24606 14.7007 6.23044 14.6864 6.21136C14.672 6.19227 14.6476 6.17666 14.6321 6.17666C14.6165 6.17666 14.5921 6.16104 14.5777 6.14196C14.5634 6.12287 14.5371 6.10726 14.5194 6.10726C14.5017 6.10726 14.4872 6.09945 14.4872 6.08991C14.4872 6.08036 14.4727 6.07256 14.455 6.07256C14.4372 6.07256 14.411 6.05694 14.3966 6.03785C14.3823 6.01877 14.356 6.00315 14.3383 6.00315C14.3206 6.00315 14.3061 5.99535 14.3061 5.9858C14.3061 5.97626 14.2898 5.96845 14.2699 5.96845C14.25 5.96845 14.2337 5.96065 14.2337 5.9511C14.2337 5.94156 14.2174 5.93375 14.1974 5.93375C14.1775 5.93375 14.1612 5.92595 14.1612 5.9164C14.1612 5.90686 14.1449 5.89905 14.125 5.89905C14.1051 5.89905 14.0888 5.89125 14.0888 5.8817C14.0888 5.87216 14.0725 5.86435 14.0526 5.86435C14.0326 5.86435 14.0163 5.85655 14.0163 5.847C14.0163 5.83746 14 5.82965 13.9801 5.82965C13.9602 5.82965 13.9439 5.82185 13.9439 5.8123C13.9439 5.80276 13.9276 5.79495 13.9077 5.79495C13.8878 5.79495 13.8715 5.78715 13.8715 5.7776C13.8715 5.76806 13.847 5.76025 13.8171 5.76025C13.7873 5.76025 13.7628 5.75244 13.7628 5.7429C13.7628 5.73336 13.7465 5.72555 13.7266 5.72555C13.7067 5.72555 13.6904 5.71774 13.6904 5.7082C13.6904 5.69866 13.6659 5.69085 13.6361 5.69085C13.6062 5.69085 13.5817 5.68304 13.5817 5.6735C13.5817 5.66396 13.5654 5.65615 13.5455 5.65615C13.5256 5.65615 13.5093 5.64834 13.5093 5.6388C13.5093 5.62926 13.4848 5.62145 13.455 5.62145C13.4251 5.62145 13.4006 5.61364 13.4006 5.6041C13.4006 5.59456 13.368 5.58675 13.3282 5.58675C13.2884 5.58675 13.2558 5.57894 13.2558 5.5694C13.2558 5.55986 13.2232 5.55205 13.1833 5.55205C13.1435 5.55205 13.1109 5.54424 13.1109 5.5347C13.1109 5.52516 13.0864 5.51735 13.0566 5.51735C13.0267 5.51735 13.0022 5.50954 13.0022 5.5C13.0022 5.49046 12.9615 5.48265 12.9117 5.48265C12.8619 5.48265 12.8212 5.47484 12.8212 5.4653C12.8212 5.45576 12.7804 5.44795 12.7306 5.44795C12.6808 5.44795 12.6401 5.44014 12.6401 5.4306C12.6401 5.42095 12.5918 5.41325 12.5314 5.41325C12.4711 5.41325 12.4228 5.40555 12.4228 5.3959C12.4228 5.38561 12.3563 5.37855 12.2598 5.37855C12.1632 5.37855 12.0968 5.37149 12.0968 5.3612C12.0968 5.34996 11.8674 5.34385 11.4449 5.34385C11.0223 5.34385 10.7929 5.34996 10.7929 5.3612ZM11.8433 7.30442C11.8433 7.31432 11.8976 7.32177 11.97 7.32177C12.0425 7.32177 12.0968 7.32921 12.0968 7.33912C12.0968 7.34876 12.1451 7.35647 12.2054 7.35647C12.2658 7.35647 12.3141 7.36417 12.3141 7.37382C12.3141 7.38336 12.3467 7.39117 12.3865 7.39117C12.4264 7.39117 12.459 7.39897 12.459 7.40852C12.459 7.41806 12.4916 7.42587 12.5314 7.42587C12.5712 7.42587 12.6038 7.43368 12.6038 7.44322C12.6038 7.45276 12.6283 7.46057 12.6582 7.46057C12.6881 7.46057 12.7125 7.46838 12.7125 7.47792C12.7125 7.48746 12.7369 7.49527 12.7668 7.49527C12.7967 7.49527 12.8212 7.50308 12.8212 7.51262C12.8212 7.52216 12.8375 7.52997 12.8574 7.52997C12.8773 7.52997 12.8936 7.53778 12.8936 7.54732C12.8936 7.55686 12.918 7.56467 12.9479 7.56467C12.9778 7.56467 13.0022 7.57248 13.0022 7.58202C13.0022 7.59156 13.0185 7.59937 13.0385 7.59937C13.0584 7.59937 13.0747 7.60718 13.0747 7.61672C13.0747 7.62626 13.091 7.63407 13.1109 7.63407C13.1308 7.63407 13.1471 7.64188 13.1471 7.65142C13.1471 7.66096 13.1634 7.66877 13.1833 7.66877C13.2033 7.66877 13.2196 7.67658 13.2196 7.68612C13.2196 7.69566 13.2358 7.70347 13.2558 7.70347C13.2757 7.70347 13.292 7.71128 13.292 7.72082C13.292 7.73036 13.3065 7.73817 13.3242 7.73817C13.3419 7.73817 13.3682 7.75379 13.3825 7.77287C13.3969 7.79196 13.4231 7.80757 13.4409 7.80757C13.4586 7.80757 13.4731 7.81538 13.4731 7.82492C13.4731 7.83446 13.4876 7.84227 13.5053 7.84227C13.523 7.84227 13.5493 7.85789 13.5636 7.87697C13.578 7.89606 13.601 7.91167 13.6147 7.91167C13.6284 7.91167 13.6625 7.93509 13.6904 7.96372C13.7183 7.99235 13.7509 8.01577 13.7628 8.01577C13.7748 8.01577 13.8073 8.0392 13.8353 8.06782C13.8632 8.09645 13.895 8.11987 13.9061 8.11987C13.932 8.11987 14.4147 8.58201 14.4147 8.60687C14.4147 8.61725 14.4473 8.65575 14.4872 8.69243C14.527 8.72911 14.5596 8.76971 14.5596 8.78267C14.5596 8.79563 14.5759 8.81747 14.5958 8.83123C14.6158 8.84499 14.6321 8.86841 14.6321 8.88328C14.6321 8.89815 14.6483 8.92157 14.6683 8.93533C14.6882 8.94909 14.7045 8.97251 14.7045 8.98738C14.7045 9.00225 14.7208 9.02567 14.7407 9.03943C14.7606 9.05319 14.7769 9.07833 14.7769 9.09532C14.7769 9.11229 14.7851 9.12618 14.795 9.12618C14.805 9.12618 14.8131 9.1418 14.8131 9.16088C14.8131 9.17997 14.8213 9.19558 14.8312 9.19558C14.8412 9.19558 14.8494 9.2112 14.8494 9.23028C14.8494 9.24937 14.8575 9.26498 14.8675 9.26498C14.8774 9.26498 14.8856 9.2806 14.8856 9.29968C14.8856 9.31877 14.8937 9.33438 14.9037 9.33438C14.9136 9.33438 14.9218 9.35 14.9218 9.36909C14.9218 9.38817 14.9299 9.40379 14.9399 9.40379C14.9499 9.40379 14.958 9.4194 14.958 9.43849C14.958 9.45757 14.9662 9.47319 14.9761 9.47319C14.9861 9.47319 14.9942 9.4888 14.9942 9.50789C14.9942 9.52697 15.0024 9.54259 15.0123 9.54259C15.0223 9.54259 15.0304 9.56601 15.0304 9.59464C15.0304 9.62327 15.0386 9.64669 15.0486 9.64669C15.0585 9.64669 15.0667 9.6623 15.0667 9.68139C15.0667 9.70047 15.0748 9.71609 15.0848 9.71609C15.0947 9.71609 15.1029 9.73951 15.1029 9.76814C15.1029 9.79677 15.111 9.82019 15.121 9.82019C15.131 9.82019 15.1391 9.85142 15.1391 9.88959C15.1391 9.92776 15.1473 9.95899 15.1572 9.95899C15.1672 9.95899 15.1753 9.99022 15.1753 10.0284C15.1753 10.0666 15.1835 10.0978 15.1934 10.0978C15.2034 10.0978 15.2115 10.129 15.2115 10.1672C15.2115 10.2054 15.2197 10.2366 15.2296 10.2366C15.2397 10.2366 15.2478 10.2829 15.2478 10.3407C15.2478 10.3985 15.2558 10.4448 15.2659 10.4448C15.2767 10.4448 15.284 10.5142 15.284 10.6183C15.284 10.7224 15.2912 10.7918 15.3021 10.7918C15.3131 10.7918 15.3202 10.8728 15.3202 11C15.3202 11.1272 15.3131 11.2082 15.3021 11.2082C15.2913 11.2082 15.284 11.2718 15.284 11.3644C15.284 11.4569 15.2766 11.5205 15.2659 11.5205C15.2555 11.5205 15.2478 11.5726 15.2478 11.642C15.2478 11.7114 15.24 11.7634 15.2296 11.7634C15.2197 11.7634 15.2115 11.7946 15.2115 11.8328C15.2115 11.871 15.2034 11.9022 15.1934 11.9022C15.1835 11.9022 15.1753 11.9256 15.1753 11.9543C15.1753 11.9829 15.1672 12.0063 15.1572 12.0063C15.1473 12.0063 15.1391 12.0297 15.1391 12.0584C15.1391 12.087 15.131 12.1104 15.121 12.1104C15.111 12.1104 15.1029 12.1416 15.1029 12.1798C15.1029 12.218 15.0947 12.2492 15.0848 12.2492C15.0748 12.2492 15.0667 12.2648 15.0667 12.2839C15.0667 12.303 15.0585 12.3186 15.0486 12.3186C15.0386 12.3186 15.0304 12.3342 15.0304 12.3533C15.0304 12.3724 15.0223 12.388 15.0123 12.388C15.0024 12.388 14.9942 12.4114 14.9942 12.4401C14.9942 12.4687 14.9861 12.4921 14.9761 12.4921C14.9662 12.4921 14.958 12.506 14.958 12.523C14.958 12.54 14.9417 12.5651 14.9218 12.5789C14.9019 12.5926 14.8856 12.6178 14.8856 12.6347C14.8856 12.6517 14.8774 12.6656 14.8675 12.6656C14.8575 12.6656 14.8494 12.6812 14.8494 12.7003C14.8494 12.7194 14.8412 12.735 14.8312 12.735C14.8213 12.735 14.8131 12.7506 14.8131 12.7697C14.8131 12.7888 14.805 12.8044 14.795 12.8044C14.7851 12.8044 14.7769 12.8183 14.7769 12.8353C14.7769 12.8523 14.7606 12.8774 14.7407 12.8912C14.7208 12.9049 14.7045 12.9283 14.7045 12.9432C14.7045 12.9581 14.6882 12.9815 14.6683 12.9953C14.6483 13.009 14.6321 13.031 14.6321 13.0442C14.6321 13.0573 14.6076 13.09 14.5777 13.1167C14.5478 13.1435 14.5234 13.1744 14.5234 13.1854C14.5234 13.1964 14.4745 13.2514 14.4147 13.3076C14.355 13.3638 14.3061 13.4181 14.3061 13.4283C14.3061 13.4528 14.0408 13.7066 14.0152 13.7066C14.0043 13.7066 13.9641 13.7379 13.9258 13.776C13.8875 13.8142 13.8468 13.8454 13.8353 13.8454C13.8237 13.8454 13.783 13.8767 13.7447 13.9148C13.7064 13.953 13.6641 13.9842 13.6505 13.9842C13.637 13.9842 13.6142 13.9998 13.5998 14.0189C13.5855 14.038 13.561 14.0536 13.5455 14.0536C13.53 14.0536 13.5055 14.0692 13.4912 14.0883C13.4768 14.1074 13.4506 14.123 13.4329 14.123C13.4151 14.123 13.4006 14.1308 13.4006 14.1404C13.4006 14.1499 13.3861 14.1577 13.3684 14.1577C13.3507 14.1577 13.3245 14.1733 13.3101 14.1924C13.2957 14.2115 13.2695 14.2271 13.2518 14.2271C13.2341 14.2271 13.2196 14.2349 13.2196 14.2445C13.2196 14.254 13.1951 14.2618 13.1652 14.2618C13.1353 14.2618 13.1109 14.2696 13.1109 14.2792C13.1109 14.2887 13.0946 14.2965 13.0747 14.2965C13.0548 14.2965 13.0385 14.3043 13.0385 14.3139C13.0385 14.3234 13.0222 14.3312 13.0022 14.3312C12.9823 14.3312 12.966 14.339 12.966 14.3486C12.966 14.3581 12.9497 14.3659 12.9298 14.3659C12.9099 14.3659 12.8936 14.3737 12.8936 14.3833C12.8936 14.3928 12.8773 14.4006 12.8574 14.4006C12.8375 14.4006 12.8212 14.4084 12.8212 14.418C12.8212 14.4275 12.7886 14.4353 12.7487 14.4353C12.7089 14.4353 12.6763 14.4431 12.6763 14.4527C12.6763 14.4622 12.6518 14.47 12.622 14.47C12.5921 14.47 12.5676 14.4778 12.5676 14.4874C12.5676 14.4969 12.5432 14.5047 12.5133 14.5047C12.4834 14.5047 12.459 14.5125 12.459 14.5221C12.459 14.5316 12.4182 14.5394 12.3684 14.5394C12.3186 14.5394 12.2779 14.5472 12.2779 14.5568C12.2779 14.5664 12.2296 14.5741 12.1692 14.5741C12.1089 14.5741 12.0606 14.5818 12.0606 14.5915C12.0606 14.6016 12.0002 14.6088 11.9157 14.6088C11.8312 14.6088 11.7708 14.6161 11.7708 14.6262C11.7708 14.637 11.6622 14.6435 11.4811 14.6435C11.3 14.6435 11.1913 14.637 11.1913 14.6262C11.1913 14.6157 11.1129 14.6088 10.9921 14.6088C10.8714 14.6088 10.7929 14.602 10.7929 14.5915C10.7929 14.5819 10.7522 14.5741 10.7024 14.5741C10.6526 14.5741 10.6119 14.5663 10.6119 14.5568C10.6119 14.5472 10.5793 14.5394 10.5394 14.5394C10.4996 14.5394 10.467 14.5316 10.467 14.5221C10.467 14.5125 10.4344 14.5047 10.3946 14.5047C10.3547 14.5047 10.3221 14.4969 10.3221 14.4874C10.3221 14.4778 10.2977 14.47 10.2678 14.47C10.2379 14.47 10.2135 14.4622 10.2135 14.4527C10.2135 14.4431 10.189 14.4353 10.1591 14.4353C10.1293 14.4353 10.1048 14.4275 10.1048 14.418C10.1048 14.4084 10.0804 14.4006 10.0505 14.4006C10.0206 14.4006 9.99615 14.3928 9.99615 14.3833C9.99615 14.3737 9.97986 14.3659 9.95994 14.3659C9.94002 14.3659 9.92372 14.3581 9.92372 14.3486C9.92372 14.339 9.90742 14.3312 9.8875 14.3312C9.86758 14.3312 9.85128 14.3234 9.85128 14.3139C9.85128 14.3043 9.83498 14.2965 9.81506 14.2965C9.79514 14.2965 9.77885 14.2887 9.77885 14.2792C9.77885 14.2696 9.76255 14.2618 9.74263 14.2618C9.72271 14.2618 9.70641 14.254 9.70641 14.2445C9.70641 14.2349 9.69011 14.2271 9.67019 14.2271C9.65027 14.2271 9.63397 14.2193 9.63397 14.2098C9.63397 14.2002 9.61768 14.1924 9.59776 14.1924C9.57784 14.1924 9.56154 14.1846 9.56154 14.1751C9.56154 14.1655 9.54524 14.1577 9.52532 14.1577C9.5054 14.1577 9.4891 14.1499 9.4891 14.1404C9.4891 14.1308 9.4746 14.123 9.45689 14.123C9.43916 14.123 9.41292 14.1074 9.39856 14.0883C9.3842 14.0692 9.36122 14.0536 9.34749 14.0536C9.33378 14.0536 9.2997 14.0302 9.27179 14.0016C9.24389 13.9729 9.20981 13.9495 9.1961 13.9495C9.18237 13.9495 9.15939 13.9339 9.14503 13.9148C9.13067 13.8957 9.10798 13.8801 9.09458 13.8801C9.0812 13.8801 9.03056 13.8411 8.98205 13.7934C8.93354 13.7457 8.88481 13.7066 8.87374 13.7066C8.84375 13.7066 8.76474 13.6254 8.76474 13.5946C8.76474 13.5799 8.75237 13.5678 8.73724 13.5678C8.70612 13.5678 8.475 13.353 8.475 13.3241C8.475 13.3138 8.43425 13.2673 8.38445 13.2208C8.33465 13.1743 8.29391 13.1272 8.29391 13.1161C8.29391 13.105 8.26946 13.0741 8.23958 13.0473C8.2097 13.0206 8.18526 12.9862 8.18526 12.971C8.18526 12.9557 8.17711 12.9432 8.16715 12.9432C8.15719 12.9432 8.14904 12.9293 8.14904 12.9124C8.14904 12.8954 8.13274 12.8702 8.11282 12.8565C8.0929 12.8427 8.0766 12.8193 8.0766 12.8044C8.0766 12.7895 8.0603 12.7661 8.04038 12.7524C8.02046 12.7386 8.00417 12.7135 8.00417 12.6965C8.00417 12.6795 7.99602 12.6656 7.98606 12.6656C7.9761 12.6656 7.96795 12.65 7.96795 12.6309C7.96795 12.6118 7.9598 12.5962 7.94984 12.5962C7.93988 12.5962 7.93173 12.5728 7.93173 12.5442C7.93173 12.5155 7.92358 12.4921 7.91362 12.4921C7.90366 12.4921 7.89551 12.4765 7.89551 12.4574C7.89551 12.4383 7.88736 12.4227 7.8774 12.4227C7.86744 12.4227 7.85929 12.3993 7.85929 12.3707C7.85929 12.342 7.85115 12.3186 7.84119 12.3186C7.83123 12.3186 7.82308 12.303 7.82308 12.2839C7.82308 12.2648 7.81493 12.2492 7.80497 12.2492C7.79501 12.2492 7.78686 12.2258 7.78686 12.1972C7.78686 12.1685 7.77871 12.1451 7.76875 12.1451C7.75879 12.1451 7.75064 12.1217 7.75064 12.0931C7.75064 12.0644 7.74249 12.041 7.73253 12.041C7.72257 12.041 7.71442 12.0098 7.71442 11.9716C7.71442 11.9334 7.70627 11.9022 7.69631 11.9022C7.68635 11.9022 7.6782 11.871 7.6782 11.8328C7.6782 11.7946 7.67006 11.7634 7.6601 11.7634C7.65003 11.7634 7.64199 11.7171 7.64199 11.6593C7.64199 11.6015 7.63395 11.5552 7.62388 11.5552C7.61261 11.5552 7.60577 11.4569 7.60577 11.295C7.60577 11.133 7.59892 11.0347 7.58766 11.0347C7.57759 11.0347 7.56955 10.9884 7.56955 10.9306C7.56955 10.8728 7.57759 10.8265 7.58766 10.8265C7.59863 10.8265 7.60577 10.7513 7.60577 10.6356C7.60577 10.52 7.6129 10.4448 7.62388 10.4448C7.63395 10.4448 7.64199 10.3985 7.64199 10.3407C7.64199 10.2829 7.65003 10.2366 7.6601 10.2366C7.67006 10.2366 7.6782 10.1976 7.6782 10.1498C7.6782 10.1021 7.68635 10.0631 7.69631 10.0631C7.70627 10.0631 7.71442 10.0397 7.71442 10.011C7.71442 9.98241 7.72257 9.95899 7.73253 9.95899C7.74249 9.95899 7.75064 9.92776 7.75064 9.88959C7.75064 9.85142 7.75879 9.82019 7.76875 9.82019C7.77871 9.82019 7.78686 9.79677 7.78686 9.76814C7.78686 9.73951 7.79501 9.71609 7.80497 9.71609C7.81493 9.71609 7.82308 9.69267 7.82308 9.66404C7.82308 9.63541 7.83123 9.61199 7.84119 9.61199C7.85115 9.61199 7.85929 9.59637 7.85929 9.57729C7.85929 9.5582 7.86744 9.54259 7.8774 9.54259C7.88736 9.54259 7.89551 9.52697 7.89551 9.50789C7.89551 9.4888 7.90366 9.47319 7.91362 9.47319C7.92358 9.47319 7.93173 9.45757 7.93173 9.43849C7.93173 9.4194 7.93988 9.40379 7.94984 9.40379C7.9598 9.40379 7.96795 9.38817 7.96795 9.36909C7.96795 9.35 7.9761 9.33438 7.98606 9.33438C7.99602 9.33438 8.00417 9.31268 8.00417 9.28617C8.00417 9.25785 8.01912 9.22763 8.04038 9.21293C8.0603 9.19917 8.0766 9.17403 8.0766 9.15705C8.0766 9.14008 8.08475 9.12618 8.09471 9.12618C8.10467 9.12618 8.11282 9.11229 8.11282 9.09532C8.11282 9.07833 8.12912 9.05319 8.14904 9.03943C8.16896 9.02567 8.18526 9.00225 8.18526 8.98738C8.18526 8.97251 8.20155 8.94909 8.22147 8.93533C8.24139 8.92157 8.25769 8.89956 8.25769 8.8864C8.25769 8.87327 8.28214 8.84062 8.31202 8.81388C8.3419 8.78714 8.36635 8.75624 8.36635 8.74523C8.36635 8.73423 8.41524 8.67923 8.475 8.62303C8.53476 8.56683 8.58365 8.51249 8.58365 8.50225C8.58365 8.47802 8.8488 8.22398 8.8741 8.22398C8.88479 8.22398 8.9415 8.17713 9.00016 8.11987C9.05882 8.06262 9.11622 8.01577 9.1277 8.01577C9.1392 8.01577 9.17145 7.99235 9.19936 7.96372C9.22726 7.93509 9.26134 7.91167 9.27505 7.91167C9.28878 7.91167 9.31176 7.89606 9.32612 7.87697C9.34048 7.85789 9.36672 7.84227 9.38445 7.84227C9.40216 7.84227 9.41667 7.83446 9.41667 7.82492C9.41667 7.81538 9.43117 7.80757 9.44888 7.80757C9.46661 7.80757 9.49285 7.79196 9.50721 7.77287C9.52157 7.75379 9.54781 7.73817 9.56554 7.73817C9.58325 7.73817 9.59776 7.73036 9.59776 7.72082C9.59776 7.71128 9.61405 7.70347 9.63397 7.70347C9.65389 7.70347 9.67019 7.69566 9.67019 7.68612C9.67019 7.67658 9.68649 7.66877 9.70641 7.66877C9.72633 7.66877 9.74263 7.66096 9.74263 7.65142C9.74263 7.64188 9.75893 7.63407 9.77885 7.63407C9.79877 7.63407 9.81506 7.62626 9.81506 7.61672C9.81506 7.60718 9.83136 7.59937 9.85128 7.59937C9.8712 7.59937 9.8875 7.59156 9.8875 7.58202C9.8875 7.57248 9.91195 7.56467 9.94183 7.56467C9.97171 7.56467 9.99615 7.55686 9.99615 7.54732C9.99615 7.53778 10.0125 7.52997 10.0324 7.52997C10.0523 7.52997 10.0686 7.52216 10.0686 7.51262C10.0686 7.50308 10.093 7.49527 10.1229 7.49527C10.1528 7.49527 10.1772 7.48746 10.1772 7.47792C10.1772 7.46838 10.2017 7.46057 10.2316 7.46057C10.2614 7.46057 10.2859 7.45276 10.2859 7.44322C10.2859 7.43368 10.3185 7.42587 10.3583 7.42587C10.3982 7.42587 10.4308 7.41806 10.4308 7.40852C10.4308 7.39897 10.4715 7.39117 10.5213 7.39117C10.5711 7.39117 10.6119 7.38336 10.6119 7.37382C10.6119 7.36427 10.6445 7.35647 10.6843 7.35647C10.7241 7.35647 10.7567 7.34866 10.7567 7.33912C10.7567 7.32883 10.8231 7.32177 10.9197 7.32177C11.0163 7.32177 11.0827 7.3147 11.0827 7.30442C11.0827 7.2934 11.2215 7.28707 11.463 7.28707C11.7044 7.28707 11.8433 7.2934 11.8433 7.30442Z" fill="white"/>
</svg>
