<svg width="12" height="12" viewBox="0 0 12 12" fill="none" xmlns="http://www.w3.org/2000/svg">
<path d="M11.2739 9.97795L10.5243 3.27659C10.4859 2.93344 10.2139 2.67484 9.89181 2.67484H8.63061C8.50109 1.17895 7.24514 0 5.71841 0C4.19167 0 2.9348 1.17895 2.80559 2.67484H1.3549C1.1413 2.67484 0.961081 2.84625 0.935424 3.07368L0.15521 9.97563C0.0970962 10.4885 0.247328 11.0047 0.566646 11.3913C0.885965 11.7779 1.34562 12 1.82754 12H9.60124C10.0825 12 10.5419 11.7785 10.8615 11.3923C11.1808 11.0061 11.3311 10.4905 11.2739 9.97795ZM5.71841 0.742644C6.83649 0.742644 7.75859 1.5884 7.88471 2.67484H3.55149C3.67792 1.5884 4.60033 0.742644 5.71841 0.742644ZM10.2832 10.8423C10.1076 11.0545 9.86553 11.1712 9.60093 11.1712H1.82754C1.56664 11.1712 1.31811 11.0511 1.14501 10.8416C0.9719 10.6321 0.890911 10.3529 0.922132 10.0754L1.66494 3.50369H2.79631V4.40812C2.79631 4.62528 2.96046 4.80133 3.16293 4.80133C3.3654 4.80133 3.52954 4.62528 3.52954 4.40812V3.50369H7.90233V4.40812C7.90233 4.62528 8.06647 4.80133 8.26894 4.80133C8.47141 4.80133 8.63555 4.62528 8.63555 4.40812V3.50369H9.77063L10.5057 10.0768C10.5379 10.3582 10.4587 10.6301 10.2832 10.8423Z" fill="white"/>
</svg>
