<svg width="19" height="21" viewBox="0 0 19 21" fill="none" xmlns="http://www.w3.org/2000/svg">
<path d="M18.9329 17.1859L17.6606 6.12102C17.5955 5.55445 17.1338 5.12747 16.5871 5.12747H14.4464C14.2266 2.65754 12.0948 0.710938 9.50346 0.710938C6.91208 0.710938 4.77875 2.65754 4.55943 5.12747H2.09713C1.73458 5.12747 1.42869 5.41048 1.38514 5.78601L0.0608587 17.1821C-0.0377805 18.0289 0.217212 18.8812 0.759203 19.5195C1.30119 20.1578 2.08139 20.5246 2.89936 20.5246H16.0939C16.9108 20.5246 17.6905 20.1589 18.233 19.5212C18.775 18.8834 19.03 18.0322 18.9329 17.1859ZM9.50346 1.93714C11.4012 1.93714 12.9663 3.3336 13.1804 5.12747H5.82548C6.04007 3.3336 7.6057 1.93714 9.50346 1.93714ZM17.2514 18.613C16.9533 18.9633 16.5425 19.156 16.0934 19.156H2.89936C2.45653 19.156 2.03469 18.9579 1.74087 18.6119C1.44705 18.2659 1.30959 17.805 1.36258 17.3468L2.62338 6.496H4.54369V7.98935C4.54369 8.3479 4.8223 8.63858 5.16596 8.63858C5.50962 8.63858 5.78823 8.3479 5.78823 7.98935V6.496H13.2103V7.98935C13.2103 8.3479 13.4889 8.63858 13.8326 8.63858C14.1762 8.63858 14.4548 8.3479 14.4548 7.98935V6.496H16.3814L17.6291 17.349C17.6837 17.8138 17.5494 18.2627 17.2514 18.613Z" fill="white"/>
</svg>
