<svg width="12" height="21" viewBox="0 0 12 21" fill="none" xmlns="http://www.w3.org/2000/svg">
<path d="M11.2959 0.580576L8.60672 0.576447C5.58515 0.576447 3.63192 2.49236 3.63192 5.4612V7.71363H0.925461C0.692368 7.71157 0.502441 7.89325 0.502441 8.11622V11.3782C0.502441 11.6012 0.692368 11.7829 0.925461 11.7829H3.62976V20.0163C3.62976 20.2393 3.81969 20.421 4.05278 20.421H7.58154C7.81463 20.421 8.00456 20.2393 8.00456 20.0163V11.7849H11.1664C11.3995 11.7849 11.5894 11.6033 11.5894 11.3803L11.5916 8.11829C11.5916 8.01093 11.5463 7.9077 11.4686 7.83131C11.3909 7.75492 11.2808 7.71157 11.1686 7.71157H8.00456V5.80185C8.00456 4.88518 8.23334 4.41859 9.48297 4.41859H11.2959C11.529 4.41859 11.7189 4.23691 11.7189 4.01394V0.985229C11.7189 0.762257 11.529 0.580576 11.2959 0.580576Z" fill="white"/>
</svg>
